<?xml version="1.0" encoding="UTF-8"?>
<svg id="Capa_1" data-name="Capa 1" xmlns="http://www.w3.org/2000/svg" viewBox="0 0 254.74 210.54">
  <defs>
    <style>
      .cls-1, .cls-2 {
        fill: #b47100;
      }

      .cls-3 {
        fill: #b40023;
      }

      .cls-4, .cls-5, .cls-6 {
        fill: #f8bb53;
      }

      .cls-7 {
        opacity: .6;
      }

      .cls-7, .cls-8, .cls-5 {
        mix-blend-mode: multiply;
      }

      .cls-2, .cls-9, .cls-8, .cls-5, .cls-6 {
        isolation: isolate;
      }

      .cls-8 {
        fill: #ee3156;
        opacity: .63;
      }

      .cls-5 {
        opacity: .3;
      }

      .cls-6 {
        mix-blend-mode: overlay;
      }
    </style>
  </defs>
  <g id="g23" class="cls-9">
    <g id="Capa_2" data-name="Capa 2">
      <g id="Layer_3" data-name="Layer 3">
        <g id="g22">
          <path id="path1" class="cls-4" d="M227.93,79.53c3.23-1.78,7.1-2.51,10.78-1.86,1.72.3,3.68.8,5.06,1.92.77.62,1.8,2.21.76,3.07-1.09.92-3.31-.38-4.29-.93-1.45-.81-2.85-1.84-3.65-3.3-1.64-3.05.25-6.67,2.85-8.53,3.85-2.75,8.85-2.92,13.43-3.11,2.49-.1,2.51-3.9,0-3.79-5.56.22-11.44.61-16.02,4.08-4.07,3.08-6.25,8.79-3.55,13.42,1.22,2.09,3.27,3.64,5.42,4.77,2.14,1.12,4.99,2.08,7.41.88,2.43-1.19,3.13-3.98,2.37-6.31s-2.96-3.9-5.24-4.82c-5.57-2.24-12.1-1.64-17.31,1.24-2.18,1.2-.22,4.49,1.96,3.28h.02Z"/>
          <path id="path2" class="cls-4" d="M200.89,96.99c1.04,53.99-44.04,100.53-100.18,100.53S-.42,150.28.54,96.99C1.45,46.41,35.51,4.16,95.2.27c64.87-4.22,104.63,41.44,105.69,96.71h0Z"/>
          <ellipse id="ellipse2" class="cls-4" cx="134.23" cy="107.67" rx="99.32" ry="87.57"/>
          <path id="path3" class="cls-4" d="M132.55,16.47s1.13-8.07,14.09-9.34c12.96-1.26,27-5.2,22.67-3.79-.48.16,2.11,5.69,2.11,14.56s-12.79,11.71-12.79,11.71c0,0-17-.95-26.07-13.13Z"/>
          <g id="g5" class="cls-7">
            <path id="path4" class="cls-1" d="M158.61,29.6s12.79-2.85,12.79-11.71c0-7.87-2.04-13.11-2.15-14.3-3.03,2.63-5.51,6.58-8.37,13.03-2.69,6.07-11.06,8.25-16.75,9.04,7.44,3.53,14.49,3.93,14.49,3.93h0Z"/>
            <path id="path5" class="cls-3" d="M169.9,3.06c-.05.04-.11.09-.16.13.41-.14.46-.18.16-.13Z"/>
          </g>
          <path id="path6" class="cls-5" d="M208.72,157.16c-16.85,21.94-67.78,30.17-69.59,30.96l1.46,6.94c24.59-1.37,46.75-10.63,63.26-24.93,3.26-7.3,4.87-12.96,4.87-12.96h0Z"/>
          <path id="path7" class="cls-4" d="M223.97,144.23s5.76,11.14,5.06,27.12c-.7,15.97-10.82,8.28-14,13.22-3.17,4.94-13.88.58-15.76-13.67-1.88-14.25-1.29-36.77,24.7-26.66h0Z"/>
          <path id="path8" d="M229.03,171.35c.04-.77.05-1.51.05-2.26-18.35.11-24.39,7.09-26.37,11.68,3.99,6.11,10.06,7.31,12.32,3.8,3.17-4.94,13.29,2.76,14-13.22h0Z"/>
          <path id="rect8" d="M64.21,29.4h0c1.49,2.21.86,5.18-1.4,6.64l-12.26,7.88c-2.26,1.45-5.31.84-6.79-1.37h0c-1.49-2.21-.86-5.18,1.4-6.64l12.26-7.88c2.26-1.45,5.31-.84,6.79,1.37Z"/>
          <path id="rect9" d="M63.06,45.55h1.11c5.7,0,10.31,4.51,10.31,10.07v16.69c0,5.56-4.62,10.07-10.31,10.07h-1.11c-5.7,0-10.31-4.51-10.31-10.07v-16.69c0-5.56,4.62-10.07,10.31-10.07Z"/>
          <path id="rect10" d="M110.02,45.55h1.11c5.7,0,10.31,4.51,10.31,10.07v16.69c0,5.56-4.62,10.07-10.31,10.07h-1.11c-5.7,0-10.31-4.51-10.31-10.07v-16.69c0-5.56,4.62-10.07,10.31-10.07Z"/>
          <path id="rect11" d="M130.35,41.43h0c-1.49,2.21-4.53,2.82-6.79,1.37l-12.26-7.88c-2.26-1.45-2.89-4.43-1.4-6.64h0c1.49-2.21,4.53-2.82,6.79-1.37l12.26,7.88c2.26,1.45,2.89,4.43,1.4,6.64Z"/>
          <path id="path11" d="M137.53,137.19s-41.5-8.7-66.95,11.81c0,0,4.61-13.51,24.33-17.4,19.72-3.88,40.07,4.04,42.62,5.59h0Z"/>
          <g id="g13">
            <path id="rect12" class="cls-8" d="M67.27,89.97h38.75c10.34,0,18.72,8.19,18.72,18.28h0c0,10.1-8.38,18.28-18.72,18.28h-38.75c-10.34,0-18.72-8.19-18.72-18.28h0c0-10.1,8.38-18.28,18.72-18.28Z"/>
            <path id="rect13" class="cls-2" d="M67.27,89.97h38.75c10.34,0,18.72,8.19,18.72,18.28h0c0,10.1-8.38,18.28-18.72,18.28h-38.75c-10.34,0-18.72-8.19-18.72-18.28h0c0-10.1,8.38-18.28,18.72-18.28Z"/>
          </g>
          <ellipse id="circle13" cx="68.26" cy="108.24" rx="9.91" ry="9.68"/>
          <ellipse id="circle14" cx="99.07" cy="108.24" rx="9.91" ry="9.68"/>
          <path id="path14" class="cls-6" d="M35.31,25.41C53.29,12.15,76.3,4.49,91.16.61c-23.9,2.3-43.49,10.87-58.27,23.69l2.41,1.12h0Z"/>
          <path id="path15" class="cls-6" d="M26.21,38.41l.48-8.19C10.05,47.68,1,71.26.54,96.99.01,126.31,13.27,153.79,34.72,172.59-19.49,103.35,26.21,38.41,26.21,38.41Z"/>
          <path id="path16" class="cls-4" d="M18.72,42.89S-6.05,39.88,1.4,13.94c0,0,7.45,6.32,15.55,4.75,8.1-1.59,12.96-3.16,20.24,6.01,7.29,9.18-.65,22.62-18.45,18.19h0Z"/>
          <path id="path17" class="cls-5" d="M74.66,190.53l.7,3.72c8.08,2.13,16.58,3.27,25.37,3.27,7.33,0,14.47-.8,21.34-2.3l23.32-8.67c-31.99,7.13-70.73,3.97-70.73,3.97Z"/>
          <g id="g19">
            <path id="path18" class="cls-4" d="M108.04,188.87s1.34,14.05,3.46,17.42c.97,1.54,2.63,2.78,4.36,3.39,1.18.42,2.49.53,3.7.2,1.19-.33,2.14-1.22,3.35-1.58,2.05-.61,4.31.04,6.23.78,6.04,2.33,9.2,2.43,12.08-4.31,2.87-6.74,5.37-16.86,3.06-22.86-2.3-6-36.24-10.31-36.24,6.93h0Z"/>
            <path id="path19" d="M141.22,204.8c.57-1.35,1.13-2.82,1.63-4.37-19.01-5.98-29.34-2.61-33.25-.46.52,2.71,1.16,5.17,1.9,6.33.97,1.54,2.63,2.78,4.36,3.39,1.18.42,2.49.53,3.7.2,1.19-.33,2.14-1.22,3.35-1.58,2.05-.61,4.31.04,6.23.78,6.04,2.33,9.2,2.43,12.08-4.31h0Z"/>
          </g>
          <g id="g21">
            <path id="path20" class="cls-4" d="M45.69,179.46s-2.59,11.63,3.11,18.72,9.32,5.06,11.73,3.87c2.42-1.18,2.94,1.51,6.38,3.38,3.46,1.85,14.5,4.21,13.98-13.83-1.77-2.56-5.17-6.69-10.84-9.72-10.85-5.8-21.73-3.14-24.36-2.41h0Z"/>
            <path id="path21" d="M80.33,198.77c-18.78-5.87-29.64-7.08-34.59-7.21.54,2.32,1.48,4.64,3.06,6.61,5.7,7.08,9.32,5.06,11.73,3.87,2.42-1.18,2.94,1.51,6.38,3.38,2.9,1.56,11.16,3.47,13.41-6.66h0Z"/>
          </g>
        </g>
      </g>
    </g>
  </g>
</svg>