<?xml version="1.0" encoding="UTF-8"?>
<svg xmlns="http://www.w3.org/2000/svg" viewBox="0 0 254.74 210.54">
  <defs>
    <style>
      .cls-1 {
        opacity: .63;
      }

      .cls-1, .cls-2, .cls-3, .cls-4, .cls-5, .cls-6, .cls-7, .cls-8 {
        mix-blend-mode: multiply;
      }

      .cls-1, .cls-2, .cls-9, .cls-10, .cls-4, .cls-5 {
        fill: #b47100;
      }

      .cls-2, .cls-7 {
        opacity: .3;
      }

      .cls-3 {
        fill: none;
        stroke: #f8bb53;
        stroke-linecap: round;
        stroke-linejoin: round;
        stroke-width: 10.14px;
      }

      .cls-3, .cls-4 {
        opacity: .4;
      }

      .cls-11 {
        fill: #aa8325;
      }

      .cls-11, .cls-12, .cls-13, .cls-14, .cls-15, .cls-16, .cls-17 {
        fill-rule: evenodd;
      }

      .cls-18 {
        fill: #e3ac2c;
      }

      .cls-19, .cls-6, .cls-20 {
        fill: #f8bb53;
      }

      .cls-12 {
        fill: #9b7923;
      }

      .cls-10 {
        mix-blend-mode: hue;
      }

      .cls-21 {
        isolation: isolate;
      }

      .cls-22, .cls-15 {
        fill: #f3d35a;
      }

      .cls-23, .cls-14 {
        fill: #bb9027;
      }

      .cls-13 {
        fill: #cd9e2a;
      }

      .cls-20 {
        mix-blend-mode: overlay;
      }

      .cls-16 {
        fill: #ebb02a;
      }

      .cls-8 {
        opacity: .6;
      }

      .cls-17 {
        fill: #c29324;
      }
    </style>
  </defs>
  <g class="cls-21">
    <g id="Capa_1" data-name="Capa 1">
      <g>
        <path class="cls-16" d="M33.31,160.53v5.61h-.02c-.43,3.81-7.71,6.84-16.63,6.84s-16.65-3.22-16.65-7.2v-5.44c10.91,0,22.16.18,33.31.18Z"/>
        <path class="cls-17" d="M2.67,169.69c-.35-.23-.66-.47-.95-.72v-8.63c.32,0,.63,0,.95,0v9.35Z"/>
        <path class="cls-17" d="M5.3,171.05c-.33-.13-.65-.27-.95-.41v-10.28c.32,0,.63,0,.95,0v10.69Z"/>
        <path class="cls-17" d="M7.94,171.91c-.32-.09-.64-.18-.95-.27v-11.28c.32,0,.63,0,.95,0v11.55Z"/>
        <path class="cls-17" d="M10.55,172.48c-.32-.05-.63-.11-.93-.17,0-.12,0-.24,0-.37v-11.56h.95v11.56c0,.19,0,.37-.01.54Z"/>
        <path class="cls-17" d="M13.16,172.82c-.3-.03-.6-.06-.89-.09-.02-.25-.03-.51-.03-.79v-11.54h.95v11.54c0,.31-.01.61-.03.88Z"/>
        <path class="cls-17" d="M15.78,172.97c-.29,0-.57-.02-.86-.03-.03-.3-.04-.64-.04-1v-11.52h.95v11.52c0,.37-.02.72-.05,1.03Z"/>
        <path class="cls-17" d="M18.42,172.94c-.28.01-.57.02-.86.03-.03-.31-.05-.66-.05-1.03v-11.5h.95v11.5c0,.36-.02.7-.04,1Z"/>
        <path class="cls-17" d="M21.07,172.72c-.29.03-.59.07-.89.09-.02-.27-.03-.57-.03-.88v-11.48h.95v11.48c0,.27,0,.54-.03.78Z"/>
        <path class="cls-17" d="M23.72,172.3c-.31.06-.62.12-.93.17,0-.17-.01-.35-.01-.54v-11.46c.32,0,.63,0,.95,0v11.45c0,.12,0,.24,0,.36Z"/>
        <path class="cls-17" d="M26.35,171.63c-.31.1-.63.19-.95.27v-11.41c.32,0,.63,0,.95,0v11.13Z"/>
        <path class="cls-17" d="M28.99,170.62c-.3.14-.62.28-.95.42v-10.52c.32,0,.63,0,.95,0v10.1Z"/>
        <path class="cls-17" d="M31.62,168.94c-.28.25-.6.49-.95.73v-9.15c.32,0,.63,0,.95,0v8.42Z"/>
        <path class="cls-15" d="M16.65,167.73c9.17,0,16.65-3.23,16.65-7.2s-7.48-7.2-16.65-7.2S0,156.56,0,160.53s7.48,7.2,16.65,7.2Z"/>
        <path class="cls-14" d="M16.65,166.25c8.36,0,15.18-2.57,15.18-5.73s-6.82-5.73-15.18-5.73-15.18,2.57-15.18,5.73,6.82,5.73,15.18,5.73Z"/>
        <path class="cls-12" d="M16.65,155.58c8.04,0,14.61,2.36,15.15,5.34.02-.13.03-.26.03-.39,0-3.16-6.8-5.73-15.18-5.73s-15.18,2.56-15.18,5.73c0,.13.01.26.03.39.53-2.98,7.11-5.34,15.15-5.34Z"/>
        <path class="cls-16" d="M36.62,153.71v5.61h-.02c-.43,3.81-7.71,6.84-16.63,6.84s-16.65-3.22-16.65-7.2v-5.44c10.91,0,22.16.18,33.31.18Z"/>
        <path class="cls-17" d="M5.99,162.87c-.35-.23-.66-.47-.95-.72v-8.63c.32,0,.63,0,.95,0v9.35Z"/>
        <path class="cls-17" d="M8.62,164.23c-.33-.13-.65-.27-.95-.41v-10.28c.32,0,.63,0,.95,0v10.69Z"/>
        <path class="cls-17" d="M11.25,165.09c-.32-.09-.64-.18-.95-.27v-11.28c.32,0,.63,0,.95,0v11.55Z"/>
        <path class="cls-17" d="M13.87,165.66c-.32-.05-.63-.11-.93-.17,0-.12,0-.24,0-.37v-11.56h.95v11.56c0,.19,0,.37-.01.54Z"/>
        <path class="cls-17" d="M16.48,166c-.3-.03-.6-.06-.89-.09-.02-.25-.03-.51-.03-.79v-11.54h.95v11.54c0,.31-.01.61-.03.88Z"/>
        <path class="cls-17" d="M19.1,166.15c-.29,0-.57-.02-.86-.03-.03-.31-.04-.64-.04-1v-11.52h.95v11.52c0,.37-.02.72-.05,1.03Z"/>
        <path class="cls-17" d="M21.74,166.12c-.28.01-.57.02-.86.03-.03-.31-.05-.66-.05-1.03v-11.5h.95v11.5c0,.36-.02.7-.04,1Z"/>
        <path class="cls-17" d="M24.38,165.9c-.29.03-.59.07-.89.09-.02-.27-.03-.57-.03-.88v-11.48h.95v11.48c0,.27,0,.54-.03.78Z"/>
        <path class="cls-17" d="M27.04,165.48c-.31.06-.62.12-.93.17,0-.17-.01-.35-.01-.54v-11.46c.32,0,.63,0,.95,0v11.45c0,.12,0,.24,0,.36Z"/>
        <path class="cls-17" d="M29.67,164.81c-.31.1-.63.19-.95.27v-11.41c.32,0,.63,0,.95,0v11.13Z"/>
        <path class="cls-17" d="M32.31,163.8c-.3.14-.62.28-.95.42v-10.52c.32,0,.63,0,.95,0v10.1Z"/>
        <path class="cls-17" d="M34.94,162.12c-.28.25-.6.49-.95.73v-9.15c.32,0,.63,0,.95,0v8.42Z"/>
        <path class="cls-15" d="M19.97,160.91c9.17,0,16.65-3.23,16.65-7.2s-7.48-7.2-16.65-7.2-16.65,3.23-16.65,7.2,7.48,7.2,16.65,7.2Z"/>
        <path class="cls-13" d="M19.97,159.43c8.36,0,15.18-2.57,15.18-5.73s-6.82-5.73-15.18-5.73-15.18,2.57-15.18,5.73,6.82,5.73,15.18,5.73Z"/>
        <path class="cls-11" d="M19.97,148.76c8.04,0,14.61,2.36,15.15,5.34.02-.13.03-.26.03-.39,0-3.16-6.8-5.73-15.18-5.73s-15.18,2.56-15.18,5.73c0,.13.01.26.03.39.53-2.98,7.11-5.34,15.15-5.34Z"/>
        <path class="cls-16" d="M33.31,146.85v5.61h-.02c-.43,3.81-7.71,6.84-16.63,6.84S0,156.08,0,152.11v-5.44c10.91,0,22.16.18,33.31.18Z"/>
        <path class="cls-17" d="M2.68,156.02c-.35-.23-.66-.47-.95-.72v-8.63c.32,0,.63,0,.95,0v9.35Z"/>
        <path class="cls-17" d="M5.31,157.38c-.33-.13-.65-.27-.95-.41v-10.28c.32,0,.63,0,.95,0v10.69Z"/>
        <path class="cls-17" d="M7.94,158.24c-.32-.09-.64-.18-.95-.27v-11.28c.32,0,.63,0,.95,0v11.55Z"/>
        <path class="cls-17" d="M10.56,158.81c-.32-.05-.63-.11-.93-.17,0-.12,0-.24,0-.37v-11.56h.95v11.56c0,.19,0,.37-.01.54Z"/>
        <path class="cls-17" d="M13.17,159.15c-.3-.03-.6-.06-.89-.09-.02-.25-.03-.51-.03-.79v-11.54h.95v11.54c0,.31-.01.61-.03.88Z"/>
        <path class="cls-17" d="M15.79,159.3c-.29,0-.57-.02-.86-.03-.03-.31-.04-.64-.04-1v-11.52h.95v11.52c0,.37-.02.72-.05,1.03Z"/>
        <path class="cls-17" d="M18.42,159.27c-.28.01-.57.02-.86.03-.03-.31-.05-.66-.05-1.03v-11.5h.95v11.5c0,.36-.02.7-.04,1Z"/>
        <path class="cls-17" d="M21.07,159.05c-.29.03-.59.07-.89.09-.02-.27-.03-.57-.03-.88v-11.48h.95v11.48c0,.27,0,.54-.03.78Z"/>
        <path class="cls-17" d="M23.72,158.63c-.31.06-.62.12-.93.17,0-.17-.01-.35-.01-.54v-11.46c.32,0,.63,0,.95,0v11.45c0,.12,0,.24,0,.36Z"/>
        <path class="cls-17" d="M26.36,157.96c-.31.1-.63.19-.95.27v-11.41c.32,0,.63,0,.95,0v11.13Z"/>
        <path class="cls-17" d="M28.99,156.94c-.3.14-.62.28-.95.42v-10.52c.32,0,.63,0,.95,0v10.1Z"/>
        <path class="cls-17" d="M31.62,155.27c-.28.25-.6.49-.95.73v-9.15c.32,0,.63,0,.95,0v8.42Z"/>
        <path class="cls-15" d="M16.66,154.05c9.17,0,16.65-3.23,16.65-7.2s-7.48-7.2-16.65-7.2S0,142.89,0,146.85s7.48,7.2,16.65,7.2Z"/>
        <ellipse class="cls-18" cx="16.66" cy="146.85" rx="15.18" ry="5.73"/>
        <path class="cls-23" d="M21.94,145.17l-3.22.28c-.16-.22-.31-.38-.44-.46-.13-.09-.34-.17-.64-.26v1.36c1.76.25,2.93.52,3.52.8.78.38,1.17.86,1.17,1.44,0,.34-.14.65-.42.94-.28.28-.64.52-1.07.71-.44.19-.9.33-1.39.42-.49.09-1.09.14-1.8.15v.89h-1.27v-.89c-.85-.04-1.54-.11-2.06-.22-.53-.11-.98-.26-1.37-.45-.38-.19-.68-.4-.89-.62-.21-.22-.36-.49-.47-.8l3.5-.22c.1.31.24.53.42.67.17.14.47.26.87.37v-1.66c-1.17-.17-1.99-.33-2.48-.46-.49-.13-.91-.33-1.27-.62-.36-.28-.54-.63-.54-1.04,0-.56.36-1.02,1.08-1.4.72-.37,1.79-.58,3.21-.62v-.47h1.27v.47c1.3.04,2.28.21,2.97.5.69.29,1.13.68,1.34,1.18h0ZM16.36,144.7c-.37.07-.63.15-.77.24-.14.1-.22.21-.22.34s.07.26.22.36c.15.1.4.19.77.26v-1.2h0ZM17.63,149.32c.49-.06.85-.16,1.08-.29.23-.14.34-.29.34-.46,0-.15-.1-.28-.29-.41-.19-.12-.57-.24-1.13-.34v1.5Z"/>
        <path class="cls-22" d="M21.94,144.72l-3.22.28c-.16-.22-.31-.38-.44-.46-.13-.09-.34-.17-.64-.26v1.36c1.76.25,2.93.52,3.52.8.78.38,1.17.86,1.17,1.44,0,.34-.14.65-.42.94-.28.28-.64.52-1.07.71-.44.19-.9.33-1.39.42-.49.09-1.09.14-1.8.15v.89h-1.27v-.89c-.85-.04-1.54-.11-2.06-.22-.53-.11-.98-.26-1.37-.45-.38-.19-.68-.4-.89-.62-.21-.22-.36-.49-.47-.8l3.5-.22c.1.31.24.53.42.67.17.14.47.26.87.37v-1.66c-1.17-.17-1.99-.33-2.48-.46-.49-.13-.91-.33-1.27-.62-.36-.28-.54-.63-.54-1.04,0-.56.36-1.02,1.08-1.4.72-.37,1.79-.58,3.21-.62v-.47h1.27v.47c1.3.04,2.28.21,2.97.5.69.29,1.13.68,1.34,1.18h0ZM16.36,144.25c-.37.07-.63.15-.77.24-.14.1-.22.21-.22.34s.07.26.22.36c.15.1.4.19.77.26v-1.2h0ZM17.63,148.88c.49-.06.85-.16,1.08-.29.23-.14.34-.29.34-.46,0-.15-.1-.28-.29-.41-.19-.12-.57-.24-1.13-.34v1.5Z"/>
        <path class="cls-14" d="M16.66,141.91c8.04,0,14.61,2.36,15.15,5.34.02-.13.03-.26.03-.39,0-3.16-6.8-5.73-15.18-5.73s-15.18,2.56-15.18,5.73c0,.13.01.26.03.39.53-2.98,7.11-5.34,15.15-5.34Z"/>
      </g>
      <g>
        <path class="cls-16" d="M249.99,170.31v8.02h-.03c-.62,5.45-11.03,9.78-23.77,9.78s-23.8-4.61-23.8-10.29v-7.77c15.6,0,31.68.26,47.61.26Z"/>
        <path class="cls-17" d="M206.2,183.41c-.5-.33-.95-.68-1.36-1.03v-12.33c.45,0,.9,0,1.36,0v13.36Z"/>
        <path class="cls-17" d="M209.97,185.35c-.47-.19-.92-.39-1.36-.59v-14.7c.45,0,.9,0,1.36,0v15.28Z"/>
        <path class="cls-17" d="M213.73,186.59c-.46-.12-.92-.25-1.36-.39v-16.12c.45,0,.9,0,1.36,0v16.5Z"/>
        <path class="cls-17" d="M217.47,187.4c-.45-.08-.89-.16-1.33-.25,0-.17,0-.35,0-.53v-16.52h1.36v16.52c0,.27,0,.53-.02.77Z"/>
        <path class="cls-17" d="M221.2,187.88c-.43-.04-.85-.08-1.27-.13-.02-.35-.04-.73-.04-1.13v-16.5h1.36v16.5c0,.44-.02.87-.05,1.26Z"/>
        <path class="cls-17" d="M224.94,188.1c-.41,0-.82-.02-1.23-.04-.04-.44-.06-.92-.06-1.43v-16.47h1.36v16.47c0,.53-.02,1.03-.07,1.47Z"/>
        <path class="cls-17" d="M228.71,188.05c-.41.02-.82.03-1.23.04-.04-.45-.07-.95-.07-1.47v-16.43h1.36v16.43c0,.51-.02.99-.06,1.43Z"/>
        <path class="cls-17" d="M232.5,187.75c-.42.05-.84.09-1.27.13-.03-.39-.05-.81-.05-1.26v-16.4h1.36v16.4c0,.39-.01.77-.04,1.12Z"/>
        <path class="cls-17" d="M236.29,187.14c-.44.09-.88.17-1.33.25-.01-.25-.02-.5-.02-.77v-16.38c.45,0,.91,0,1.36,0v16.37c0,.18,0,.35,0,.52Z"/>
        <path class="cls-17" d="M240.06,186.18c-.44.14-.89.27-1.36.39v-16.3c.45,0,.91,0,1.36,0v15.9Z"/>
        <path class="cls-17" d="M243.82,184.73c-.43.21-.89.4-1.36.6v-15.04c.45,0,.91,0,1.36,0v14.44Z"/>
        <path class="cls-17" d="M247.58,182.34c-.41.36-.86.71-1.36,1.04v-13.07c.45,0,.91,0,1.36,0v12.03Z"/>
        <path class="cls-15" d="M226.19,180.6c13.11,0,23.8-4.62,23.8-10.29s-10.69-10.29-23.8-10.29-23.8,4.62-23.8,10.29,10.69,10.29,23.8,10.29Z"/>
        <path class="cls-14" d="M226.19,178.5c11.95,0,21.7-3.68,21.7-8.19s-9.75-8.19-21.7-8.19-21.7,3.68-21.7,8.19,9.75,8.19,21.7,8.19Z"/>
        <path class="cls-12" d="M226.19,163.24c11.49,0,20.89,3.37,21.65,7.63.03-.18.05-.37.05-.56,0-4.52-9.72-8.19-21.7-8.19s-21.7,3.67-21.7,8.19c0,.19.02.37.05.56.76-4.26,10.16-7.63,21.65-7.63Z"/>
        <path class="cls-16" d="M254.74,160.56v8.02h-.03c-.62,5.45-11.03,9.78-23.77,9.78s-23.8-4.61-23.8-10.29v-7.77c15.6,0,31.68.26,47.61.26Z"/>
        <path class="cls-17" d="M210.95,173.66c-.5-.33-.95-.68-1.36-1.03v-12.33c.45,0,.9,0,1.36,0v13.36Z"/>
        <path class="cls-17" d="M214.71,175.6c-.47-.19-.92-.39-1.36-.59v-14.7c.45,0,.9,0,1.36,0v15.28Z"/>
        <path class="cls-17" d="M218.47,176.84c-.46-.12-.92-.25-1.36-.39v-16.12c.45,0,.9,0,1.36,0v16.5Z"/>
        <path class="cls-17" d="M222.21,177.65c-.45-.08-.89-.16-1.33-.25,0-.17,0-.35,0-.53v-16.52h1.36v16.52c0,.27,0,.53-.02.77Z"/>
        <path class="cls-17" d="M225.95,178.13c-.43-.04-.85-.08-1.27-.13-.02-.35-.04-.73-.04-1.13v-16.5h1.36v16.5c0,.44-.02.87-.05,1.26Z"/>
        <path class="cls-17" d="M229.69,178.35c-.41,0-.82-.02-1.23-.04-.04-.44-.06-.92-.06-1.43v-16.47h1.36v16.47c0,.53-.02,1.03-.07,1.47Z"/>
        <path class="cls-17" d="M233.45,178.3c-.41.02-.82.03-1.23.04-.04-.45-.07-.95-.07-1.47v-16.43h1.36v16.43c0,.51-.02.99-.06,1.43Z"/>
        <path class="cls-17" d="M237.24,178c-.42.05-.84.09-1.27.13-.03-.39-.05-.81-.05-1.26v-16.4h1.36v16.4c0,.39-.01.77-.04,1.12Z"/>
        <path class="cls-17" d="M241.03,177.39c-.44.09-.88.17-1.33.25-.01-.25-.02-.5-.02-.77v-16.38c.45,0,.91,0,1.36,0v16.37c0,.18,0,.35,0,.52Z"/>
        <path class="cls-17" d="M244.8,176.43c-.44.14-.89.27-1.36.39v-16.3c.45,0,.91,0,1.36,0v15.9Z"/>
        <path class="cls-17" d="M248.56,174.98c-.43.21-.89.4-1.36.6v-15.04c.45,0,.91,0,1.36,0v14.44Z"/>
        <path class="cls-17" d="M252.32,172.59c-.41.36-.86.71-1.36,1.04v-13.07c.45,0,.91,0,1.36,0v12.03Z"/>
        <path class="cls-15" d="M230.93,170.85c13.11,0,23.8-4.62,23.8-10.29s-10.69-10.29-23.8-10.29-23.8,4.62-23.8,10.29,10.69,10.29,23.8,10.29Z"/>
        <path class="cls-13" d="M230.93,168.75c11.95,0,21.7-3.68,21.7-8.19s-9.75-8.19-21.7-8.19-21.7,3.68-21.7,8.19,9.75,8.19,21.7,8.19Z"/>
        <path class="cls-11" d="M230.93,153.49c11.49,0,20.89,3.37,21.65,7.63.03-.18.05-.37.05-.56,0-4.52-9.72-8.19-21.7-8.19s-21.7,3.67-21.7,8.19c0,.19.02.37.05.56.76-4.26,10.16-7.63,21.65-7.63Z"/>
        <path class="cls-16" d="M250,150.77v8.02h-.03c-.62,5.45-11.03,9.78-23.77,9.78s-23.8-4.61-23.8-10.29v-7.77c15.6,0,31.68.26,47.61.26Z"/>
        <path class="cls-17" d="M206.21,163.87c-.5-.33-.95-.68-1.36-1.03v-12.33c.45,0,.9,0,1.36,0v13.36Z"/>
        <path class="cls-17" d="M209.98,165.81c-.47-.19-.92-.39-1.36-.59v-14.7c.45,0,.9,0,1.36,0v15.28Z"/>
        <path class="cls-17" d="M213.74,167.05c-.46-.12-.92-.25-1.36-.39v-16.12c.45,0,.9,0,1.36,0v16.5Z"/>
        <path class="cls-17" d="M217.48,167.85c-.45-.08-.89-.16-1.33-.25,0-.17,0-.35,0-.53v-16.52h1.36v16.52c0,.27,0,.53-.02.77Z"/>
        <path class="cls-17" d="M221.21,168.34c-.43-.04-.85-.08-1.27-.13-.02-.35-.04-.73-.04-1.13v-16.5h1.36v16.5c0,.44-.02.87-.05,1.26Z"/>
        <path class="cls-17" d="M224.95,168.55c-.41,0-.82-.02-1.23-.04-.04-.44-.06-.92-.06-1.43v-16.47h1.36v16.47c0,.53-.02,1.03-.07,1.47Z"/>
        <path class="cls-17" d="M228.72,168.51c-.41.02-.82.03-1.23.04-.04-.45-.07-.95-.07-1.47v-16.43h1.36v16.43c0,.51-.02.99-.06,1.43Z"/>
        <path class="cls-17" d="M232.51,168.2c-.42.05-.84.09-1.27.13-.03-.39-.05-.81-.05-1.26v-16.4h1.36v16.4c0,.39-.01.77-.04,1.12Z"/>
        <path class="cls-17" d="M236.3,167.6c-.44.09-.88.17-1.33.25-.01-.25-.02-.5-.02-.77v-16.38c.45,0,.9,0,1.36,0v16.37c0,.18,0,.35,0,.52Z"/>
        <path class="cls-17" d="M240.07,166.64c-.44.14-.89.27-1.36.39v-16.3c.45,0,.91,0,1.36,0v15.9Z"/>
        <path class="cls-17" d="M243.83,165.19c-.43.21-.89.41-1.36.6v-15.04c.45,0,.91,0,1.36,0v14.44Z"/>
        <path class="cls-17" d="M247.59,162.79c-.41.36-.86.71-1.36,1.04v-13.07c.45,0,.91,0,1.36,0v12.03Z"/>
        <path class="cls-15" d="M226.2,161.06c13.11,0,23.8-4.62,23.8-10.29s-10.69-10.29-23.8-10.29-23.8,4.62-23.8,10.29,10.69,10.29,23.8,10.29Z"/>
        <ellipse class="cls-18" cx="226.2" cy="150.77" rx="21.7" ry="8.19"/>
        <path class="cls-23" d="M233.74,148.35l-4.61.4c-.23-.32-.44-.54-.63-.66-.19-.12-.49-.25-.92-.37v1.94c2.51.36,4.19.75,5.03,1.15,1.11.54,1.67,1.23,1.67,2.06,0,.49-.2.94-.6,1.34-.4.41-.91.75-1.53,1.02-.63.27-1.29.47-1.99.59-.7.12-1.56.2-2.57.22v1.27h-1.81v-1.27c-1.21-.06-2.2-.16-2.95-.32-.76-.15-1.41-.37-1.96-.64-.55-.27-.97-.57-1.27-.88-.3-.32-.52-.7-.67-1.14l5.01-.32c.15.44.35.76.6.96.25.2.67.37,1.24.52v-2.37c-1.67-.25-2.85-.47-3.55-.65-.7-.18-1.3-.48-1.81-.88-.51-.41-.77-.9-.77-1.48,0-.8.52-1.46,1.54-2,1.03-.53,2.56-.83,4.59-.89v-.67h1.81v.67c1.85.06,3.26.3,4.24.71.98.41,1.62.97,1.92,1.69h0ZM225.78,147.68c-.53.09-.9.21-1.1.35-.21.14-.31.3-.31.49s.11.37.32.51c.21.15.57.27,1.1.37v-1.72h0ZM227.59,154.29c.7-.08,1.22-.22,1.54-.42.33-.19.49-.42.49-.66,0-.21-.14-.4-.42-.58-.27-.18-.81-.34-1.62-.49v2.15Z"/>
        <path class="cls-22" d="M233.74,147.72l-4.61.4c-.23-.32-.44-.54-.63-.66-.19-.12-.49-.25-.92-.37v1.94c2.51.36,4.19.75,5.03,1.15,1.11.54,1.67,1.23,1.67,2.06,0,.49-.2.94-.6,1.34-.4.41-.91.75-1.53,1.02-.63.27-1.29.47-1.99.59-.7.12-1.56.2-2.57.22v1.27h-1.81v-1.27c-1.21-.06-2.2-.16-2.95-.32-.76-.15-1.41-.37-1.96-.64-.55-.27-.97-.57-1.27-.88-.3-.32-.52-.7-.67-1.14l5.01-.32c.15.44.35.76.6.96.25.2.67.37,1.24.52v-2.37c-1.67-.25-2.85-.47-3.55-.65-.7-.18-1.3-.48-1.81-.88-.51-.41-.77-.9-.77-1.48,0-.8.52-1.46,1.54-2,1.03-.53,2.56-.83,4.59-.89v-.67h1.81v.67c1.85.06,3.26.3,4.24.71.98.41,1.62.97,1.92,1.69h0ZM225.78,147.05c-.53.09-.9.21-1.1.35-.21.14-.31.3-.31.49s.11.37.32.51c.21.15.57.27,1.1.37v-1.72h0ZM227.59,153.66c.7-.08,1.22-.22,1.54-.42.33-.19.49-.42.49-.66,0-.21-.14-.4-.42-.58-.27-.18-.81-.34-1.62-.49v2.15Z"/>
        <path class="cls-14" d="M226.2,143.7c11.49,0,20.89,3.37,21.65,7.63.03-.18.05-.37.05-.56,0-4.52-9.72-8.19-21.7-8.19s-21.7,3.67-21.7,8.19c0,.19.02.37.05.56.76-4.26,10.16-7.63,21.65-7.63Z"/>
      </g>
      <g>
        <g>
          <path class="cls-19" d="M200.59,68.78l2.75,5.2,3.75,7.09-7.69-1.35-15.36-2.7,11.08,21.42.68,1.3-.94.94-35.49,35.44,31.73-36.92-15.3-24.75-3.19-5.17,6.28.62,13.88,1.37-11.68-20.21c-9.07-6.17-19.45-10.97-30.86-13.93-48.41-12.56-96.84,12.67-108.17,56.36-11.33,43.69,18.72,89.28,67.13,101.84,48.41,12.56,96.84-12.67,108.17-56.36,6.47-24.94-.55-50.49-16.76-70.17Z"/>
          <g>
            <path class="cls-19" d="M191.03,121.82c-11.73,49.01-62.42,80.72-111.96,67.86C29.15,176.74.9,123.86,14.23,75.95,26.88,30.47,66.83.11,120.43,10.27c58.24,11.04,82.62,61.39,70.61,111.56Z"/>
            <path class="cls-19" d="M218.97,112.24c3.31-.87,6.88-.64,10.01.8,1.4.65,2.91,1.51,3.87,2.74.57.73,1.15,2.26.2,2.98-1.1.82-2.88-.9-3.6-1.59-1.16-1.11-2.24-2.42-2.59-4.02-.69-3.15,1.9-5.97,4.64-7.03,4.01-1.54,8.4-.57,12.45.3,2.22.48,3.17-2.94.94-3.42-5.05-1.09-10.39-2.08-15.31.1-4.26,1.88-7.42,6.62-6.05,11.36.66,2.26,2.22,4.21,3.98,5.74s4.03,2.84,6.38,2.07c2.05-.67,3.25-2.8,3.18-4.9-.07-2.36-1.61-4.26-3.42-5.63-4.4-3.35-10.33-4.31-15.64-2.91-2.2.58-1.27,4,.94,3.42h0Z"/>
            <path class="cls-19" d="M149.59,33.44s2.89-7.03,14.62-5.2,25.04,1.48,20.89,1.76c-.47.03.52,5.63-1.55,13.63-2.08,8-14.03,7.64-14.03,7.64,0,0-14.78-4.75-19.93-17.83Z"/>
            <g class="cls-8">
              <path class="cls-19" d="M169.51,51.27s11.95.36,14.03-7.64c1.85-7.11,1.27-12.31,1.45-13.4-3.28,1.68-6.41,4.69-10.44,9.85-3.79,4.86-11.69,4.92-16.9,4.33,5.74,4.89,11.86,6.87,11.86,6.87Z"/>
              <path class="cls-19" d="M185.69,29.89c-.06.03-.12.05-.17.08.4-.03.44-.06.17-.08Z"/>
            </g>
            <path class="cls-2" d="M183.83,177.97c-20.01,15.96-66.89,11.73-68.66,12.03l-.34,6.61c22.02,4.39,43.74,1.1,61.67-8.04,4.58-5.85,7.33-10.59,7.33-10.59Z"/>
            <path class="cls-19" d="M200.32,169.78s2.47,11.39-1.89,25.66c-4.37,14.27-11.49,5-15.45,8.73-3.96,3.74-12.38-2.66-10.7-15.96,1.68-13.3,7.48-33.51,28.05-18.43Z"/>
            <path d="M198.43,195.43c.21-.68.4-1.36.58-2.03-16.22-4.11-23.18.82-26.01,4.51,2.09,6.44,7.16,8.91,9.98,6.25,3.96-3.74,11.08,5.53,15.45-8.73Z"/>
            <rect x="76.43" y="25.03" width="7.53" height="18.78" rx="3.76" ry="3.76" transform="translate(109.27 -47.86) rotate(86.23)"/>
            <rect x="129.76" y="39.56" width="7.53" height="18.78" rx="3.76" ry="3.76" transform="translate(253.03 -28.14) rotate(127.05)"/>
            <g>
              <rect class="cls-1" x="70.51" y="71.12" width="34.12" height="69.46" rx="17.06" ry="17.06" transform="translate(-36.87 164.03) rotate(-75.46)"/>
              <rect class="cls-10" x="70.51" y="71.12" width="34.12" height="69.46" rx="17.06" ry="17.06" transform="translate(-36.87 164.03) rotate(-75.46)"/>
            </g>
            <circle cx="71.34" cy="101.62" r="9.04"/>
            <circle cx="98.53" cy="108.67" r="9.04"/>
            <circle cx="75.92" cy="135.26" r="9.04"/>
            <path class="cls-20" d="M61.68,19.26c18.98-7.87,41.08-9.51,55.11-9.62-21.63-3.4-40.93-.14-56.97,8.05l1.86,1.56Z"/>
            <path class="cls-20" d="M50.6,28.91l2.35-7.29c-18.77,11.97-32.28,31.19-38.72,54.33-7.33,26.36-2.08,54.22,12.45,76.11C-4.95,77.11,50.6,28.91,50.6,28.91Z"/>
            <path class="cls-19" d="M42.95,31.24S21.79,22.86,34.44,1.13c0,0,5.09,7.42,12.6,7.85,7.51.42,12.17.11,16.45,10.06,4.28,9.96-5.87,20.28-20.55,12.21Z"/>
            <path class="cls-2" d="M57.71,177.41l-.25,3.52c6.63,3.77,13.86,6.75,21.62,8.76,6.47,1.68,12.95,2.59,19.37,2.81l22.62-2.49c-29.91-.89-63.35-12.6-63.35-12.6Z"/>
            <g>
              <path class="cls-19" d="M87.56,183.56s-2.11,13-1.04,16.53c.49,1.61,1.67,3.11,3.05,4.07.94.65,2.07,1.06,3.22,1.03s2.18-.61,3.32-.66c1.95-.08,3.79,1.02,5.31,2.13,4.78,3.49,7.55,4.31,11.67-1.13,4.12-5.43,8.69-14,8.06-19.94-.63-5.94-29.57-17.6-33.61-2.04Z"/>
              <path d="M113.1,205.53c.82-1.08,1.66-2.29,2.47-3.58-15.38-9.75-25.28-9.08-29.24-8.03-.17,2.57-.18,4.93.19,6.16.49,1.61,1.67,3.11,3.05,4.07.94.65,2.07,1.06,3.22,1.03,1.13-.02,2.18-.61,3.32-.66,1.95-.08,3.79,1.02,5.31,2.13,4.78,3.49,7.55,4.31,11.67-1.13Z"/>
            </g>
            <g>
              <path class="cls-19" d="M34.74,160.78s-5.01,9.91-1.64,17.61c3.37,7.7,7.04,6.7,9.45,6.19,2.41-.51,2.23,2.04,4.84,4.51,2.61,2.47,11.8,7.13,15.57-9.29-.96-2.71-3-7.23-7.29-11.26-8.21-7.72-18.44-7.81-20.93-7.76Z"/>
              <path d="M60.78,186.15c-15.2-9.6-24.5-13.19-28.84-14.43-.07,2.22.22,4.53,1.15,6.67,3.37,7.7,7.04,6.7,9.45,6.19,2.41-.51,2.23,2.04,4.84,4.51,2.19,2.07,9.03,5.69,13.4-2.94Z"/>
            </g>
          </g>
          <g>
            <rect x="76.31" y="48.09" width="3.97" height="27.63" rx="1.99" ry="1.99" transform="translate(91.31 -37.06) rotate(59.16)"/>
            <rect x="76.31" y="48.09" width="3.97" height="27.63" rx="1.99" ry="1.99" transform="translate(177.26 74.92) rotate(149.16)"/>
          </g>
          <g>
            <rect x="116.36" y="58.07" width="3.97" height="27.63" rx="1.99" ry="1.99" transform="translate(119.4 -66.57) rotate(59.16)"/>
            <rect x="116.36" y="58.07" width="3.97" height="27.63" rx="1.99" ry="1.99" transform="translate(256.81 72.95) rotate(149.16)"/>
          </g>
          <g>
            <path class="cls-9" d="M207.09,81.07l-3.75-7.09-2.75-5.2c-5.5-6.67-12.05-12.68-19.5-17.75l11.68,20.21-8.72,5.77,15.36,2.7,7.69,1.35Z"/>
            <g class="cls-7">
              <polygon class="cls-5" points="191.11 99.19 159.38 136.11 194.87 100.67 195.8 99.73 195.13 98.43 184.05 77.01 177.25 76.77 191.11 99.19"/>
            </g>
            <polygon class="cls-19" points="178.9 69.88 172.62 69.26 175.81 74.43 177.25 76.77 184.05 77.01 192.77 71.25 178.9 69.88"/>
            <g class="cls-7">
              <polygon class="cls-5" points="178.9 69.88 172.62 69.26 175.81 74.43 177.25 76.77 184.05 77.01 192.77 71.25 178.9 69.88"/>
              <polygon class="cls-4" points="178.9 69.88 172.62 69.26 175.81 74.43 177.25 76.77 184.05 77.01 192.77 71.25 178.9 69.88"/>
            </g>
          </g>
          <g class="cls-7">
            <polygon class="cls-4" points="195.8 99.73 181.62 79.08 184.05 77.01 195.8 99.73"/>
            <polygon class="cls-6" points="195.8 99.73 181.62 79.08 184.05 77.01 195.8 99.73"/>
          </g>
          <g class="cls-7">
            <path class="cls-19" d="M200.59,68.78c-.07-.08-.14-.16-.2-.24l2.45,11.78,4.26.75-3.75-7.09-2.75-5.2Z"/>
          </g>
        </g>
        <path class="cls-3" d="M70.44,57.66s33.22,1.85,56.18,15.41"/>
      </g>
    </g>
  </g>
</svg>