<?xml version="1.0" encoding="UTF-8"?>
<svg xmlns="http://www.w3.org/2000/svg" viewBox="0 0 279.38 236.35">
  <defs>
    <style>
      .cls-1 {
        fill: #b40023;
      }

      .cls-2 {
        mix-blend-mode: hue;
      }

      .cls-2, .cls-3, .cls-4 {
        fill: #ee3156;
      }

      .cls-5, .cls-6 {
        fill: #f8a2b3;
      }

      .cls-7 {
        isolation: isolate;
      }

      .cls-3 {
        opacity: .3;
      }

      .cls-3, .cls-4, .cls-8 {
        mix-blend-mode: multiply;
      }

      .cls-6 {
        mix-blend-mode: overlay;
      }

      .cls-4 {
        opacity: .63;
      }

      .cls-8 {
        opacity: .6;
      }
    </style>
  </defs>
  <g class="cls-7">
    <g id="Capa_2" data-name="Capa 2">
      <g id="Layer_3" data-name="Layer 3">
        <g>
          <path class="cls-5" d="M249.98,89.27c3.54-2,7.79-2.82,11.82-2.09,1.89.34,4.04.9,5.55,2.16.84.7,1.97,2.48.83,3.45-1.2,1.03-3.63-.43-4.71-1.04-1.59-.91-3.13-2.06-4-3.71-1.8-3.42.27-7.49,3.13-9.58,4.22-3.09,9.71-3.28,14.73-3.49,2.73-.11,2.75-4.38,0-4.26-6.1.25-12.55.69-17.57,4.58-4.46,3.46-6.86,9.87-3.89,15.07,1.34,2.35,3.59,4.09,5.94,5.35s5.47,2.33,8.13.99,3.43-4.47,2.6-7.08-3.25-4.38-5.75-5.41c-6.11-2.51-13.27-1.84-18.98,1.39-2.39,1.35-.24,5.04,2.15,3.68h0Z"/>
          <path class="cls-5" d="M220.33,108.88c1.14,60.61-48.3,112.85-109.87,112.85-62.04,0-110.92-53.03-109.87-112.85C1.59,52.1,38.94,4.67,104.41.3c71.15-4.74,114.75,46.52,115.92,108.57Z"/>
          <ellipse class="cls-5" cx="147.22" cy="120.87" rx="108.93" ry="98.31"/>
          <path class="cls-5" d="M145.37,18.48s1.24-9.06,15.45-10.48c14.21-1.42,29.61-5.84,24.86-4.26-.53.18,2.31,6.39,2.31,16.34s-14.03,13.14-14.03,13.14c0,0-18.65-1.07-28.59-14.74Z"/>
          <g class="cls-8">
            <path class="cls-1" d="M173.96,33.22s14.03-3.2,14.03-13.14c0-8.84-2.24-14.72-2.36-16.05-3.32,2.95-6.04,7.39-9.18,14.63-2.95,6.81-12.13,9.26-18.37,10.15,8.16,3.96,15.89,4.41,15.89,4.41Z"/>
            <path class="cls-1" d="M186.34,3.43c-.06.05-.12.1-.18.15.45-.16.5-.2.18-.15Z"/>
          </g>
          <path class="cls-3" d="M228.91,176.42c-18.48,24.63-74.34,33.87-76.32,34.75l1.6,7.79c26.97-1.54,51.27-11.93,69.38-27.99,3.57-8.2,5.34-14.55,5.34-14.55Z"/>
          <path class="cls-5" d="M245.64,161.91s6.32,12.51,5.55,30.45c-.77,17.93-11.87,9.29-15.35,14.84-3.48,5.55-15.22.65-17.29-15.35-2.06-16-1.42-41.28,27.09-29.93Z"/>
          <path d="M251.19,192.35c.04-.86.05-1.7.06-2.54-20.13.12-26.75,7.96-28.92,13.11,4.38,6.86,11.03,8.21,13.51,4.27,3.48-5.55,14.58,3.1,15.35-14.84Z"/>
          <rect x="53.82" y="26.95" width="10.76" height="26.86" rx="5.38" ry="5.38" transform="translate(60.4 -31.27) rotate(56.66)"/>
          <rect x="57.85" y="51.13" width="23.84" height="41.36" rx="11.31" ry="11.31"/>
          <rect x="109.35" y="51.13" width="23.84" height="41.36" rx="11.31" ry="11.31"/>
          <rect x="126.35" y="25.69" width="10.76" height="26.86" rx="5.38" ry="5.38" transform="translate(236.82 -49.43) rotate(123.34)"/>
          <path d="M77.41,154s45.52,9.77,73.43-13.26c0,0-5.06,15.17-26.68,19.53-21.63,4.36-43.95-4.53-46.74-6.28Z"/>
          <g>
            <rect class="cls-4" x="53.25" y="101" width="83.56" height="41.05" rx="20.53" ry="20.53"/>
            <rect class="cls-2" x="53.25" y="101" width="83.56" height="41.05" rx="20.53" ry="20.53"/>
          </g>
          <circle cx="74.86" cy="121.51" r="10.87"/>
          <circle cx="108.65" cy="121.51" r="10.87"/>
          <path class="cls-6" d="M38.72,28.52C58.44,13.63,83.68,5.04,99.98.68c-26.21,2.58-47.7,12.2-63.91,26.59l2.64,1.26Z"/>
          <path class="cls-6" d="M28.74,43.11l.53-9.19C11.02,53.52,1.1,79.99.59,108.88c-.58,32.91,13.96,63.76,37.49,84.86C-21.38,116.02,28.74,43.11,28.74,43.11Z"/>
          <path class="cls-5" d="M20.53,48.14S-6.64,44.76,1.53,15.64c0,0,8.17,7.1,17.05,5.33,8.88-1.78,14.21-3.55,22.2,6.75,7.99,10.3-.71,25.39-20.24,20.42Z"/>
          <path class="cls-3" d="M81.88,213.88l.77,4.18c8.86,2.39,18.18,3.67,27.82,3.67,8.04,0,15.87-.9,23.4-2.58l25.58-9.73c-35.09,8-77.57,4.46-77.57,4.46Z"/>
          <g>
            <path class="cls-5" d="M118.49,212.02s1.47,15.77,3.79,19.56c1.06,1.73,2.88,3.12,4.78,3.81,1.29.47,2.73.6,4.06.23,1.31-.37,2.35-1.37,3.67-1.77,2.25-.68,4.73.05,6.83.88,6.62,2.62,10.09,2.73,13.25-4.84,3.15-7.57,5.89-18.93,3.36-25.66-2.52-6.73-39.75-11.57-39.75,7.78Z"/>
            <path d="M154.88,229.9c.63-1.51,1.24-3.17,1.79-4.91-20.85-6.71-32.18-2.93-36.47-.52.57,3.04,1.27,5.8,2.08,7.11,1.06,1.73,2.88,3.12,4.78,3.81,1.29.47,2.73.6,4.06.23,1.31-.37,2.35-1.37,3.67-1.77,2.25-.68,4.73.05,6.83.88,6.62,2.62,10.09,2.73,13.25-4.84Z"/>
          </g>
          <g>
            <path class="cls-5" d="M50.11,201.46s-2.84,13.06,3.41,21.01c6.25,7.95,10.22,5.68,12.87,4.35,2.65-1.32,3.22,1.7,7,3.79,3.79,2.08,15.9,4.73,15.33-15.52-1.94-2.87-5.67-7.51-11.89-10.91-11.9-6.51-23.83-3.52-26.72-2.71Z"/>
            <path d="M88.1,223.13c-20.6-6.59-32.51-7.95-37.94-8.09.59,2.61,1.62,5.21,3.36,7.42,6.25,7.95,10.22,5.68,12.87,4.35,2.65-1.32,3.22,1.7,7,3.79,3.18,1.75,12.24,3.89,14.71-7.48Z"/>
          </g>
        </g>
      </g>
    </g>
  </g>
</svg>