<?xml version="1.0" encoding="UTF-8"?>
<svg xmlns="http://www.w3.org/2000/svg" viewBox="0 0 251.55 210.83">
  <defs>
    <style>
      .cls-1 {
        opacity: .63;
      }

      .cls-1, .cls-2, .cls-3 {
        fill: #b47100;
      }

      .cls-1, .cls-2, .cls-4 {
        mix-blend-mode: multiply;
      }

      .cls-2 {
        opacity: .3;
      }

      .cls-5, .cls-6 {
        fill: #f8bb53;
      }

      .cls-3 {
        mix-blend-mode: hue;
      }

      .cls-7 {
        fill: #d8a94c;
      }

      .cls-8 {
        fill: #92581f;
      }

      .cls-9 {
        isolation: isolate;
      }

      .cls-10 {
        fill: #bf8834;
      }

      .cls-11 {
        fill: #f3d87b;
      }

      .cls-12 {
        fill: #faf139;
      }

      .cls-6 {
        mix-blend-mode: overlay;
      }

      .cls-13 {
        fill: #eec462;
      }

      .cls-4 {
        opacity: .6;
      }
    </style>
  </defs>
  <g class="cls-9">
    <g id="Capa_1" data-name="Capa 1">
      <g>
        <path class="cls-12" d="M68.47,1.92l1.65,5.08c.26.81,1.02,1.36,1.87,1.36h5.34c1.9,0,2.69,2.43,1.15,3.55l-4.32,3.14c-.69.5-.98,1.38-.71,2.19l1.65,5.08c.59,1.81-1.48,3.31-3.02,2.19l-4.32-3.14c-.69-.5-1.62-.5-2.31,0l-4.32,3.14c-1.54,1.12-3.61-.39-3.02-2.19l1.65-5.08c.26-.81-.03-1.69-.71-2.19l-4.32-3.14c-1.54-1.12-.75-3.55,1.15-3.55h5.34c.85,0,1.6-.55,1.87-1.36l1.65-5.08c.59-1.81,3.14-1.81,3.73,0Z"/>
        <path class="cls-12" d="M99.05,1.92l1.65,5.08c.26.81,1.02,1.36,1.87,1.36h5.34c1.9,0,2.69,2.43,1.15,3.55l-4.32,3.14c-.69.5-.98,1.38-.71,2.19l1.65,5.08c.59,1.81-1.48,3.31-3.02,2.19l-4.32-3.14c-.69-.5-1.62-.5-2.31,0l-4.32,3.14c-1.54,1.12-3.61-.39-3.02-2.19l1.65-5.08c.26-.81-.03-1.69-.71-2.19l-4.32-3.14c-1.54-1.12-.75-3.55,1.15-3.55h5.34c.85,0,1.6-.55,1.87-1.36l1.65-5.08c.59-1.81,3.14-1.81,3.73,0Z"/>
        <path class="cls-12" d="M129.64,1.92l1.65,5.08c.26.81,1.02,1.36,1.87,1.36h5.34c1.9,0,2.69,2.43,1.15,3.55l-4.32,3.14c-.69.5-.98,1.38-.71,2.19l1.65,5.08c.59,1.81-1.48,3.31-3.02,2.19l-4.32-3.14c-.69-.5-1.62-.5-2.31,0l-4.32,3.14c-1.54,1.12-3.61-.39-3.02-2.19l1.65-5.08c.26-.81-.03-1.69-.71-2.19l-4.32-3.14c-1.54-1.12-.75-3.55,1.15-3.55h5.34c.85,0,1.6-.55,1.87-1.36l1.65-5.08c.59-1.81,3.14-1.81,3.73,0Z"/>
        <path class="cls-12" d="M160.22,1.92l1.65,5.08c.26.81,1.02,1.36,1.87,1.36h5.34c1.9,0,2.69,2.43,1.15,3.55l-4.32,3.14c-.69.5-.98,1.38-.71,2.19l1.65,5.08c.59,1.81-1.48,3.31-3.02,2.19l-4.32-3.14c-.69-.5-1.62-.5-2.31,0l-4.32,3.14c-1.54,1.12-3.61-.39-3.02-2.19l1.65-5.08c.26-.81-.03-1.69-.71-2.19l-4.32-3.14c-1.54-1.12-.75-3.55,1.15-3.55h5.34c.85,0,1.6-.55,1.87-1.36l1.65-5.08c.59-1.81,3.14-1.81,3.73,0Z"/>
        <path class="cls-12" d="M190.81,1.92l1.65,5.08c.26.81,1.02,1.36,1.87,1.36h5.34c1.9,0,2.69,2.43,1.15,3.55l-4.32,3.14c-.69.5-.98,1.38-.71,2.19l1.65,5.08c.59,1.81-1.48,3.31-3.02,2.19l-4.32-3.14c-.69-.5-1.62-.5-2.31,0l-4.32,3.14c-1.54,1.12-3.61-.39-3.02-2.19l1.65-5.08c.26-.81-.03-1.69-.71-2.19l-4.32-3.14c-1.54-1.12-.75-3.55,1.15-3.55h5.34c.85,0,1.6-.55,1.87-1.36l1.65-5.08c.59-1.81,3.14-1.81,3.73,0Z"/>
      </g>
      <g id="ubzzcr">
        <g>
          <path class="cls-13" d="M213.2,73.34c-.36-.56-1.01-.99-1.46-1.46-11.01-11.45-6.35-30.3,9.58-33.63,4.44-.93,10.1-.33,13.96,2.05.04.03.37.27.39.09,1.24.83,2.62,2.02,3.62,3.12.54.6,1.23,1.42,1.68,2.08.61.89,1.3,2.03,1.75,3.01.2.43.47,1.19.63,1.65.4,1.14.8,2.63.96,3.83.06.46.07.97.11,1.43.11,1.46.11,2.96-.09,4.41-.05.37-.16.91-.24,1.29-.23,1.07-.6,2.37-1.02,3.38-.11.28-.38.87-.51,1.14-.46.95-1.19,2.15-1.81,3.02-.18.25-.59.76-.77.99-.66.79-1.97,2.1-2.76,2.75-.27.22-.83.64-1.12.85-.89.63-2.5,1.52-3.5,1.96-.46.2-1.08.38-1.57.54-1.51.51-2.99.87-4.59,1.02-.96.09-1.83.08-2.79.04-1.68-.08-3.37-.35-4.98-.82-.32-.09-.64-.25-.96-.35-.02,0-.06.01-.08,0-.17-.2-.41-.21-.62-.29-1.1-.43-1.9-.91-2.91-1.48.02-.16-.03-.19-.18-.16-.24-.15-.48-.3-.71-.46ZM222.06,40.98c-7.01.93-12.7,6.81-13.61,13.8-1.5,11.5,8.98,20.78,20.21,17.92,13.27-3.38,16.44-20.93,5.34-28.96-2.88-2.08-8.48-3.8-11.94-2.76Z"/>
          <path class="cls-11" d="M233.8,39.26c.44.24.98.55,1.42.83.15.1.3.21.45.31-.02.18-.35-.07-.39-.09-3.86-2.37-9.52-2.97-13.96-2.05-15.93,3.33-20.59,22.18-9.58,33.63.46.48,1.1.9,1.46,1.46-12.85-8.64-10.89-28.39,3.19-34.6,5.41-2.39,12.2-2.34,17.41.52Z"/>
          <path class="cls-10" d="M246.96,56.5c.15,1.7.16,2.78-.09,4.5l-2.54-1.08c.21-1.45.2-2.95.09-4.41.89.13,1.65.79,2.53,1Z"/>
          <path class="cls-10" d="M242.44,70.91c-1.01,1.21-1.64,1.79-2.85,2.76l-2.38-1.18c.79-.64,2.11-1.96,2.76-2.75l2.46,1.17Z"/>
          <path class="cls-10" d="M246.62,62.29c-.29,1.39-.56,2.17-1.1,3.47l-2.46-1.17c.42-1.02.79-2.31,1.02-3.38l2.54,1.08Z"/>
          <path class="cls-10" d="M245.1,66.81c-.58,1.21-1.1,2.04-1.89,3.11l-2.46-1.17c.62-.86,1.35-2.07,1.81-3.02l2.54,1.08Z"/>
          <path class="cls-10" d="M236.09,73.33l2.38,1.18c-1.22.85-2.02,1.35-3.41,1.95l-2.46-1.17c1-.44,2.61-1.33,3.5-1.96Z"/>
          <path class="cls-10" d="M245.81,51.33c.48,1.35.83,2.35,1.05,3.82l-2.54-1.08c-.16-1.19-.56-2.69-.96-3.83l2.45,1.09Z"/>
          <path class="cls-10" d="M231.02,75.83c-.03.21.12.16.24.22.68.33,1.47.61,2.06,1.05-1.57.51-2.76.78-4.42.92-.76-.25-1.5-.61-2.22-.95-.12-.06-.27,0-.24-.22,1.6-.15,3.07-.51,4.59-1.02Z"/>
          <path class="cls-10" d="M243.34,46.6c.56.39,1.52,2.4,1.84,3.08l-2.45-1.09c-.45-.98-1.14-2.12-1.75-3.01.66.29,1.8.61,2.36,1.01Z"/>
          <path class="cls-10" d="M241.56,44.36c-.68-.14-1.3-.53-1.95-.8-.07-.03-.3-.2-.31-.05-1.01-1.1-2.39-2.29-3.62-3.12-.15-.1-.3-.21-.45-.31l.08-.09c2.57,1.25,4.26,2.27,6.26,4.36Z"/>
          <path class="cls-10" d="M223.64,76.89c0,.2.36.3.51.37.41.19.85.35,1.26.56.14.07.27.08.27.28-2.41-.16-4.89-.87-7.09-1.84l.07-.17c1.61.46,3.3.74,4.98.82Z"/>
          <path class="cls-8" d="M241.56,44.36c.66.69,1.33,1.4,1.78,2.24-.56-.4-1.71-.72-2.36-1.01-.45-.66-1.14-1.48-1.68-2.08.01-.15.24.02.31.05.65.27,1.27.66,1.95.8Z"/>
          <path class="cls-8" d="M246.87,61c-.07.49-.14.82-.24,1.29l-2.54-1.08c.08-.38.19-.92.24-1.29l2.54,1.08Z"/>
          <path class="cls-8" d="M226.43,76.85c-.03.21.12.16.24.22.72.35,1.46.7,2.22.95-1.08.09-2.13.14-3.22.07,0-.2-.13-.21-.27-.28-.41-.2-.85-.36-1.26-.56-.15-.07-.52-.17-.51-.37.96.04,1.83.05,2.79-.04Z"/>
          <path class="cls-8" d="M243.21,69.92c-.28.38-.47.62-.77.99l-2.46-1.17c.19-.23.6-.74.77-.99l2.46,1.17Z"/>
          <path class="cls-8" d="M232.59,75.29l2.46,1.17c-.49.21-.9.35-1.4.53l-.08.09c-.07.02-.18,0-.25.02-.59-.44-1.38-.72-2.06-1.05-.12-.06-.27,0-.24-.22.49-.16,1.11-.34,1.57-.54Z"/>
          <path class="cls-8" d="M237.21,72.49l2.38,1.18c-.43.35-.66.53-1.12.85l-2.38-1.18c.29-.2.86-.63,1.12-.85Z"/>
          <path class="cls-8" d="M245.18,49.68c.29.62.41,1.04.63,1.65l-2.45-1.09c-.16-.46-.43-1.22-.63-1.65l2.45,1.09Z"/>
          <path class="cls-8" d="M245.53,65.76c-.15.36-.26.69-.43,1.05l-2.54-1.08c.13-.27.4-.86.51-1.14l2.46,1.17Z"/>
          <path class="cls-8" d="M246.85,55.15c.02.14.01.28.03.42.02.17.02.34.04.51.01.14.02.28.03.42-.88-.21-1.64-.87-2.53-1-.03-.47-.04-.97-.11-1.43l2.54,1.08Z"/>
          <path class="cls-7" d="M233.8,39.26c.46.2.97.36,1.42.58.1.05.07.16.08.16l-.08.09c-.44-.28-.98-.58-1.42-.83Z"/>
          <path class="cls-7" d="M218.66,76.07l-.07.17c-.18-.08-.77-.31-.86-.38-.04-.03-.03-.1-.03-.15.32.1.64.26.96.35Z"/>
          <path class="cls-11" d="M213.92,73.8c.15-.04.2,0,.18.16-.23-.13-.17-.15-.18-.16Z"/>
          <path class="cls-7" d="M217.62,75.73c-.22-.07-.44-.14-.62-.29.2.08.45.09.62.29Z"/>
          <path class="cls-10" d="M233.57,77.08l.08-.09s-.01.07-.08.09Z"/>
          <path class="cls-7" d="M222.06,40.98c3.47-1.04,9.07.68,11.94,2.76,11.1,8.03,7.93,25.58-5.34,28.96h-2.41c-10.81-.67-18.1-11.3-14.48-21.68,1.58-4.53,5.65-8.64,10.29-10.03ZM222.9,66.71c2.14-.05,4.18-.57,5.72-2.14,2.34-2.39,2.33-6.46-.34-8.58-1.76-1.4-4.8-1.89-3.86-4.9.75-2.39,5.18-2.37,6.28-.11.39.81.27,1.82,1.26,2.2,1.18.45,2.5-.32,2.43-1.63-.08-1.56-1.29-3.41-2.52-4.32.41-1.04,1.18-2.12.37-3.17-.24-.32-.73-.58-1.13-.61-1.61-.1-1.84,1.31-2.37,2.46-4.49-.58-8.53,2.57-7.79,7.32.49,3.15,2.78,3.66,4.92,5.18,1.14.81,1.42,2.2.63,3.38-1.64,2.46-5.85,1.52-6.82-1.06-.37-.99.2-2.06-.72-2.83-.61-.5-1.49-.45-2.12-.01-.53.37-.63.76-.69,1.38-.27,2.64,1.35,4.93,3.5,6.26.07.21-.78,1.72-.82,2.19-.12,1.22.82,2.11,2.03,1.91,1.31-.22,1.49-1.96,2.04-2.93Z"/>
          <path class="cls-10" d="M222.06,40.98c-4.64,1.4-8.71,5.5-10.29,10.03-3.62,10.38,3.67,21.01,14.48,21.68h2.41c-11.23,2.86-21.71-6.42-20.21-17.92.91-6.99,6.6-12.87,13.61-13.8Z"/>
          <path class="cls-11" d="M222.9,66.71c-.55.97-.73,2.71-2.04,2.93-1.21.21-2.15-.68-2.03-1.91.05-.48.89-1.98.82-2.19-2.15-1.33-3.77-3.63-3.5-6.26.06-.62.16-1.01.69-1.38.63-.44,1.51-.49,2.12.01.92.76.35,1.83.72,2.83.97,2.57,5.17,3.52,6.82,1.06.79-1.18.51-2.57-.63-3.38-2.14-1.53-4.43-2.03-4.92-5.18-.74-4.75,3.3-7.89,7.79-7.32.53-1.16.76-2.56,2.37-2.46.4.02.89.29,1.13.61.81,1.06.04,2.13-.37,3.17,1.24.91,2.45,2.75,2.52,4.32.07,1.3-1.25,2.08-2.43,1.63-.99-.38-.87-1.39-1.26-2.2-1.1-2.25-5.53-2.28-6.28.11-.95,3.01,2.09,3.5,3.86,4.9,2.67,2.12,2.68,6.19.34,8.58-1.53,1.57-3.57,2.09-5.72,2.14Z"/>
        </g>
      </g>
      <g id="ubzzcr-2" data-name="ubzzcr">
        <g>
          <path class="cls-13" d="M169.33,101.25c-.43-.79-1.25-1.42-1.82-2.11-13.64-16.48-5.5-41.33,16.24-44.21,6.05-.8,13.6.57,18.54,4.15.05.04.47.4.51.17,1.58,1.24,3.31,2.97,4.55,4.55.67.85,1.51,2.03,2.05,2.96.73,1.26,1.54,2.85,2.05,4.21.22.59.51,1.64.68,2.28.42,1.57.81,3.62.91,5.24.04.62,0,1.3,0,1.94,0,1.97-.14,3.99-.57,5.92-.11.49-.31,1.21-.46,1.71-.41,1.42-1.05,3.12-1.71,4.44-.18.36-.59,1.13-.8,1.48-.71,1.22-1.82,2.78-2.73,3.87-.26.31-.86.97-1.14,1.25-.96,1-2.85,2.63-3.98,3.42-.38.26-1.19.78-1.59,1.02-1.26.75-3.51,1.79-4.9,2.28-.63.22-1.49.4-2.16.57-2.09.53-4.1.87-6.26.91-1.3.03-2.47-.07-3.76-.23-2.24-.27-4.49-.81-6.6-1.59-.41-.15-.83-.4-1.25-.57-.03-.01-.08.01-.11,0-.21-.29-.53-.33-.8-.46-1.43-.69-2.46-1.42-3.76-2.28.04-.21-.02-.26-.23-.23-.3-.22-.62-.45-.91-.68ZM184.47,58.66c-9.52.55-17.74,7.87-19.66,17.17-3.16,15.29,9.98,28.82,25.36,26.1,18.16-3.21,24.17-26.47,10.07-38.37-3.65-3.08-11.01-5.96-15.77-4.9Z"/>
          <path class="cls-11" d="M200.41,57.53c.57.37,1.26.83,1.82,1.25.19.14.38.31.57.46-.04.23-.46-.13-.51-.17-4.95-3.57-12.49-4.95-18.54-4.15-21.73,2.88-29.88,27.73-16.24,44.21.57.68,1.39,1.32,1.82,2.11-16.4-12.89-11.78-39.22,7.75-46.16,7.5-2.67,16.62-1.93,23.34,2.44Z"/>
          <path class="cls-10" d="M216.35,82.01c.03,2.3-.07,3.75-.57,6.03l-3.3-1.71c.43-1.93.57-3.95.57-5.92,1.19.26,2.14,1.22,3.3,1.59Z"/>
          <path class="cls-10" d="M208.84,100.91c-1.48,1.52-2.38,2.23-4.1,3.42l-3.07-1.82c1.13-.79,3.02-2.42,3.98-3.42l3.19,1.82Z"/>
          <path class="cls-10" d="M215.33,89.75c-.53,1.84-.97,2.86-1.82,4.55l-3.19-1.82c.66-1.32,1.29-3.02,1.71-4.44l3.3,1.71Z"/>
          <path class="cls-10" d="M212.82,95.67c-.9,1.57-1.69,2.63-2.85,3.98l-3.19-1.82c.92-1.1,2.02-2.65,2.73-3.87l3.3,1.71Z"/>
          <path class="cls-10" d="M200.07,103.52l3.07,1.82c-1.73,1.02-2.85,1.61-4.78,2.28l-3.19-1.82c1.39-.49,3.63-1.52,4.9-2.28Z"/>
          <path class="cls-10" d="M215.33,74.95c.52,1.86.88,3.25,1.02,5.24l-3.3-1.71c-.1-1.62-.49-3.67-.91-5.24l3.19,1.71Z"/>
          <path class="cls-10" d="M193.01,106.37c-.06.28.15.23.3.32.88.5,1.91.97,2.66,1.62-2.16.52-3.78.77-6.03.8-1-.41-1.95-.96-2.89-1.5-.15-.09-.36-.04-.3-.32,2.16-.04,4.18-.38,6.26-.91Z"/>
          <path class="cls-10" d="M212.48,68.34c.71.59,1.81,3.37,2.16,4.33l-3.19-1.71c-.51-1.36-1.31-2.96-2.05-4.21.85.46,2.36,1.01,3.07,1.59Z"/>
          <path class="cls-10" d="M210.32,65.15c-.9-.25-1.7-.84-2.54-1.27-.09-.05-.38-.3-.42-.1-1.24-1.59-2.98-3.31-4.55-4.55-.19-.15-.38-.31-.57-.46l.11-.11c3.32,1.93,5.49,3.48,7.97,6.49Z"/>
          <path class="cls-10" d="M182.99,107.05c-.03.26.45.44.65.55.53.3,1.11.56,1.63.87.18.11.35.14.34.4-3.22-.45-6.49-1.66-9.34-3.19l.11-.23c2.12.78,4.36,1.32,6.6,1.59Z"/>
          <path class="cls-8" d="M210.32,65.15c.81.99,1.64,2.01,2.16,3.19-.71-.59-2.22-1.13-3.07-1.59-.54-.93-1.38-2.11-2.05-2.96.03-.2.33.05.42.1.84.43,1.64,1.02,2.54,1.27Z"/>
          <path class="cls-8" d="M215.78,88.04c-.14.65-.27,1.09-.46,1.71l-3.3-1.71c.15-.5.35-1.21.46-1.71l3.3,1.71Z"/>
          <path class="cls-8" d="M186.75,107.28c-.06.28.15.23.3.32.94.54,1.89,1.09,2.89,1.5-1.47.02-2.87-.02-4.33-.23.01-.27-.16-.3-.34-.4-.52-.31-1.1-.57-1.63-.87-.19-.11-.68-.28-.65-.55,1.29.16,2.45.25,3.76.23Z"/>
          <path class="cls-8" d="M209.98,99.65c-.41.48-.69.79-1.14,1.25l-3.19-1.82c.28-.29.88-.94,1.14-1.25l3.19,1.82Z"/>
          <path class="cls-8" d="M195.17,105.8l3.19,1.82c-.69.24-1.24.38-1.94.57l-.11.11c-.1.02-.24-.02-.34,0-.75-.64-1.78-1.11-2.66-1.62-.15-.09-.36-.04-.3-.32.67-.17,1.53-.35,2.16-.57Z"/>
          <path class="cls-8" d="M201.66,102.5l3.07,1.82c-.62.42-.94.64-1.59,1.02l-3.07-1.82c.41-.24,1.22-.76,1.59-1.02Z"/>
          <path class="cls-8" d="M214.64,72.67c.32.86.45,1.43.68,2.28l-3.19-1.71c-.17-.64-.46-1.68-.68-2.28l3.19,1.71Z"/>
          <path class="cls-8" d="M213.51,94.3c-.24.47-.42.9-.68,1.37l-3.3-1.71c.2-.35.62-1.12.8-1.48l3.19,1.82Z"/>
          <path class="cls-8" d="M216.35,80.18c.01.19-.01.38,0,.57.01.23,0,.46,0,.68,0,.19,0,.38,0,.57-1.16-.37-2.11-1.33-3.3-1.59,0-.63.04-1.31,0-1.94l3.3,1.71Z"/>
          <path class="cls-7" d="M200.41,57.53c.59.32,1.27.58,1.85.92.13.07.08.22.09.22l-.11.11c-.56-.42-1.25-.88-1.82-1.25Z"/>
          <path class="cls-7" d="M176.39,105.46l-.11.23c-.23-.13-1-.5-1.12-.59-.05-.04-.02-.14-.02-.21.42.17.84.42,1.25.57Z"/>
          <path class="cls-11" d="M170.24,101.93c.2-.03.27.02.23.23-.3-.2-.21-.21-.23-.23Z"/>
          <path class="cls-7" d="M175.02,104.89c-.29-.12-.57-.23-.8-.46.27.13.59.16.8.46Z"/>
          <path class="cls-10" d="M196.31,108.31l.11-.11s-.02.09-.11.11Z"/>
          <path class="cls-7" d="M184.47,58.66c4.76-1.06,12.11,1.82,15.77,4.9,14.1,11.9,8.09,35.15-10.07,38.37l-3.23-.24c-14.46-1.99-23.18-17-17.28-30.58,2.57-5.93,8.45-11.03,14.82-12.45ZM183.01,93.3c2.88.15,5.68-.35,7.89-2.3,3.38-2.97,3.77-8.44.4-11.56-2.23-2.06-6.26-3.02-4.69-6.97,1.25-3.14,7.2-2.66,8.45.47.45,1.13.17,2.47,1.47,3.08,1.54.73,3.39-.19,3.43-1.94.05-2.11-1.39-4.7-2.96-6.05.65-1.36,1.8-2.72.81-4.22-.3-.45-.92-.86-1.46-.93-2.15-.29-2.6,1.57-3.43,3.07-5.97-1.22-11.72,2.59-11.2,9.05.34,4.28,3.37,5.19,6.09,7.46,1.45,1.21,1.69,3.09.51,4.61-2.45,3.14-8.01,1.45-9.05-2.1-.4-1.37.47-2.75-.68-3.87-.77-.74-1.96-.76-2.85-.23-.75.45-.92.96-1.06,1.78-.63,3.52,1.32,6.76,4.07,8.76.07.29-1.22,2.23-1.32,2.86-.28,1.63.89,2.92,2.53,2.76,1.79-.17,2.2-2.49,3.04-3.73Z"/>
          <path class="cls-10" d="M184.47,58.66c-6.37,1.41-12.25,6.52-14.82,12.45-5.9,13.58,2.83,28.59,17.28,30.58l3.23.24c-15.37,2.72-28.52-10.8-25.36-26.1,1.92-9.29,10.15-16.62,19.66-17.17Z"/>
          <path class="cls-11" d="M183.01,93.3c-.84,1.25-1.25,3.56-3.04,3.73-1.65.16-2.81-1.13-2.53-2.76.11-.63,1.4-2.57,1.32-2.86-2.75-2.01-4.7-5.25-4.07-8.76.15-.83.31-1.34,1.06-1.78.89-.53,2.08-.51,2.85.23,1.16,1.12.28,2.5.68,3.87,1.04,3.55,6.6,5.24,9.05,2.1,1.18-1.51.94-3.4-.51-4.61-2.72-2.27-5.75-3.17-6.09-7.46-.52-6.46,5.23-10.27,11.2-9.05.83-1.5,1.28-3.36,3.43-3.07.54.07,1.16.48,1.46.93.98,1.5-.16,2.86-.81,4.22,1.57,1.35,3.01,3.94,2.96,6.05-.04,1.76-1.89,2.67-3.43,1.94-1.3-.61-1.02-1.96-1.47-3.08-1.25-3.14-7.2-3.61-8.45-.47-1.57,3.95,2.46,4.91,4.69,6.97,3.38,3.12,2.98,8.59-.4,11.56-2.22,1.95-5.01,2.45-7.89,2.3Z"/>
        </g>
      </g>
      <g id="ubzzcr-3" data-name="ubzzcr">
        <g>
          <path class="cls-13" d="M178.71,44.16c-.4-.21-.91-.25-1.34-.38-10.23-3.11-13.68-15.71-5.42-22.9,2.3-2,5.82-3.51,8.87-3.38.03,0,.31.04.26-.07,1,.08,2.2.32,3.15.64.51.17,1.19.43,1.67.67.65.32,1.43.76,2.02,1.19.26.19.67.54.91.76.61.54,1.34,1.28,1.82,1.93.19.25.36.54.53.81.54.82,1.04,1.7,1.39,2.62.09.24.2.59.28.84.22.71.42,1.59.51,2.32.02.2.06.63.08.84.04.71,0,1.66-.07,2.37-.02.2-.09.64-.13.84-.13.68-.47,1.88-.72,2.52-.09.21-.28.65-.38.87-.32.66-.97,1.71-1.41,2.3-.2.27-.51.58-.74.83-.72.8-1.47,1.49-2.36,2.11-.54.37-1.05.65-1.63.94-1.01.51-2.09.9-3.19,1.16-.22.05-.46.06-.68.11-.02,0-.03.03-.05.03-.17-.06-.31,0-.46.03-.79.11-1.42.09-2.19.09-.04-.1-.08-.1-.16-.03-.19,0-.38-.02-.57-.03ZM173.29,22.23c-3.82,2.85-5.22,8.17-3.46,12.58,2.9,7.25,12.1,9.26,17.76,3.89,6.69-6.35,2.78-17.69-6.38-18.77-2.37-.28-6.23.55-7.92,2.3Z"/>
          <path class="cls-11" d="M179.62,17.36c.34,0,.75,0,1.1.02.12,0,.24.02.36.03.05.11-.23.07-.26.07-3.05-.13-6.57,1.38-8.87,3.38-8.27,7.19-4.81,19.79,5.42,22.9.43.13.94.17,1.34.38-10.39-.85-15.72-13.1-9.49-21.38,2.39-3.18,6.4-5.38,10.4-5.41Z"/>
          <path class="cls-10" d="M193.01,23.18c.65.95,1.01,1.58,1.43,2.67l-1.85.2c-.35-.92-.85-1.8-1.39-2.62.57-.22,1.23-.08,1.82-.25Z"/>
          <path class="cls-10" d="M195.09,33.12c-.2,1.04-.38,1.59-.77,2.55l-1.78.09c.25-.64.59-1.84.72-2.52l1.83-.12Z"/>
          <path class="cls-10" d="M194.72,26.68c.28.91.39,1.46.5,2.4l-1.83.12c-.09-.73-.29-1.62-.51-2.32l1.85-.2Z"/>
          <path class="cls-10" d="M195.3,29.84c.06.9.02,1.56-.09,2.45l-1.83.12c.08-.71.11-1.66.07-2.37l1.85-.2Z"/>
          <path class="cls-10" d="M192.15,36.63l1.78-.09c-.44.9-.74,1.45-1.37,2.27l-1.83.12c.44-.58,1.09-1.64,1.41-2.3Z"/>
          <path class="cls-10" d="M190.64,20.52c.73.63,1.26,1.11,1.87,1.9l-1.85.2c-.49-.65-1.21-1.39-1.82-1.93l1.8-.17Z"/>
          <path class="cls-10" d="M190,39.76c.05.14.13.06.21.05.51-.03,1.07-.12,1.55-.06-.76.81-1.36,1.36-2.3,2-.53.1-1.08.14-1.62.17-.09,0-.16.09-.21-.05.89-.61,1.64-1.31,2.36-2.11Z"/>
          <path class="cls-10" d="M187.63,18.55c.46.05,1.68.91,2.09,1.21l-1.8.17c-.59-.43-1.36-.87-2.02-1.19.48-.04,1.26-.23,1.72-.18Z"/>
          <path class="cls-10" d="M185.85,17.81c-.44.14-.94.12-1.41.17-.05,0-.24-.02-.2.07-.95-.32-2.15-.56-3.15-.64-.12-.01-.24-.03-.36-.03l.02-.08c1.92-.11,3.25-.06,5.11.51Z"/>
          <path class="cls-10" d="M186.01,42.81c.06.12.31.06.42.05.3-.02.62-.07.92-.09.1,0,.18-.04.25.08-1.47.7-3.16,1.1-4.77,1.24l-.02-.13c1.1-.26,2.18-.65,3.19-1.16Z"/>
          <path class="cls-8" d="M185.85,17.81c.61.19,1.24.39,1.78.73-.46-.05-1.24.14-1.72.18-.48-.24-1.16-.5-1.67-.67-.04-.09.15-.07.2-.07.47-.06.97-.03,1.41-.17Z"/>
          <path class="cls-8" d="M194.44,25.85c.12.31.18.53.28.84l-1.85.2c-.08-.25-.19-.6-.28-.84l1.85-.2Z"/>
          <path class="cls-8" d="M187.64,41.87c.05.14.13.06.21.05.54-.03,1.09-.07,1.62-.17-.61.41-1.2.78-1.87,1.1-.07-.12-.15-.08-.25-.08-.3.01-.62.06-.92.09-.11,0-.36.07-.42-.05.58-.29,1.09-.57,1.63-.94Z"/>
          <path class="cls-8" d="M195.22,32.29c-.04.32-.07.52-.13.84l-1.83.12c.04-.2.11-.63.13-.84l1.83-.12Z"/>
          <path class="cls-8" d="M190.74,38.93l1.83-.12c-.22.29-.41.5-.65.77l-.02.08s-.11.06-.14.09c-.49-.06-1.05.03-1.55.06-.09,0-.16.09-.21-.05.23-.26.54-.57.74-.83Z"/>
          <path class="cls-8" d="M192.54,35.77l1.78-.09c-.14.35-.22.53-.38.87l-1.78.09c.1-.21.3-.65.38-.87Z"/>
          <path class="cls-8" d="M189.72,19.75c.37.27.58.47.91.76l-1.8.17c-.25-.22-.66-.57-.91-.76l1.8-.17Z"/>
          <path class="cls-8" d="M195.21,29.09c.03.26.07.49.09.76l-1.85.2c-.01-.2-.05-.64-.08-.84l1.83-.12Z"/>
          <path class="cls-8" d="M192.51,22.42c.06.07.1.16.16.24.07.09.12.19.19.28.05.08.1.16.16.24-.59.17-1.25.03-1.82.25-.17-.26-.35-.56-.53-.81l1.85-.2Z"/>
          <path class="cls-7" d="M179.62,17.36c.33-.03.69-.11,1.02-.13.07,0,.09.07.1.07l-.02.08c-.35-.02-.77-.02-1.1-.02Z"/>
          <path class="cls-7" d="M182.82,43.97l.02.13c-.13.01-.55.07-.63.06-.03,0-.05-.05-.06-.08.22-.04.46-.06.68-.11Z"/>
          <path class="cls-11" d="M179.28,44.19c.08-.07.12-.07.16.03-.18,0-.15-.03-.16-.03Z"/>
          <path class="cls-7" d="M182.09,44.1c-.15.03-.3.06-.46.03.15-.02.29-.09.46-.03Z"/>
          <path class="cls-10" d="M191.91,39.66l.02-.08s.02.04-.02.08Z"/>
          <path class="cls-7" d="M173.29,22.23c1.69-1.75,5.55-2.58,7.92-2.3,9.16,1.07,13.06,12.42,6.38,18.77l-1.41.79c-6.57,3.16-14.35-.7-15.63-7.98-.56-3.18.48-6.93,2.75-9.27ZM182.23,37.07c1.24-.73,2.27-1.71,2.66-3.13.59-2.17-.75-4.56-3.02-4.93-1.5-.24-3.44.47-3.88-1.61-.34-1.65,2.27-3.09,3.65-2.13.5.35.75.98,1.46.88.84-.12,1.36-1.01.89-1.75-.56-.89-1.88-1.58-2.9-1.71-.1-.75,0-1.63-.83-1.98-.25-.11-.62-.1-.86.01-.98.47-.65,1.37-.58,2.22-2.83,1.14-4.17,4.31-2.17,6.86,1.32,1.69,2.84,1.23,4.59,1.43.94.1,1.56.82,1.48,1.78-.16,1.98-2.94,2.81-4.35,1.62-.55-.46-.56-1.28-1.35-1.42-.52-.1-1.03.22-1.25.69-.19.39-.12.65.05,1.04.71,1.64,2.41,2.45,4.11,2.53.11.1.11,1.26.24,1.56.33.76,1.17.97,1.82.45.7-.56.23-1.64.24-2.39Z"/>
          <path class="cls-10" d="M173.29,22.23c-2.26,2.34-3.31,6.09-2.75,9.27,1.28,7.29,9.06,11.14,15.63,7.98l1.41-.79c-5.66,5.37-14.86,3.36-17.76-3.89-1.76-4.4-.35-9.73,3.46-12.58Z"/>
          <path class="cls-11" d="M182.23,37.07c0,.75.46,1.83-.24,2.39-.64.52-1.48.3-1.82-.45-.13-.29-.13-1.46-.24-1.56-1.7-.08-3.4-.89-4.11-2.53-.17-.39-.24-.64-.05-1.04.22-.46.73-.79,1.25-.69.79.15.81.96,1.35,1.42,1.41,1.19,4.19.37,4.35-1.62.08-.96-.55-1.68-1.48-1.78-1.76-.19-3.27.26-4.59-1.43-1.99-2.55-.65-5.72,2.17-6.86-.07-.85-.39-1.75.58-2.22.24-.12.62-.12.86-.01.82.35.72,1.24.83,1.98,1.02.13,2.34.81,2.9,1.71.47.74-.05,1.63-.89,1.75-.71.1-.97-.53-1.46-.88-1.39-.96-4,.48-3.65,2.13.43,2.08,2.38,1.37,3.88,1.61,2.27.37,3.61,2.76,3.02,4.93-.39,1.42-1.41,2.4-2.66,3.13Z"/>
        </g>
      </g>
      <g>
        <path class="cls-5" d="M190.93,129.54c3.56-.94,7.46-.34,10.49,1.8,1.11.79,2.73,2.37,1.77,3.85-1.05,1.63-3.41-.75-4.17-1.56-1.18-1.26-2.07-2.84-1.76-4.62s1.47-3.15,2.94-4.01c3.55-2.08,7.93-1.12,11.7-.31,1.48.32,2.11-1.95.63-2.27-4.14-.89-8.56-1.73-12.59.08-3.42,1.54-5.95,5.33-4.83,9.14.89,3.01,4.88,7.54,8.41,6.2,1.53-.58,2.36-2.24,2.28-3.83-.1-1.87-1.35-3.34-2.79-4.42-3.59-2.69-8.4-3.46-12.71-2.33-1.47.39-.84,2.66.63,2.27h0Z"/>
        <path class="cls-5" d="M167.73,137.81c-9.78,40.84-52.01,67.26-93.3,56.55-41.6-10.79-65.15-54.85-54.04-94.78,10.54-37.9,43.84-63.2,88.5-54.74,48.54,9.2,68.85,51.16,58.84,92.97Z"/>
        <ellipse class="cls-5" cx="116.62" cy="133.13" rx="68.1" ry="75.46" transform="translate(-41.53 212.59) rotate(-75.46)"/>
        <path class="cls-5" d="M133.19,64.16s2.41-5.86,12.18-4.34c9.77,1.52,20.87,1.23,17.41,1.47-.39.03.44,4.69-1.29,11.36-1.73,6.67-11.69,6.37-11.69,6.37,0,0-12.32-3.96-16.61-14.86Z"/>
        <g class="cls-4">
          <path class="cls-5" d="M149.8,79.02s9.96.3,11.69-6.37c1.54-5.93,1.06-10.26,1.21-11.17-2.74,1.4-5.34,3.91-8.7,8.21-3.16,4.05-9.74,4.1-14.09,3.61,4.78,4.08,9.89,5.72,9.89,5.72Z"/>
          <path class="cls-5" d="M163.28,61.2s-.1.04-.14.07c.33-.03.37-.05.14-.07Z"/>
        </g>
        <path class="cls-2" d="M161.73,184.6c-16.67,13.3-55.74,9.78-57.22,10.02l-.28,5.5c18.35,3.66,36.45.92,51.39-6.7,3.82-4.88,6.11-8.83,6.11-8.83Z"/>
        <path class="cls-5" d="M175.47,177.77s2.06,9.49-1.58,21.38c-3.64,11.89-9.57,4.16-12.87,7.28-3.3,3.11-10.32-2.22-8.92-13.3,1.4-11.09,6.23-27.93,23.37-15.36Z"/>
        <path d="M173.9,199.15c.17-.57.33-1.13.48-1.69-13.52-3.42-19.32.68-21.67,3.76,1.74,5.36,5.97,7.43,8.32,5.21,3.3-3.11,9.24,4.61,12.87-7.28Z"/>
        <rect x="67.88" y="54.55" width="7.46" height="18.61" rx="2.97" ry="2.97" transform="translate(108.98 -24.51) rotate(71.2)"/>
        <rect x="64.97" y="72.44" width="16.51" height="28.65" rx="6.25" ry="6.25" transform="translate(24.14 -15.61) rotate(14.54)"/>
        <rect x="99.5" y="81.4" width="16.51" height="28.65" rx="6.25" ry="6.25" transform="translate(27.49 -23.99) rotate(14.54)"/>
        <rect x="116.73" y="66.32" width="7.46" height="18.61" rx="2.97" ry="2.97" transform="translate(260.53 50.95) rotate(137.89)"/>
        <path d="M64.05,143.2s28.82,14.47,51.54,3.89c0,0-6.03,9.29-21.29,8.46-15.26-.84-28.68-10.69-30.25-12.34Z"/>
        <g>
          <rect class="cls-1" x="67.3" y="95.56" width="28.44" height="57.88" rx="11.34" ry="11.34" transform="translate(-59.46 172.14) rotate(-75.46)"/>
          <rect class="cls-3" x="67.3" y="95.56" width="28.44" height="57.88" rx="11.34" ry="11.34" transform="translate(-59.46 172.14) rotate(-75.46)"/>
        </g>
        <circle cx="67.99" cy="120.98" r="7.53"/>
        <circle cx="90.65" cy="126.86" r="7.53"/>
        <path class="cls-6" d="M59.93,52.34c15.81-6.56,34.23-7.92,45.92-8.01-18.02-2.83-34.1-.12-47.48,6.71l1.55,1.3Z"/>
        <path class="cls-6" d="M50.71,60.39l1.95-6.07c-15.64,9.97-26.9,25.99-32.27,45.27-6.11,21.97-1.73,45.18,10.37,63.42C4.41,100.55,50.71,60.39,50.71,60.39Z"/>
        <path class="cls-5" d="M44.33,62.33s-17.63-6.99-7.09-25.09c0,0,4.24,6.18,10.5,6.54s10.14.09,13.71,8.39c3.57,8.3-4.89,16.9-17.13,10.17Z"/>
        <path class="cls-2" d="M56.63,184.13l-.21,2.94c5.53,3.14,11.55,5.62,18.01,7.3,5.39,1.4,10.79,2.16,16.14,2.34l18.85-2.07c-24.92-.74-52.79-10.5-52.79-10.5Z"/>
        <g>
          <path class="cls-5" d="M81.5,189.26s-1.76,10.83-.86,13.77c.41,1.35,1.39,2.59,2.54,3.39.78.54,1.73.88,2.68.86s1.82-.51,2.77-.55c1.63-.07,3.16.85,4.43,1.78,3.98,2.91,6.29,3.59,9.73-.94,3.43-4.53,7.24-11.67,6.72-16.62-.52-4.95-24.64-14.67-28.01-1.7Z"/>
          <path d="M102.79,207.57c.68-.9,1.38-1.91,2.06-2.98-12.82-8.12-21.06-7.56-24.36-6.69-.14,2.14-.15,4.11.16,5.13.41,1.35,1.39,2.59,2.54,3.39.78.54,1.73.88,2.68.86.94-.02,1.82-.51,2.77-.55,1.63-.07,3.16.85,4.43,1.78,3.98,2.91,6.29,3.59,9.73-.94Z"/>
        </g>
        <g>
          <path class="cls-5" d="M37.49,170.28s-4.18,8.26-1.37,14.68c2.81,6.42,5.86,5.59,7.87,5.16,2.01-.43,1.86,1.7,4.04,3.76,2.18,2.05,9.84,5.94,12.98-7.74-.8-2.26-2.5-6.02-6.07-9.39-6.85-6.43-15.37-6.51-17.44-6.47Z"/>
          <path d="M59.19,191.42c-12.66-8-20.42-10.99-24.03-12.02-.06,1.85.18,3.78.96,5.56,2.8,6.42,5.86,5.58,7.87,5.16,2.01-.43,1.86,1.7,4.04,3.76,1.83,1.73,7.53,4.74,11.17-2.45Z"/>
        </g>
      </g>
    </g>
  </g>
</svg>