<?xml version="1.0" encoding="UTF-8"?>
<svg id="Capa_1" data-name="Capa 1" xmlns="http://www.w3.org/2000/svg" viewBox="0 0 251.55 210.83">
  <defs>
    <style>
      .cls-1 {
        mix-blend-mode: overlay;
      }

      .cls-1, .cls-2, .cls-3, .cls-4, .cls-5 {
        isolation: isolate;
      }

      .cls-1, .cls-6 {
        fill: #f8a2b3;
      }

      .cls-7 {
        fill: #b40023;
      }

      .cls-2 {
        mix-blend-mode: hue;
      }

      .cls-2, .cls-4, .cls-5 {
        fill: #ee3156;
      }

      .cls-8 {
        opacity: .6;
      }

      .cls-8, .cls-4, .cls-5 {
        mix-blend-mode: multiply;
      }

      .cls-4 {
        opacity: .3;
      }

      .cls-5 {
        opacity: .63;
      }
    </style>
  </defs>
  <g id="g23" class="cls-3">
    <g id="Capa_2" data-name="Capa 2">
      <g id="Layer_3" data-name="Layer 3">
        <g id="g22">
          <path id="path1" class="cls-6" d="M225.07,79.63c3.19-1.78,7.01-2.52,10.64-1.86,1.7.3,3.64.8,5,1.93.76.62,1.77,2.21.75,3.08-1.08.92-3.27-.38-4.24-.93-1.43-.81-2.82-1.84-3.6-3.31-1.62-3.05.24-6.68,2.82-8.55,3.8-2.76,8.74-2.93,13.26-3.11,2.46-.1,2.48-3.91,0-3.8-5.49.22-11.3.62-15.82,4.09-4.02,3.09-6.18,8.8-3.5,13.44,1.21,2.1,3.23,3.65,5.35,4.77,2.12,1.12,4.92,2.08,7.32.88,2.39-1.2,3.09-3.99,2.34-6.32s-2.93-3.91-5.18-4.83c-5.5-2.24-11.95-1.64-17.09,1.24-2.15,1.2-.22,4.5,1.94,3.28h.02Z"/>
          <path id="path2" class="cls-6" d="M198.38,97.13c1.03,54.07-43.49,100.66-98.92,100.66S-.41,150.49.53,97.13C1.43,46.48,35.06,4.17,94.01.27c64.06-4.23,103.32,41.5,104.37,96.85h0Z"/>
          <ellipse id="ellipse2" class="cls-6" cx="132.55" cy="107.82" rx="98.08" ry="87.69"/>
          <path id="path3" class="cls-6" d="M130.89,16.49s1.12-8.08,13.91-9.35c12.79-1.27,26.66-5.21,22.38-3.8-.48.16,2.08,5.7,2.08,14.58s-12.63,11.72-12.63,11.72c0,0-16.79-.95-25.74-13.15Z"/>
          <g id="g5" class="cls-8">
            <path id="path4" class="cls-7" d="M156.63,29.64s12.63-2.85,12.63-11.72c0-7.89-2.02-13.13-2.12-14.32-2.99,2.63-5.44,6.59-8.27,13.05-2.66,6.07-10.92,8.26-16.54,9.05,7.35,3.53,14.31,3.93,14.31,3.93h0Z"/>
            <path id="path5" class="cls-7" d="M167.77,3.06c-.05.04-.11.09-.16.13.41-.14.45-.18.16-.13Z"/>
          </g>
          <path id="path6" class="cls-4" d="M206.1,157.37c-16.64,21.97-66.93,30.21-68.71,31l1.44,6.95c24.28-1.37,46.16-10.64,62.47-24.97,3.21-7.31,4.81-12.98,4.81-12.98h0Z"/>
          <path id="path7" class="cls-6" d="M221.16,144.43s5.69,11.16,5,27.16c-.69,15.99-10.69,8.29-13.82,13.24-3.13,4.95-13.7.58-15.57-13.69-1.85-14.27-1.28-36.82,24.39-26.7h0Z"/>
          <path id="path8" d="M226.16,171.58c.04-.77.05-1.52.05-2.27-18.12.11-24.08,7.1-26.04,11.69,3.94,6.12,9.93,7.32,12.16,3.81,3.13-4.95,13.13,2.77,13.82-13.24h0Z"/>
          <path id="rect8" d="M63.41,29.44h0c1.47,2.21.85,5.19-1.38,6.65l-12.11,7.89c-2.23,1.46-5.24.84-6.71-1.37h0c-1.47-2.21-.85-5.19,1.38-6.65l12.11-7.89c2.23-1.46,5.24-.84,6.71,1.37Z"/>
          <path id="rect9" d="M62.27,45.61h1.1c5.62,0,10.18,4.52,10.18,10.09v16.72c0,5.57-4.56,10.09-10.18,10.09h-1.1c-5.62,0-10.18-4.52-10.18-10.09v-16.72c0-5.57,4.56-10.09,10.18-10.09Z"/>
          <path id="rect10" d="M108.64,45.61h1.1c5.62,0,10.18,4.52,10.18,10.09v16.72c0,5.57-4.56,10.09-10.18,10.09h-1.1c-5.62,0-10.18-4.52-10.18-10.09v-16.72c0-5.57,4.56-10.09,10.18-10.09Z"/>
          <path id="rect11" d="M128.71,41.48h0c-1.47,2.21-4.47,2.83-6.71,1.37l-12.11-7.89c-2.23-1.46-2.85-4.43-1.38-6.65h0c1.47-2.21,4.47-2.83,6.71-1.37l12.11,7.89c2.23,1.46,2.85,4.43,1.38,6.65Z"/>
          <path id="path11" d="M69.7,137.38s40.98,8.72,66.11-11.83c0,0-4.56,13.53-24.02,17.42-19.47,3.89-39.57-4.04-42.08-5.6h0Z"/>
          <g id="g13">
            <path id="rect12" class="cls-5" d="M66.43,90.1h38.27c10.21,0,18.48,8.2,18.48,18.31h0c0,10.11-8.28,18.31-18.48,18.31h-38.27c-10.21,0-18.48-8.2-18.48-18.31h0c0-10.11,8.28-18.31,18.48-18.31Z"/>
            <path id="rect13" class="cls-2" d="M66.43,90.1h38.27c10.21,0,18.48,8.2,18.48,18.31h0c0,10.11-8.28,18.31-18.48,18.31h-38.27c-10.21,0-18.48-8.2-18.48-18.31h0c0-10.11,8.28-18.31,18.48-18.31Z"/>
          </g>
          <ellipse id="circle13" cx="67.4" cy="108.39" rx="9.79" ry="9.7"/>
          <ellipse id="circle14" cx="97.83" cy="108.39" rx="9.79" ry="9.7"/>
          <path id="path14" class="cls-1" d="M34.86,25.44C52.62,12.16,75.34,4.5,90.02.61c-23.6,2.3-42.95,10.88-57.54,23.72l2.38,1.12h0Z"/>
          <path id="path15" class="cls-1" d="M25.88,38.46l.48-8.2C9.92,47.75.99,71.36.53,97.13.01,126.48,13.1,154,34.29,172.82-19.25,103.5,25.88,38.46,25.88,38.46Z"/>
          <path id="path16" class="cls-6" d="M18.49,42.95S-5.98,39.93,1.38,13.96c0,0,7.36,6.33,15.35,4.75,8-1.59,12.79-3.17,19.99,6.02,7.19,9.19-.64,22.65-18.22,18.22h0Z"/>
          <path id="path17" class="cls-4" d="M73.72,190.79l.69,3.73c7.98,2.13,16.37,3.27,25.05,3.27,7.24,0,14.29-.8,21.07-2.3l23.03-8.68c-31.59,7.14-69.84,3.98-69.84,3.98Z"/>
          <g id="g19">
            <path id="path18" class="cls-6" d="M106.68,189.13s1.32,14.07,3.41,17.45c.95,1.54,2.59,2.78,4.3,3.4,1.16.42,2.46.54,3.66.21,1.18-.33,2.12-1.22,3.3-1.58,2.03-.61,4.26.04,6.15.78,5.96,2.34,9.08,2.44,11.93-4.32,2.84-6.75,5.3-16.89,3.03-22.89-2.27-6-35.79-10.32-35.79,6.94h0Z"/>
            <path id="path19" d="M139.45,205.08c.57-1.35,1.12-2.83,1.61-4.38-18.77-5.99-28.97-2.61-32.84-.46.51,2.71,1.14,5.17,1.87,6.34.95,1.54,2.59,2.78,4.3,3.4,1.16.42,2.46.54,3.66.21,1.18-.33,2.12-1.22,3.3-1.58,2.03-.61,4.26.04,6.15.78,5.96,2.34,9.08,2.44,11.93-4.32h0Z"/>
          </g>
          <g id="g21">
            <path id="path20" class="cls-6" d="M45.12,179.71s-2.56,11.65,3.07,18.74,9.2,5.07,11.59,3.88c2.39-1.18,2.9,1.52,6.3,3.38,3.41,1.86,14.32,4.22,13.8-13.84-1.75-2.56-5.11-6.7-10.71-9.73-10.71-5.81-21.46-3.14-24.06-2.42h0Z"/>
            <path id="path21" d="M79.32,199.04c-18.55-5.88-29.27-7.09-34.16-7.22.53,2.33,1.46,4.65,3.03,6.62,5.63,7.09,9.2,5.07,11.59,3.88,2.39-1.18,2.9,1.52,6.3,3.38,2.86,1.56,11.02,3.47,13.24-6.67h0Z"/>
          </g>
        </g>
      </g>
    </g>
  </g>
</svg>