<?xml version="1.0" encoding="UTF-8" standalone="no"?>
<svg
   viewBox="0 0 254.73693 210.5404"
   version="1.1"
   id="svg23"
   sodipodi:docname="ahorro_sad.svg"
   inkscape:version="1.4.2 (f4327f4, 2025-05-13)"
   width="254.73694"
   height="210.54041"
   xmlns:inkscape="http://www.inkscape.org/namespaces/inkscape"
   xmlns:sodipodi="http://sodipodi.sourceforge.net/DTD/sodipodi-0.dtd"
   xmlns="http://www.w3.org/2000/svg"
   xmlns:svg="http://www.w3.org/2000/svg">
  <sodipodi:namedview
     id="namedview23"
     pagecolor="#ffffff"
     bordercolor="#000000"
     borderopacity="0.25"
     inkscape:showpageshadow="2"
     inkscape:pageopacity="0.0"
     inkscape:pagecheckerboard="0"
     inkscape:deskcolor="#d1d1d1"
     inkscape:zoom="3.45"
     inkscape:cx="114.92754"
     inkscape:cy="92.318841"
     inkscape:window-width="1920"
     inkscape:window-height="1017"
     inkscape:window-x="-8"
     inkscape:window-y="-8"
     inkscape:window-maximized="1"
     inkscape:current-layer="svg23" />
  <defs
     id="defs1">
    <style
       id="style1">
      .cls-1 {
        fill: #b40023;
      }

      .cls-2 {
        mix-blend-mode: hue;
      }

      .cls-2, .cls-3, .cls-4 {
        fill: #ee3156;
      }

      .cls-5, .cls-6 {
        fill: #f8a2b3;
      }

      .cls-7 {
        isolation: isolate;
      }

      .cls-3 {
        opacity: .3;
      }

      .cls-3, .cls-4, .cls-8 {
        mix-blend-mode: multiply;
      }

      .cls-6 {
        mix-blend-mode: overlay;
      }

      .cls-4 {
        opacity: .63;
      }

      .cls-8 {
        opacity: .6;
      }
    </style>
  </defs>
  <g
     class="cls-7"
     id="g23"
     transform="matrix(0.91177111,0,0,0.89079773,0.00176549,0.00394028)">
    <g
       id="Capa_2"
       data-name="Capa 2">
      <g
         id="Layer_3"
         data-name="Layer 3">
        <g
           id="g22">
          <path
             class="cls-5"
             d="m 249.98,89.27 c 3.54,-2 7.79,-2.82 11.82,-2.09 1.89,0.34 4.04,0.9 5.55,2.16 0.84,0.7 1.97,2.48 0.83,3.45 -1.2,1.03 -3.63,-0.43 -4.71,-1.04 -1.59,-0.91 -3.13,-2.06 -4,-3.71 -1.8,-3.42 0.27,-7.49 3.13,-9.58 4.22,-3.09 9.71,-3.28 14.73,-3.49 2.73,-0.11 2.75,-4.38 0,-4.26 -6.1,0.25 -12.55,0.69 -17.57,4.58 -4.46,3.46 -6.86,9.87 -3.89,15.07 1.34,2.35 3.59,4.09 5.94,5.35 2.35,1.26 5.47,2.33 8.13,0.99 2.66,-1.34 3.43,-4.47 2.6,-7.08 -0.83,-2.61 -3.25,-4.38 -5.75,-5.41 -6.11,-2.51 -13.27,-1.84 -18.98,1.39 -2.39,1.35 -0.24,5.04 2.15,3.68 v 0 z"
             id="path1" />
          <path
             class="cls-5"
             d="m 220.33,108.88 c 1.14,60.61 -48.3,112.85 -109.87,112.85 C 48.42,221.73 -0.46,168.7 0.59,108.88 1.59,52.1 38.94,4.67 104.41,0.3 175.56,-4.44 219.16,46.82 220.33,108.87 Z"
             id="path2"
             style="display:inline" />
          <ellipse
             class="cls-5"
             cx="147.22"
             cy="120.87"
             rx="108.93"
             ry="98.309998"
             id="ellipse2"
             style="display:inline" />
          <path
             class="cls-5"
             d="m 145.37,18.48 c 0,0 1.24,-9.06 15.45,-10.48 14.21,-1.42 29.61,-5.84 24.86,-4.26 -0.53,0.18 2.31,6.39 2.31,16.34 0,9.95 -14.03,13.14 -14.03,13.14 0,0 -18.65,-1.07 -28.59,-14.74 z"
             id="path3" />
          <g
             class="cls-8"
             id="g5">
            <path
               class="cls-1"
               d="m 173.96,33.22 c 0,0 14.03,-3.2 14.03,-13.14 0,-8.84 -2.24,-14.72 -2.36,-16.05 -3.32,2.95 -6.04,7.39 -9.18,14.63 -2.95,6.81 -12.13,9.26 -18.37,10.15 8.16,3.96 15.89,4.41 15.89,4.41 z"
               id="path4" />
            <path
               class="cls-1"
               d="m 186.34,3.43 c -0.06,0.05 -0.12,0.1 -0.18,0.15 0.45,-0.16 0.5,-0.2 0.18,-0.15 z"
               id="path5" />
          </g>
          <path
             class="cls-3"
             d="m 228.91,176.42 c -18.48,24.63 -74.34,33.87 -76.32,34.75 l 1.6,7.79 c 26.97,-1.54 51.27,-11.93 69.38,-27.99 3.57,-8.2 5.34,-14.55 5.34,-14.55 z"
             id="path6" />
          <path
             class="cls-5"
             d="m 245.64,161.91 c 0,0 6.32,12.51 5.55,30.45 -0.77,17.93 -11.87,9.29 -15.35,14.84 -3.48,5.55 -15.22,0.65 -17.29,-15.35 -2.06,-16 -1.42,-41.28 27.09,-29.93 z"
             id="path7" />
          <path
             d="m 251.19,192.35 c 0.04,-0.86 0.05,-1.7 0.06,-2.54 -20.13,0.12 -26.75,7.96 -28.92,13.11 4.38,6.86 11.03,8.21 13.51,4.27 3.48,-5.55 14.58,3.1 15.35,-14.84 z"
             id="path8" />
          <rect
             x="53.82"
             y="26.950001"
             width="10.76"
             height="26.860001"
             rx="5.3800001"
             ry="5.3800001"
             transform="rotate(56.66,59.200958,40.382201)"
             id="rect8" />
          <rect
             x="57.849998"
             y="51.130001"
             width="23.84"
             height="41.360001"
             rx="11.31"
             ry="11.31"
             id="rect9" />
          <rect
             x="109.35"
             y="51.130001"
             width="23.84"
             height="41.360001"
             rx="11.31"
             ry="11.31"
             id="rect10" />
          <rect
             x="126.35"
             y="25.690001"
             width="10.76"
             height="26.860001"
             rx="5.3800001"
             ry="5.3800001"
             transform="rotate(123.34,131.73435,39.122213)"
             id="rect11" />
          <path
             d="m 150.84,154.00038 c 0,0 -45.52,-9.77 -73.43,13.26 0,0 5.06,-15.17 26.68,-19.53 21.63,-4.36 43.95,4.53 46.74,6.28 z"
             id="path11" />
          <g
             id="g13">
            <rect
               class="cls-4"
               x="53.25"
               y="101"
               width="83.559998"
               height="41.049999"
               rx="20.530001"
               ry="20.530001"
               id="rect12" />
            <rect
               class="cls-2"
               x="53.25"
               y="101"
               width="83.559998"
               height="41.049999"
               rx="20.530001"
               ry="20.530001"
               id="rect13" />
          </g>
          <circle
             cx="74.860001"
             cy="121.51"
             r="10.87"
             id="circle13" />
          <circle
             cx="108.65"
             cy="121.51"
             r="10.87"
             id="circle14" />
          <path
             class="cls-6"
             d="M 38.72,28.52 C 58.44,13.63 83.68,5.04 99.98,0.68 73.77,3.26 52.28,12.88 36.07,27.27 l 2.64,1.26 z"
             id="path14" />
          <path
             class="cls-6"
             d="m 28.74,43.11 0.53,-9.19 C 11.02,53.52 1.1,79.99 0.59,108.88 0.01,141.79 14.55,172.64 38.08,193.74 -21.38,116.02 28.74,43.11 28.74,43.11 Z"
             id="path15" />
          <path
             class="cls-5"
             d="m 20.53,48.14 c 0,0 -27.17,-3.38 -19,-32.5 0,0 8.17,7.1 17.05,5.33 8.88,-1.78 14.21,-3.55 22.2,6.75 7.99,10.3 -0.71,25.39 -20.24,20.42 z"
             id="path16" />
          <path
             class="cls-3"
             d="m 81.88,213.88 0.77,4.18 c 8.86,2.39 18.18,3.67 27.82,3.67 8.04,0 15.87,-0.9 23.4,-2.58 l 25.58,-9.73 c -35.09,8 -77.57,4.46 -77.57,4.46 z"
             id="path17" />
          <g
             id="g19">
            <path
               class="cls-5"
               d="m 118.49,212.02 c 0,0 1.47,15.77 3.79,19.56 1.06,1.73 2.88,3.12 4.78,3.81 1.29,0.47 2.73,0.6 4.06,0.23 1.31,-0.37 2.35,-1.37 3.67,-1.77 2.25,-0.68 4.73,0.05 6.83,0.88 6.62,2.62 10.09,2.73 13.25,-4.84 3.15,-7.57 5.89,-18.93 3.36,-25.66 -2.52,-6.73 -39.75,-11.57 -39.75,7.78 z"
               id="path18" />
            <path
               d="m 154.88,229.9 c 0.63,-1.51 1.24,-3.17 1.79,-4.91 -20.85,-6.71 -32.18,-2.93 -36.47,-0.52 0.57,3.04 1.27,5.8 2.08,7.11 1.06,1.73 2.88,3.12 4.78,3.81 1.29,0.47 2.73,0.6 4.06,0.23 1.31,-0.37 2.35,-1.37 3.67,-1.77 2.25,-0.68 4.73,0.05 6.83,0.88 6.62,2.62 10.09,2.73 13.25,-4.84 z"
               id="path19" />
          </g>
          <g
             id="g21">
            <path
               class="cls-5"
               d="m 50.11,201.46 c 0,0 -2.84,13.06 3.41,21.01 6.25,7.95 10.22,5.68 12.87,4.35 2.65,-1.32 3.22,1.7 7,3.79 3.79,2.08 15.9,4.73 15.33,-15.52 -1.94,-2.87 -5.67,-7.51 -11.89,-10.91 -11.9,-6.51 -23.83,-3.52 -26.72,-2.71 z"
               id="path20" />
            <path
               d="m 88.1,223.13 c -20.6,-6.59 -32.51,-7.95 -37.94,-8.09 0.59,2.61 1.62,5.21 3.36,7.42 6.25,7.95 10.22,5.68 12.87,4.35 2.65,-1.32 3.22,1.7 7,3.79 3.18,1.75 12.24,3.89 14.71,-7.48 z"
               id="path21" />
          </g>
        </g>
      </g>
    </g>
  </g>
</svg>
