<?xml version="1.0" encoding="UTF-8"?>
<svg xmlns="http://www.w3.org/2000/svg" viewBox="0 0 338.54 184.43">
  <defs>
    <style>
      .cls-1, .cls-2, .cls-3, .cls-4, .cls-5, .cls-6, .cls-7, .cls-8, .cls-9 {
        fill-rule: evenodd;
      }

      .cls-1, .cls-3, .cls-10 {
        mix-blend-mode: multiply;
      }

      .cls-1, .cls-4, .cls-11, .cls-10 {
        fill: #ee3156;
      }

      .cls-1, .cls-10 {
        opacity: .63;
      }

      .cls-12, .cls-13, .cls-2, .cls-6 {
        fill: #fff;
      }

      .cls-12, .cls-6 {
        opacity: .44;
      }

      .cls-14, .cls-3, .cls-9 {
        fill: #b40023;
      }

      .cls-15 {
        fill: #7aded6;
      }

      .cls-3 {
        opacity: .6;
      }

      .cls-5 {
        fill: #f8a2b3;
      }

      .cls-16 {
        isolation: isolate;
      }

      .cls-7 {
        fill: #4d4d4f;
      }

      .cls-17 {
        fill: #47c4b9;
      }
    </style>
  </defs>
  <g class="cls-16">
    <g id="Capa_2" data-name="Capa 2">
      <g id="Layer_3" data-name="Layer 3">
        <g>
          <g>
            <path d="M16.46.29c-.73.68-.66,2.39-.14,4.53.49,2.15,1.57,4.73,2.69,7.18,1.11,2.46,2.45,4.78,3.41,6.48.97,1.71,1.7,2.79,1.7,2.79,0,0-.66-.8-1.65-1.99-.99-1.18-2.33-2.75-3.76-4.26-2.85-3-5.93-5.82-7.33-4.38-.69.72-.45,2.13.32,3.8.8,1.67,2.12,3.61,3.53,5.43,1.41,1.81,2.97,3.49,4.13,4.72,1.17,1.22,1.98,1.99,1.98,1.99,0,0-.59.31-1.42.84-.83.53-1.91,1.28-2.91,2.17-1.99,1.77-3.69,4.1-2.42,6.06,1.29,1.96,3.65,1.58,5.99.5,2.34-1.08,4.65-2.83,5.9-3.76,1.9-1.42,4.3-.27,5.33.31,1.15,1.18,2.98,3.04,5.28,5.31,2.38,2.25,5.16,4.94,8.42,7.74,3.2,2.81,6.81,5.75,10.56,8.62,3.76,2.87,7.71,5.65,11.6,8.21,1.98,1.27,3.89,2.5,5.8,3.65,1.93,1.14,3.79,2.23,5.57,3.24,3.64,2,6.93,3.72,9.81,5.08,2.82,1.38,5.21,2.41,6.84,3.11,1.63.69,2.55,1.09,2.55,1.09.7-1.91,1.41-3.79,2.14-5.63,0,0-1.06-.43-2.85-1.26-1.8-.83-4.43-2.02-7.49-3.61-3.11-1.57-6.67-3.54-10.5-5.82-1.88-1.15-3.88-2.36-5.85-3.65-1.95-1.3-4-2.64-5.97-4.05-1.96-1.41-3.98-2.85-5.89-4.33-1.9-1.48-3.82-2.97-5.62-4.46-1.79-1.49-3.53-2.97-5.17-4.4-1.61-1.44-3.13-2.83-4.54-4.14-2.79-2.62-5.06-4.91-6.67-6.53-1.57-1.64-2.46-2.58-2.46-2.58-.53-.54-.95-1.71-1.27-3.33-.29-1.62-.49-3.68-.63-5.99-.07-2.32.33-5.25.52-7.68.19-2.43.06-4.37-1.28-4.76-1.34-.4-2.16,1.4-2.64,3.31-.24.96-.4,1.94-.49,2.69-.09.74-.11,1.25-.11,1.25-.67-2.1-1.55-4.9-2.63-7.06-1.02-2.16-2.18-3.68-3.41-3.12-1.22.55-1.04,3.27-.44,5.81.29,1.27.65,2.5.95,3.41.3.91.54,1.5.54,1.5,0,0-.49-1.01-1.22-2.5-.73-1.49-1.74-3.47-2.82-5.39-2.08-3.83-4.52-7.47-5.99-6.11Z"/>
            <g>
              <path class="cls-9" d="M161.64,159.24h16.43l2.57-3.15s-3.38-35.66-21.18-47.27c-17.8-11.61-46.5.84-46.5.84,0,0,4.26,49.93,4.26,50.58,0,.43,26.63.29,44.42.14v-1.14Z"/>
              <path class="cls-7" d="M72.11,143.25c-3.12,31.92-19.46,34.3-26.95,34.37-22.59.12-35.62-8.23-36.81-37.04-1.93-46.53,66.88-29.25,63.76,2.67h0Z"/>
              <path class="cls-8" d="M48.98,106.75c13.52.57,23.88,16.91,23.13,36.5-.74,19.59-12.31,35.02-25.83,34.45-13.52-.57-23.88-16.91-23.13-36.5.74-19.59,12.31-35.02,25.83-34.45h0Z"/>
              <path class="cls-7" d="M164.12,149.96c-1.7,34.06-27.11,34.43-28.62,34.28-24.32.66-37.63-8.39-38.35-36.96-1.16-46.56,66.13-54.88,66.96,2.67h0Z"/>
              <path class="cls-8" d="M139.83,113.46c14.2.57,25.08,16.91,24.29,36.5-.78,19.59-12.93,35.02-27.12,34.45-14.2-.57-25.08-16.91-24.29-36.5.78-19.59,12.93-35.02,27.13-34.45h0Z"/>
              <path class="cls-2" d="M140.99,125.12c9.31,1.14,16.28,11.95,15.77,24.82-.51,12.86-8.33,23.08-17.7,23.48l.45-11.15c2.35-.25,4.49-1.57,6.13-3.62,1.83-2.28,3.03-5.47,3.17-9.03.14-3.56-.8-6.83-2.44-9.25-1.47-2.17-3.5-3.66-5.82-4.09l.44-11.15h0ZM139.25,136.14c-2.7-.04-5.19,1.35-7.03,3.66-1.83,2.28-3.03,5.47-3.17,9.03-.14,3.56.8,6.83,2.44,9.25,1.66,2.44,4.02,4.03,6.72,4.21l-.44,11.12c-9.75-.53-17.2-11.62-16.67-24.9.53-13.27,8.84-23.74,18.6-23.49l-.44,11.12h0ZM144.86,141.37c-1.38-2.03-3.31-3.33-5.49-3.42-2.17-.09-4.21,1.05-5.74,2.97-1.6,1.99-2.65,4.81-2.77,7.98-.13,3.17.7,6.06,2.13,8.17,1.38,2.03,3.31,3.33,5.49,3.42,2.17.09,4.21-1.05,5.74-2.97,1.6-1.99,2.65-4.81,2.77-7.98.13-3.17-.7-6.06-2.13-8.17h0Z"/>
              <path class="cls-9" d="M263.25,154.38l14.73,6.81,57.74-5.07s4.84-14.79-1.15-30.11c-5.98-15.32-29.56-25.13-32.67-23.93-3.11,1.2-29.68,14.48-29.68,14.48l-8.98,37.82h0Z"/>
              <path class="cls-7" d="M334.42,149.37c-.78,19.59-13.27,37.55-34.9,34.14-21.63-3.41-32.85-17.22-32.07-36.81,1.86-46.54,68.99-48.14,66.96,2.67h0Z"/>
              <path class="cls-8" d="M310.12,112.87c14.2.57,25.08,16.91,24.29,36.5-.78,19.59-12.93,35.02-27.12,34.45-14.2-.57-25.08-16.91-24.29-36.5.78-19.59,12.93-35.02,27.12-34.45h0Z"/>
              <path class="cls-2" d="M310.83,123.41c9.31,1.14,16.28,11.95,15.77,24.82-.51,12.86-8.33,23.08-17.7,23.48l.44-11.15c2.35-.25,4.49-1.57,6.13-3.62,1.83-2.28,3.03-5.47,3.17-9.03.14-3.56-.8-6.83-2.44-9.25-1.47-2.17-3.5-3.66-5.82-4.09l.45-11.15h0ZM309.09,134.44c-2.7-.04-5.19,1.35-7.03,3.66-1.83,2.28-3.03,5.47-3.17,9.03-.14,3.56.8,6.83,2.44,9.25,1.66,2.44,4.02,4.03,6.72,4.21l-.44,11.12c-9.75-.53-17.2-11.62-16.67-24.9.53-13.27,8.84-23.74,18.6-23.49l-.44,11.12h0ZM314.71,139.67c-1.38-2.03-3.31-3.33-5.49-3.42-2.17-.09-4.21,1.05-5.74,2.97-1.6,1.99-2.65,4.81-2.77,7.98-.13,3.17.7,6.06,2.13,8.17,1.38,2.03,3.31,3.33,5.49,3.42,2.17.09,4.21-1.06,5.74-2.97,1.6-1.99,2.65-4.81,2.77-7.98.13-3.17-.7-6.06-2.13-8.17h0Z"/>
              <g>
                <path class="cls-15" d="M335.72,156.12s0,0,0,0c-.07.07-.13.15-.2.22.07-.07.14-.14.2-.21Z"/>
                <path class="cls-11" d="M337.37,133.47c-2.79-20.34-8.38-24.73-14.36-33.11-5.98-8.38-10.05-52.42-19.63-69.57-12.14-21.76-34.32-26.17-56.15-26.17h-107.88c-18.61,0-22.23-.75-40.93,8.18-25.53,13.56-54.45,49.86-59.84,53.26-5.39,3.39-20.34,19.15-23.14,29.12-2.79,9.97-14.36,15.36-15.36,33.91-1,18.55,7.15,29.85,10.36,30.09,1.74.13,42.43-.15,94.59.28,1.23-.84,2.05-1.81,2.18-2.85.48-3.95-3.03-38.12,22.14-47.15,30.25-10.86,40.44,27.13,38.03,49.79h110.06c1.52-.62,2.35-1.36,2.35-2.22,0-3.78-3.35-30.49,13.48-42.06,5.69-3.91,11.77-5.5,18.52-4.29,23.66,4.26,26.28,30.99,23.93,45.45,3.52-3.81,3.33-10.35,1.65-22.65Z"/>
              </g>
              <g>
                <path class="cls-10" d="M337.37,133.47c-2.79-20.34-8.38-24.73-14.36-33.11-2-2.8-3.79-9.61-5.64-18.06-13.62.61-33.91,1.66-63.73,3.48-74.49,4.55-130.61,3.37-144.48,21.78-1.42,1.89-2.5.43-4.26,2.47-14.42,16.76-10.59,39.48-10.15,49.34,3.37.02,6.8.05,10.29.08,1.23-.84,2.05-1.81,2.18-2.85.48-3.95-3.03-38.12,22.14-47.15,30.25-10.86,40.44,27.13,38.03,49.79h110.06c1.52-.62,2.35-1.36,2.35-2.22,0-3.78-3.35-30.49,13.48-42.06,5.69-3.91,11.77-5.5,18.52-4.29,23.66,4.26,26.28,30.99,23.93,45.45,3.52-3.81,3.33-10.35,1.65-22.65Z"/>
                <path class="cls-17" d="M335.72,156.12s0,0,0,0c-.07.07-.13.15-.2.22.07-.07.14-.14.2-.21Z"/>
              </g>
              <path class="cls-2" d="M309.85,48.49c1.97,7.35,3.68,15.49,5.27,23.16-2.33.06-5.33-.08-6.58-1.11-2.18-1.78-3.87-14.36-2.34-18.25.77-1.95,2.31-3.12,3.66-3.8h0Z"/>
              <path class="cls-9" d="M14.83,96.97c.23-.59.44-1.18.61-1.8.08-.3.18-.61.29-.92.12.03.26.07.44.11,1.57.42,11.74,2.04,13,1,1.26-1.05.24-2.59.24-2.59,0,0-2.19-5.14-8.06-7.53-.16-.07-.41-.17-.6-.25.39-.57.8-1.14,1.22-1.7,2.73,1.2,4.05,2.25,4.05,2.25,2.71,2.39,5.26,5.09,5.22,8.63-.04,3.54-3.48,4.89-13.49,3.44-1.04-.15-2.01-.37-2.91-.64h0Z"/>
              <path class="cls-2" d="M15.73,94.25c.96-2.82,2.78-6.03,5.02-9.26.19.08.44.18.6.25,5.87,2.39,8.06,7.53,8.06,7.53,0,0,1.01,1.55-.24,2.59-1.26,1.05-11.43-.58-13-1-.18-.05-.32-.08-.44-.11h0Z"/>
              <path class="cls-9" d="M90.83,89.82s5.39-3.49,16.95-5.04c11.57-1.55,12.17,2.24,11.02,5.19-1.15,2.94-5.48,10.47-17.8,11.92-12.32,1.45-16.56.1-16.61-3.44-.05-3.54,3.09-6.23,6.43-8.63h0Z"/>
              <path class="cls-2" d="M86.65,97.05s2.69-5.14,9.92-7.53c7.23-2.39,14.06-2.89,14.66-1.05.6,1.85-4.59,9.37-8.28,10.17-3.69.8-14.46,2.04-16.01,1-1.55-1.05-.3-2.59-.3-2.59h0Z"/>
              <path class="cls-9" d="M50.65,57.16c2.69-3.24,5.49-6.39,8.34-9.49,6.06-6.57,12.47-12.96,19.25-18.76,5.26-4.5,11.01-8.91,17.07-12.22,5.38-2.94,11.03-5.69,16.87-7.58,4.36-1.41,8.65-2.24,13.22-2.59,4.93-.37,9.94-.21,14.88-.2,3.22,0,6.44.03,9.66.09,6.1.11,12.25.29,18.34.69,2.2.15,8.77.52,10.62,1.59.99.57,1.93,1.38,1.98,2.63.05,1.28-.87,2.2-1.81,2.91-1.07.81-2.31,1.52-3.45,2.21-.99.6-2.03,1.47-2.92,2.21-1.55,1.29-3.05,2.64-4.53,4.01-3.88,3.59-7.64,7.35-11.26,11.21-3.07,3.27-6.08,6.66-8.86,10.19-.76.97-1.51,1.96-2.24,2.95-3.11,4.21-6.04,8.61-9.41,12.61-3.08,3.65-6.7,7.13-11.17,8.92-1.9.76-3.88,1.19-5.92,1.27-1.82.07-3.67.05-5.49,0-2.52-.05-5.05-.15-7.57-.26-6.22-.28-12.44-.65-18.66-1.07-7.36-.49-14.72-1.04-22.07-1.66-2.61-.22-5.23-.45-7.83-.72-1.3-.13-2.85-.25-4.13-.52-2.13-.46-3.98-1.73-4.29-4.05-.21-1.56.39-3.19,1.38-4.36h0Z"/>
              <path class="cls-5" d="M51.89,58.22s23.63-28.84,44.2-40.09c20.56-11.25,28.68-10.18,44.2-10.17,15.51.01,35.33.72,37.81,2.15,2.48,1.44.83,2.39-3.31,4.91-4.14,2.51-19.26,16.87-28.01,28-8.74,11.13-15.48,24.65-27.53,25.13-12.05.48-61.45-3.35-65.35-4.19-3.9-.84-3.43-4.07-2.01-5.74h0Z"/>
              <path class="cls-3" d="M123.67,66.04c-1.38-.03-2.9-.07-4.54-.13.16-1.1.25-2.25.25-3.44,0-4.13-1.04-7.83-2.72-10.47-1.49-2.34-3.46-3.79-5.55-3.79s-4.06,1.45-5.55,3.79c-1.68,2.64-2.72,6.34-2.72,10.47,0,.89.05,1.77.14,2.61-1.51-.09-3.04-.19-4.57-.29-.06-.76-.1-1.54-.1-2.32,0-4.99,1.32-9.55,3.45-12.89,2.32-3.64,5.62-5.89,9.35-5.89s7.03,2.25,9.35,5.89c2.13,3.34,3.45,7.9,3.45,12.89,0,1.22-.08,2.41-.23,3.57h0Z"/>
              <path class="cls-3" d="M133.8,60.09c-4.16,4.57-8.74,7.83-14.55,8.06-12.05.48-61.45-3.35-65.35-4.19-2.8-.6-3.35-2.44-2.9-4.05,8.08-1.67,25.25-4.44,46.48-3.31,16.9.89,29.01,2.38,36.32,3.49h0Z"/>
              <path class="cls-2" d="M83.52,41.11c-10.05,10.29,7.54-.84,23.82-10.53,16.28-9.69,27.52-12.57,24.77-15.08-7.41-6.77-43.61,20.51-48.59,25.61h0Z"/>
              <path class="cls-2" d="M119,30.25c-5.02,5.14,4.68,2.19,15.56-4.29,10.88-6.48,18.75-11.15,16.91-12.83-4.95-4.52-27.45,11.97-32.47,17.12h0Z"/>
              <path class="cls-9" d="M160.97,66.09c-.76-6.11-6.93-17.34,5.09-30.36,3.13-3.39,5.95-7.12,9.18-10.42,3.64-3.71,8.88-8.6,13.8-10.43,1.84-.69,4.03-1.05,5.97-1.31,2.75-.38,5.55-.58,8.33-.73,6.93-.36,13.97-.31,20.9-.04,6.99.27,14.09.78,21.02,1.76,4.08.58,10.65,1.63,14.22,3.72,5.9,3.47,9.35,12.57,11.19,18.82,1.18,4.01,2.08,8.16,2.71,12.29.42,2.71.83,5.88.77,8.65l-2.32.17-105.55,7.9-5.21-.03h-.09Z"/>
              <path class="cls-5" d="M271.83,58.22c-21.24,1.66-60.41,4.57-84.6,6.35-.32.02-.62.05-.93.07-.27.02-.53.04-.8.06-.97.07-1.92.14-2.83.21-.26.02-.52.04-.78.06-.26.02-.51.04-.76.06-.5.04-.99.07-1.47.11-.33.02-.65.05-.97.07s-.63.05-.94.07c-.07,0-.14.01-.2.02-.34.02-.67.05-.99.07-1.25.09-2.41.18-3.46.26-.22.02-.44.03-.65.05-.6.05-1.16.09-1.68.13-.05,0-.11,0-.17.01-.1,0-.2.02-.3.02-.14.01-.28.02-.41.03-.21.02-.41.03-.59.05-.13,0-.25.02-.37.03-1.15.08-1.96.14-2.36.17-.03,0-.06,0-.08,0-.14,0-.22.02-.22.02,0-.02,0-.06,0-.11,0-.05,0-.1,0-.17,0-.01,0-.02,0-.04,0-.04,0-.08,0-.13,0-.08-.01-.17-.02-.26,0-.05,0-.09,0-.14-.03-.36-.07-.83-.12-1.38,0-.09-.02-.19-.03-.29,0-.13-.02-.26-.04-.4,0-.06,0-.12-.01-.18,0-.02,0-.05,0-.08,0-.11-.02-.23-.03-.35-.03-.35-.07-.72-.1-1.1-.02-.2-.04-.39-.06-.59-.02-.22-.04-.44-.06-.66-.01-.11-.02-.22-.03-.33-.02-.23-.04-.47-.07-.7-.01-.14-.03-.29-.04-.43-.1-1.09-.21-2.24-.33-3.41-.02-.18-.03-.36-.05-.54-.03-.29-.06-.58-.08-.87-.02-.26-.05-.51-.08-.77-.14-1.44-.28-2.85-.41-4.17-.01-.15-.03-.29-.04-.43-.02-.17-.03-.35-.05-.52-.02-.16-.03-.32-.05-.48-.02-.17-.04-.34-.05-.5-.16-1.62-.29-2.98-.38-3.85-.03-.29-.01-.59.05-.87.08-.39.26-.76.5-1.08.09-.11.18-.24.28-.38.05-.06.09-.13.14-.19.25-.32.53-.7.86-1.11.02-.03.04-.05.06-.08.11-.14.23-.28.34-.44.28-.36.58-.74.9-1.14.13-.16.26-.33.4-.5,1.38-1.72,3.08-3.77,4.97-5.91.11-.13.23-.25.34-.38.81-.92,1.66-1.85,2.53-2.77.15-.15.29-.31.44-.46.15-.16.31-.32.46-.48.33-.34.66-.68,1-1.02l.4-.4c.16-.16.31-.31.47-.47.32-.31.63-.62.95-.92.16-.15.32-.3.48-.45.14-.14.29-.27.43-.41.02-.01.03-.03.04-.04.12-.11.23-.21.35-.32,3.23-2.93,6.5-5.35,9.36-6.41,10.29-3.83,58.88-2.39,68.46,3.23,9.57,5.62,13.76,31.12,13.52,37.94Z"/>
              <path class="cls-4" d="M197.73,15.58c15.9-1.62,46.68-.27,57.95,3.56-10.5-.03-22.88-.07-26.48-.07-6.58,0-7.18,3.92-7.18,3.92v28.99h49.38c.33,2.64.47,4.83.42,6.23-18.38,1.44-54.41,4.12-78.32,5.89,5.72-16.89,9.52-47.19,4.22-48.53h0Z"/>
              <path class="cls-6" d="M253.02,74.16c4.79-.04,8.7,1.98,8.72,4.53.02,2.54-3.84,4.64-8.63,4.69-4.79.04-8.69-1.98-8.72-4.53-.02-2.54,3.84-4.64,8.63-4.69h0Z"/>
              <path class="cls-1" d="M261.74,78.55s0,.1,0,.15c.02,2.54-3.84,4.64-8.63,4.69-4.41.04-8.06-1.67-8.64-3.93,4.18.2,11.69.33,17.27-.9h0Z"/>
              <path class="cls-10" d="M169.83,141.1h69.71c9.53-1.19,16.88-11.45,22.24-24.52,8.41-20.48,10.71-48.05,10.13-58.83l2.25-.11c.6,10.98-1.76,39.01-10.29,59.81-5.66,13.8-13.59,24.65-24.13,25.91h-.13s-69.78,0-69.78,0v-2.26h0Z"/>
              <path class="cls-4" d="M160.11,59.22s5.57.66,6.04-1.71c.48-2.37,1.8-7.84,10.53-7.18,8.74.66,11.97,6.26,10.71,10.87-1.26,4.61-6.1,5.14-11.31,5.27-5.21.13-14.48.33-16.34-.33-1.85-.66-2.57-7.05.36-6.92h0Z"/>
              <path class="cls-1" d="M187.66,59.28c0,.65-.09,1.29-.26,1.92-1.26,4.61-6.1,5.14-11.31,5.27-5.21.13-14.48.33-16.34-.33-.24-.09-.47-.27-.67-.53,3.62-.09,7.63-2.51,9.1-3.56,1.85-1.32,6.64.4,12.63,0,3.29-.22,5.51-1.59,6.84-2.78h0Z"/>
              <path class="cls-10" d="M163.23,66.1c-.02,6.47.74,40.86,8.91,77.26h-2.31c-8.23-36.65-8.88-70.81-8.85-77.29l.09.02h2.16Z"/>
              <path class="cls-12" d="M274.44,121.86s7.33-12.48,18.99-17.09c11.67-4.61,21.03-1.63,21.03-1.63,0,0-6.69-5.91-19.67-2.44-15.74,4.21-20.35,21.16-20.35,21.16Z"/>
              <path class="cls-12" d="M173.21,125.12c1.73-4.44,34.88-4.5,58.17-4.79,23.3-.29,28.01.29,25.36,1.18-2.65.88-85.26,8.06-83.53,3.62Z"/>
              <path class="cls-12" d="M105.55,121.86s7.33-12.48,18.99-17.09c11.67-4.61,21.03-1.63,21.03-1.63,0,0-6.69-5.91-19.67-2.44-15.74,4.21-20.35,21.16-20.35,21.16Z"/>
              <ellipse class="cls-13" cx="53.56" cy="99.36" rx="5.72" ry="2.61"/>
            </g>
            <path d="M324.64,43.55c-.43-.9-1.74-1.02-3.47-.69-1.73.35-3.88,1.06-6.01,1.91-2.13.86-4.22,1.74-5.79,2.47-1.57.73-2.61,1.22-2.61,1.22,0,0,.8-.49,1.97-1.33,1.17-.84,2.7-1.99,4.16-3.25,2.93-2.54,5.56-5.6,4.75-7.36-.4-.88-1.46-.83-2.84-.26-1.38.55-3.08,1.61-4.77,2.79-3.35,2.32-6.63,5.04-6.63,5.04,0,0-.28-2.86-.97-5.54-.69-2.68-1.78-5.14-3.56-4.39-3.57,1.46-2.16,10.55-1.5,13.76.48,2.47-1.2,4.71-2.03,5.61-1.34.82-3.46,2.1-6.2,3.72-2.73,1.57-6.1,3.52-9.88,5.52-3.79,2.04-8.02,4.19-12.49,6.33-4.47,2.14-9.16,4.25-13.86,6.24-2.34.98-4.69,1.94-7,2.86-2.33.89-4.6,1.76-6.79,2.59-4.4,1.6-8.53,3.04-12.07,4.18-3.55,1.17-6.5,2.04-8.57,2.66-2.08.61-3.25.95-3.25.95,1.07,2.18,2.17,4.36,3.29,6.55,0,0,1.35-.37,3.71-1.09,2.35-.72,5.69-1.72,9.64-3.05,3.94-1.3,8.5-2.92,13.29-4.74,4.79-1.82,9.81-3.87,14.73-6.02,4.92-2.16,9.74-4.42,14.18-6.62,2.22-1.12,4.34-2.19,6.33-3.23,1.98-1.07,3.85-2.07,5.57-3,3.42-1.89,6.21-3.52,8.15-4.65,1.93-1.16,3.03-1.83,3.03-1.83.63-.4,1.75-.47,3.22-.34,1.47.12,3.29.46,5.32.92,2.03.42,4.48,1.59,6.59,2.24,2.11.65,3.87.85,4.45-.57.58-1.42-.84-2.65-2.39-3.52-.78-.44-1.58-.78-2.2-1.02-.62-.24-1.04-.38-1.04-.38,1.92-.29,4.49-.84,6.49-1.65,2-.84,3.43-1.96,3.16-3.4-.28-1.44-2.51-1.53-4.68-1.33-1.09.11-2.16.3-2.97.47-.8.17-1.34.29-1.34.29,0,0,.93-.31,2.29-.87,1.36-.56,3.15-1.33,4.87-2.23,3.45-1.85,6.56-4.16,5.69-5.96Z"/>
            <rect x="103.21" y="44.95" width="9.39" height="25.34" rx="4.7" ry="4.7" transform="translate(195.85 -27.41) rotate(107.87)"/>
            <rect x="11.16" y="41.18" width="9.39" height="25.34" rx="4.7" ry="4.7" transform="translate(61.17 20.72) rotate(70.23)"/>
            <rect x="4.75" y="60.08" width="31.3" height="59.88" rx="15.65" ry="15.65" transform="translate(14.9 -2.12) rotate(9.35)"/>
            <rect x="81.67" y="63.01" width="32.37" height="61.93" rx="16.19" ry="16.19" transform="translate(16.57 -14.65) rotate(9.35)"/>
          </g>
          <path d="M19.16,132.03s26.74,8.16,68.45-5.89c0,0-34.9,22.67-68.45,5.89Z"/>
          <path class="cls-14" d="M223.55,99.95c-7.92-3.71-11.82-13.58-11.88-21.91.5.98.88,1.97,1.28,2.96,2.81,6.72,5.64,13.47,10.6,18.95h0Z"/>
        </g>
      </g>
    </g>
  </g>
</svg>