<?xml version="1.0" encoding="UTF-8"?>
<svg id="Capa_1" data-name="Capa 1" xmlns="http://www.w3.org/2000/svg" viewBox="0 0 297.14 165.61">
  <defs>
    <style>
      .cls-1, .cls-2, .cls-3, .cls-4, .cls-5, .cls-6 {
        isolation: isolate;
      }

      .cls-1, .cls-7, .cls-8, .cls-4 {
        fill: #fff;
      }

      .cls-1, .cls-4 {
        opacity: .44;
      }

      .cls-2 {
        opacity: .6;
      }

      .cls-2, .cls-9, .cls-8, .cls-10, .cls-4, .cls-11, .cls-12, .cls-5, .cls-13 {
        fill-rule: evenodd;
      }

      .cls-2, .cls-10, .cls-14 {
        fill: #b49a53;
      }

      .cls-2, .cls-5, .cls-6 {
        mix-blend-mode: multiply;
      }

      .cls-9 {
        fill: #4f4d4e;
      }

      .cls-15 {
        fill: #8a47c4;
      }

      .cls-11, .cls-5, .cls-6 {
        fill: #eec34c;
      }

      .cls-16 {
        fill: #faf139;
      }

      .cls-17 {
        fill: #b07ade;
      }

      .cls-18 {
        fill: #ee9f19;
      }

      .cls-5, .cls-6 {
        opacity: .63;
      }

      .cls-13 {
        fill: #f8cd56;
      }
    </style>
  </defs>
  <g id="g44" class="cls-3">
    <g id="Capa_2" data-name="Capa 2">
      <g id="Layer_3" data-name="Layer 3">
        <g id="g43">
          <g id="g42">
            <path id="path1" d="M36.34,33.55c-.51.49-.46,1.71-.1,3.25.34,1.54,1.1,3.39,1.89,5.15.78,1.76,1.72,3.43,2.39,4.65.68,1.23,1.19,2,1.19,2,0,0-.46-.57-1.16-1.43-.69-.85-1.63-1.97-2.64-3.06-2-2.15-4.16-4.17-5.14-3.14-.48.52-.32,1.53.22,2.73.56,1.2,1.49,2.59,2.47,3.89.99,1.3,2.08,2.5,2.89,3.39.82.88,1.39,1.43,1.39,1.43,0,0-.41.22-1,.6s-1.34.92-2.04,1.56c-1.39,1.27-2.59,2.94-1.7,4.35.9,1.41,2.56,1.13,4.2.36s3.26-2.03,4.14-2.7c1.33-1.02,3.01-.19,3.74.22.81.85,2.09,2.18,3.7,3.81,1.67,1.61,3.62,3.54,5.9,5.55,2.24,2.02,4.77,4.12,7.4,6.18,2.64,2.06,5.4,4.05,8.13,5.89,1.39.91,2.73,1.79,4.07,2.62,1.35.82,2.66,1.6,3.9,2.32,2.55,1.43,4.86,2.67,6.88,3.64,1.98.99,3.65,1.73,4.79,2.23,1.14.49,1.79.78,1.79.78.49-1.37.99-2.72,1.5-4.04,0,0-.74-.31-2-.9-1.26-.6-3.1-1.45-5.25-2.59-2.18-1.13-4.67-2.54-7.36-4.17-1.32-.82-2.72-1.69-4.1-2.62-1.37-.93-2.8-1.89-4.18-2.9-1.37-1.01-2.79-2.04-4.13-3.11-1.33-1.06-2.68-2.13-3.94-3.2-1.25-1.07-2.47-2.13-3.62-3.16-1.13-1.03-2.19-2.03-3.18-2.97-1.96-1.88-3.55-3.52-4.67-4.68-1.1-1.18-1.72-1.85-1.72-1.85-.37-.39-.67-1.23-.89-2.39-.2-1.16-.34-2.64-.44-4.3-.05-1.66.23-3.77.36-5.51.13-1.74.04-3.13-.9-3.41-.94-.29-1.51,1-1.85,2.37-.17.69-.28,1.39-.34,1.93-.06.53-.08.9-.08.9-.47-1.51-1.09-3.51-1.84-5.06-.71-1.55-1.53-2.64-2.39-2.24-.86.39-.73,2.35-.31,4.17.2.91.46,1.79.67,2.45.21.65.38,1.08.38,1.08,0,0-.34-.72-.86-1.79-.51-1.07-1.22-2.49-1.98-3.87-1.46-2.75-3.17-5.36-4.2-4.38v-.02Z"/>
            <g id="g38">
              <path id="path2" class="cls-10" d="M138.1,147.55h11.52l1.8-2.26s-2.37-25.58-14.84-33.9c-12.48-8.33-32.59.6-32.59.6,0,0,2.99,35.81,2.99,36.28,0,.31,18.66.21,31.13.1v-.82Z"/>
              <path id="path3" class="cls-9" d="M75.34,136.08c-2.19,22.89-13.64,24.6-18.89,24.65-15.83.09-24.97-5.9-25.8-26.57-1.35-33.37,46.88-20.98,44.69,1.92Z"/>
              <path id="path4" class="cls-12" d="M59.13,109.9c9.48.41,16.74,12.13,16.21,26.18-.52,14.05-8.63,25.12-18.1,24.71-9.48-.41-16.74-12.13-16.21-26.18.52-14.05,8.63-25.12,18.1-24.71Z"/>
              <path id="path5" class="cls-9" d="M139.83,140.89c-1.19,24.43-19,24.69-20.06,24.59-17.05.47-26.37-6.02-26.88-26.51-.81-33.39,46.35-39.36,46.93,1.92h0Z"/>
              <path id="path6" class="cls-12" d="M122.81,114.71c9.95.41,17.58,12.13,17.02,26.18-.55,14.05-9.06,25.12-19.01,24.71-9.95-.41-17.58-12.13-17.02-26.18.55-14.05,9.06-25.12,19.02-24.71h0Z"/>
              <path id="path7" class="cls-8" d="M123.62,123.08c6.53.82,11.41,8.57,11.05,17.8-.36,9.22-5.84,16.55-12.41,16.84l.32-8c1.65-.18,3.15-1.13,4.3-2.6,1.28-1.64,2.12-3.92,2.22-6.48s-.56-4.9-1.71-6.63c-1.03-1.56-2.45-2.63-4.08-2.93l.31-8h0ZM122.4,130.98c-1.89-.03-3.64.97-4.93,2.63-1.28,1.64-2.12,3.92-2.22,6.48s.56,4.9,1.71,6.63c1.16,1.75,2.82,2.89,4.71,3.02l-.31,7.98c-6.83-.38-12.06-8.33-11.68-17.86.37-9.52,6.2-17.03,13.04-16.85l-.31,7.98h0ZM126.33,134.73c-.97-1.46-2.32-2.39-3.85-2.45-1.52-.06-2.95.75-4.02,2.13-1.12,1.43-1.86,3.45-1.94,5.72-.09,2.27.49,4.35,1.49,5.86.97,1.46,2.32,2.39,3.85,2.45,1.52.06,2.95-.75,4.02-2.13,1.12-1.43,1.86-3.45,1.94-5.72.09-2.27-.49-4.35-1.49-5.86Z"/>
              <path id="path8" class="cls-10" d="M209.31,144.06l10.32,4.88,40.47-3.64s3.39-10.61-.81-21.6c-4.19-10.99-20.72-18.02-22.9-17.16s-20.8,10.39-20.8,10.39l-6.29,27.13h0Z"/>
              <path id="path9" class="cls-9" d="M259.2,140.47c-.55,14.05-9.3,26.93-24.46,24.49-15.16-2.45-23.02-12.35-22.48-26.4,1.3-33.38,48.35-34.53,46.93,1.92h0Z"/>
              <path id="path10" class="cls-12" d="M242.16,114.29c9.95.41,17.58,12.13,17.02,26.18-.55,14.05-9.06,25.12-19.01,24.71-9.95-.41-17.58-12.13-17.02-26.18.55-14.05,9.06-25.12,19.01-24.71Z"/>
              <path id="path11" class="cls-8" d="M242.66,121.85c6.53.82,11.41,8.57,11.05,17.8-.36,9.22-5.84,16.55-12.41,16.84l.31-8c1.65-.18,3.15-1.13,4.3-2.6,1.28-1.64,2.12-3.92,2.22-6.48s-.56-4.9-1.71-6.63c-1.03-1.56-2.45-2.63-4.08-2.93l.32-8h0ZM241.44,129.76c-1.89-.03-3.64.97-4.93,2.63-1.28,1.64-2.12,3.92-2.22,6.48s.56,4.9,1.71,6.63c1.16,1.75,2.82,2.89,4.71,3.02l-.31,7.98c-6.83-.38-12.06-8.33-11.68-17.86.37-9.52,6.2-17.03,13.04-16.85l-.31,7.98h0ZM245.38,133.51c-.97-1.46-2.32-2.39-3.85-2.45-1.52-.06-2.95.75-4.02,2.13-1.12,1.43-1.86,3.45-1.94,5.72-.09,2.27.49,4.35,1.49,5.86.97,1.46,2.32,2.39,3.85,2.45,1.52.06,2.95-.76,4.02-2.13,1.12-1.43,1.86-3.45,1.94-5.72.09-2.27-.49-4.35-1.49-5.86Z"/>
              <g id="g13">
                <path id="path12" class="cls-17" d="M260.11,145.31h0c-.05.05-.09.11-.14.16.05-.05.1-.1.14-.15h0Z"/>
                <path id="path13" class="cls-18" d="M261.26,129.07c-1.96-14.59-5.87-17.74-10.06-23.75-4.19-6.01-7.04-37.6-13.76-49.9-8.51-15.61-24.05-18.77-39.36-18.77h-75.61c-13.04,0-15.58-.54-28.69,5.87-17.89,9.73-38.16,35.76-41.94,38.2-3.78,2.43-14.26,13.74-16.22,20.89-1.96,7.15-10.06,11.02-10.77,24.32-.7,13.3,5.01,21.41,7.26,21.58,1.22.09,29.74-.11,66.3.2.86-.6,1.44-1.3,1.53-2.04.34-2.83-2.12-27.34,15.52-33.82,21.2-7.79,28.34,19.46,26.65,35.71h77.14c1.07-.44,1.65-.98,1.65-1.59,0-2.71-2.35-21.87,9.45-30.17,3.99-2.8,8.25-3.94,12.98-3.08,16.58,3.06,18.42,22.23,16.77,32.6,2.47-2.73,2.33-7.42,1.16-16.25h0Z"/>
              </g>
              <g id="g15">
                <path id="path14" class="cls-6" d="M261.26,129.07c-1.96-14.59-5.87-17.74-10.06-23.75-1.4-2.01-2.66-6.89-3.95-12.95-9.55.44-23.77,1.19-44.67,2.5-52.21,3.26-91.54,2.42-101.27,15.62-1,1.36-1.75.31-2.99,1.77-10.11,12.02-7.42,28.32-7.11,35.39,2.36.01,4.77.04,7.21.06.86-.6,1.44-1.3,1.53-2.04.34-2.83-2.12-27.34,15.52-33.82,21.2-7.79,28.34,19.46,26.65,35.71h77.14c1.07-.44,1.65-.98,1.65-1.59,0-2.71-2.35-21.87,9.45-30.17,3.99-2.8,8.25-3.94,12.98-3.08,16.58,3.06,18.42,22.23,16.77,32.6,2.47-2.73,2.33-7.42,1.16-16.25h0Z"/>
                <path id="path15" class="cls-15" d="M260.11,145.31h0c-.05.05-.09.11-.14.16.05-.05.1-.1.14-.15h0Z"/>
              </g>
              <path id="path16" class="cls-8" d="M241.97,68.12c1.38,5.27,2.58,11.11,3.69,16.61-1.63.04-3.74-.06-4.61-.8-1.53-1.28-2.71-10.3-1.64-13.09.54-1.4,1.62-2.24,2.57-2.73h0Z"/>
              <path id="path17" class="cls-10" d="M35.2,102.89c.16-.42.31-.85.43-1.29.06-.22.13-.44.2-.66.08.02.18.05.31.08,1.1.3,8.23,1.46,9.11.72.88-.75.17-1.86.17-1.86,0,0-1.53-3.69-5.65-5.4-.11-.05-.29-.12-.42-.18.27-.41.56-.82.86-1.22,1.91.86,2.84,1.61,2.84,1.61,1.9,1.71,3.69,3.65,3.66,6.19s-2.44,3.51-9.46,2.47c-.73-.11-1.41-.27-2.04-.46h0Z"/>
              <path id="path18" class="cls-8" d="M35.83,100.94c.67-2.02,1.95-4.32,3.52-6.64.13.06.31.13.42.18,4.11,1.71,5.65,5.4,5.65,5.4,0,0,.71,1.11-.17,1.86-.88.75-8.01-.42-9.11-.72-.13-.04-.22-.06-.31-.08Z"/>
              <path id="path19" class="cls-10" d="M88.46,97.76s3.78-2.5,11.88-3.61c8.11-1.11,8.53,1.61,7.72,3.72-.81,2.11-3.84,7.51-12.48,8.55-8.64,1.04-11.61.07-11.64-2.47s2.17-4.47,4.51-6.19h0Z"/>
              <path id="path20" class="cls-8" d="M85.54,102.95s1.89-3.69,6.95-5.4c5.07-1.71,9.85-2.07,10.28-.75.42,1.33-3.22,6.72-5.8,7.29-2.59.57-10.13,1.46-11.22.72-1.09-.75-.21-1.86-.21-1.86h0Z"/>
              <path id="path21" class="cls-10" d="M60.3,74.33c1.89-2.32,3.85-4.58,5.85-6.81,4.25-4.71,8.74-9.3,13.49-13.46,3.69-3.23,7.72-6.39,11.96-8.76,3.77-2.11,7.73-4.08,11.82-5.44,3.06-1.01,6.06-1.61,9.27-1.86,3.46-.27,6.97-.15,10.43-.14,2.26,0,4.51.02,6.77.06,4.28.08,8.59.21,12.85.49,1.54.11,6.15.37,7.44,1.14.69.41,1.35.99,1.39,1.89.04.92-.61,1.58-1.27,2.09-.75.58-1.62,1.09-2.42,1.59-.69.43-1.42,1.05-2.05,1.59-1.09.93-2.14,1.89-3.18,2.88-2.72,2.57-5.35,5.27-7.89,8.04-2.15,2.35-4.26,4.78-6.21,7.31-.53.7-1.06,1.41-1.57,2.12-2.18,3.02-4.23,6.18-6.6,9.04-2.16,2.62-4.7,5.11-7.83,6.4-1.33.55-2.72.85-4.15.91-1.28.05-2.57.04-3.85,0-1.77-.04-3.54-.11-5.31-.19-4.36-.2-8.72-.47-13.08-.77-5.16-.35-10.32-.75-15.47-1.19-1.83-.16-3.67-.32-5.49-.52-.91-.09-2-.18-2.89-.37-1.49-.33-2.79-1.24-3.01-2.9-.15-1.12.27-2.29.97-3.13h0Z"/>
              <path id="path22" class="cls-13" d="M61.17,75.09s16.56-20.69,30.98-28.75c14.41-8.07,20.1-7.3,30.98-7.29,10.87,0,24.76.52,26.5,1.54,1.74,1.03.58,1.71-2.32,3.52-2.9,1.8-13.5,12.1-19.63,20.08-6.13,7.98-10.85,17.68-19.3,18.02-8.45.34-43.07-2.4-45.8-3.01-2.73-.6-2.4-2.92-1.41-4.12Z"/>
              <path id="path23" class="cls-2" d="M111.48,80.7c-.97-.02-2.03-.05-3.18-.09.11-.79.18-1.61.18-2.47,0-2.96-.73-5.62-1.91-7.51-1.04-1.68-2.43-2.72-3.89-2.72s-2.85,1.04-3.89,2.72c-1.18,1.89-1.91,4.55-1.91,7.51,0,.64.04,1.27.1,1.87-1.06-.06-2.13-.14-3.2-.21-.04-.55-.07-1.1-.07-1.66,0-3.58.93-6.85,2.42-9.25,1.63-2.61,3.94-4.22,6.55-4.22s4.93,1.61,6.55,4.22c1.49,2.4,2.42,5.67,2.42,9.25,0,.88-.06,1.73-.16,2.56h0Z"/>
              <path id="path24" class="cls-2" d="M118.58,76.44c-2.92,3.28-6.13,5.62-10.2,5.78-8.45.34-43.07-2.4-45.8-3.01-1.96-.43-2.35-1.75-2.03-2.9,5.66-1.2,17.7-3.18,32.58-2.37,11.85.64,20.33,1.71,25.46,2.5h0Z"/>
              <path id="path25" class="cls-8" d="M83.34,62.82c-7.04,7.38,5.28-.6,16.7-7.55,11.41-6.95,19.29-9.02,17.36-10.82-5.19-4.86-30.57,14.71-34.06,18.37Z"/>
              <path id="path26" class="cls-8" d="M108.21,55.03c-3.52,3.69,3.28,1.57,10.91-3.08,7.63-4.65,13.14-8,11.85-9.2-3.47-3.24-19.24,8.59-22.76,12.28Z"/>
              <path id="path27" class="cls-10" d="M137.63,80.74c-.53-4.38-4.86-12.44,3.57-21.78,2.19-2.43,4.17-5.11,6.43-7.47,2.55-2.66,6.22-6.17,9.67-7.48,1.29-.49,2.82-.75,4.18-.94,1.93-.27,3.89-.42,5.84-.52,4.86-.26,9.79-.22,14.65-.03,4.9.19,9.88.56,14.73,1.26,2.86.42,7.46,1.17,9.97,2.67,4.14,2.49,6.55,9.02,7.84,13.5.83,2.88,1.46,5.85,1.9,8.81.29,1.94.58,4.22.54,6.2l-1.63.12-73.98,5.67-3.65-.02h-.07Z"/>
              <path id="path28" class="cls-13" d="M215.33,75.09c-14.89,1.19-42.34,3.28-59.3,4.55-.22.01-.43.04-.65.05-.19.01-.37.03-.56.04-.68.05-1.35.1-1.98.15-.18.01-.36.03-.55.04s-.36.03-.53.04c-.35.03-.69.05-1.03.08-.23.01-.46.04-.68.05s-.44.04-.66.05c-.05,0-.1,0-.14.01-.24.01-.47.04-.69.05-.88.06-1.69.13-2.43.19-.15.01-.31.02-.46.04-.42.04-.81.06-1.18.09-.04,0-.08,0-.12,0-.07,0-.14.01-.21.01-.1,0-.2.01-.29.02-.15.01-.29.02-.41.04-.09,0-.18.01-.26.02-.81.06-1.37.1-1.65.12h-.06c-.1,0-.15.01-.15.01v-.32c0-.06,0-.12-.01-.19v-.1c-.02-.26-.05-.6-.08-.99,0-.06-.01-.14-.02-.21,0-.09-.01-.19-.03-.29,0-.04,0-.09,0-.13v-.06c0-.08-.01-.16-.02-.25-.02-.25-.05-.52-.07-.79-.01-.14-.03-.28-.04-.42-.01-.16-.03-.32-.04-.47,0-.08-.01-.16-.02-.24-.01-.16-.03-.34-.05-.5,0-.1-.02-.21-.03-.31-.07-.78-.15-1.61-.23-2.45-.01-.13-.02-.26-.04-.39-.02-.21-.04-.42-.06-.62-.01-.19-.04-.37-.06-.55-.1-1.03-.2-2.04-.29-2.99,0-.11-.02-.21-.03-.31-.01-.12-.02-.25-.04-.37-.01-.11-.02-.23-.04-.34-.01-.12-.03-.24-.04-.36-.11-1.16-.2-2.14-.27-2.76-.02-.21,0-.42.04-.62.06-.28.18-.55.35-.77.06-.08.13-.17.2-.27.04-.04.06-.09.1-.14.18-.23.37-.5.6-.8.01-.02.03-.04.04-.06.08-.1.16-.2.24-.32.2-.26.41-.53.63-.82.09-.11.18-.24.28-.36.97-1.23,2.16-2.7,3.48-4.24.08-.09.16-.18.24-.27.57-.66,1.16-1.33,1.77-1.99.11-.11.2-.22.31-.33.11-.11.22-.23.32-.34.23-.24.46-.49.7-.73l.28-.29c.11-.11.22-.22.33-.34.22-.22.44-.44.67-.66.11-.11.22-.22.34-.32.1-.1.2-.19.3-.29.01,0,.02-.02.03-.03.08-.08.16-.15.25-.23,2.26-2.1,4.56-3.84,6.56-4.6,7.21-2.75,41.27-1.71,47.98,2.32,6.71,4.03,9.64,22.32,9.48,27.21h-.03Z"/>
              <path id="path29" class="cls-11" d="M163.39,44.51c11.14-1.16,32.72-.19,40.62,2.55-7.36-.02-16.04-.05-18.56-.05-4.61,0-5.03,2.81-5.03,2.81v20.79h34.61c.23,1.89.33,3.46.29,4.47-12.88,1.03-38.14,2.96-54.89,4.22,4.01-12.11,6.67-33.85,2.96-34.81h0Z"/>
              <path id="path30" class="cls-4" d="M202.14,86.53c3.36-.03,6.1,1.42,6.11,3.25.01,1.82-2.69,3.33-6.05,3.36-3.36.03-6.09-1.42-6.11-3.25-.01-1.82,2.69-3.33,6.05-3.36h0Z"/>
              <path id="path31" class="cls-5" d="M208.25,89.68v.11c.01,1.82-2.69,3.33-6.05,3.36-3.09.03-5.65-1.2-6.06-2.82,2.93.14,8.19.24,12.1-.65h0Z"/>
              <path id="path32" class="cls-6" d="M143.84,134.54h48.86c6.68-.85,11.83-8.21,15.59-17.59,5.89-14.69,7.51-34.46,7.1-42.19l1.58-.08c.42,7.88-1.23,27.98-7.21,42.9-3.97,9.9-9.53,17.68-16.91,18.58h-49v-1.62Z"/>
              <path id="path33" class="cls-11" d="M137.02,75.81s3.9.47,4.23-1.23c.34-1.7,1.26-5.62,7.38-5.15,6.13.47,8.39,4.49,7.51,7.8s-4.28,3.69-7.93,3.78c-3.65.09-10.15.24-11.45-.24-1.3-.47-1.8-5.06.25-4.96h0Z"/>
              <path id="path34" class="cls-5" d="M156.33,75.86c0,.47-.06.93-.18,1.38-.88,3.31-4.28,3.69-7.93,3.78-3.65.09-10.15.24-11.45-.24-.17-.06-.33-.19-.47-.38,2.54-.06,5.35-1.8,6.38-2.55,1.3-.95,4.65.29,8.85,0,2.31-.16,3.86-1.14,4.79-1.99h0Z"/>
              <path id="path35" class="cls-6" d="M139.21,80.75c-.01,4.64.52,29.31,6.24,55.41h-1.62c-5.77-26.29-6.22-50.79-6.2-55.44h.06s1.51.01,1.51.01h0Z"/>
              <path id="path36" class="cls-1" d="M217.16,120.74s5.14-8.95,13.31-12.26c8.18-3.31,14.74-1.17,14.74-1.17,0,0-4.69-4.24-13.79-1.75-11.03,3.02-14.26,15.18-14.26,15.18h0Z"/>
              <path id="path37" class="cls-1" d="M146.2,123.08c1.21-3.18,24.45-3.23,40.77-3.44,16.33-.21,19.63.21,17.77.85-1.86.63-59.76,5.78-58.55,2.6h0Z"/>
              <path id="path38" class="cls-1" d="M98.78,120.74s5.14-8.95,13.31-12.26c8.18-3.31,14.74-1.17,14.74-1.17,0,0-4.69-4.24-13.79-1.75-11.03,3.02-14.26,15.18-14.26,15.18Z"/>
              <ellipse id="ellipse38" class="cls-7" cx="62.34" cy="104.6" rx="4.01" ry="1.87"/>
            </g>
            <path id="path39" d="M252.34,64.57c-.3-.65-1.22-.73-2.43-.49-1.21.25-2.72.76-4.21,1.37-1.49.62-2.96,1.25-4.06,1.77s-1.83.88-1.83.88c0,0,.56-.35,1.38-.95s1.89-1.43,2.92-2.33c2.05-1.82,3.9-4.02,3.33-5.28-.28-.63-1.02-.6-1.99-.19-.97.39-2.16,1.15-3.34,2-2.35,1.66-4.65,3.61-4.65,3.61,0,0-.2-2.05-.68-3.97s-1.25-3.69-2.5-3.15c-2.5,1.05-1.51,7.57-1.05,9.87.34,1.77-.84,3.38-1.42,4.02-.94.59-2.43,1.51-4.35,2.67-1.91,1.13-4.28,2.52-6.92,3.96-2.66,1.46-5.62,3.01-8.75,4.54s-6.42,3.05-9.71,4.48c-1.64.7-3.29,1.39-4.91,2.05-1.63.64-3.22,1.26-4.76,1.86-3.08,1.15-5.98,2.18-8.46,3-2.49.84-4.56,1.46-6.01,1.91-1.46.44-2.28.68-2.28.68.75,1.56,1.52,3.13,2.31,4.7,0,0,.95-.27,2.6-.78,1.65-.52,3.99-1.23,6.76-2.19,2.76-.93,5.96-2.09,9.31-3.4s6.88-2.78,10.32-4.32c3.45-1.55,6.83-3.17,9.94-4.75,1.56-.8,3.04-1.57,4.44-2.32,1.39-.77,2.7-1.48,3.9-2.15,2.4-1.36,4.35-2.52,5.71-3.34,1.35-.83,2.12-1.31,2.12-1.31.44-.29,1.23-.34,2.26-.24,1.03.09,2.31.33,3.73.66,1.42.3,3.14,1.14,4.62,1.61s2.71.61,3.12-.41c.41-1.02-.59-1.9-1.68-2.52-.55-.32-1.11-.56-1.54-.73-.43-.17-.73-.27-.73-.27,1.35-.21,3.15-.6,4.55-1.18,1.4-.6,2.4-1.41,2.21-2.44-.2-1.03-1.76-1.1-3.28-.95-.76.08-1.51.22-2.08.34-.56.12-.94.21-.94.21,0,0,.65-.22,1.61-.62.95-.4,2.21-.95,3.41-1.6,2.42-1.33,4.6-2.98,3.99-4.27h.02Z"/>
            <path id="rect39" d="M108.88,77.44h0c-.56,1.77-2.41,2.74-4.15,2.17l-10.63-3.51c-1.73-.57-2.68-2.47-2.13-4.24h0c.56-1.77,2.41-2.74,4.15-2.17l10.63,3.51c1.73.57,2.68,2.47,2.13,4.24Z"/>
            <path id="rect40" d="M44.27,68.89h0c.61,1.75-.27,3.68-1.99,4.31l-10.51,3.87c-1.71.63-3.6-.28-4.21-2.03h0c-.61-1.75.27-3.68,1.99-4.31l10.51-3.87c1.71-.63,3.6.28,4.21,2.03Z"/>
            <path id="rect41" d="M42.51,76.71h0c5.98,1.01,10.03,6.78,9.04,12.9l-3.25,20.23c-.98,6.12-6.63,10.26-12.61,9.25h0c-5.98-1.01-10.03-6.78-9.04-12.9l3.25-20.23c.98-6.12,6.63-10.26,12.61-9.25Z"/>
            <path id="rect42" d="M96.92,78.83h0c6.18,1.04,10.37,7.02,9.35,13.34l-3.36,20.91c-1.02,6.33-6.85,10.61-13.04,9.57h0c-6.18-1.04-10.37-7.02-9.35-13.34l3.36-20.91c1.02-6.33,6.85-10.61,13.04-9.57Z"/>
          </g>
          <path id="path42" d="M38.23,128.03s18.74,5.85,47.98-4.22c0,0-24.46,16.26-47.98,4.22Z"/>
          <path id="path43" class="cls-14" d="M181.49,105.03c-5.55-2.66-8.28-9.74-8.33-15.71.35.7.62,1.41.9,2.12,1.97,4.82,3.95,9.66,7.43,13.59Z"/>
        </g>
      </g>
    </g>
  </g>
  <g>
    <path class="cls-16" d="M84.51,1.36l1.65,5.08c.26.81,1.02,1.36,1.87,1.36h5.34c1.9,0,2.69,2.43,1.15,3.55l-4.32,3.14c-.69.5-.98,1.38-.71,2.19l1.65,5.08c.59,1.81-1.48,3.31-3.02,2.19l-4.32-3.14c-.69-.5-1.62-.5-2.31,0l-4.32,3.14c-1.54,1.12-3.61-.39-3.02-2.19l1.65-5.08c.26-.81-.03-1.69-.71-2.19l-4.32-3.14c-1.54-1.12-.75-3.55,1.15-3.55h5.34c.85,0,1.6-.55,1.87-1.36l1.65-5.08c.59-1.81,3.14-1.81,3.73,0Z"/>
    <path class="cls-16" d="M115.1,1.36l1.65,5.08c.26.81,1.02,1.36,1.87,1.36h5.34c1.9,0,2.69,2.43,1.15,3.55l-4.32,3.14c-.69.5-.98,1.38-.71,2.19l1.65,5.08c.59,1.81-1.48,3.31-3.02,2.19l-4.32-3.14c-.69-.5-1.62-.5-2.31,0l-4.32,3.14c-1.54,1.12-3.61-.39-3.02-2.19l1.65-5.08c.26-.81-.03-1.69-.71-2.19l-4.32-3.14c-1.54-1.12-.75-3.55,1.15-3.55h5.34c.85,0,1.6-.55,1.87-1.36l1.65-5.08c.59-1.81,3.14-1.81,3.73,0Z"/>
    <path class="cls-16" d="M145.68,1.36l1.65,5.08c.26.81,1.02,1.36,1.87,1.36h5.34c1.9,0,2.69,2.43,1.15,3.55l-4.32,3.14c-.69.5-.98,1.38-.71,2.19l1.65,5.08c.59,1.81-1.48,3.31-3.02,2.19l-4.32-3.14c-.69-.5-1.62-.5-2.31,0l-4.32,3.14c-1.54,1.12-3.61-.39-3.02-2.19l1.65-5.08c.26-.81-.03-1.69-.71-2.19l-4.32-3.14c-1.54-1.12-.75-3.55,1.15-3.55h5.34c.85,0,1.6-.55,1.87-1.36l1.65-5.08c.59-1.81,3.14-1.81,3.73,0Z"/>
    <path class="cls-16" d="M176.27,1.36l1.65,5.08c.26.81,1.02,1.36,1.87,1.36h5.34c1.9,0,2.69,2.43,1.15,3.55l-4.32,3.14c-.69.5-.98,1.38-.71,2.19l1.65,5.08c.59,1.81-1.48,3.31-3.02,2.19l-4.32-3.14c-.69-.5-1.62-.5-2.31,0l-4.32,3.14c-1.54,1.12-3.61-.39-3.02-2.19l1.65-5.08c.26-.81-.03-1.69-.71-2.19l-4.32-3.14c-1.54-1.12-.75-3.55,1.15-3.55h5.34c.85,0,1.6-.55,1.87-1.36l1.65-5.08c.59-1.81,3.14-1.81,3.73,0Z"/>
    <path class="cls-16" d="M206.85,1.36l1.65,5.08c.26.81,1.02,1.36,1.87,1.36h5.34c1.9,0,2.69,2.43,1.15,3.55l-4.32,3.14c-.69.5-.98,1.38-.71,2.19l1.65,5.08c.59,1.81-1.48,3.31-3.02,2.19l-4.32-3.14c-.69-.5-1.62-.5-2.31,0l-4.32,3.14c-1.54,1.12-3.61-.39-3.02-2.19l1.65-5.08c.26-.81-.03-1.69-.71-2.19l-4.32-3.14c-1.54-1.12-.75-3.55,1.15-3.55h5.34c.85,0,1.6-.55,1.87-1.36l1.65-5.08c.59-1.81,3.14-1.81,3.73,0Z"/>
  </g>
</svg>