<?xml version="1.0" encoding="UTF-8"?>
<svg xmlns="http://www.w3.org/2000/svg" viewBox="0 0 297.14 165.61">
  <defs>
    <style>
      .cls-1, .cls-2, .cls-3, .cls-4 {
        fill: #fff;
      }

      .cls-1, .cls-4 {
        opacity: .44;
      }

      .cls-3, .cls-5, .cls-6, .cls-4, .cls-7, .cls-8, .cls-9, .cls-10, .cls-11 {
        fill-rule: evenodd;
      }

      .cls-5 {
        fill: #e2a0b0;
      }

      .cls-12 {
        isolation: isolate;
      }

      .cls-13, .cls-7 {
        opacity: .63;
      }

      .cls-13, .cls-7, .cls-10, .cls-14 {
        fill: #cc3456;
      }

      .cls-13, .cls-7, .cls-11 {
        mix-blend-mode: multiply;
      }

      .cls-6, .cls-15, .cls-11 {
        fill: #980027;
      }

      .cls-16 {
        fill: #7bc2b7;
      }

      .cls-8 {
        fill: #4e4e50;
      }

      .cls-17 {
        fill: #9ddcd4;
      }

      .cls-11 {
        opacity: .6;
      }
    </style>
  </defs>
  <g class="cls-12">
    <g id="Capa_1" data-name="Capa 1">
      <g>
        <path class="cls-6" d="M140.85,140.43h13.96l2.18-2.68s-2.88-30.31-18-40.18c-15.13-9.87-39.52.71-39.52.71,0,0,3.62,42.44,3.62,42.99,0,.37,22.64.25,37.75.12v-.97Z"/>
        <path class="cls-6" d="M227.21,136.3l12.52,5.79,49.08-4.31s4.11-12.57-.97-25.59c-5.09-13.02-25.12-21.36-27.77-20.34-2.64,1.02-25.23,12.31-25.23,12.31l-7.63,32.14h0Z"/>
        <g>
          <path class="cls-9" d="M149.16,150.9c-.17-.25-.44-.41-.69-.57-2.47-1.58-4.24-4.18-4.92-7.03-.15-.65-.16-1.44-.41-2.04.47-1.82.84-3.8,1.09-5.97.14-1.11.23-2.25.28-3.4.31-7.68-1.5-14.77-4.71-20.23-13.79-25.33-53.02-14.88-52.2,17.96.09,3.66.43,6.94,1.01,9.87.26,4.49,1.25,5.32-.43,9.48-.39.96-.95,1.83-1.45,2.74-.36.66-.69,1.44-.43,2.15.43,1.21,2.08,1.3,3.35,1.19,9.6-.84,20.28,2.7,29.91,3.06,2.61.1,5.27.24,7.79-.45,2.71-.74,5.1-2.39,7.82-3.08,4.06-1.02,8.52.2,12.45-1.27.52-.19,1.04-.45,1.39-.88s.47-1.09.15-1.55Z"/>
          <path class="cls-8" d="M100.81,129.62c.67-16.68,11-29.81,23.09-29.33,3.71.15,7.15,1.57,10.13,3.94-16.64-15.15-47.16-3.61-46.43,25.39.09,3.66.43,6.94,1.01,9.87.26,4.49,1.25,5.32-.43,9.48-.39.96-.95,1.83-1.45,2.74-.36.66-.69,1.44-.43,2.15.43,1.21,2.08,1.3,3.35,1.19,7.44-.65,12.44,3.96,24.05,2.45-7.66-4.9-13.39-15.38-12.89-27.88Z"/>
          <path class="cls-3" d="M124.85,110.78c7.91.97,13.84,10.16,13.41,21.09-.44,10.93-7.08,19.62-15.04,19.96l.38-9.48c2-.21,3.82-1.34,5.21-3.08,1.55-1.94,2.57-4.65,2.69-7.67.12-3.02-.68-5.81-2.07-7.86-1.25-1.84-2.97-3.11-4.95-3.48l.38-9.48h0ZM123.37,120.15c-2.3-.03-4.41,1.15-5.98,3.11-1.55,1.94-2.57,4.65-2.69,7.67-.12,3.02.68,5.81,2.07,7.86,1.41,2.08,3.42,3.43,5.71,3.58l-.38,9.45c-8.29-.45-14.62-9.88-14.17-21.16.45-11.28,7.51-20.17,15.81-19.96l-.38,9.45h0ZM128.14,124.59c-1.17-1.73-2.82-2.83-4.67-2.91-1.85-.07-3.58.9-4.88,2.52-1.36,1.69-2.25,4.09-2.36,6.78-.11,2.69.59,5.15,1.81,6.95,1.17,1.73,2.82,2.83,4.67,2.91,1.85.07,3.58-.9,4.88-2.52,1.36-1.69,2.25-4.09,2.36-6.78.11-2.69-.59-5.15-1.81-6.95h0Z"/>
        </g>
        <g>
          <path class="cls-9" d="M293.5,152.67c-.17-.25-.44-.41-.69-.57-2.47-1.58-4.24-4.18-4.92-7.03-.15-.65-.16-1.44-.41-2.04.47-1.82.84-3.8,1.09-5.97.14-1.11.23-2.25.28-3.4.31-7.68-1.5-14.77-4.71-20.23-13.79-25.33-53.02-14.88-52.2,17.96.09,3.66.43,6.94,1.01,9.87.26,4.49,1.06,4.58-.62,8.73-.39.96-.95,1.83-1.45,2.74-.36.66-.69,1.44-.43,2.15.43,1.21,2.08,1.3,3.35,1.19,9.6-.84,20.47,3.44,30.1,3.81,2.61.1,5.27.24,7.79-.45,2.71-.74,5.1-2.39,7.82-3.08,4.06-1.02,8.52.2,12.45-1.27.52-.19,1.04-.45,1.39-.88s.47-1.09.15-1.55Z"/>
          <path class="cls-8" d="M245.14,131.4c.67-16.68,11-29.81,23.09-29.33,3.71.15,7.15,1.57,10.13,3.94-16.64-15.15-47.16-3.61-46.43,25.39.09,3.66.43,6.94,1.01,9.87.26,4.49,1.06,4.58-.62,8.73-.39.96-.95,1.83-1.45,2.74-.36.66-.69,1.44-.43,2.15.43,1.21,2.08,1.3,3.35,1.19,7.44-.65-2.93,2.2,24.12,3.15-7.66-4.9-13.27-15.34-12.77-27.84Z"/>
          <path class="cls-3" d="M269.18,112.55c7.91.97,13.84,10.16,13.41,21.09-.44,10.93-7.08,19.62-15.04,19.96l.38-9.48c2-.21,3.82-1.34,5.21-3.08,1.55-1.94,2.57-4.65,2.69-7.67.12-3.02-.68-5.81-2.07-7.86-1.25-1.84-2.97-3.11-4.95-3.48l.38-9.48h0ZM267.7,121.92c-2.3-.03-4.41,1.15-5.98,3.11-1.55,1.94-2.57,4.65-2.69,7.67-.12,3.02.68,5.81,2.07,7.86,1.41,2.08,3.42,3.43,5.71,3.58l-.38,9.45c-8.29-.45-14.62-9.88-14.17-21.16.45-11.28,7.51-20.17,15.81-19.96l-.38,9.45h0ZM272.47,126.37c-1.17-1.73-2.82-2.83-4.67-2.91-1.85-.07-3.58.9-4.88,2.52-1.36,1.69-2.25,4.09-2.36,6.78-.11,2.69.59,5.15,1.81,6.95,1.17,1.73,2.82,2.83,4.67,2.91,1.85.07,3.58-.9,4.88-2.52,1.36-1.69,2.25-4.09,2.36-6.78.11-2.69-.59-5.15-1.81-6.95h0Z"/>
        </g>
        <g>
          <path class="cls-9" d="M71.08,149.12c-.17-.25-.44-.41-.69-.57-2.47-1.58-4.24-4.18-4.92-7.03-.15-.65-.16-1.44-.41-2.04.47-1.82.84-3.8,1.09-5.97.14-1.11.23-2.25.28-3.4.31-7.68-1.5-14.77-4.71-20.23-13.79-25.33-53.02-14.88-52.2,17.96.09,3.66.43,6.94,1.01,9.87.26,4.49,2.45,4.7.78,8.85-.39.96-.95,1.83-1.45,2.74-.36.66-.69,1.44-.43,2.15.43,1.21,2.08,1.3,3.35,1.19,9.6-.84,19.08,3.33,28.71,3.69,2.61.1,5.27.24,7.79-.45,2.71-.74,5.1-2.39,7.82-3.08,4.06-1.02,8.52.2,12.45-1.27.52-.19,1.04-.45,1.39-.88s.47-1.09.15-1.55Z"/>
          <path class="cls-8" d="M22.73,127.85c.67-16.68,11-29.81,23.09-29.33,3.71.15,7.15,1.57,10.13,3.94-16.64-15.15-47.16-3.61-46.43,25.39.09,3.66.43,6.94,1.01,9.87.26,4.49,2.45,4.7.78,8.85-.39.96-.95,1.83-1.45,2.74-.36.66-.69,1.44-.43,2.15.43,1.21,2.08,1.3,3.35,1.19,7.44-.65,14.33,1.79,22.17,2.95-7.66-4.9-12.71-15.25-12.22-27.75Z"/>
        </g>
        <path d="M28.03,79.73c.3.8,1.67,1.29,3.52,1.56,1.85.3,4.22.28,6.52.18,2.29-.09,4.55-.4,6.2-.61,1.65-.22,2.74-.44,2.74-.44,0,0-.84.27-2.09.66-1.25.4-2.91.96-4.56,1.6-3.28,1.28-6.48,2.8-5.79,4.37.35.77,1.53,1.04,3.1.96,1.57-.1,3.53-.52,5.4-1.04,1.88-.53,3.7-1.22,5.04-1.75,1.34-.53,2.2-.92,2.2-.92,0,0,.06.56.21,1.39.15.82.4,1.91.78,2.98.75,2.13,2.04,4.22,4,3.85,1.96-.39,2.41-2.37,2.31-4.55-.1-2.19-.74-4.57-1.07-5.85-.51-1.95,1.16-3.47,1.95-4.1,1.3-.53,3.35-1.37,5.87-2.46,2.54-1.16,5.54-2.49,8.79-4.16,3.24-1.62,6.71-3.52,10.17-5.56,3.46-2.04,6.92-4.26,10.18-6.51,1.63-1.15,3.21-2.27,4.73-3.4,1.52-1.15,2.97-2.27,4.34-3.35,2.74-2.23,5.15-4.27,7.14-6.1,1.99-1.78,3.56-3.33,4.64-4.39,1.07-1.06,1.67-1.66,1.67-1.66-1.28-1.16-2.53-2.33-3.75-3.49,0,0-.68.69-1.9,1.84-1.23,1.15-3,2.84-5.24,4.74-2.23,1.95-4.92,4.12-7.94,6.4-1.51,1.11-3.1,2.3-4.75,3.43-1.65,1.12-3.36,2.3-5.1,3.4-1.74,1.09-3.52,2.22-5.29,3.25-1.77,1.02-3.56,2.06-5.31,3-1.75.93-3.47,1.83-5.12,2.66-1.65.8-3.23,1.56-4.71,2.25-2.96,1.36-5.48,2.42-7.27,3.17-1.8.71-2.82,1.11-2.82,1.11-.59.24-1.65.2-3.03-.07-1.37-.29-3.06-.79-4.92-1.42-1.85-.68-4.03-1.94-5.88-2.87-1.85-.93-3.42-1.45-4.16-.52-.74.93.41,2.15,1.76,3.14.68.5,1.4.93,1.96,1.25.56.31.95.48.95.48-1.87-.14-4.36-.35-6.4-.19-2.03.12-3.6.54-3.55,1.68.05,1.14,2.24,1.86,4.43,2.2,1.09.18,2.18.29,2.99.35.81.06,1.35.05,1.35.05,0,0-.95.06-2.36.16-1.41.1-3.29.26-5.14.49-3.68.41-7.33,1.17-6.73,2.76Z"/>
        <g>
          <path class="cls-17" d="M288.81,137.78s0,0,0,0c-.06.06-.11.12-.17.18.06-.06.12-.12.17-.18Z"/>
          <path class="cls-14" d="M290.21,118.53c-2.37-17.29-7.12-21.02-12.21-28.14-5.09-7.12-8.54-44.55-16.68-59.13-10.32-18.49-29.17-22.24-47.73-22.24h-91.69c-15.82,0-18.89-.63-34.79,6.95-21.7,11.53-46.28,42.38-50.86,45.26-4.58,2.88-17.29,16.27-19.67,24.75-2.37,8.48-12.21,13.05-13.05,28.82-.85,15.77,6.08,25.37,8.8,25.58,1.48.11,36.07-.13,80.4.24,1.05-.72,1.75-1.54,1.85-2.43.41-3.36-2.58-32.4,18.82-40.08,25.71-9.23,34.38,23.06,32.32,42.32h93.54c1.29-.53,1.99-1.15,1.99-1.89,0-3.21-2.85-25.92,11.46-35.75,4.83-3.32,10-4.68,15.74-3.64,20.11,3.62,22.34,26.34,20.34,38.63,3-3.23,2.83-8.8,1.4-19.25Z"/>
        </g>
        <g>
          <path class="cls-13" d="M290.21,118.53c-2.37-17.29-7.12-21.02-12.21-28.14-1.7-2.38-3.22-8.17-4.8-15.35-11.58.52-28.82,1.41-54.16,2.96-63.31,3.87-111.01,2.86-122.8,18.51-1.21,1.6-2.13.37-3.62,2.1-12.26,14.25-9,33.56-8.63,41.94,2.87.02,5.78.04,8.74.07,1.05-.72,1.75-1.54,1.85-2.43.41-3.36-2.58-32.4,18.82-40.08,25.71-9.23,34.38,23.06,32.32,42.32h93.54c1.29-.53,1.99-1.15,1.99-1.89,0-3.21-2.85-25.92,11.46-35.75,4.83-3.32,10-4.68,15.74-3.64,20.11,3.62,22.34,26.34,20.34,38.63,3-3.23,2.83-8.8,1.4-19.25Z"/>
          <path class="cls-16" d="M288.81,137.78s0,0,0,0c-.06.06-.11.12-.17.18.06-.06.12-.12.17-.18Z"/>
        </g>
        <path class="cls-3" d="M266.82,46.29c1.68,6.25,3.13,13.17,4.48,19.68-1.98.05-4.53-.07-5.6-.94-1.85-1.52-3.29-12.21-1.99-15.51.65-1.66,1.97-2.65,3.11-3.23h0Z"/>
        <path class="cls-6" d="M16.06,87.51c.2-.5.38-1.01.52-1.53.07-.26.15-.52.24-.78.1.03.22.06.37.1,1.33.35,9.98,1.74,11.05.85,1.07-.89.21-2.2.21-2.2,0,0-1.86-4.37-6.85-6.4-.14-.06-.35-.14-.51-.21.33-.48.68-.97,1.03-1.45,2.32,1.02,3.44,1.91,3.44,1.91,2.31,2.03,4.47,4.32,4.44,7.33-.03,3.01-2.96,4.15-11.46,2.92-.88-.13-1.71-.31-2.48-.54h0Z"/>
        <path class="cls-3" d="M16.83,85.2c.82-2.4,2.36-5.12,4.26-7.87.17.07.37.15.51.21,4.99,2.03,6.85,6.4,6.85,6.4,0,0,.86,1.31-.21,2.2-1.07.89-9.72-.49-11.05-.85-.15-.04-.27-.07-.37-.1h0Z"/>
        <path class="cls-6" d="M80.67,81.43s4.58-2.97,14.41-4.28c9.83-1.31,10.34,1.91,9.37,4.41-.97,2.5-4.66,8.9-15.13,10.13-10.47,1.23-14.07.08-14.11-2.92-.04-3.01,2.63-5.3,5.47-7.33h0Z"/>
        <path class="cls-3" d="M77.11,87.58s2.29-4.37,8.43-6.4c6.15-2.03,11.95-2.46,12.46-.89.51,1.57-3.9,7.97-7.04,8.65-3.14.68-12.29,1.74-13.6.85-1.31-.89-.25-2.2-.25-2.2h0Z"/>
        <path class="cls-6" d="M46.51,53.67c2.29-2.75,4.66-5.43,7.09-8.06,5.15-5.59,10.6-11.01,16.36-15.95,4.47-3.82,9.36-7.57,14.51-10.39,4.57-2.5,9.38-4.84,14.34-6.44,3.71-1.2,7.36-1.91,11.23-2.2,4.19-.31,8.45-.18,12.65-.17,2.74,0,5.47.03,8.21.08,5.19.09,10.41.24,15.59.59,1.87.12,7.45.44,9.03,1.35.84.49,1.64,1.17,1.68,2.23.05,1.09-.74,1.87-1.54,2.47-.91.69-1.96,1.29-2.93,1.88-.85.51-1.72,1.25-2.48,1.88-1.32,1.1-2.6,2.25-3.85,3.41-3.3,3.05-6.5,6.25-9.57,9.53-2.61,2.78-5.17,5.66-7.53,8.66-.65.82-1.28,1.66-1.9,2.51-2.64,3.58-5.14,7.32-8,10.71-2.62,3.1-5.69,6.06-9.49,7.58-1.61.65-3.3,1.01-5.03,1.08-1.55.06-3.12.04-4.66,0-2.14-.04-4.29-.13-6.43-.22-5.29-.23-10.58-.55-15.86-.91-6.26-.42-12.51-.88-18.76-1.41-2.22-.19-4.44-.39-6.66-.61-1.11-.11-2.42-.21-3.51-.44-1.81-.39-3.38-1.47-3.64-3.44-.18-1.32.33-2.71,1.17-3.71h0Z"/>
        <path class="cls-5" d="M47.57,54.57s20.09-24.51,37.56-34.08c17.48-9.56,24.38-8.66,37.56-8.65,13.18,0,30.03.61,32.14,1.83,2.11,1.22.7,2.03-2.81,4.17-3.52,2.14-16.37,14.34-23.8,23.8-7.43,9.46-13.16,20.95-23.4,21.36-10.24.41-52.23-2.85-55.54-3.56-3.31-.71-2.91-3.46-1.71-4.88h0Z"/>
        <path class="cls-11" d="M108.58,61.21c-1.17-.02-2.47-.06-3.86-.11.14-.94.21-1.91.21-2.92,0-3.51-.88-6.66-2.31-8.9-1.27-1.99-2.94-3.22-4.72-3.22s-3.45,1.23-4.72,3.22c-1.43,2.24-2.31,5.38-2.31,8.9,0,.76.04,1.5.12,2.22-1.28-.08-2.58-.16-3.88-.25-.05-.65-.08-1.31-.08-1.97,0-4.24,1.12-8.12,2.93-10.95,1.97-3.09,4.78-5,7.94-5s5.97,1.91,7.94,5c1.81,2.84,2.93,6.71,2.93,10.95,0,1.04-.07,2.05-.19,3.03h0Z"/>
        <path class="cls-11" d="M117.19,56.16c-3.54,3.88-7.43,6.66-12.37,6.85-10.24.41-52.23-2.85-55.54-3.56-2.38-.51-2.84-2.07-2.47-3.44,6.87-1.42,21.46-3.77,39.51-2.82,14.36.76,24.66,2.02,30.87,2.96h0Z"/>
        <path class="cls-3" d="M74.45,40.02c-8.54,8.75,6.41-.71,20.24-8.95,13.83-8.24,23.39-10.68,21.06-12.82-6.3-5.75-37.07,17.44-41.3,21.77h0Z"/>
        <path class="cls-3" d="M104.61,30.79c-4.27,4.37,3.98,1.86,13.22-3.64,9.25-5.51,15.94-9.48,14.38-10.91-4.21-3.84-23.33,10.18-27.6,14.55h0Z"/>
        <path class="cls-6" d="M140.28,61.26c-.64-5.19-5.89-14.74,4.33-25.8,2.66-2.88,5.06-6.05,7.8-8.86,3.09-3.16,7.55-7.31,11.73-8.86,1.56-.58,3.42-.89,5.07-1.11,2.34-.32,4.72-.5,7.08-.62,5.89-.31,11.87-.27,17.76-.04,5.94.23,11.98.66,17.87,1.5,3.47.49,9.05,1.39,12.08,3.17,5.01,2.95,7.95,10.68,9.51,15.99,1,3.41,1.77,6.94,2.31,10.45.35,2.3.71,5,.65,7.35l-1.97.15-89.72,6.71-4.43-.02h-.07Z"/>
        <path class="cls-5" d="M234.5,54.57c-18.05,1.41-51.35,3.88-71.9,5.4-.27.02-.53.04-.79.06-.23.02-.45.03-.68.05-.83.06-1.63.12-2.41.18-.22.02-.44.03-.66.05-.22.02-.44.03-.65.05-.42.03-.84.06-1.25.09-.28.02-.55.04-.82.06s-.54.04-.8.06c-.06,0-.11.01-.17.01-.29.02-.57.04-.84.06-1.06.08-2.05.15-2.94.22-.19.02-.37.03-.56.04-.51.04-.99.07-1.43.11-.05,0-.09,0-.14.01-.09,0-.17.01-.26.02-.12.01-.24.02-.35.03-.18.01-.34.03-.5.04-.11,0-.21.02-.31.02-.98.07-1.66.12-2,.15-.03,0-.05,0-.07,0-.12,0-.19.01-.19.01,0-.02,0-.05,0-.09,0-.04,0-.08,0-.14,0-.01,0-.02,0-.03,0-.03,0-.07,0-.11,0-.07-.01-.14-.02-.22,0-.04,0-.08,0-.12-.03-.31-.06-.7-.1-1.17,0-.08-.02-.16-.02-.24,0-.11-.02-.22-.03-.34,0-.05,0-.1-.01-.15,0-.02,0-.04,0-.06,0-.1-.02-.19-.03-.29-.03-.3-.06-.61-.09-.94-.02-.17-.03-.33-.05-.5-.02-.18-.03-.37-.05-.56-.01-.09-.02-.19-.03-.28-.02-.2-.04-.4-.06-.6-.01-.12-.02-.24-.04-.36-.09-.93-.18-1.9-.28-2.89-.01-.15-.03-.3-.04-.46-.02-.24-.05-.49-.07-.74-.02-.22-.04-.44-.06-.65-.12-1.22-.24-2.43-.35-3.54-.01-.12-.02-.25-.04-.37-.02-.15-.03-.3-.04-.44-.01-.14-.03-.28-.04-.41-.02-.15-.03-.29-.04-.43-.14-1.38-.25-2.53-.32-3.27-.03-.25-.01-.5.04-.74.07-.33.22-.65.42-.92.07-.1.15-.2.24-.32.04-.05.08-.11.12-.16.21-.28.45-.59.73-.94.02-.02.03-.05.05-.07.09-.12.19-.24.29-.37.24-.3.49-.63.77-.97.11-.14.22-.28.34-.42,1.17-1.46,2.62-3.21,4.23-5.02.1-.11.19-.22.29-.32.69-.78,1.41-1.57,2.15-2.35.12-.13.25-.26.37-.39.13-.14.26-.27.39-.41.28-.29.56-.58.85-.87l.34-.34c.13-.13.27-.27.4-.4.27-.26.54-.52.81-.78.14-.13.27-.26.41-.38.12-.11.24-.23.37-.34.01-.01.03-.02.04-.03.1-.09.2-.18.3-.27,2.74-2.49,5.52-4.55,7.95-5.45,8.75-3.26,50.05-2.03,58.18,2.75,8.13,4.78,11.7,26.45,11.49,32.24Z"/>
        <path class="cls-10" d="M171.52,18.33c13.51-1.38,39.68-.23,49.25,3.03-8.92-.03-19.45-.06-22.5-.06-5.59,0-6.1,3.33-6.1,3.33v24.64h41.97c.28,2.25.4,4.11.36,5.3-15.63,1.22-46.25,3.5-66.57,5.01,4.86-14.36,8.09-40.11,3.59-41.25h0Z"/>
        <path class="cls-4" d="M218.52,68.12c4.07-.04,7.39,1.69,7.41,3.85.02,2.16-3.27,3.95-7.34,3.98-4.07.04-7.39-1.69-7.41-3.85-.02-2.16,3.27-3.95,7.34-3.98h0Z"/>
        <path class="cls-7" d="M225.93,71.84s0,.08,0,.12c.02,2.16-3.27,3.95-7.34,3.98-3.75.03-6.85-1.42-7.34-3.34,3.55.17,9.94.28,14.68-.77h0Z"/>
        <path class="cls-13" d="M147.81,125.01h59.25c8.1-1.01,14.34-9.73,18.9-20.84,7.14-17.41,9.11-40.84,8.61-50.01l1.91-.1c.51,9.33-1.5,33.16-8.75,50.83-4.81,11.73-11.55,20.95-20.51,22.03h-.11s-59.31,0-59.31,0v-1.92h0Z"/>
        <path class="cls-10" d="M139.55,55.42s4.73.56,5.14-1.46c.41-2.02,1.53-6.67,8.95-6.11,7.43.56,10.17,5.32,9.1,9.24-1.07,3.92-5.19,4.37-9.61,4.48-4.42.11-12.31.28-13.88-.28-1.58-.56-2.19-5.99.31-5.88h0Z"/>
        <path class="cls-7" d="M162.96,55.47c0,.55-.08,1.1-.22,1.63-1.07,3.92-5.19,4.37-9.61,4.48-4.42.11-12.31.28-13.88-.28-.21-.07-.4-.23-.57-.45,3.08-.08,6.48-2.13,7.74-3.02,1.58-1.12,5.65.34,10.73,0,2.79-.18,4.68-1.35,5.82-2.36h0Z"/>
        <path class="cls-13" d="M142.2,61.27c-.02,5.5.63,34.73,7.57,65.67h-1.96c-6.99-31.15-7.54-60.19-7.52-65.7l.07.02h1.84Z"/>
        <path class="cls-1" d="M236.72,108.66s6.23-10.61,16.14-14.53c9.92-3.92,17.87-1.38,17.87-1.38,0,0-5.69-5.02-16.72-2.08-13.38,3.57-17.3,17.99-17.3,17.99Z"/>
        <path class="cls-1" d="M150.68,111.43c1.47-3.78,29.65-3.82,49.45-4.08,19.8-.25,23.81.25,21.55,1-2.26.75-72.47,6.85-71,3.07Z"/>
        <path class="cls-1" d="M93.17,108.66s6.23-10.61,16.14-14.53c9.92-3.92,17.87-1.38,17.87-1.38,0,0-5.69-5.02-16.72-2.08-13.38,3.57-17.3,17.99-17.3,17.99Z"/>
        <ellipse class="cls-2" cx="48.99" cy="89.54" rx="4.86" ry="2.22"/>
        <path d="M237.98,137.85c-.54.46-1.42.16-2.45-.55-1.02-.72-2.22-1.81-3.35-2.98-1.13-1.17-2.24-2.35-3.05-3.28-.81-.93-1.35-1.55-1.35-1.55,0,0,.38.55.9,1.44.52.88,1.18,2.07,1.77,3.32,1.17,2.5,1.99,5.25.96,6.16-.52.46-1.19.12-1.92-.65-.74-.76-1.54-1.94-2.29-3.19-1.51-2.48-2.85-5.19-2.85-5.19,0,0-1.01,1.78-2.23,3.32-1.23,1.54-2.65,2.83-3.58,1.83-1.9-1.98,1.65-7.48,3-9.38,1.03-1.46.58-3.41.31-4.23-.63-.92-1.64-2.37-2.95-4.21-1.32-1.81-2.95-4.05-4.83-6.44-1.88-2.43-4-5.04-6.29-7.73-2.28-2.68-4.73-5.41-7.2-8.06-1.24-1.31-2.49-2.62-3.72-3.88-1.26-1.25-2.48-2.47-3.66-3.65-2.39-2.31-4.66-4.45-6.63-6.2-1.97-1.78-3.63-3.21-4.8-4.21-1.17-1-1.84-1.56-1.84-1.56,1.33-1.1,2.67-2.21,4.03-3.31,0,0,.77.63,2.09,1.78,1.32,1.15,3.2,2.76,5.38,4.77,2.19,1.98,4.68,4.36,7.27,6.92,2.59,2.57,5.26,5.35,7.83,8.17,2.58,2.82,5.06,5.69,7.3,8.4,1.12,1.37,2.19,2.68,3.18,3.93.98,1.26,1.9,2.46,2.75,3.56,1.68,2.22,3.02,4.08,3.95,5.38.92,1.31,1.44,2.06,1.44,2.06.29.44,1,.81,2,1.15.99.35,2.27.65,3.72.94,1.44.32,3.37.26,4.93.45,1.56.19,2.76.57,2.73,1.66-.04,1.09-1.31,1.48-2.57,1.6-.63.06-1.26.05-1.72.03-.47-.02-.78-.05-.78-.05,1.17.74,2.68,1.84,3.74,2.94,1.06,1.12,1.66,2.27,1.07,3.12-.6.85-2.07.27-3.43-.49-.68-.38-1.32-.82-1.79-1.16-.47-.34-.78-.58-.78-.58,0,0,.52.47,1.24,1.23.72.76,1.66,1.78,2.52,2.86,1.7,2.2,3.06,4.6,1.98,5.52Z"/>
        <rect x="91.19" y="43.29" width="7.98" height="21.54" rx="2.42" ry="2.42" transform="translate(175.83 -19.94) rotate(107.87)"/>
        <rect x="12.95" y="40.08" width="7.98" height="21.54" rx="2.42" ry="2.42" transform="translate(59.07 17.72) rotate(70.23)"/>
        <rect x="7.5" y="56.15" width="26.61" height="50.9" rx="8.06" ry="8.06" transform="translate(13.53 -2.3) rotate(9.35)"/>
        <rect x="72.88" y="58.64" width="27.52" height="52.64" rx="8.33" ry="8.33" transform="translate(14.96 -12.95) rotate(9.35)"/>
        <path d="M77.92,117.55s-22.73-6.94-58.18,5.01c0,0,29.67-19.26,58.18-5.01Z"/>
        <path class="cls-15" d="M177.25,82.17c1.1-6.13,6.63-10.66,12.14-12.92-.58.51-1.18.96-1.77,1.43-4.02,3.25-8.04,6.78-10.37,11.49h0Z"/>
      </g>
    </g>
  </g>
</svg>