<?xml version="1.0" encoding="UTF-8" standalone="no"?>
<svg
   viewBox="0 0 297.13677 165.61378"
   version="1.1"
   id="svg44"
   sodipodi:docname="carro_sad.svg"
   width="297.13678"
   height="165.61377"
   inkscape:version="1.4.2 (f4327f4, 2025-05-13)"
   xmlns:inkscape="http://www.inkscape.org/namespaces/inkscape"
   xmlns:sodipodi="http://sodipodi.sourceforge.net/DTD/sodipodi-0.dtd"
   xmlns="http://www.w3.org/2000/svg"
   xmlns:svg="http://www.w3.org/2000/svg">
  <sodipodi:namedview
     id="namedview44"
     pagecolor="#ffffff"
     bordercolor="#000000"
     borderopacity="0.25"
     inkscape:showpageshadow="2"
     inkscape:pageopacity="0.0"
     inkscape:pagecheckerboard="0"
     inkscape:deskcolor="#d1d1d1"
     inkscape:zoom="4.4190209"
     inkscape:cx="127.85638"
     inkscape:cy="76.826972"
     inkscape:window-width="1920"
     inkscape:window-height="1017"
     inkscape:window-x="-8"
     inkscape:window-y="-8"
     inkscape:window-maximized="1"
     inkscape:current-layer="g43" />
  <defs
     id="defs1">
    <style
       id="style1">
      .cls-1, .cls-2, .cls-3, .cls-4, .cls-5, .cls-6, .cls-7, .cls-8, .cls-9 {
        fill-rule: evenodd;
      }

      .cls-1, .cls-3, .cls-10 {
        mix-blend-mode: multiply;
      }

      .cls-1, .cls-4, .cls-11, .cls-10 {
        fill: #ee3156;
      }

      .cls-1, .cls-10 {
        opacity: .63;
      }

      .cls-12, .cls-13, .cls-2, .cls-6 {
        fill: #fff;
      }

      .cls-12, .cls-6 {
        opacity: .44;
      }

      .cls-14, .cls-3, .cls-9 {
        fill: #b40023;
      }

      .cls-15 {
        fill: #7aded6;
      }

      .cls-3 {
        opacity: .6;
      }

      .cls-5 {
        fill: #f8a2b3;
      }

      .cls-16 {
        isolation: isolate;
      }

      .cls-7 {
        fill: #4d4d4f;
      }

      .cls-17 {
        fill: #47c4b9;
      }
    </style>
  </defs>
  <g
     class="cls-16"
     id="g44"
     transform="matrix(0.87767818,0,0,0.89814085,0.00388369,-0.02612648)">
    <g
       id="Capa_2"
       data-name="Capa 2">
      <g
         id="Layer_3"
         data-name="Layer 3">
        <g
           id="g43">
          <g
             id="g42">
            <path
               d="m 16.46,0.29 c -0.73,0.68 -0.66,2.39 -0.14,4.53 0.49,2.15 1.57,4.73 2.69,7.18 1.11,2.46 2.45,4.78 3.41,6.48 0.97,1.71 1.7,2.79 1.7,2.79 0,0 -0.66,-0.8 -1.65,-1.99 -0.99,-1.18 -2.33,-2.75 -3.76,-4.26 -2.85,-3 -5.93,-5.82 -7.33,-4.38 -0.69,0.72 -0.45,2.13 0.32,3.8 0.8,1.67 2.12,3.61 3.53,5.43 1.41,1.81 2.97,3.49 4.13,4.72 1.17,1.22 1.98,1.99 1.98,1.99 0,0 -0.59,0.31 -1.42,0.84 -0.83,0.53 -1.91,1.28 -2.91,2.17 -1.99,1.77 -3.69,4.1 -2.42,6.06 1.29,1.96 3.65,1.58 5.99,0.5 2.34,-1.08 4.65,-2.83 5.9,-3.76 1.9,-1.42 4.3,-0.27 5.33,0.31 1.15,1.18 2.98,3.04 5.28,5.31 2.38,2.25 5.16,4.94 8.42,7.74 3.2,2.81 6.81,5.75 10.56,8.62 3.76,2.87 7.71,5.65 11.6,8.21 1.98,1.27 3.89,2.5 5.8,3.65 1.93,1.14 3.79,2.23 5.57,3.24 3.64,2 6.93,3.72 9.81,5.08 2.82,1.38 5.21,2.41 6.84,3.11 1.63,0.69 2.55,1.09 2.55,1.09 0.7,-1.91 1.41,-3.79 2.14,-5.63 0,0 -1.06,-0.43 -2.85,-1.26 -1.8,-0.83 -4.43,-2.02 -7.49,-3.61 -3.11,-1.57 -6.67,-3.54 -10.5,-5.82 -1.88,-1.15 -3.88,-2.36 -5.85,-3.65 -1.95,-1.3 -4,-2.64 -5.97,-4.05 -1.96,-1.41 -3.98,-2.85 -5.89,-4.33 -1.9,-1.48 -3.82,-2.97 -5.62,-4.46 -1.79,-1.49 -3.53,-2.97 -5.17,-4.4 C 49.43,40.1 47.91,38.71 46.5,37.4 43.71,34.78 41.44,32.49 39.83,30.87 38.26,29.23 37.37,28.29 37.37,28.29 36.84,27.75 36.42,26.58 36.1,24.96 35.81,23.34 35.61,21.28 35.47,18.97 35.4,16.65 35.8,13.72 35.99,11.29 36.18,8.86 36.05,6.92 34.71,6.53 c -1.34,-0.4 -2.16,1.4 -2.64,3.31 -0.24,0.96 -0.4,1.94 -0.49,2.69 -0.09,0.74 -0.11,1.25 -0.11,1.25 C 30.8,11.68 29.92,8.88 28.84,6.72 27.82,4.56 26.66,3.04 25.43,3.6 c -1.22,0.55 -1.04,3.27 -0.44,5.81 0.29,1.27 0.65,2.5 0.95,3.41 0.3,0.91 0.54,1.5 0.54,1.5 0,0 -0.49,-1.01 -1.22,-2.5 C 24.53,10.33 23.52,8.35 22.44,6.43 20.36,2.6 17.92,-1.04 16.45,0.32 Z"
               id="path1" />
            <g
               id="g38">
              <path
                 class="cls-9"
                 d="m 161.64,159.24 h 16.43 l 2.57,-3.15 c 0,0 -3.38,-35.66 -21.18,-47.27 -17.8,-11.61 -46.5,0.84 -46.5,0.84 0,0 4.26,49.93 4.26,50.58 0,0.43 26.63,0.29 44.42,0.14 z"
                 id="path2" />
              <path
                 class="cls-7"
                 d="M 72.11,143.25 C 68.99,175.17 52.65,177.55 45.16,177.62 22.57,177.74 9.54,169.39 8.35,140.58 6.42,94.05 75.23,111.33 72.11,143.25 Z"
                 id="path3"
                 style="display:inline" />
              <path
                 class="cls-8"
                 d="m 48.98,106.75 c 13.52,0.57 23.88,16.91 23.13,36.5 C 71.37,162.84 59.8,178.27 46.28,177.7 32.76,177.13 22.4,160.79 23.15,141.2 23.89,121.61 35.46,106.18 48.98,106.75 Z"
                 id="path4"
                 style="display:inline" />
              <path
                 class="cls-7"
                 d="m 164.12,149.96 c -1.7,34.06 -27.11,34.43 -28.62,34.28 -24.32,0.66 -37.63,-8.39 -38.35,-36.96 -1.16,-46.56 66.13,-54.88 66.96,2.67 v 0 z"
                 id="path5" />
              <path
                 class="cls-8"
                 d="m 139.83,113.46 c 14.2,0.57 25.08,16.91 24.29,36.5 -0.78,19.59 -12.93,35.02 -27.12,34.45 -14.2,-0.57 -25.08,-16.91 -24.29,-36.5 0.78,-19.59 12.93,-35.02 27.13,-34.45 v 0 z"
                 id="path6" />
              <path
                 class="cls-2"
                 d="m 140.99,125.12 c 9.31,1.14 16.28,11.95 15.77,24.82 -0.51,12.86 -8.33,23.08 -17.7,23.48 l 0.45,-11.15 c 2.35,-0.25 4.49,-1.57 6.13,-3.62 1.83,-2.28 3.03,-5.47 3.17,-9.03 0.14,-3.56 -0.8,-6.83 -2.44,-9.25 -1.47,-2.17 -3.5,-3.66 -5.82,-4.09 l 0.44,-11.15 v 0 z m -1.74,11.02 c -2.7,-0.04 -5.19,1.35 -7.03,3.66 -1.83,2.28 -3.03,5.47 -3.17,9.03 -0.14,3.56 0.8,6.83 2.44,9.25 1.66,2.44 4.02,4.03 6.72,4.21 l -0.44,11.12 c -9.75,-0.53 -17.2,-11.62 -16.67,-24.9 0.53,-13.27 8.84,-23.74 18.6,-23.49 l -0.44,11.12 v 0 z m 5.61,5.23 c -1.38,-2.03 -3.31,-3.33 -5.49,-3.42 -2.17,-0.09 -4.21,1.05 -5.74,2.97 -1.6,1.99 -2.65,4.81 -2.77,7.98 -0.13,3.17 0.7,6.06 2.13,8.17 1.38,2.03 3.31,3.33 5.49,3.42 2.17,0.09 4.21,-1.05 5.74,-2.97 1.6,-1.99 2.65,-4.81 2.77,-7.98 0.13,-3.17 -0.7,-6.06 -2.13,-8.17 z"
                 id="path7" />
              <path
                 class="cls-9"
                 d="m 263.25,154.38 14.73,6.81 57.74,-5.07 c 0,0 4.84,-14.79 -1.15,-30.11 -5.98,-15.32 -29.56,-25.13 -32.67,-23.93 -3.11,1.2 -29.68,14.48 -29.68,14.48 l -8.98,37.82 v 0 z"
                 id="path8" />
              <path
                 class="cls-7"
                 d="m 334.42,149.37 c -0.78,19.59 -13.27,37.55 -34.9,34.14 -21.63,-3.41 -32.85,-17.22 -32.07,-36.81 1.86,-46.54 68.99,-48.14 66.96,2.67 v 0 z"
                 id="path9" />
              <path
                 class="cls-8"
                 d="m 310.12,112.87 c 14.2,0.57 25.08,16.91 24.29,36.5 -0.78,19.59 -12.93,35.02 -27.12,34.45 -14.2,-0.57 -25.08,-16.91 -24.29,-36.5 0.78,-19.59 12.93,-35.02 27.12,-34.45 z"
                 id="path10" />
              <path
                 class="cls-2"
                 d="m 310.83,123.41 c 9.31,1.14 16.28,11.95 15.77,24.82 -0.51,12.86 -8.33,23.08 -17.7,23.48 l 0.44,-11.15 c 2.35,-0.25 4.49,-1.57 6.13,-3.62 1.83,-2.28 3.03,-5.47 3.17,-9.03 0.14,-3.56 -0.8,-6.83 -2.44,-9.25 -1.47,-2.17 -3.5,-3.66 -5.82,-4.09 l 0.45,-11.15 v 0 z m -1.74,11.03 c -2.7,-0.04 -5.19,1.35 -7.03,3.66 -1.83,2.28 -3.03,5.47 -3.17,9.03 -0.14,3.56 0.8,6.83 2.44,9.25 1.66,2.44 4.02,4.03 6.72,4.21 l -0.44,11.12 c -9.75,-0.53 -17.2,-11.62 -16.67,-24.9 0.53,-13.27 8.84,-23.74 18.6,-23.49 l -0.44,11.12 v 0 z m 5.62,5.23 c -1.38,-2.03 -3.31,-3.33 -5.49,-3.42 -2.17,-0.09 -4.21,1.05 -5.74,2.97 -1.6,1.99 -2.65,4.81 -2.77,7.98 -0.13,3.17 0.7,6.06 2.13,8.17 1.38,2.03 3.31,3.33 5.49,3.42 2.17,0.09 4.21,-1.06 5.74,-2.97 1.6,-1.99 2.65,-4.81 2.77,-7.98 0.13,-3.17 -0.7,-6.06 -2.13,-8.17 z"
                 id="path11" />
              <g
                 id="g13">
                <path
                   class="cls-15"
                   d="m 335.72,156.12 c 0,0 0,0 0,0 -0.07,0.07 -0.13,0.15 -0.2,0.22 0.07,-0.07 0.14,-0.14 0.2,-0.21 z"
                   id="path12" />
                <path
                   class="cls-11"
                   d="M 337.37,133.47 C 334.58,113.13 328.99,108.74 323.01,100.36 317.03,91.98 312.96,47.94 303.38,30.79 291.24,9.03 269.06,4.62 247.23,4.62 H 139.35 C 120.74,4.62 117.12,3.87 98.42,12.8 72.89,26.36 43.97,62.66 38.58,66.06 33.19,69.45 18.24,85.21 15.44,95.18 c -2.79,9.97 -14.36,15.36 -15.36,33.91 -1,18.55 7.15,29.85 10.36,30.09 1.74,0.13 42.43,-0.15 94.59,0.28 1.23,-0.84 2.05,-1.81 2.18,-2.85 0.48,-3.95 -3.03,-38.12 22.14,-47.15 30.25,-10.86 40.44,27.13 38.03,49.79 h 110.06 c 1.52,-0.62 2.35,-1.36 2.35,-2.22 0,-3.78 -3.35,-30.49 13.48,-42.06 5.69,-3.91 11.77,-5.5 18.52,-4.29 23.66,4.26 26.28,30.99 23.93,45.45 3.52,-3.81 3.33,-10.35 1.65,-22.65 z"
                   id="path13" />
              </g>
              <g
                 id="g15">
                <path
                   class="cls-10"
                   d="m 337.37,133.47 c -2.79,-20.34 -8.38,-24.73 -14.36,-33.11 -2,-2.8 -3.79,-9.61 -5.64,-18.06 -13.62,0.61 -33.91,1.66 -63.73,3.48 -74.49,4.55 -130.61,3.37 -144.48,21.78 -1.42,1.89 -2.5,0.43 -4.26,2.47 -14.42,16.76 -10.59,39.48 -10.15,49.34 3.37,0.02 6.8,0.05 10.29,0.08 1.23,-0.84 2.05,-1.81 2.18,-2.85 0.48,-3.95 -3.03,-38.12 22.14,-47.15 30.25,-10.86 40.44,27.13 38.03,49.79 h 110.06 c 1.52,-0.62 2.35,-1.36 2.35,-2.22 0,-3.78 -3.35,-30.49 13.48,-42.06 5.69,-3.91 11.77,-5.5 18.52,-4.29 23.66,4.26 26.28,30.99 23.93,45.45 3.52,-3.81 3.33,-10.35 1.65,-22.65 z"
                   id="path14" />
                <path
                   class="cls-17"
                   d="m 335.72,156.12 c 0,0 0,0 0,0 -0.07,0.07 -0.13,0.15 -0.2,0.22 0.07,-0.07 0.14,-0.14 0.2,-0.21 z"
                   id="path15" />
              </g>
              <path
                 class="cls-2"
                 d="m 309.85,48.49 c 1.97,7.35 3.68,15.49 5.27,23.16 -2.33,0.06 -5.33,-0.08 -6.58,-1.11 -2.18,-1.78 -3.87,-14.36 -2.34,-18.25 0.77,-1.95 2.31,-3.12 3.66,-3.8 v 0 z"
                 id="path16"
                 style="display:none" />
              <path
                 class="cls-9"
                 d="m 14.83,96.97 c 0.23,-0.59 0.44,-1.18 0.61,-1.8 0.08,-0.3 0.18,-0.61 0.29,-0.92 0.12,0.03 0.26,0.07 0.44,0.11 1.57,0.42 11.74,2.04 13,1 1.26,-1.05 0.24,-2.59 0.24,-2.59 0,0 -2.19,-5.14 -8.06,-7.53 -0.16,-0.07 -0.41,-0.17 -0.6,-0.25 0.39,-0.57 0.8,-1.14 1.22,-1.7 2.73,1.2 4.05,2.25 4.05,2.25 2.71,2.39 5.26,5.09 5.22,8.63 -0.04,3.54 -3.48,4.89 -13.49,3.44 -1.04,-0.15 -2.01,-0.37 -2.91,-0.64 v 0 z"
                 id="path17" />
              <path
                 class="cls-2"
                 d="m 15.73,94.25 c 0.96,-2.82 2.78,-6.03 5.02,-9.26 0.19,0.08 0.44,0.18 0.6,0.25 5.87,2.39 8.06,7.53 8.06,7.53 0,0 1.01,1.55 -0.24,2.59 -1.26,1.05 -11.43,-0.58 -13,-1 -0.18,-0.05 -0.32,-0.08 -0.44,-0.11 z"
                 id="path18" />
              <path
                 class="cls-9"
                 d="m 90.83,89.82 c 0,0 5.39,-3.49 16.95,-5.04 11.57,-1.55 12.17,2.24 11.02,5.19 -1.15,2.94 -5.48,10.47 -17.8,11.92 -12.32,1.45 -16.56,0.1 -16.61,-3.44 -0.05,-3.54 3.09,-6.23 6.43,-8.63 v 0 z"
                 id="path19" />
              <path
                 class="cls-2"
                 d="m 86.65,97.05 c 0,0 2.69,-5.14 9.92,-7.53 7.23,-2.39 14.06,-2.89 14.66,-1.05 0.6,1.85 -4.59,9.37 -8.28,10.17 -3.69,0.8 -14.46,2.04 -16.01,1 -1.55,-1.05 -0.3,-2.59 -0.3,-2.59 v 0 z"
                 id="path20" />
              <path
                 class="cls-9"
                 d="m 50.65,57.16 c 2.69,-3.24 5.49,-6.39 8.34,-9.49 C 65.05,41.1 71.46,34.71 78.24,28.91 83.5,24.41 89.25,20 95.31,16.69 c 5.38,-2.94 11.03,-5.69 16.87,-7.58 4.36,-1.41 8.65,-2.24 13.22,-2.59 4.93,-0.37 9.94,-0.21 14.88,-0.2 3.22,0 6.44,0.03 9.66,0.09 6.1,0.11 12.25,0.29 18.34,0.69 2.2,0.15 8.77,0.52 10.62,1.59 0.99,0.57 1.93,1.38 1.98,2.63 0.05,1.28 -0.87,2.2 -1.81,2.91 -1.07,0.81 -2.31,1.52 -3.45,2.21 -0.99,0.6 -2.03,1.47 -2.92,2.21 -1.55,1.29 -3.05,2.64 -4.53,4.01 -3.88,3.59 -7.64,7.35 -11.26,11.21 -3.07,3.27 -6.08,6.66 -8.86,10.19 -0.76,0.97 -1.51,1.96 -2.24,2.95 -3.11,4.21 -6.04,8.61 -9.41,12.61 -3.08,3.65 -6.7,7.13 -11.17,8.92 -1.9,0.76 -3.88,1.19 -5.92,1.27 -1.82,0.07 -3.67,0.05 -5.49,0 -2.52,-0.05 -5.05,-0.15 -7.57,-0.26 C 100.03,69.27 93.81,68.9 87.59,68.48 80.23,67.99 72.87,67.44 65.52,66.82 62.91,66.6 60.29,66.37 57.69,66.1 c -1.3,-0.13 -2.85,-0.25 -4.13,-0.52 -2.13,-0.46 -3.98,-1.73 -4.29,-4.05 -0.21,-1.56 0.39,-3.19 1.38,-4.36 v 0 z"
                 id="path21" />
              <path
                 class="cls-5"
                 d="m 51.89,58.22 c 0,0 23.63,-28.84 44.2,-40.09 20.56,-11.25 28.68,-10.18 44.2,-10.17 15.51,0.01 35.33,0.72 37.81,2.15 2.48,1.44 0.83,2.39 -3.31,4.91 -4.14,2.51 -19.26,16.87 -28.01,28 C 138.04,54.15 131.3,67.67 119.25,68.15 107.2,68.63 57.8,64.8 53.9,63.96 50,63.12 50.47,59.89 51.89,58.22 Z"
                 id="path22" />
              <path
                 class="cls-3"
                 d="m 123.67,66.04 c -1.38,-0.03 -2.9,-0.07 -4.54,-0.13 0.16,-1.1 0.25,-2.25 0.25,-3.44 0,-4.13 -1.04,-7.83 -2.72,-10.47 -1.49,-2.34 -3.46,-3.79 -5.55,-3.79 -2.09,0 -4.06,1.45 -5.55,3.79 -1.68,2.64 -2.72,6.34 -2.72,10.47 0,0.89 0.05,1.77 0.14,2.61 -1.51,-0.09 -3.04,-0.19 -4.57,-0.29 -0.06,-0.76 -0.1,-1.54 -0.1,-2.32 0,-4.99 1.32,-9.55 3.45,-12.89 2.32,-3.64 5.62,-5.89 9.35,-5.89 3.73,0 7.03,2.25 9.35,5.89 2.13,3.34 3.45,7.9 3.45,12.89 0,1.22 -0.08,2.41 -0.23,3.57 v 0 z"
                 id="path23" />
              <path
                 class="cls-3"
                 d="m 133.8,60.09 c -4.16,4.57 -8.74,7.83 -14.55,8.06 C 107.2,68.63 57.8,64.8 53.9,63.96 51.1,63.36 50.55,61.52 51,59.91 c 8.08,-1.67 25.25,-4.44 46.48,-3.31 16.9,0.89 29.01,2.38 36.32,3.49 z"
                 id="path24" />
              <path
                 class="cls-2"
                 d="M 83.52,41.11 C 73.47,51.4 91.06,40.27 107.34,30.58 123.62,20.89 134.86,18.01 132.11,15.5 124.7,8.73 88.5,36.01 83.52,41.11 Z"
                 id="path25" />
              <path
                 class="cls-2"
                 d="m 119,30.25 c -5.02,5.14 4.68,2.19 15.56,-4.29 10.88,-6.48 18.75,-11.15 16.91,-12.83 C 146.52,8.61 124.02,25.1 119,30.25 Z"
                 id="path26" />
              <path
                 class="cls-9"
                 d="m 160.97,66.09 c -0.76,-6.11 -6.93,-17.34 5.09,-30.36 3.13,-3.39 5.95,-7.12 9.18,-10.42 3.64,-3.71 8.88,-8.6 13.8,-10.43 1.84,-0.69 4.03,-1.05 5.97,-1.31 2.75,-0.38 5.55,-0.58 8.33,-0.73 6.93,-0.36 13.97,-0.31 20.9,-0.04 6.99,0.27 14.09,0.78 21.02,1.76 4.08,0.58 10.65,1.63 14.22,3.72 5.9,3.47 9.35,12.57 11.19,18.82 1.18,4.01 2.08,8.16 2.71,12.29 0.42,2.71 0.83,5.88 0.77,8.65 l -2.32,0.17 -105.55,7.9 -5.21,-0.03 h -0.09 z"
                 id="path27" />
              <path
                 class="cls-5"
                 d="m 271.83,58.22 c -21.24,1.66 -60.41,4.57 -84.6,6.35 -0.32,0.02 -0.62,0.05 -0.93,0.07 -0.27,0.02 -0.53,0.04 -0.8,0.06 -0.97,0.07 -1.92,0.14 -2.83,0.21 -0.26,0.02 -0.52,0.04 -0.78,0.06 -0.26,0.02 -0.51,0.04 -0.76,0.06 -0.5,0.04 -0.99,0.07 -1.47,0.11 -0.33,0.02 -0.65,0.05 -0.97,0.07 -0.32,0.02 -0.63,0.05 -0.94,0.07 -0.07,0 -0.14,0.01 -0.2,0.02 -0.34,0.02 -0.67,0.05 -0.99,0.07 -1.25,0.09 -2.41,0.18 -3.46,0.26 -0.22,0.02 -0.44,0.03 -0.65,0.05 -0.6,0.05 -1.16,0.09 -1.68,0.13 -0.05,0 -0.11,0 -0.17,0.01 -0.1,0 -0.2,0.02 -0.3,0.02 -0.14,0.01 -0.28,0.02 -0.41,0.03 -0.21,0.02 -0.41,0.03 -0.59,0.05 -0.13,0 -0.25,0.02 -0.37,0.03 -1.15,0.08 -1.96,0.14 -2.36,0.17 -0.03,0 -0.06,0 -0.08,0 -0.14,0 -0.22,0.02 -0.22,0.02 0,-0.02 0,-0.06 0,-0.11 0,-0.05 0,-0.1 0,-0.17 0,-0.01 0,-0.02 0,-0.04 0,-0.04 0,-0.08 0,-0.13 0,-0.08 -0.01,-0.17 -0.02,-0.26 0,-0.05 0,-0.09 0,-0.14 -0.03,-0.36 -0.07,-0.83 -0.12,-1.38 0,-0.09 -0.02,-0.19 -0.03,-0.29 0,-0.13 -0.02,-0.26 -0.04,-0.4 0,-0.06 0,-0.12 -0.01,-0.18 0,-0.02 0,-0.05 0,-0.08 0,-0.11 -0.02,-0.23 -0.03,-0.35 -0.03,-0.35 -0.07,-0.72 -0.1,-1.1 -0.02,-0.2 -0.04,-0.39 -0.06,-0.59 -0.02,-0.22 -0.04,-0.44 -0.06,-0.66 -0.01,-0.11 -0.02,-0.22 -0.03,-0.33 -0.02,-0.23 -0.04,-0.47 -0.07,-0.7 -0.01,-0.14 -0.03,-0.29 -0.04,-0.43 -0.1,-1.09 -0.21,-2.24 -0.33,-3.41 -0.02,-0.18 -0.03,-0.36 -0.05,-0.54 -0.03,-0.29 -0.06,-0.58 -0.08,-0.87 -0.02,-0.26 -0.05,-0.51 -0.08,-0.77 -0.14,-1.44 -0.28,-2.85 -0.41,-4.17 -0.01,-0.15 -0.03,-0.29 -0.04,-0.43 -0.02,-0.17 -0.03,-0.35 -0.05,-0.52 -0.02,-0.16 -0.03,-0.32 -0.05,-0.48 -0.02,-0.17 -0.04,-0.34 -0.05,-0.5 -0.16,-1.62 -0.29,-2.98 -0.38,-3.85 -0.03,-0.29 -0.01,-0.59 0.05,-0.87 0.08,-0.39 0.26,-0.76 0.5,-1.08 0.09,-0.11 0.18,-0.24 0.28,-0.38 0.05,-0.06 0.09,-0.13 0.14,-0.19 0.25,-0.32 0.53,-0.7 0.86,-1.11 0.02,-0.03 0.04,-0.05 0.06,-0.08 0.11,-0.14 0.23,-0.28 0.34,-0.44 0.28,-0.36 0.58,-0.74 0.9,-1.14 0.13,-0.16 0.26,-0.33 0.4,-0.5 1.38,-1.72 3.08,-3.77 4.97,-5.91 0.11,-0.13 0.23,-0.25 0.34,-0.38 0.81,-0.92 1.66,-1.85 2.53,-2.77 0.15,-0.15 0.29,-0.31 0.44,-0.46 0.15,-0.16 0.31,-0.32 0.46,-0.48 0.33,-0.34 0.66,-0.68 1,-1.02 l 0.4,-0.4 c 0.16,-0.16 0.31,-0.31 0.47,-0.47 0.32,-0.31 0.63,-0.62 0.95,-0.92 0.16,-0.15 0.32,-0.3 0.48,-0.45 0.14,-0.14 0.29,-0.27 0.43,-0.41 0.02,-0.01 0.03,-0.03 0.04,-0.04 0.12,-0.11 0.23,-0.21 0.35,-0.32 3.23,-2.93 6.5,-5.35 9.36,-6.41 10.29,-3.83 58.88,-2.39 68.46,3.23 9.57,5.62 13.76,31.12 13.52,37.94 z"
                 id="path28" />
              <path
                 class="cls-4"
                 d="m 197.73,15.58 c 15.9,-1.62 46.68,-0.27 57.95,3.56 -10.5,-0.03 -22.88,-0.07 -26.48,-0.07 -6.58,0 -7.18,3.92 -7.18,3.92 v 28.99 h 49.38 c 0.33,2.64 0.47,4.83 0.42,6.23 -18.38,1.44 -54.41,4.12 -78.32,5.89 5.72,-16.89 9.52,-47.19 4.22,-48.53 v 0 z"
                 id="path29" />
              <path
                 class="cls-6"
                 d="m 253.02,74.16 c 4.79,-0.04 8.7,1.98 8.72,4.53 0.02,2.54 -3.84,4.64 -8.63,4.69 -4.79,0.04 -8.69,-1.98 -8.72,-4.53 -0.02,-2.54 3.84,-4.64 8.63,-4.69 z"
                 id="path30" />
              <path
                 class="cls-1"
                 d="m 261.74,78.55 c 0,0 0,0.1 0,0.15 0.02,2.54 -3.84,4.64 -8.63,4.69 -4.41,0.04 -8.06,-1.67 -8.64,-3.93 4.18,0.2 11.69,0.33 17.27,-0.9 v 0 z"
                 id="path31" />
              <path
                 class="cls-10"
                 d="m 169.83,141.1 h 69.71 c 9.53,-1.19 16.88,-11.45 22.24,-24.52 8.41,-20.48 10.71,-48.05 10.13,-58.83 l 2.25,-0.11 c 0.6,10.98 -1.76,39.01 -10.29,59.81 -5.66,13.8 -13.59,24.65 -24.13,25.91 h -0.13 c 0,0 -69.78,0 -69.78,0 z"
                 id="path32" />
              <path
                 class="cls-4"
                 d="m 160.11,59.22 c 0,0 5.57,0.66 6.04,-1.71 0.48,-2.37 1.8,-7.84 10.53,-7.18 8.74,0.66 11.97,6.26 10.71,10.87 -1.26,4.61 -6.1,5.14 -11.31,5.27 -5.21,0.13 -14.48,0.33 -16.34,-0.33 -1.85,-0.66 -2.57,-7.05 0.36,-6.92 v 0 z"
                 id="path33" />
              <path
                 class="cls-1"
                 d="m 187.66,59.28 c 0,0.65 -0.09,1.29 -0.26,1.92 -1.26,4.61 -6.1,5.14 -11.31,5.27 -5.21,0.13 -14.48,0.33 -16.34,-0.33 -0.24,-0.09 -0.47,-0.27 -0.67,-0.53 3.62,-0.09 7.63,-2.51 9.1,-3.56 1.85,-1.32 6.64,0.4 12.63,0 3.29,-0.22 5.51,-1.59 6.84,-2.78 v 0 z"
                 id="path34" />
              <path
                 class="cls-10"
                 d="m 163.23,66.1 c -0.02,6.47 0.74,40.86 8.91,77.26 h -2.31 c -8.23,-36.65 -8.88,-70.81 -8.85,-77.29 l 0.09,0.02 h 2.16 z"
                 id="path35" />
              <path
                 class="cls-12"
                 d="m 274.44,121.86 c 0,0 7.33,-12.48 18.99,-17.09 11.67,-4.61 21.03,-1.63 21.03,-1.63 0,0 -6.69,-5.91 -19.67,-2.44 -15.74,4.21 -20.35,21.16 -20.35,21.16 z"
                 id="path36" />
              <path
                 class="cls-12"
                 d="m 173.21,125.12 c 1.73,-4.44 34.88,-4.5 58.17,-4.79 23.3,-0.29 28.01,0.29 25.36,1.18 -2.65,0.88 -85.26,8.06 -83.53,3.62 z"
                 id="path37" />
              <path
                 class="cls-12"
                 d="m 105.55,121.86 c 0,0 7.33,-12.48 18.99,-17.09 11.67,-4.61 21.03,-1.63 21.03,-1.63 0,0 -6.69,-5.91 -19.67,-2.44 -15.74,4.21 -20.35,21.16 -20.35,21.16 z"
                 id="path38" />
              <ellipse
                 class="cls-13"
                 cx="53.560001"
                 cy="99.360001"
                 rx="5.7199998"
                 ry="2.6099999"
                 id="ellipse38" />
            </g>
            <path
               d="m 324.64,43.55 c -0.43,-0.9 -1.74,-1.02 -3.47,-0.69 -1.73,0.35 -3.88,1.06 -6.01,1.91 -2.13,0.86 -4.22,1.74 -5.79,2.47 -1.57,0.73 -2.61,1.22 -2.61,1.22 0,0 0.8,-0.49 1.97,-1.33 1.17,-0.84 2.7,-1.99 4.16,-3.25 2.93,-2.54 5.56,-5.6 4.75,-7.36 -0.4,-0.88 -1.46,-0.83 -2.84,-0.26 -1.38,0.55 -3.08,1.61 -4.77,2.79 -3.35,2.32 -6.63,5.04 -6.63,5.04 0,0 -0.28,-2.86 -0.97,-5.54 -0.69,-2.68 -1.78,-5.14 -3.56,-4.39 -3.57,1.46 -2.16,10.55 -1.5,13.76 0.48,2.47 -1.2,4.71 -2.03,5.61 -1.34,0.82 -3.46,2.1 -6.2,3.72 -2.73,1.57 -6.1,3.52 -9.88,5.52 -3.79,2.04 -8.02,4.19 -12.49,6.33 -4.47,2.14 -9.16,4.25 -13.86,6.24 -2.34,0.98 -4.69,1.94 -7,2.86 -2.33,0.89 -4.6,1.76 -6.79,2.59 -4.4,1.6 -8.53,3.04 -12.07,4.18 -3.55,1.17 -6.5,2.04 -8.57,2.66 -2.08,0.61 -3.25,0.95 -3.25,0.95 1.07,2.18 2.17,4.36 3.29,6.55 0,0 1.35,-0.37 3.71,-1.09 2.35,-0.72 5.69,-1.72 9.64,-3.05 3.94,-1.3 8.5,-2.92 13.29,-4.74 4.79,-1.82 9.81,-3.87 14.73,-6.02 4.92,-2.16 9.74,-4.42 14.18,-6.62 2.22,-1.12 4.34,-2.19 6.33,-3.23 1.98,-1.07 3.85,-2.07 5.57,-3 3.42,-1.89 6.21,-3.52 8.15,-4.65 1.93,-1.16 3.03,-1.83 3.03,-1.83 0.63,-0.4 1.75,-0.47 3.22,-0.34 1.47,0.12 3.29,0.46 5.32,0.92 2.03,0.42 4.48,1.59 6.59,2.24 2.11,0.65 3.87,0.85 4.45,-0.57 0.58,-1.42 -0.84,-2.65 -2.39,-3.52 -0.78,-0.44 -1.58,-0.78 -2.2,-1.02 -0.62,-0.24 -1.04,-0.38 -1.04,-0.38 1.92,-0.29 4.49,-0.84 6.49,-1.65 2,-0.84 3.43,-1.96 3.16,-3.4 -0.28,-1.44 -2.51,-1.53 -4.68,-1.33 -1.09,0.11 -2.16,0.3 -2.97,0.47 -0.8,0.17 -1.34,0.29 -1.34,0.29 0,0 0.93,-0.31 2.29,-0.87 1.36,-0.56 3.15,-1.33 4.87,-2.23 3.45,-1.85 6.56,-4.16 5.69,-5.96 z"
               id="path39" />
            <rect
               x="103.21"
               y="44.950001"
               width="9.3900003"
               height="25.34"
               rx="4.6999998"
               ry="4.6999998"
               transform="rotate(107.87,107.90604,57.611551)"
               id="rect39" />
            <rect
               x="11.16"
               y="41.18"
               width="9.3900003"
               height="25.34"
               rx="4.6999998"
               ry="4.6999998"
               transform="rotate(70.23,15.852411,53.853844)"
               id="rect40" />
            <rect
               x="4.75"
               y="60.080002"
               width="31.299999"
               height="59.880001"
               rx="15.65"
               ry="15.65"
               transform="rotate(9.35,20.412286,90.042858)"
               id="rect41" />
            <rect
               x="81.669998"
               y="63.009998"
               width="32.369999"
               height="61.93"
               rx="16.190001"
               ry="16.190001"
               transform="rotate(9.35,97.859287,93.988716)"
               id="rect42" />
          </g>
          <path
             d="m 87.610002,132.3268 c 0,0 -26.740007,-8.16 -68.450003,5.89 0,0 34.900001,-22.67 68.450003,-5.89 z"
             id="path42" />
          <path
             class="cls-14"
             d="m 223.55,99.95 c -7.92,-3.71 -11.82,-13.58 -11.88,-21.91 0.5,0.98 0.88,1.97 1.28,2.96 2.81,6.72 5.64,13.47 10.6,18.95 z"
             id="path43" />
        </g>
      </g>
    </g>
  </g>
</svg>
