<?xml version="1.0" encoding="UTF-8"?>
<svg id="Capa_1" data-name="Capa 1" xmlns="http://www.w3.org/2000/svg" viewBox="0 0 297.14 165.61">
  <defs>
    <style>
      .cls-1, .cls-2, .cls-3 {
        fill: #b40023;
      }

      .cls-4, .cls-5, .cls-6, .cls-7 {
        fill: #fff;
      }

      .cls-5, .cls-8, .cls-9, .cls-2, .cls-10, .cls-6, .cls-11, .cls-12, .cls-3 {
        fill-rule: evenodd;
      }

      .cls-8 {
        fill: #4d4d4f;
      }

      .cls-13 {
        fill: #7aded6;
      }

      .cls-9, .cls-14, .cls-15, .cls-11 {
        fill: #ee3156;
      }

      .cls-2 {
        opacity: .6;
      }

      .cls-2, .cls-16, .cls-14, .cls-6, .cls-7, .cls-11 {
        isolation: isolate;
      }

      .cls-2, .cls-14, .cls-11 {
        mix-blend-mode: multiply;
      }

      .cls-10 {
        fill: #f8a2b3;
      }

      .cls-14, .cls-11 {
        opacity: .63;
      }

      .cls-6, .cls-7 {
        opacity: .44;
      }

      .cls-17 {
        fill: #47c4b9;
      }
    </style>
  </defs>
  <g id="g44" class="cls-16">
    <g id="Capa_2" data-name="Capa 2">
      <g id="Layer_3" data-name="Layer 3">
        <g id="g43">
          <g id="g42">
            <path id="path1" d="M14.45.23c-.64.61-.58,2.15-.12,4.07.43,1.93,1.38,4.25,2.36,6.45.97,2.21,2.15,4.29,2.99,5.82.85,1.54,1.49,2.51,1.49,2.51,0,0-.58-.72-1.45-1.79-.87-1.06-2.04-2.47-3.3-3.83-2.5-2.69-5.2-5.23-6.43-3.93-.61.65-.39,1.91.28,3.41.7,1.5,1.86,3.24,3.1,4.88,1.24,1.63,2.61,3.13,3.62,4.24,1.03,1.1,1.74,1.79,1.74,1.79,0,0-.52.28-1.25.75s-1.68,1.15-2.55,1.95c-1.75,1.59-3.24,3.68-2.12,5.44,1.13,1.76,3.2,1.42,5.26.45s4.08-2.54,5.18-3.38c1.67-1.28,3.77-.24,4.68.28,1.01,1.06,2.62,2.73,4.63,4.77,2.09,2.02,4.53,4.44,7.39,6.95,2.81,2.52,5.98,5.16,9.27,7.74,3.3,2.58,6.77,5.07,10.18,7.37,1.74,1.14,3.41,2.25,5.09,3.28,1.69,1.02,3.33,2,4.89,2.91,3.19,1.8,6.08,3.34,8.61,4.56,2.48,1.24,4.57,2.16,6,2.79,1.43.62,2.24.98,2.24.98.61-1.72,1.24-3.4,1.88-5.06,0,0-.93-.39-2.5-1.13-1.58-.75-3.89-1.81-6.57-3.24-2.73-1.41-5.85-3.18-9.22-5.23-1.65-1.03-3.41-2.12-5.13-3.28-1.71-1.17-3.51-2.37-5.24-3.64-1.72-1.27-3.49-2.56-5.17-3.89-1.67-1.33-3.35-2.67-4.93-4.01-1.57-1.34-3.1-2.67-4.54-3.95-1.41-1.29-2.75-2.54-3.98-3.72-2.45-2.35-4.44-4.41-5.85-5.86-1.38-1.47-2.16-2.32-2.16-2.32-.47-.48-.83-1.54-1.11-2.99-.25-1.45-.43-3.31-.55-5.38-.06-2.08.29-4.72.46-6.9.17-2.18.05-3.92-1.12-4.28-1.18-.36-1.9,1.26-2.32,2.97-.21.86-.35,1.74-.43,2.42-.08.66-.1,1.12-.1,1.12-.59-1.89-1.36-4.4-2.31-6.34-.9-1.94-1.91-3.31-2.99-2.8-1.07.49-.91,2.94-.39,5.22.25,1.14.57,2.25.83,3.06.26.82.47,1.35.47,1.35,0,0-.43-.91-1.07-2.25-.64-1.34-1.53-3.12-2.48-4.84-1.83-3.44-3.97-6.71-5.26-5.49v-.03Z"/>
            <g id="g38">
              <path id="path2" class="cls-3" d="M141.87,142.99h14.42l2.26-2.83s-2.97-32.03-18.59-42.46c-15.62-10.43-40.81.75-40.81.75,0,0,3.74,44.84,3.74,45.43,0,.39,23.37.26,38.99.13v-1.02Z"/>
              <path id="path3" class="cls-8" d="M63.29,128.63c-2.74,28.67-17.08,30.81-23.65,30.87-19.83.11-31.26-7.39-32.31-33.27-1.69-41.79,58.7-26.27,55.96,2.4Z"/>
              <path id="path4" class="cls-12" d="M42.99,95.85c11.87.51,20.96,15.19,20.3,32.78-.65,17.59-10.8,31.45-22.67,30.94-11.87-.51-20.96-15.19-20.3-32.78.65-17.59,10.8-31.45,22.67-30.94Z"/>
              <path id="path5" class="cls-8" d="M144.05,134.66c-1.49,30.59-23.79,30.92-25.12,30.79-21.35.59-33.03-7.54-33.66-33.2-1.02-41.82,58.04-49.29,58.77,2.4h0Z"/>
              <path id="path6" class="cls-12" d="M122.73,101.88c12.46.51,22.01,15.19,21.32,32.78-.68,17.59-11.35,31.45-23.8,30.94-12.46-.51-22.01-15.19-21.32-32.78.68-17.59,11.35-31.45,23.81-30.94h0Z"/>
              <path id="path7" class="cls-5" d="M123.75,112.35c8.17,1.02,14.29,10.73,13.84,22.29-.45,11.55-7.31,20.73-15.53,21.09l.39-10.01c2.06-.22,3.94-1.41,5.38-3.25,1.61-2.05,2.66-4.91,2.78-8.11s-.7-6.13-2.14-8.31c-1.29-1.95-3.07-3.29-5.11-3.67l.39-10.01h0ZM122.22,122.25c-2.37-.04-4.56,1.21-6.17,3.29-1.61,2.05-2.66,4.91-2.78,8.11s.7,6.13,2.14,8.31c1.46,2.19,3.53,3.62,5.9,3.78l-.39,9.99c-8.56-.48-15.1-10.44-14.63-22.36.47-11.92,7.76-21.32,16.32-21.1l-.39,9.99h0ZM127.14,126.94c-1.21-1.82-2.91-2.99-4.82-3.07-1.9-.08-3.7.94-5.04,2.67-1.4,1.79-2.33,4.32-2.43,7.17-.11,2.85.61,5.44,1.87,7.34,1.21,1.82,2.91,2.99,4.82,3.07,1.9.08,3.7-.94,5.04-2.67,1.4-1.79,2.33-4.32,2.43-7.17.11-2.85-.61-5.44-1.87-7.34Z"/>
              <path id="path8" class="cls-3" d="M231.05,138.63l12.93,6.12,50.68-4.55s4.25-13.28-1.01-27.04c-5.25-13.76-25.94-22.57-28.67-21.49s-26.05,13.01-26.05,13.01l-7.88,33.97h0Z"/>
              <path id="path9" class="cls-8" d="M293.52,134.13c-.68,17.59-11.65,33.73-30.63,30.66-18.98-3.06-28.83-15.47-28.15-33.06,1.63-41.8,60.55-43.24,58.77,2.4h0Z"/>
              <path id="path10" class="cls-12" d="M272.19,101.35c12.46.51,22.01,15.19,21.32,32.78-.68,17.59-11.35,31.45-23.8,30.94-12.46-.51-22.01-15.19-21.32-32.78.68-17.59,11.35-31.45,23.8-30.94Z"/>
              <path id="path11" class="cls-5" d="M272.81,110.81c8.17,1.02,14.29,10.73,13.84,22.29-.45,11.55-7.31,20.73-15.53,21.09l.39-10.01c2.06-.22,3.94-1.41,5.38-3.25,1.61-2.05,2.66-4.91,2.78-8.11s-.7-6.13-2.14-8.31c-1.29-1.95-3.07-3.29-5.11-3.67l.39-10.01h0ZM271.29,120.72c-2.37-.04-4.56,1.21-6.17,3.29-1.61,2.05-2.66,4.91-2.78,8.11s.7,6.13,2.14,8.31c1.46,2.19,3.53,3.62,5.9,3.78l-.39,9.99c-8.56-.48-15.1-10.44-14.63-22.36.47-11.92,7.76-21.32,16.32-21.1l-.39,9.99h0ZM276.22,125.42c-1.21-1.82-2.91-2.99-4.82-3.07-1.9-.08-3.7.94-5.04,2.67-1.4,1.79-2.33,4.32-2.43,7.17-.11,2.85.61,5.44,1.87,7.34,1.21,1.82,2.91,2.99,4.82,3.07,1.9.08,3.7-.95,5.04-2.67,1.4-1.79,2.33-4.32,2.43-7.17.11-2.85-.61-5.44-1.87-7.34Z"/>
              <g id="g13">
                <path id="path12" class="cls-13" d="M294.66,140.19h0c-.06.06-.11.13-.18.2.06-.06.12-.13.18-.19h0Z"/>
                <path id="path13" class="cls-15" d="M296.11,119.85c-2.45-18.27-7.35-22.21-12.6-29.74-5.25-7.53-8.82-47.08-17.23-62.48-10.66-19.54-30.12-23.5-49.28-23.5h-94.68c-16.33,0-19.51-.67-35.92,7.35-22.41,12.18-47.79,44.78-52.52,47.83-4.73,3.04-17.85,17.2-20.31,26.15C11.11,94.41.95,99.25.07,115.91c-.88,16.66,6.28,26.81,9.09,27.03,1.53.12,37.24-.13,83.02.25,1.08-.75,1.8-1.63,1.91-2.56.42-3.55-2.66-34.24,19.43-42.35,26.55-9.75,35.49,24.37,33.38,44.72h96.6c1.33-.56,2.06-1.22,2.06-1.99,0-3.39-2.94-27.38,11.83-37.78,4.99-3.51,10.33-4.94,16.25-3.85,20.77,3.83,23.07,27.83,21,40.82,3.09-3.42,2.92-9.3,1.45-20.34h0Z"/>
              </g>
              <g id="g15">
                <path id="path14" class="cls-14" d="M296.11,119.85c-2.45-18.27-7.35-22.21-12.6-29.74-1.76-2.51-3.33-8.63-4.95-16.22-11.95.55-29.76,1.49-55.93,3.13-65.38,4.09-114.63,3.03-126.81,19.56-1.25,1.7-2.19.39-3.74,2.22-12.66,15.05-9.29,35.46-8.91,44.31,2.96.02,5.97.04,9.03.07,1.08-.75,1.8-1.63,1.91-2.56.42-3.55-2.66-34.24,19.43-42.35,26.55-9.75,35.49,24.37,33.38,44.72h96.6c1.33-.56,2.06-1.22,2.06-1.99,0-3.39-2.94-27.38,11.83-37.78,4.99-3.51,10.33-4.94,16.25-3.85,20.77,3.83,23.07,27.83,21,40.82,3.09-3.42,2.92-9.3,1.45-20.34h0Z"/>
                <path id="path15" class="cls-17" d="M294.66,140.19h0c-.06.06-.11.13-.18.2.06-.06.12-.13.18-.19h0Z"/>
              </g>
              <path id="path16" class="cls-5" d="M271.95,43.52c1.73,6.6,3.23,13.91,4.63,20.8-2.04.05-4.68-.07-5.78-1-1.91-1.6-3.4-12.9-2.05-16.39.68-1.75,2.03-2.8,3.21-3.41h0Z"/>
              <path id="path17" class="cls-3" d="M13.02,87.07c.2-.53.39-1.06.54-1.62.07-.27.16-.55.25-.83.11.03.23.06.39.1,1.38.38,10.3,1.83,11.41.9,1.11-.94.21-2.33.21-2.33,0,0-1.92-4.62-7.07-6.76-.14-.06-.36-.15-.53-.22.34-.51.7-1.02,1.07-1.53,2.4,1.08,3.55,2.02,3.55,2.02,2.38,2.15,4.62,4.57,4.58,7.75-.04,3.18-3.05,4.39-11.84,3.09-.91-.13-1.76-.33-2.55-.57h0Z"/>
              <path id="path18" class="cls-5" d="M13.81,84.62c.84-2.53,2.44-5.42,4.41-8.32.17.07.39.16.53.22,5.15,2.15,7.07,6.76,7.07,6.76,0,0,.89,1.39-.21,2.33-1.11.94-10.03-.52-11.41-.9-.16-.04-.28-.07-.39-.1Z"/>
              <path id="path19" class="cls-3" d="M79.72,80.64s4.73-3.13,14.88-4.53c10.15-1.39,10.68,2.01,9.67,4.66-1.01,2.64-4.81,9.4-15.62,10.71-10.81,1.3-14.53.09-14.58-3.09s2.71-5.6,5.64-7.75h0Z"/>
              <path id="path20" class="cls-5" d="M76.05,87.14s2.36-4.62,8.71-6.76c6.35-2.15,12.34-2.6,12.87-.94.53,1.66-4.03,8.42-7.27,9.13-3.24.72-12.69,1.83-14.05.9-1.36-.94-.26-2.33-.26-2.33h0Z"/>
              <path id="path21" class="cls-3" d="M44.46,51.31c2.36-2.91,4.82-5.74,7.32-8.52,5.32-5.9,10.94-11.64,16.9-16.85,4.62-4.04,9.66-8,14.98-10.98,4.72-2.64,9.68-5.11,14.81-6.81,3.83-1.27,7.59-2.01,11.6-2.33,4.33-.33,8.72-.19,13.06-.18,2.83,0,5.65.03,8.48.08,5.35.1,10.75.26,16.1.62,1.93.13,7.7.47,9.32,1.43.87.51,1.69,1.24,1.74,2.36.04,1.15-.76,1.98-1.59,2.61-.94.73-2.03,1.37-3.03,1.98-.87.54-1.78,1.32-2.56,1.98-1.36,1.16-2.68,2.37-3.98,3.6-3.41,3.22-6.71,6.6-9.88,10.07-2.69,2.94-5.34,5.98-7.78,9.15-.67.87-1.33,1.76-1.97,2.65-2.73,3.78-5.3,7.73-8.26,11.33-2.7,3.28-5.88,6.4-9.8,8.01-1.67.68-3.41,1.07-5.2,1.14-1.6.06-3.22.04-4.82,0-2.21-.04-4.43-.13-6.64-.23-5.46-.25-10.92-.58-16.38-.96-6.46-.44-12.92-.93-19.37-1.49-2.29-.2-4.59-.4-6.87-.65-1.14-.12-2.5-.22-3.62-.47-1.87-.41-3.49-1.55-3.77-3.64-.18-1.4.34-2.87,1.21-3.92h0Z"/>
              <path id="path22" class="cls-10" d="M45.55,52.26s20.74-25.9,38.79-36.01c18.05-10.1,25.17-9.14,38.79-9.13,13.61,0,31.01.65,33.19,1.93,2.18,1.29.73,2.15-2.91,4.41-3.63,2.25-16.9,15.15-24.58,25.15-7.67,10-13.59,22.14-24.16,22.57-10.58.43-53.93-3.01-57.36-3.76-3.42-.75-3.01-3.66-1.76-5.16Z"/>
              <path id="path23" class="cls-2" d="M108.55,59.29c-1.21-.03-2.55-.06-3.98-.12.14-.99.22-2.02.22-3.09,0-3.71-.91-7.03-2.39-9.4-1.31-2.1-3.04-3.4-4.87-3.4s-3.56,1.3-4.87,3.4c-1.47,2.37-2.39,5.69-2.39,9.4,0,.8.04,1.59.12,2.34-1.33-.08-2.67-.17-4.01-.26-.05-.68-.09-1.38-.09-2.08,0-4.48,1.16-8.58,3.03-11.58,2.04-3.27,4.93-5.29,8.21-5.29s6.17,2.02,8.21,5.29c1.87,3,3.03,7.1,3.03,11.58,0,1.1-.07,2.16-.2,3.21h0Z"/>
              <path id="path24" class="cls-2" d="M117.44,53.94c-3.65,4.1-7.67,7.03-12.77,7.24-10.58.43-53.93-3.01-57.36-3.76-2.46-.54-2.94-2.19-2.55-3.64,7.09-1.5,22.16-3.99,40.79-2.97,14.83.8,25.46,2.14,31.88,3.13h0Z"/>
              <path id="path25" class="cls-5" d="M73.31,36.9c-8.82,9.24,6.62-.75,20.91-9.46,14.29-8.7,24.15-11.29,21.74-13.54-6.5-6.08-38.28,18.42-42.65,23Z"/>
              <path id="path26" class="cls-5" d="M104.45,27.14c-4.41,4.62,4.11,1.97,13.66-3.85,9.55-5.82,16.46-10.01,14.84-11.52-4.34-4.06-24.09,10.75-28.5,15.38Z"/>
              <path id="path27" class="cls-3" d="M141.28,59.33c-.67-5.49-6.08-15.57,4.47-27.27,2.75-3.04,5.22-6.39,8.06-9.36,3.19-3.33,7.79-7.72,12.11-9.37,1.61-.62,3.54-.94,5.24-1.18,2.41-.34,4.87-.52,7.31-.66,6.08-.32,12.26-.28,18.34-.04,6.13.24,12.37.7,18.45,1.58,3.58.52,9.35,1.46,12.48,3.34,5.18,3.12,8.21,11.29,9.82,16.9,1.04,3.6,1.83,7.33,2.38,11.04.37,2.43.73,5.28.68,7.77l-2.04.15-92.64,7.1-4.57-.03h-.09Z"/>
              <path id="path28" class="cls-10" d="M238.58,52.26c-18.64,1.49-53.02,4.1-74.25,5.7-.28.02-.54.04-.82.06-.24.02-.47.04-.7.05-.85.06-1.69.13-2.48.19-.23.02-.46.04-.68.05s-.45.04-.67.05c-.44.04-.87.06-1.29.1-.29.02-.57.04-.85.06s-.55.04-.83.06c-.06,0-.12,0-.18.02-.3.02-.59.04-.87.06-1.1.08-2.12.16-3.04.23-.19.02-.39.03-.57.04-.53.04-1.02.08-1.47.12-.04,0-.1,0-.15,0-.09,0-.18.02-.26.02-.12,0-.25.02-.36.03-.18.02-.36.03-.52.04-.11,0-.22.02-.32.03-1.01.07-1.72.13-2.07.15h-.07c-.12,0-.19.02-.19.02v-.4c0-.07,0-.15-.02-.23v-.13c-.03-.32-.06-.75-.11-1.24,0-.08-.02-.17-.03-.26,0-.12-.02-.23-.04-.36,0-.05,0-.11,0-.16v-.07c0-.1-.02-.21-.03-.31-.03-.31-.06-.65-.09-.99-.02-.18-.04-.35-.05-.53-.02-.2-.04-.4-.05-.59,0-.1-.02-.2-.03-.3-.02-.21-.04-.42-.06-.63,0-.13-.03-.26-.04-.39-.09-.98-.18-2.01-.29-3.06-.02-.16-.03-.32-.04-.48-.03-.26-.05-.52-.07-.78-.02-.23-.04-.46-.07-.69-.12-1.29-.25-2.56-.36-3.75,0-.13-.03-.26-.04-.39-.02-.15-.03-.31-.04-.47-.02-.14-.03-.29-.04-.43-.02-.15-.04-.31-.04-.45-.14-1.45-.25-2.68-.33-3.46-.03-.26,0-.53.04-.78.07-.35.23-.68.44-.97.08-.1.16-.22.25-.34.04-.05.08-.12.12-.17.22-.29.47-.63.75-1,.02-.03.04-.04.05-.07.1-.13.2-.25.3-.4.25-.32.51-.66.79-1.02.11-.14.23-.3.35-.45,1.21-1.54,2.7-3.39,4.36-5.31.1-.12.2-.22.3-.34.71-.83,1.46-1.66,2.22-2.49.13-.13.25-.28.39-.41.13-.14.27-.29.4-.43.29-.31.58-.61.88-.92l.35-.36c.14-.14.27-.28.41-.42.28-.28.55-.56.83-.83.14-.13.28-.27.42-.4.12-.13.25-.24.38-.37.02,0,.03-.03.04-.04.11-.1.2-.19.31-.29,2.83-2.63,5.7-4.81,8.22-5.76,9.03-3.44,51.68-2.15,60.09,2.9,8.4,5.05,12.08,27.95,11.87,34.08l-.04.02Z"/>
              <path id="path29" class="cls-9" d="M173.55,13.97c13.96-1.45,40.97-.24,50.86,3.2-9.22-.03-20.08-.06-23.24-.06-5.78,0-6.3,3.52-6.3,3.52v26.04h43.34c.29,2.37.41,4.34.37,5.6-16.13,1.29-47.75,3.7-68.74,5.29,5.02-15.17,8.36-42.38,3.7-43.59h0Z"/>
              <path id="path30" class="cls-6" d="M222.07,66.58c4.2-.04,7.64,1.78,7.65,4.07.02,2.28-3.37,4.17-7.57,4.21-4.2.04-7.63-1.78-7.65-4.07-.02-2.28,3.37-4.17,7.57-4.21h0Z"/>
              <path id="path31" class="cls-11" d="M229.73,70.52v.13c.02,2.28-3.37,4.17-7.57,4.21-3.87.04-7.07-1.5-7.58-3.53,3.67.18,10.26.3,15.16-.81h0Z"/>
              <path id="path32" class="cls-14" d="M149.06,126.7h61.18c8.36-1.07,14.82-10.28,19.52-22.02,7.38-18.39,9.4-43.16,8.89-52.84l1.97-.1c.53,9.86-1.54,35.04-9.03,53.72-4.97,12.39-11.93,22.14-21.18,23.27h-61.36v-2.03Z"/>
              <path id="path33" class="cls-9" d="M140.53,53.16s4.89.59,5.3-1.54c.42-2.13,1.58-7.04,9.24-6.45,7.67.59,10.51,5.62,9.4,9.76s-5.35,4.62-9.93,4.73c-4.57.12-12.71.3-14.34-.3-1.62-.59-2.26-6.33.32-6.22h0Z"/>
              <path id="path34" class="cls-11" d="M164.71,53.22c0,.58-.08,1.16-.23,1.72-1.11,4.14-5.35,4.62-9.93,4.73-4.57.12-12.71.3-14.34-.3-.21-.08-.41-.24-.59-.48,3.18-.08,6.7-2.25,7.99-3.2,1.62-1.19,5.83.36,11.09,0,2.89-.2,4.84-1.43,6-2.5h0Z"/>
              <path id="path35" class="cls-14" d="M143.27,59.34c-.02,5.81.65,36.7,7.82,69.39h-2.03c-7.22-32.92-7.79-63.6-7.77-69.42l.08.02h1.9Z"/>
              <path id="path36" class="cls-7" d="M240.87,109.42s6.43-11.21,16.67-15.35c10.24-4.14,18.46-1.46,18.46-1.46,0,0-5.87-5.31-17.26-2.19-13.81,3.78-17.86,19-17.86,19h0Z"/>
              <path id="path37" class="cls-7" d="M152.03,112.35c1.52-3.99,30.61-4.04,51.05-4.3,20.45-.26,24.58.26,22.26,1.06-2.33.79-74.83,7.24-73.31,3.25h0Z"/>
              <path id="path38" class="cls-7" d="M92.64,109.42s6.43-11.21,16.67-15.35c10.24-4.14,18.46-1.46,18.46-1.46,0,0-5.87-5.31-17.26-2.19-13.81,3.78-17.86,19-17.86,19Z"/>
              <ellipse id="ellipse38" class="cls-4" cx="47.01" cy="89.21" rx="5.02" ry="2.34"/>
            </g>
            <path id="path39" d="M284.93,39.09c-.38-.81-1.53-.92-3.05-.62-1.52.31-3.41.95-5.27,1.72-1.87.77-3.7,1.56-5.08,2.22s-2.29,1.1-2.29,1.1c0,0,.7-.44,1.73-1.19s2.37-1.79,3.65-2.92c2.57-2.28,4.88-5.03,4.17-6.61-.35-.79-1.28-.75-2.49-.23-1.21.49-2.7,1.45-4.19,2.51-2.94,2.08-5.82,4.53-5.82,4.53,0,0-.25-2.57-.85-4.98s-1.56-4.62-3.12-3.94c-3.13,1.31-1.9,9.48-1.32,12.36.42,2.22-1.05,4.23-1.78,5.04-1.18.74-3.04,1.89-5.44,3.34-2.4,1.41-5.35,3.16-8.67,4.96-3.33,1.83-7.04,3.76-10.96,5.69s-8.04,3.82-12.16,5.6c-2.05.88-4.12,1.74-6.14,2.57-2.04.8-4.04,1.58-5.96,2.33-3.86,1.44-7.49,2.73-10.59,3.75-3.12,1.05-5.7,1.83-7.52,2.39-1.83.55-2.85.85-2.85.85.94,1.96,1.9,3.92,2.89,5.88,0,0,1.18-.33,3.26-.98,2.06-.65,4.99-1.54,8.46-2.74,3.46-1.17,7.46-2.62,11.66-4.26s8.61-3.48,12.93-5.41c4.32-1.94,8.55-3.97,12.45-5.95,1.95-1.01,3.81-1.97,5.56-2.9,1.74-.96,3.38-1.86,4.89-2.69,3-1.7,5.45-3.16,7.15-4.18,1.69-1.04,2.66-1.64,2.66-1.64.55-.36,1.54-.42,2.83-.31,1.29.11,2.89.41,4.67.83,1.78.38,3.93,1.43,5.78,2.01s3.4.76,3.91-.51c.51-1.28-.74-2.38-2.1-3.16-.68-.4-1.39-.7-1.93-.92-.54-.22-.91-.34-.91-.34,1.69-.26,3.94-.75,5.7-1.48,1.76-.75,3.01-1.76,2.77-3.05-.25-1.29-2.2-1.37-4.11-1.19-.96.1-1.9.27-2.61.42-.7.15-1.18.26-1.18.26,0,0,.82-.28,2.01-.78,1.19-.5,2.76-1.19,4.27-2,3.03-1.66,5.76-3.74,4.99-5.35h.03Z"/>
            <path id="rect39" d="M105.29,55.21h0c-.7,2.22-3.02,3.43-5.19,2.72l-13.32-4.39c-2.17-.72-3.36-3.09-2.66-5.31h0c.7-2.22,3.02-3.43,5.19-2.72l13.32,4.39c2.17.72,3.36,3.09,2.66,5.31Z"/>
            <path id="rect40" d="M24.39,44.49h0c.77,2.19-.34,4.61-2.49,5.4l-13.17,4.84c-2.14.79-4.51-.35-5.28-2.54h0c-.77-2.19.34-4.61,2.49-5.4l13.17-4.84c2.14-.79,4.51.35,5.28,2.54Z"/>
            <path id="rect41" d="M22.18,54.29h0c7.49,1.26,12.55,8.49,11.32,16.15l-4.08,25.33c-1.23,7.66-8.3,12.85-15.78,11.59h0c-7.49-1.26-12.55-8.49-11.32-16.15l4.08-25.33c1.23-7.66,8.3-12.85,15.78-11.59Z"/>
            <path id="rect42" d="M90.31,56.93h0c7.74,1.3,12.98,8.79,11.71,16.71l-4.21,26.19c-1.27,7.92-8.58,13.29-16.33,11.99h0c-7.74-1.3-12.98-8.79-11.71-16.71l4.21-26.19c1.27-7.92,8.58-13.29,16.33-11.99Z"/>
          </g>
          <path id="path42" d="M16.82,118.56s23.47,7.33,60.08-5.29c0,0-30.63,20.36-60.08,5.29Z"/>
          <path id="path43" class="cls-1" d="M196.21,89.74c-6.95-3.33-10.37-12.2-10.43-19.68.44.88.77,1.77,1.12,2.66,2.47,6.04,4.95,12.1,9.3,17.02Z"/>
        </g>
      </g>
    </g>
  </g>
</svg>