<?xml version="1.0" encoding="UTF-8"?>
<svg id="Capa_1" data-name="Capa 1" xmlns="http://www.w3.org/2000/svg" viewBox="0 0 340.48 219.26">
  <defs>
    <style>
      .cls-1 {
        opacity: .3;
      }

      .cls-1, .cls-2, .cls-3 {
        isolation: isolate;
      }

      .cls-1, .cls-4, .cls-3 {
        fill: #d8aa1c;
      }

      .cls-1, .cls-3 {
        mix-blend-mode: multiply;
      }

      .cls-5 {
        fill: #fff;
      }

      .cls-6 {
        fill: #f1c653;
      }

      .cls-7 {
        fill: #f1b703;
      }

      .cls-8 {
        fill: #f6cc4b;
      }

      .cls-9 {
        fill: #e4a600;
      }

      .cls-10 {
        fill: #faf139;
      }

      .cls-3 {
        opacity: .6;
      }
    </style>
  </defs>
  <g id="g15" class="cls-2">
    <g id="Capa_2" data-name="Capa 2">
      <g id="Layer_3" data-name="Layer 3">
        <g id="g14">
          <polygon id="polygon1" class="cls-4" points="103.8 42.53 58.94 105.95 107.56 105.95 103.8 42.53"/>
          <polygon id="polygon2" class="cls-3" points="103.8 42.53 58.94 105.95 107.56 105.95 103.8 42.53"/>
          <g id="g2">
            <rect id="rect2" x="140.98" y="182.39" width="2.92" height="30.76" transform="translate(-27.54 23.1) rotate(-8.46)"/>
            <path id="path2" d="M138.7,213.55c-1.87.66-3.81,1.04-5.72,1.06-1.16,0-2.31-.1-3.44-.32-5.34-1.02-7.5.63-8.01,2.41s4.2,2.67,7.5,2.54c3.43-.13,6.89-.63,10.25-1.3,2.01-.39,4.13-.83,6.01-1.67,2.24-1,4.21-3.1,4.06-5.71-.05-.84-.52-1.71-1.33-1.97-.8-.26-1.37.17-1.91.67-.69.63-1.49,1.19-2.27,1.7-1.6,1.06-3.32,1.94-5.14,2.58h0Z"/>
          </g>
          <g id="g3">
            <rect id="rect3" x="200.75" y="182.07" width="2.92" height="30.76" transform="translate(-9.66 10.41) rotate(-2.88)"/>
            <path id="path3" d="M211.17,213.55c1.87.66,3.81,1.04,5.72,1.06,1.16,0,2.31-.1,3.44-.32,5.34-1.02,7.5.63,8.01,2.41s-4.2,2.67-7.5,2.54c-3.43-.13-6.89-.63-10.25-1.3-2.01-.39-4.13-.83-6.01-1.67-2.24-1-4.21-3.1-4.06-5.71.05-.84.52-1.71,1.33-1.97.8-.26,1.37.17,1.91.67.69.63,1.49,1.19,2.27,1.7,1.6,1.06,3.32,1.94,5.14,2.58h0Z"/>
          </g>
          <path id="path4" class="cls-7" d="M16.64,81.57c1.84-2.44,15.44,4.53,15.44,4.53,0,0-10.27-6.72-8.45-9.09,1.83-2.37,11.96,6.33,11.96,6.33,0,0,2.52-7.86,5.52-6.45,3,1.4.24,7.53-.77,9.69-.78,1.67.35,3.38.92,4.09,8.16,5.69,54.26,37.85,54.26,37.85l-3.9,3.55-52.92-36.47c-.95-.68-3.73-.66-7.24-.37-3.52.29-8.75,2.46-9.49.41s5.25-3.08,5.25-3.08c-3.23-.68-8.59-2.11-7.88-4.09.71-1.98,7.89.13,7.89.13,0,0-12.41-4.62-10.58-7.06h0Z"/>
          <path id="path5" class="cls-9" d="M78.82,104.37l10.48,81.93h173.96l9.19-86.95s-48.08-61.41-48.08-61.84-121,5.17-120.57,5.02c.43-.15-24.98,61.84-24.98,61.84h0Z"/>
          <polygon id="polygon5" class="cls-6" points="224.37 37.51 103.8 42.53 155.41 108.11 281.67 108.11 224.37 37.51"/>
          <path id="rect5" d="M134.52,94.19h0c4.17,0,7.55,3.38,7.55,7.55v22.73c0,4.17-3.38,7.55-7.55,7.55h0c-4.17,0-7.55-3.38-7.55-7.55v-22.73c0-4.17,3.38-7.55,7.55-7.55Z"/>
          <path id="rect6" d="M204.2,92.42h0c-1.87,2.85-5.7,3.64-8.56,1.76l-17.53-11.53c-2.85-1.87-3.64-5.7-1.77-8.55h0c1.87-2.85,5.7-3.64,8.56-1.76l17.53,11.53c2.85,1.87,3.64,5.7,1.77,8.55Z"/>
          <path id="rect7" d="M135.7,74.1h0c1.87,2.85,1.08,6.68-1.77,8.55l-17.53,11.53c-2.85,1.87-6.68,1.09-8.56-1.76h0c-1.87-2.85-1.08-6.68,1.77-8.55l17.53-11.53c2.85-1.87,6.68-1.09,8.56,1.76Z"/>
          <path id="rect8" d="M177.59,132.02h0c-4.17,0-7.55-3.38-7.55-7.55v-22.73c0-4.17,3.38-7.55,7.55-7.55h0c4.17,0,7.55,3.38,7.55,7.55v22.73c0,4.17-3.38,7.55-7.55,7.55Z"/>
          <g id="g9">
            <path id="path8" d="M186.48,135.2c-2.27,4.53-6.9,10.45-16.02,12.47-11.71,2.6-20.76-2.66-24.48-5.38-11.34.46-19.8-.05-19.8-.05,5.95,3.86,29.42,16.19,51.56,9.8,22.14-6.38,22.44-26.14,22.44-26.14-2.6,4.46-10.97,8.18-13.69,9.31h0Z"/>
            <path id="path9" class="cls-5" d="M170.45,147.67c9.13-2.03,13.75-7.95,16.02-12.47-.55.22-.87.35-.87.35-11.93,4.62-27.45,6.25-39.63,6.74,3.72,2.72,12.77,7.99,24.48,5.38Z"/>
          </g>
          <path id="path10" class="cls-7" d="M298.64,90.21c-1.24-2.74-16.06.93-16.06.93,0,0,11.52-4.17,10.27-6.85-1.24-2.68-13.07,3.42-13.07,3.42,0,0-.69-8.09-3.92-7.4-3.24.69-1.93,7.16-1.43,9.46.39,1.77-1.1,3.17-1.82,3.72-9.23,3.65-61.39,24.27-61.39,24.27l3.01,4.27,59.78-23.24c1.07-.44,3.78.19,7.14,1.25,3.36,1.06,7.97,4.29,9.15,2.49s-4.42-4.11-4.42-4.11c3.3.06,8.84-.12,8.59-2.17-.25-2.05-7.72-1.62-7.72-1.62,0,0,13.14-1.68,11.89-4.42h0Z"/>
          <polyline id="polyline10" class="cls-4" points="186.19 47.26 208.87 75 208.87 61.93 219.01 45.26 184.59 45.26 186.59 47.79"/>
          <polygon id="polygon10" class="cls-8" points="208.87 75.18 208.87 61.93 219.01 45.26 234.7 61.53 234.7 75.18 208.87 75.18"/>
          <polygon id="polygon11" class="cls-1" points="208.87 75.18 198.22 61.93 208.87 61.93 208.87 75.18"/>
          <path id="path11" class="cls-4" d="M198.04,121.27c2.39,1.79,4.54,3.82,5.6,6.66-2.8-.99-5.4-3.6-5.6-6.66Z"/>
          <g id="g13">
            <path id="path12" class="cls-4" d="M220.69,59.33l-6.23-.22c0,.09.02,2.32.02,4.87l6.19.19.02-4.84h0Z"/>
            <polygon id="polygon12" class="cls-4" points="221.84 65.36 221.82 71.67 227.58 71.67 227.58 65.53 221.84 65.36"/>
            <polygon id="polygon13" class="cls-4" points="221.84 64.2 227.58 64.38 227.58 59.57 221.85 59.37 221.84 64.2"/>
            <path id="path13" class="cls-4" d="M214.49,65.13c.02,3.22.04,6.54.04,6.54h6.12l.02-6.35-6.18-.19h0Z"/>
          </g>
        </g>
      </g>
    </g>
  </g>
  <g>
    <path class="cls-10" d="M108.84,1.36l1.65,5.08c.26.81,1.02,1.36,1.87,1.36h5.34c1.9,0,2.69,2.43,1.15,3.55l-4.32,3.14c-.69.5-.98,1.38-.71,2.19l1.65,5.08c.59,1.81-1.48,3.31-3.02,2.19l-4.32-3.14c-.69-.5-1.62-.5-2.31,0l-4.32,3.14c-1.54,1.12-3.61-.39-3.02-2.19l1.65-5.08c.26-.81-.03-1.69-.71-2.19l-4.32-3.14c-1.54-1.12-.75-3.55,1.15-3.55h5.34c.85,0,1.6-.55,1.87-1.36l1.65-5.08c.59-1.81,3.14-1.81,3.73,0Z"/>
    <path class="cls-10" d="M139.43,1.36l1.65,5.08c.26.81,1.02,1.36,1.87,1.36h5.34c1.9,0,2.69,2.43,1.15,3.55l-4.32,3.14c-.69.5-.98,1.38-.71,2.19l1.65,5.08c.59,1.81-1.48,3.31-3.02,2.19l-4.32-3.14c-.69-.5-1.62-.5-2.31,0l-4.32,3.14c-1.54,1.12-3.61-.39-3.02-2.19l1.65-5.08c.26-.81-.03-1.69-.71-2.19l-4.32-3.14c-1.54-1.12-.75-3.55,1.15-3.55h5.34c.85,0,1.6-.55,1.87-1.36l1.65-5.08c.59-1.81,3.14-1.81,3.73,0Z"/>
    <path class="cls-10" d="M170.01,1.36l1.65,5.08c.26.81,1.02,1.36,1.87,1.36h5.34c1.9,0,2.69,2.43,1.15,3.55l-4.32,3.14c-.69.5-.98,1.38-.71,2.19l1.65,5.08c.59,1.81-1.48,3.31-3.02,2.19l-4.32-3.14c-.69-.5-1.62-.5-2.31,0l-4.32,3.14c-1.54,1.12-3.61-.39-3.02-2.19l1.65-5.08c.26-.81-.03-1.69-.71-2.19l-4.32-3.14c-1.54-1.12-.75-3.55,1.15-3.55h5.34c.85,0,1.6-.55,1.87-1.36l1.65-5.08c.59-1.81,3.14-1.81,3.73,0Z"/>
    <path class="cls-10" d="M200.6,1.36l1.65,5.08c.26.81,1.02,1.36,1.87,1.36h5.34c1.9,0,2.69,2.43,1.15,3.55l-4.32,3.14c-.69.5-.98,1.38-.71,2.19l1.65,5.08c.59,1.81-1.48,3.31-3.02,2.19l-4.32-3.14c-.69-.5-1.62-.5-2.31,0l-4.32,3.14c-1.54,1.12-3.61-.39-3.02-2.19l1.65-5.08c.26-.81-.03-1.69-.71-2.19l-4.32-3.14c-1.54-1.12-.75-3.55,1.15-3.55h5.34c.85,0,1.6-.55,1.87-1.36l1.65-5.08c.59-1.81,3.14-1.81,3.73,0Z"/>
    <path class="cls-10" d="M231.18,1.36l1.65,5.08c.26.81,1.02,1.36,1.87,1.36h5.34c1.9,0,2.69,2.43,1.15,3.55l-4.32,3.14c-.69.5-.98,1.38-.71,2.19l1.65,5.08c.59,1.81-1.48,3.31-3.02,2.19l-4.32-3.14c-.69-.5-1.62-.5-2.31,0l-4.32,3.14c-1.54,1.12-3.61-.39-3.02-2.19l1.65-5.08c.26-.81-.03-1.69-.71-2.19l-4.32-3.14c-1.54-1.12-.75-3.55,1.15-3.55h5.34c.85,0,1.6-.55,1.87-1.36l1.65-5.08c.59-1.81,3.14-1.81,3.73,0Z"/>
  </g>
</svg>