<?xml version="1.0" encoding="UTF-8"?>
<svg id="Capa_1" data-name="Capa 1" xmlns="http://www.w3.org/2000/svg" viewBox="0 0 339.9 219.55">
  <defs>
    <style>
      .cls-1 {
        opacity: .6;
      }

      .cls-1, .cls-2, .cls-3 {
        fill: #b48300;
      }

      .cls-1, .cls-4, .cls-3 {
        isolation: isolate;
      }

      .cls-1, .cls-3 {
        mix-blend-mode: multiply;
      }

      .cls-5 {
        fill: #eeb92d;
      }

      .cls-6 {
        fill: #fff;
      }

      .cls-7 {
        fill: #f1c653;
      }

      .cls-8 {
        fill: #e4a600;
      }

      .cls-3 {
        opacity: .3;
      }
    </style>
  </defs>
  <g id="g15" class="cls-4">
    <g id="Capa_2" data-name="Capa 2">
      <g id="Layer_3" data-name="Layer 3">
        <g id="g14">
          <polygon id="polygon1" class="cls-2" points="105.17 6.09 51.15 82.7 109.71 82.7 105.17 6.09"/>
          <polygon id="polygon2" class="cls-1" points="105.17 6.09 51.15 82.7 109.71 82.7 105.17 6.09"/>
          <g id="g2">
            <rect id="rect2" x="149.94" y="175.02" width="3.52" height="37.15" transform="translate(-26.89 24.49) rotate(-8.48)"/>
            <path id="path2" d="M147.2,212.65c-2.25.79-4.59,1.26-6.89,1.28-1.39,0-2.78-.12-4.14-.38-6.43-1.23-9.03.76-9.64,2.91s5.05,3.22,9.03,3.07c4.13-.16,8.29-.76,12.34-1.56,2.42-.47,4.98-1,7.24-2.01,2.69-1.21,5.07-3.74,4.89-6.9-.07-1.02-.63-2.07-1.6-2.38-.97-.32-1.64.2-2.3.81-.84.76-1.79,1.43-2.73,2.06-1.92,1.29-4,2.35-6.19,3.12h0Z"/>
          </g>
          <g id="g3">
            <rect id="rect3" x="221.92" y="174.64" width="3.52" height="37.15" transform="translate(-9.45 11.51) rotate(-2.89)"/>
            <path id="path3" d="M234.46,212.65c2.25.79,4.59,1.26,6.89,1.28,1.39,0,2.78-.12,4.14-.38,6.43-1.23,9.03.76,9.64,2.91s-5.05,3.22-9.03,3.07c-4.13-.16-8.29-.76-12.34-1.56-2.42-.47-4.98-1-7.24-2.01-2.69-1.21-5.07-3.74-4.89-6.9.07-1.02.63-2.07,1.6-2.38.97-.32,1.64.2,2.3.81.84.76,1.79,1.43,2.73,2.06,1.92,1.29,4,2.35,6.19,3.12h0Z"/>
          </g>
          <path id="path4" class="cls-8" d="M.22,53.25c2.22-2.94,18.59,5.48,18.59,5.48,0,0-12.36-8.12-10.17-10.98,2.2-2.87,14.4,7.65,14.4,7.65,0,0,3.04-9.5,6.64-7.79,3.61,1.69.29,9.09-.93,11.71-.94,2.01.43,4.09,1.11,4.95,9.83,6.87,65.34,45.72,65.34,45.72l-4.7,4.29-63.72-44.05c-1.14-.82-4.49-.8-8.72-.45s-10.53,2.97-11.42.49,6.32-3.72,6.32-3.72c-3.89-.82-10.34-2.55-9.48-4.94.85-2.39,9.5.16,9.5.16,0,0-14.95-5.58-12.73-8.52h0Z"/>
          <path id="path5" class="cls-8" d="M75.1,80.78l12.61,98.95h209.48l11.06-105.01S250.36.55,250.36.03,104.65,6.27,105.17,6.09c.52-.18-30.08,74.69-30.08,74.69h0Z"/>
          <polygon id="polygon5" class="cls-7" points="250.36 .03 105.17 6.09 167.32 85.31 319.36 85.31 250.36 .03"/>
          <path id="rect5" d="M142.17,68.5h0c5.02,0,9.09,4.08,9.09,9.12v27.45c0,5.04-4.07,9.12-9.09,9.12h0c-5.02,0-9.09-4.08-9.09-9.12v-27.45c0-5.04,4.07-9.12,9.09-9.12Z"/>
          <path id="rect6" d="M226.07,66.36h0c-2.26,3.44-6.87,4.39-10.3,2.13l-21.11-13.92c-3.43-2.26-4.39-6.89-2.13-10.33h0c2.26-3.44,6.87-4.39,10.3-2.13l21.11,13.92c3.43,2.26,4.39,6.89,2.13,10.33Z"/>
          <path id="rect7" d="M143.59,44.22h0c2.26,3.44,1.3,8.06-2.13,10.33l-21.11,13.92c-3.43,2.26-8.05,1.31-10.3-2.13h0c-2.26-3.44-1.3-8.06,2.13-10.33l21.11-13.92c3.43-2.26,8.05-1.31,10.3,2.13Z"/>
          <path id="rect8" d="M194.03,114.19h0c-5.02,0-9.09-4.08-9.09-9.12v-27.45c0-5.04,4.07-9.12,9.09-9.12h0c5.02,0,9.09,4.08,9.09,9.12v27.45c0,5.04-4.07,9.12-9.09,9.12Z"/>
          <g id="g9">
            <path id="path8" d="M148.6,137.91c2.73-5.47,8.3-12.62,19.29-15.06,14.1-3.14,25,3.21,29.48,6.5,13.65-.56,23.84.07,23.84.07-7.16-4.67-35.43-19.56-62.08-11.84-26.66,7.71-27.02,31.57-27.02,31.57,3.13-5.38,13.21-9.88,16.49-11.24h0Z"/>
            <path id="path9" class="cls-6" d="M167.89,122.86c-10.99,2.45-16.56,9.6-19.29,15.06.66-.27,1.05-.42,1.05-.42,14.36-5.58,33.05-7.54,47.72-8.14-4.48-3.29-15.38-9.65-29.48-6.5Z"/>
          </g>
          <path id="path10" class="cls-8" d="M339.79,63.68c-1.5-3.31-19.34,1.13-19.34,1.13,0,0,13.87-5.04,12.37-8.27-1.5-3.23-15.74,4.13-15.74,4.13,0,0-.83-9.77-4.72-8.94-3.9.83-2.32,8.64-1.73,11.43.46,2.13-1.33,3.83-2.19,4.5-11.12,4.4-73.92,29.31-73.92,29.31l3.62,5.16,71.99-28.07c1.29-.53,4.55.23,8.6,1.51,4.05,1.28,9.6,5.19,11.02,3.01s-5.32-4.96-5.32-4.96c3.98.07,10.64-.15,10.35-2.63-.3-2.48-9.3-1.96-9.3-1.96,0,0,15.82-2.03,14.32-5.34h0Z"/>
          <polyline id="polyline10" class="cls-2" points="204.39 11.81 231.69 45.32 231.69 29.53 243.91 9.4 202.46 9.4 204.87 12.45"/>
          <polygon id="polygon10" class="cls-5" points="231.69 45.53 231.69 29.53 243.91 9.4 262.79 29.05 262.79 45.53 231.69 45.53"/>
          <polygon id="polygon11" class="cls-3" points="231.69 45.53 218.87 29.53 231.69 29.53 231.69 45.53"/>
          <path id="path11" class="cls-2" d="M225.36,126.29c-1.39,3.33-3.12,6.44-6.14,8.52.33-3.57,2.62-7.38,6.14-8.52Z"/>
          <g id="g13">
            <path id="path12" class="cls-2" d="M245.92,26.38l-7.5-.27c0,.11.02,2.8.03,5.89l7.45.22.02-5.85h0Z"/>
            <polygon id="polygon12" class="cls-2" points="247.31 33.67 247.29 41.29 254.23 41.29 254.23 33.88 247.31 33.67"/>
            <polygon id="polygon13" class="cls-2" points="247.32 32.27 254.23 32.48 254.23 26.68 247.33 26.43 247.32 32.27"/>
            <path id="path13" class="cls-2" d="M238.47,33.4c.02,3.89.05,7.9.05,7.9h7.38l.02-7.66-7.44-.22h0Z"/>
          </g>
        </g>
      </g>
    </g>
  </g>
</svg>