<?xml version="1.0" encoding="UTF-8"?>
<svg xmlns="http://www.w3.org/2000/svg" viewBox="0 0 339.9 219.55">
  <defs>
    <style>
      .cls-1, .cls-2, .cls-3, .cls-4, .cls-5 {
        fill: #980027;
      }

      .cls-1, .cls-2, .cls-3, .cls-6 {
        mix-blend-mode: multiply;
      }

      .cls-1, .cls-6 {
        opacity: .3;
      }

      .cls-7 {
        fill: #c2002e;
      }

      .cls-2 {
        opacity: .6;
      }

      .cls-8 {
        isolation: isolate;
      }

      .cls-9 {
        fill: #d25a76;
      }

      .cls-5 {
        opacity: 0;
      }

      .cls-10 {
        fill: #cc3456;
      }

      .cls-11 {
        fill: none;
        stroke: #000;
        stroke-linecap: round;
        stroke-miterlimit: 10;
        stroke-width: 15.16px;
      }
    </style>
  </defs>
  <g class="cls-8">
    <g id="Capa_1" data-name="Capa 1">
      <g>
        <rect x="215.94" y="181.54" width="2.6" height="27.37" transform="translate(508.9 179.66) rotate(135)"/>
        <rect x="135.49" y="182.74" width="2.6" height="27.37" transform="translate(178.96 -39.2) rotate(45)"/>
        <polygon class="cls-4" points="91.08 17.27 35.71 95.59 95.72 95.59 91.08 17.27"/>
        <polygon class="cls-2" points="91.08 17.27 35.71 95.59 95.72 95.59 91.08 17.27"/>
        <path class="cls-7" d="M6.35,202.37c-2.56-2.76,8.87-17.77,8.87-17.77,0,0-10.4,11.02-12.89,8.28-2.49-2.73,10.29-13.15,10.29-13.15,0,0-9.01-4.77-6.65-8.1,2.36-3.34,9.2,1.34,11.62,3.04,1.86,1.31,4.19.31,5.18-.23,8.69-8.68,57.79-57.71,57.79-57.71l3.47,5.52s-55.82,56.39-55.82,56.4c-1.03,1-1.61,4.39-2.02,8.72-.41,4.34,1.1,11.16-1.56,11.62-2.66.45-2.6-7.04-2.6-7.04-1.53,3.78-4.43,9.97-6.68,8.68-2.25-1.3,1.87-9.56,1.87-9.56,0,0-8.31,14.08-10.87,11.32Z"/>
        <path class="cls-7" d="M60.25,93.63l12.93,101.16h214.72l11.34-107.36S239.89,11.6,239.89,11.07s-149.35,6.38-148.82,6.2-30.83,76.36-30.83,76.36Z"/>
        <polygon class="cls-9" points="91.08 17.27 154.77 98.25 310.63 98.25 239.89 11.07 91.08 17.27"/>
        <rect x="119.68" y="81.07" width="18.63" height="46.71" rx="5.3" ry="5.3"/>
        <rect x="172.85" y="81.07" width="18.63" height="46.71" rx="5.3" ry="5.3" transform="translate(364.33 208.85) rotate(180)"/>
        <path class="cls-7" d="M335.35,191.11c1.55-3.38-13.86-14.23-13.86-14.23,0,0,13.2,7.37,14.69,4.05,1.49-3.33-13.76-9.43-13.76-9.43,0,0,7-7.18,3.74-9.65-3.26-2.47-8.24,3.99-9.98,6.31-1.34,1.79-3.85,1.53-4.94,1.32-10.87-5.66-72.27-37.63-72.27-37.63l-1.55,6.25s70.01,36.96,70.01,36.96c1.28.65,2.88,3.68,4.61,7.67,1.73,3.99,2.44,10.91,5.08,10.55,2.64-.36.26-7.44.26-7.44,2.61,3.13,7.26,8.14,8.98,6.25,1.71-1.89-4.73-8.51-4.73-8.51,0,0,12.19,10.89,13.74,7.52Z"/>
        <polyline class="cls-4" points="192.78 23.11 220.77 57.37 220.77 41.23 233.29 20.64 190.8 20.64 193.27 23.77"/>
        <polygon class="cls-10" points="233.29 20.64 252.64 40.74 252.64 57.59 220.77 57.59 220.77 41.23 233.29 20.64"/>
        <polygon class="cls-1" points="220.77 57.59 207.62 41.23 220.77 41.23 220.77 57.59"/>
        <path class="cls-4" d="M192.23,150.63c2.4,2.61,5.09,5.15,6.91,8.23-3.11-1.85-5.99-4.65-6.91-8.23h0Z"/>
        <g>
          <path class="cls-4" d="M235.36,38.02l-7.69-.27c0,.12.01,2.87.03,6.02l7.64.23.02-5.98Z"/>
          <polygon class="cls-5" points="236.75 53.26 243.87 53.26 243.87 45.68 236.77 45.46 236.75 53.26"/>
          <polygon class="cls-4" points="243.87 44.25 243.87 38.32 236.79 38.07 236.78 44.03 243.87 44.25"/>
          <path class="cls-4" d="M227.71,45.19c.02,3.98.04,8.07.04,8.07h7.56l.02-7.84-7.63-.23Z"/>
        </g>
        <path class="cls-11" d="M182.56,58.17s6.99,13.49,26.25,18.31"/>
        <path class="cls-11" d="M124.75,58.66s-6.99,13.49-26.25,18.31"/>
        <path d="M239.72,192.43c-1.61,1.84-3.45,3.44-5.5,4.62-1.23.71-2.54,1.3-3.88,1.76-6.35,2.16-7.67,5.25-7.13,7.47.54,2.22,6.13.31,9.6-1.84,3.6-2.23,7.01-4.87,10.22-7.63,1.92-1.65,3.94-3.4,5.44-5.45,1.79-2.44,2.64-5.89.87-8.61-.57-.87-1.61-1.52-2.63-1.32-1.02.2-1.36,1.02-1.65,1.89-.36,1.1-.88,2.18-1.4,3.21-1.07,2.12-2.39,4.11-3.95,5.9Z"/>
        <path d="M115.73,193.67c1.61,1.84,3.45,3.44,5.5,4.62,1.23.71,2.54,1.3,3.88,1.76,6.35,2.16,7.67,5.25,7.13,7.47-.54,2.22-6.13.31-9.6-1.84-3.6-2.23-7.01-4.87-10.22-7.63-1.92-1.65-3.94-3.4-5.44-5.45-1.79-2.44-2.64-5.89-.87-8.61.57-.87,1.61-1.52,2.63-1.32,1.02.2,1.36,1.02,1.65,1.89.36,1.1.88,2.18,1.4,3.21,1.07,2.12,2.39,4.11,3.95,5.9Z"/>
        <path d="M129.09,164.3s28.65-33.91,64.31-9.06l-64.31,9.06Z"/>
        <polygon class="cls-4" points="259.15 98.23 277.7 98.23 263.25 84.02 279.87 76.07 238.92 60.41 265.18 75.83 248.8 79.68 259.15 98.23"/>
        <g class="cls-6">
          <polygon class="cls-3" points="265.18 75.83 264.21 80.45 252.83 87.14 248.8 79.68 265.18 75.83"/>
        </g>
        <g class="cls-6">
          <polygon class="cls-3" points="263.25 84.02 262.77 89.67 270.9 98.16 277.7 98.23 263.25 84.02"/>
        </g>
        <g class="cls-6">
          <polygon class="cls-3" points="238.92 60.41 274.33 78.47 279.87 76.07 238.92 60.41"/>
        </g>
      </g>
    </g>
  </g>
</svg>