<?xml version="1.0" encoding="UTF-8"?>
<svg xmlns="http://www.w3.org/2000/svg" viewBox="0 0 365.92 235.75">
  <defs>
    <style>
      .cls-1 {
        opacity: .3;
      }

      .cls-1, .cls-2, .cls-3 {
        fill: #b40023;
      }

      .cls-1, .cls-3 {
        mix-blend-mode: multiply;
      }

      .cls-4 {
        fill: #f15a78;
      }

      .cls-5 {
        fill: #fff;
      }

      .cls-6 {
        fill: #e4002b;
      }

      .cls-7 {
        isolation: isolate;
      }

      .cls-3 {
        opacity: .6;
      }

      .cls-8 {
        fill: #ee3156;
      }
    </style>
  </defs>
  <g class="cls-7">
    <g id="Capa_2" data-name="Capa 2">
      <g id="Layer_3" data-name="Layer 3">
        <g>
          <polygon class="cls-2" points="113.23 6.54 55.07 88.8 118.11 88.8 113.23 6.54"/>
          <polygon class="cls-3" points="113.23 6.54 55.07 88.8 118.11 88.8 113.23 6.54"/>
          <g>
            <rect x="161.43" y="187.93" width="3.79" height="39.89" transform="translate(-28.81 26.29) rotate(-8.46)"/>
            <path d="M158.47,228.34c-2.42.85-4.94,1.35-7.42,1.37-1.5.01-2.99-.13-4.46-.41-6.92-1.32-9.72.82-10.38,3.13-.66,2.31,5.44,3.46,9.72,3.3,4.45-.17,8.93-.82,13.29-1.68,2.61-.51,5.36-1.07,7.79-2.16,2.9-1.3,5.46-4.02,5.26-7.41-.07-1.09-.68-2.22-1.72-2.56-1.04-.34-1.77.22-2.48.87-.9.82-1.93,1.54-2.94,2.21-2.07,1.38-4.31,2.52-6.66,3.35Z"/>
          </g>
          <g>
            <rect x="238.91" y="187.54" width="3.79" height="39.89" transform="translate(491.74 402.59) rotate(177.12)"/>
            <path d="M252.42,228.34c2.42.85,4.94,1.35,7.42,1.37,1.5.01,2.99-.13,4.46-.41,6.92-1.32,9.72.82,10.38,3.13s-5.44,3.46-9.72,3.3c-4.45-.17-8.93-.82-13.29-1.68-2.61-.51-5.36-1.07-7.79-2.16-2.9-1.3-5.46-4.02-5.26-7.41.07-1.09.68-2.22,1.72-2.56,1.04-.34,1.77.22,2.48.87.9.82,1.93,1.54,2.94,2.21,2.07,1.38,4.31,2.52,6.66,3.35Z"/>
          </g>
          <path class="cls-6" d="M.24,57.18c2.39-3.16,20.01,5.88,20.01,5.88,0,0-13.31-8.72-10.95-11.79,2.37-3.08,15.5,8.21,15.5,8.21,0,0,3.27-10.2,7.15-8.37,3.89,1.82.31,9.76-1,12.57-1.01,2.16.46,4.39,1.19,5.31,10.58,7.38,70.34,49.09,70.34,49.09l-5.06,4.61S28.82,75.39,28.82,75.39c-1.23-.88-4.83-.86-9.39-.48-4.56.38-11.34,3.19-12.3.53-.96-2.66,6.8-3.99,6.8-3.99-4.19-.88-11.13-2.74-10.21-5.3.92-2.57,10.23.17,10.23.17,0,0-16.09-5.99-13.71-9.15Z"/>
          <path class="cls-6" d="M80.85,86.74l13.58,106.25h225.52l11.91-112.76S269.53.59,269.53.03,112.67,6.73,113.23,6.54c.56-.19-32.38,80.2-32.38,80.2Z"/>
          <polygon class="cls-4" points="113.23 6.54 180.13 91.6 343.82 91.6 269.53 .03 113.23 6.54"/>
          <rect x="143.27" y="73.55" width="19.57" height="49.06" rx="9.79" ry="9.79"/>
          <rect x="217.31" y="37.76" width="16.01" height="43.22" rx="8.01" ry="8.01" transform="translate(398.77 -96.23) rotate(123.34)"/>
          <rect x="128.54" y="37.76" width="16.01" height="43.22" rx="8.01" ry="8.01" transform="translate(111.09 -87.34) rotate(56.66)"/>
          <rect x="199.11" y="73.55" width="19.57" height="49.06" rx="9.79" ry="9.79" transform="translate(417.79 196.16) rotate(180)"/>
          <g>
            <path d="M220.41,126.73c-2.94,5.87-8.94,13.55-20.77,16.17-15.18,3.37-26.91-3.45-31.74-6.98-14.7.6-25.67-.07-25.67-.07,7.71,5.01,38.14,21,66.84,12.71,28.7-8.28,29.09-33.9,29.09-33.9-3.37,5.78-14.22,10.61-17.75,12.07Z"/>
            <path class="cls-5" d="M199.64,142.9c11.83-2.63,17.83-10.31,20.77-16.17-.71.29-1.13.45-1.13.45-15.46,5.99-35.58,8.1-51.38,8.74,4.82,3.53,16.56,10.36,31.74,6.98Z"/>
          </g>
          <path class="cls-6" d="M365.82,68.38c-1.61-3.55-20.82,1.21-20.82,1.21,0,0,14.93-5.41,13.32-8.88-1.61-3.47-16.95,4.44-16.95,4.44,0,0-.89-10.49-5.08-9.6-4.2.89-2.5,9.28-1.86,12.27.5,2.29-1.43,4.11-2.36,4.83-11.97,4.73-79.58,31.47-79.58,31.47l3.9,5.54s77.5-30.14,77.5-30.14c1.39-.57,4.9.25,9.26,1.62,4.36,1.37,10.33,5.57,11.86,3.23,1.53-2.34-5.73-5.33-5.73-5.33,4.28.08,11.46-.16,11.14-2.82-.32-2.66-10.01-2.1-10.01-2.1,0,0,17.03-2.18,15.42-5.73Z"/>
          <polyline class="cls-2" points="220.04 12.68 249.44 48.66 249.44 31.71 262.59 10.09 217.97 10.09 220.56 13.37"/>
          <polygon class="cls-8" points="262.59 10.09 282.92 31.19 282.92 48.89 249.44 48.89 249.44 31.71 262.59 10.09"/>
          <polygon class="cls-1" points="249.44 48.89 235.63 31.71 249.44 31.71 249.44 48.89"/>
          <path class="cls-2" d="M235.4,108.67c3.1,2.32,5.88,4.95,7.26,8.64-3.63-1.28-7-4.67-7.26-8.64h0Z"/>
          <g>
            <path class="cls-2" d="M264.76,28.33l-8.07-.29c0,.12.02,3.01.03,6.32l8.02.24.02-6.28Z"/>
            <polygon class="cls-2" points="266.23 44.34 273.7 44.34 273.7 36.38 266.25 36.15 266.23 44.34"/>
            <polygon class="cls-2" points="273.7 34.88 273.7 28.65 266.27 28.38 266.26 34.65 273.7 34.88"/>
            <path class="cls-2" d="M256.73,35.86c.02,4.18.05,8.48.05,8.48h7.94l.02-8.23-8.01-.24Z"/>
          </g>
        </g>
      </g>
    </g>
  </g>
</svg>