<?xml version="1.0" encoding="UTF-8" standalone="no"?>
<svg
   viewBox="0 0 340.48235 219.25748"
   version="1.1"
   id="svg15"
   sodipodi:docname="casa.svg"
   width="340.48236"
   height="219.25748"
   inkscape:version="1.4.2 (f4327f4, 2025-05-13)"
   xmlns:inkscape="http://www.inkscape.org/namespaces/inkscape"
   xmlns:sodipodi="http://sodipodi.sourceforge.net/DTD/sodipodi-0.dtd"
   xmlns="http://www.w3.org/2000/svg"
   xmlns:svg="http://www.w3.org/2000/svg">
  <sodipodi:namedview
     id="namedview15"
     pagecolor="#ffffff"
     bordercolor="#000000"
     borderopacity="0.25"
     inkscape:showpageshadow="2"
     inkscape:pageopacity="0.0"
     inkscape:pagecheckerboard="0"
     inkscape:deskcolor="#d1d1d1"
     inkscape:zoom="3.457052"
     inkscape:cx="157.50414"
     inkscape:cy="101.38696"
     inkscape:window-width="1920"
     inkscape:window-height="1017"
     inkscape:window-x="-8"
     inkscape:window-y="-8"
     inkscape:window-maximized="1"
     inkscape:current-layer="svg15" />
  <defs
     id="defs1">
    <style
       id="style1">
      .cls-1 {
        opacity: .3;
      }

      .cls-1, .cls-2, .cls-3 {
        fill: #b40023;
      }

      .cls-1, .cls-3 {
        mix-blend-mode: multiply;
      }

      .cls-4 {
        fill: #f15a78;
      }

      .cls-5 {
        fill: #fff;
      }

      .cls-6 {
        fill: #e4002b;
      }

      .cls-7 {
        isolation: isolate;
      }

      .cls-3 {
        opacity: .6;
      }

      .cls-8 {
        fill: #ee3156;
      }
    </style>
  </defs>
  <g
     class="cls-7"
     id="g15"
     transform="matrix(0.93043837,0,0,0.93006002,1.9272268e-4,7.6008502e-4)">
    <g
       id="Capa_2"
       data-name="Capa 2">
      <g
         id="Layer_3"
         data-name="Layer 3">
        <g
           id="g14">
          <polygon
             class="cls-2"
             points="113.23,6.54 55.07,88.8 118.11,88.8 "
             id="polygon1" />
          <polygon
             class="cls-3"
             points="113.23,6.54 55.07,88.8 118.11,88.8 "
             id="polygon2" />
          <g
             id="g2">
            <rect
               x="161.42999"
               y="187.92999"
               width="3.79"
               height="39.889999"
               transform="rotate(-8.46,163.32175,207.90756)"
               id="rect2" />
            <path
               d="m 158.47,228.34 c -2.42,0.85 -4.94,1.35 -7.42,1.37 -1.5,0.01 -2.99,-0.13 -4.46,-0.41 -6.92,-1.32 -9.72,0.82 -10.38,3.13 -0.66,2.31 5.44,3.46 9.72,3.3 4.45,-0.17 8.93,-0.82 13.29,-1.68 2.61,-0.51 5.36,-1.07 7.79,-2.16 2.9,-1.3 5.46,-4.02 5.26,-7.41 -0.07,-1.09 -0.68,-2.22 -1.72,-2.56 -1.04,-0.34 -1.77,0.22 -2.48,0.87 -0.9,0.82 -1.93,1.54 -2.94,2.21 -2.07,1.38 -4.31,2.52 -6.66,3.35 z"
               id="path2" />
          </g>
          <g
             id="g3">
            <rect
               x="238.91"
               y="187.53999"
               width="3.79"
               height="39.889999"
               transform="rotate(177.12,240.80984,207.47569)"
               id="rect3" />
            <path
               d="m 252.42,228.34 c 2.42,0.85 4.94,1.35 7.42,1.37 1.5,0.01 2.99,-0.13 4.46,-0.41 6.92,-1.32 9.72,0.82 10.38,3.13 0.66,2.31 -5.44,3.46 -9.72,3.3 -4.45,-0.17 -8.93,-0.82 -13.29,-1.68 -2.61,-0.51 -5.36,-1.07 -7.79,-2.16 -2.9,-1.3 -5.46,-4.02 -5.26,-7.41 0.07,-1.09 0.68,-2.22 1.72,-2.56 1.04,-0.34 1.77,0.22 2.48,0.87 0.9,0.82 1.93,1.54 2.94,2.21 2.07,1.38 4.31,2.52 6.66,3.35 z"
               id="path3" />
          </g>
          <path
             class="cls-6"
             d="m 0.24,57.18 c 2.39,-3.16 20.01,5.88 20.01,5.88 0,0 -13.31,-8.72 -10.95,-11.79 2.37,-3.08 15.5,8.21 15.5,8.21 0,0 3.27,-10.2 7.15,-8.37 3.89,1.82 0.31,9.76 -1,12.57 -1.01,2.16 0.46,4.39 1.19,5.31 10.58,7.38 70.34,49.09 70.34,49.09 l -5.06,4.61 c 0,0 -68.6,-47.3 -68.6,-47.3 -1.23,-0.88 -4.83,-0.86 -9.39,-0.48 -4.56,0.38 -11.34,3.19 -12.3,0.53 -0.96,-2.66 6.8,-3.99 6.8,-3.99 C 9.74,70.57 2.8,68.71 3.72,66.15 c 0.92,-2.57 10.23,0.17 10.23,0.17 0,0 -16.09,-5.99 -13.71,-9.15 z"
             id="path4" />
          <path
             class="cls-6"
             d="M 80.85,86.74 94.43,192.99 H 319.95 L 331.86,80.23 c 0,0 -62.33,-79.64 -62.33,-80.2 0,-0.56 -156.86,6.7 -156.3,6.51 0.56,-0.19 -32.38,80.2 -32.38,80.2 z"
             id="path5" />
          <polygon
             class="cls-4"
             points="269.53,0.03 113.23,6.54 180.13,91.6 343.82,91.6 "
             id="polygon5" />
          <rect
             x="143.27"
             y="73.550003"
             width="19.57"
             height="49.060001"
             rx="9.79"
             ry="9.79"
             id="rect5" />
          <rect
             x="217.31"
             y="37.759998"
             width="16.01"
             height="43.220001"
             rx="8.0100002"
             ry="8.0100002"
             transform="rotate(123.34,225.32476,59.377464)"
             id="rect6" />
          <rect
             x="128.53999"
             y="37.759998"
             width="16.01"
             height="43.220001"
             rx="8.0100002"
             ry="8.0100002"
             transform="rotate(56.66,136.54736,59.358988)"
             id="rect7" />
          <rect
             x="199.11"
             y="73.550003"
             width="19.57"
             height="49.060001"
             rx="9.79"
             ry="9.79"
             transform="rotate(180,208.895,98.08)"
             id="rect8" />
          <g
             id="g9">
            <path
               d="m 220.41,126.73 c -2.94,5.87 -8.94,13.55 -20.77,16.17 -15.18,3.37 -26.91,-3.45 -31.74,-6.98 -14.7,0.6 -25.67,-0.07 -25.67,-0.07 7.71,5.01 38.14,21 66.84,12.71 28.7,-8.28 29.09,-33.9 29.09,-33.9 -3.37,5.78 -14.22,10.61 -17.75,12.07 z"
               id="path8" />
            <path
               class="cls-5"
               d="m 199.64,142.9 c 11.83,-2.63 17.83,-10.31 20.77,-16.17 -0.71,0.29 -1.13,0.45 -1.13,0.45 -15.46,5.99 -35.58,8.1 -51.38,8.74 4.82,3.53 16.56,10.36 31.74,6.98 z"
               id="path9" />
          </g>
          <path
             class="cls-6"
             d="M 365.82,68.38 C 364.21,64.83 345,69.59 345,69.59 c 0,0 14.93,-5.41 13.32,-8.88 -1.61,-3.47 -16.95,4.44 -16.95,4.44 0,0 -0.89,-10.49 -5.08,-9.6 -4.2,0.89 -2.5,9.28 -1.86,12.27 0.5,2.29 -1.43,4.11 -2.36,4.83 -11.97,4.73 -79.58,31.47 -79.58,31.47 l 3.9,5.54 c 0,0 77.5,-30.14 77.5,-30.14 1.39,-0.57 4.9,0.25 9.26,1.62 4.36,1.37 10.33,5.57 11.86,3.23 1.53,-2.34 -5.73,-5.33 -5.73,-5.33 4.28,0.08 11.46,-0.16 11.14,-2.82 -0.32,-2.66 -10.01,-2.1 -10.01,-2.1 0,0 17.03,-2.18 15.42,-5.73 z"
             id="path10" />
          <polyline
             class="cls-2"
             points="220.04 12.68 249.44 48.66 249.44 31.71 262.59 10.09 217.97 10.09 220.56 13.37"
             id="polyline10" />
          <polygon
             class="cls-8"
             points="249.44,48.89 249.44,31.71 262.59,10.09 282.92,31.19 282.92,48.89 "
             id="polygon10" />
          <polygon
             class="cls-1"
             points="249.44,48.89 235.63,31.71 249.44,31.71 "
             id="polygon11" />
          <path
             class="cls-2"
             d="m 235.4,108.67 c 3.1,2.32 5.88,4.95 7.26,8.64 -3.63,-1.28 -7,-4.67 -7.26,-8.64 z"
             id="path11" />
          <g
             id="g13">
            <path
               class="cls-2"
               d="m 264.76,28.33 -8.07,-0.29 c 0,0.12 0.02,3.01 0.03,6.32 l 8.02,0.24 0.02,-6.28 z"
               id="path12" />
            <polygon
               class="cls-2"
               points="266.25,36.15 266.23,44.34 273.7,44.34 273.7,36.38 "
               id="polygon12" />
            <polygon
               class="cls-2"
               points="266.26,34.65 273.7,34.88 273.7,28.65 266.27,28.38 "
               id="polygon13" />
            <path
               class="cls-2"
               d="m 256.73,35.86 c 0.02,4.18 0.05,8.48 0.05,8.48 h 7.94 l 0.02,-8.23 -8.01,-0.24 z"
               id="path13" />
          </g>
        </g>
      </g>
    </g>
  </g>
</svg>
