<?xml version="1.0" encoding="UTF-8"?>
<svg id="Capa_1" data-name="Capa 1" xmlns="http://www.w3.org/2000/svg" viewBox="0 0 340.48 219.26">
  <defs>
    <style>
      .cls-1, .cls-2, .cls-3 {
        fill: #b40023;
      }

      .cls-4 {
        fill: #f15a78;
      }

      .cls-5 {
        fill: #fff;
      }

      .cls-6 {
        fill: #e4002b;
      }

      .cls-2 {
        opacity: .6;
      }

      .cls-2, .cls-7, .cls-3 {
        isolation: isolate;
      }

      .cls-2, .cls-3 {
        mix-blend-mode: multiply;
      }

      .cls-8 {
        fill: #ee3156;
      }

      .cls-3 {
        opacity: .3;
      }
    </style>
  </defs>
  <g id="g15" class="cls-7">
    <g id="Capa_2" data-name="Capa 2">
      <g id="Layer_3" data-name="Layer 3">
        <g id="g14">
          <polygon id="polygon1" class="cls-1" points="105.35 6.08 51.24 82.59 109.89 82.59 105.35 6.08"/>
          <polygon id="polygon2" class="cls-2" points="105.35 6.08 51.24 82.59 109.89 82.59 105.35 6.08"/>
          <g id="g2">
            <rect id="rect2" x="150.2" y="174.79" width="3.53" height="37.1" transform="translate(-26.78 24.45) rotate(-8.46)"/>
            <path id="path2" d="M147.45,212.37c-2.25.79-4.6,1.26-6.9,1.27-1.4,0-2.78-.12-4.15-.38-6.44-1.23-9.04.76-9.66,2.91s5.06,3.22,9.04,3.07c4.14-.16,8.31-.76,12.37-1.56,2.43-.47,4.99-1,7.25-2.01,2.7-1.21,5.08-3.74,4.89-6.89-.07-1.01-.63-2.06-1.6-2.38-.97-.32-1.65.2-2.31.81-.84.76-1.8,1.43-2.74,2.06-1.93,1.28-4.01,2.34-6.2,3.12h0Z"/>
          </g>
          <g id="g3">
            <rect id="rect3" x="222.3" y="174.41" width="3.53" height="37.1" transform="translate(-9.41 11.5) rotate(-2.88)"/>
            <path id="path3" d="M234.86,212.37c2.25.79,4.6,1.26,6.9,1.27,1.4,0,2.78-.12,4.15-.38,6.44-1.23,9.04.76,9.66,2.91s-5.06,3.22-9.04,3.07c-4.14-.16-8.31-.76-12.37-1.56-2.43-.47-4.99-1-7.25-2.01-2.7-1.21-5.08-3.74-4.89-6.89.07-1.01.63-2.06,1.6-2.38.97-.32,1.65.2,2.31.81.84.76,1.8,1.43,2.74,2.06,1.93,1.28,4.01,2.34,6.2,3.12h0Z"/>
          </g>
          <path id="path4" class="cls-6" d="M.22,53.18c2.22-2.94,18.62,5.47,18.62,5.47,0,0-12.38-8.11-10.19-10.97,2.21-2.86,14.42,7.64,14.42,7.64,0,0,3.04-9.49,6.65-7.78,3.62,1.69.29,9.08-.93,11.69-.94,2.01.43,4.08,1.11,4.94,9.84,6.86,65.45,45.66,65.45,45.66l-4.71,4.29-63.83-43.99c-1.14-.82-4.49-.8-8.74-.45s-10.55,2.97-11.44.49,6.33-3.71,6.33-3.71c-3.9-.82-10.36-2.55-9.5-4.93.86-2.39,9.52.16,9.52.16,0,0-14.97-5.57-12.76-8.51h0Z"/>
          <path id="path5" class="cls-6" d="M75.23,80.67l12.64,98.82h209.83l11.08-104.87S250.78.55,250.78.03,104.83,6.26,105.35,6.08c.52-.18-30.13,74.59-30.13,74.59h0Z"/>
          <polygon id="polygon5" class="cls-4" points="250.78 .03 105.35 6.08 167.6 85.19 319.9 85.19 250.78 .03"/>
          <path id="rect5" d="M142.41,68.41h0c5.03,0,9.1,4.08,9.1,9.11v27.42c0,5.03-4.08,9.11-9.1,9.11h0c-5.03,0-9.1-4.08-9.1-9.11v-27.42c0-5.03,4.08-9.11,9.1-9.11Z"/>
          <path id="rect6" d="M226.46,66.27h0c-2.26,3.44-6.88,4.39-10.32,2.13l-21.14-13.9c-3.44-2.26-4.39-6.88-2.13-10.31h0c2.26-3.44,6.88-4.39,10.32-2.13l21.14,13.9c3.44,2.26,4.39,6.88,2.13,10.31Z"/>
          <path id="rect7" d="M143.84,44.17h0c2.26,3.44,1.31,8.05-2.13,10.31l-21.14,13.9c-3.44,2.26-8.06,1.31-10.32-2.13h0c-2.26-3.44-1.31-8.05,2.13-10.31l21.14-13.9c3.44-2.26,8.06-1.31,10.32,2.13Z"/>
          <path id="rect8" d="M194.36,114.04h0c-5.03,0-9.1-4.08-9.1-9.11v-27.42c0-5.03,4.08-9.11,9.1-9.11h0c5.03,0,9.1,4.08,9.1,9.11v27.42c0,5.03-4.08,9.11-9.1,9.11Z"/>
          <g id="g9">
            <path id="path8" d="M205.08,117.87c-2.74,5.46-8.32,12.6-19.33,15.04-14.12,3.13-25.04-3.21-29.53-6.49-13.68.56-23.88-.07-23.88-.07,7.17,4.66,35.49,19.53,62.19,11.82,26.7-7.7,27.07-31.53,27.07-31.53-3.14,5.38-13.23,9.87-16.52,11.23h0Z"/>
            <path id="path9" class="cls-5" d="M185.75,132.91c11.01-2.45,16.59-9.59,19.33-15.04-.66.27-1.05.42-1.05.42-14.38,5.57-33.1,7.53-47.81,8.13,4.48,3.28,15.41,9.64,29.53,6.49Z"/>
          </g>
          <path id="path10" class="cls-6" d="M340.37,63.6c-1.5-3.3-19.37,1.13-19.37,1.13,0,0,13.89-5.03,12.39-8.26-1.5-3.23-15.77,4.13-15.77,4.13,0,0-.83-9.76-4.73-8.93-3.91.83-2.33,8.63-1.73,11.41.47,2.13-1.33,3.82-2.2,4.49-11.14,4.4-74.04,29.27-74.04,29.27l3.63,5.15,72.11-28.03c1.29-.53,4.56.23,8.62,1.51,4.06,1.27,9.61,5.18,11.03,3s-5.33-4.96-5.33-4.96c3.98.07,10.66-.15,10.37-2.62-.3-2.47-9.31-1.95-9.31-1.95,0,0,15.85-2.03,14.35-5.33h0Z"/>
          <polyline id="polyline10" class="cls-1" points="204.73 11.79 232.09 45.26 232.09 29.49 244.32 9.39 202.81 9.39 205.22 12.44"/>
          <polygon id="polygon10" class="cls-8" points="232.09 45.47 232.09 29.49 244.32 9.39 263.24 29.01 263.24 45.47 232.09 45.47"/>
          <polygon id="polygon11" class="cls-3" points="232.09 45.47 219.24 29.49 232.09 29.49 232.09 45.47"/>
          <path id="path11" class="cls-1" d="M219.03,101.07c2.88,2.16,5.47,4.6,6.75,8.04-3.38-1.19-6.51-4.34-6.75-8.04Z"/>
          <g id="g13">
            <path id="path12" class="cls-1" d="M246.34,26.35l-7.51-.27c0,.11.02,2.8.03,5.88l7.46.22.02-5.84h0Z"/>
            <polygon id="polygon12" class="cls-1" points="247.73 33.62 247.71 41.24 254.66 41.24 254.66 33.84 247.73 33.62"/>
            <polygon id="polygon13" class="cls-1" points="247.74 32.23 254.66 32.44 254.66 26.65 247.75 26.4 247.74 32.23"/>
            <path id="path13" class="cls-1" d="M238.87,33.35c.02,3.89.05,7.89.05,7.89h7.39l.02-7.65-7.45-.22h0Z"/>
          </g>
        </g>
      </g>
    </g>
  </g>
</svg>