<?xml version="1.0" encoding="UTF-8"?>
<svg xmlns="http://www.w3.org/2000/svg" viewBox="0 0 339.9 219.55">
  <defs>
    <style>
      .cls-1, .cls-2, .cls-3, .cls-4, .cls-5 {
        fill: #c89a19;
      }

      .cls-1, .cls-3, .cls-4, .cls-6 {
        mix-blend-mode: multiply;
      }

      .cls-7 {
        fill: #e0ad1d;
      }

      .cls-2 {
        opacity: 0;
      }

      .cls-3, .cls-6 {
        opacity: .3;
      }

      .cls-8 {
        isolation: isolate;
      }

      .cls-4 {
        opacity: .6;
      }

      .cls-9 {
        fill: #e8ca74;
      }

      .cls-10 {
        fill: #e5bf50;
      }

      .cls-11 {
        fill: none;
        stroke: #000;
        stroke-linecap: round;
        stroke-miterlimit: 10;
        stroke-width: 15.16px;
      }
    </style>
  </defs>
  <g class="cls-8">
    <g id="Capa_1" data-name="Capa 1">
      <g>
        <rect x="216.75" y="181.54" width="2.6" height="27.37" transform="translate(510.28 179.09) rotate(135)"/>
        <rect x="136.3" y="182.74" width="2.6" height="27.37" transform="translate(179.2 -39.76) rotate(45)"/>
        <polygon class="cls-5" points="91.88 17.27 36.51 95.59 96.53 95.59 91.88 17.27"/>
        <polygon class="cls-4" points="91.88 17.27 36.51 95.59 96.53 95.59 91.88 17.27"/>
        <path class="cls-7" d="M7.15,202.37c-2.56-2.76,8.87-17.77,8.87-17.77,0,0-10.4,11.02-12.89,8.28-2.49-2.73,10.29-13.15,10.29-13.15,0,0-9.01-4.77-6.65-8.1,2.36-3.34,9.2,1.34,11.62,3.04,1.86,1.31,4.19.31,5.18-.23,8.69-8.68,57.79-57.71,57.79-57.71l3.47,5.52s-55.82,56.39-55.82,56.4c-1.03,1-1.61,4.39-2.02,8.72-.41,4.34,1.1,11.16-1.56,11.62-2.66.45-2.6-7.04-2.6-7.04-1.53,3.78-4.43,9.97-6.68,8.68-2.25-1.3,1.87-9.56,1.87-9.56,0,0-8.31,14.08-10.87,11.32Z"/>
        <path class="cls-7" d="M61.06,93.63l12.93,101.16h214.72l11.34-107.36S240.7,11.6,240.7,11.07s-149.35,6.38-148.82,6.2-30.83,76.36-30.83,76.36Z"/>
        <polygon class="cls-9" points="91.88 17.27 155.58 98.25 311.43 98.25 240.7 11.07 91.88 17.27"/>
        <rect x="120.49" y="81.07" width="18.63" height="46.71" rx="5.3" ry="5.3"/>
        <rect x="173.65" y="81.07" width="18.63" height="46.71" rx="5.3" ry="5.3" transform="translate(365.93 208.85) rotate(180)"/>
        <path class="cls-7" d="M336.16,191.11c1.55-3.38-13.86-14.23-13.86-14.23,0,0,13.2,7.37,14.69,4.05,1.49-3.33-13.76-9.43-13.76-9.43,0,0,7-7.18,3.74-9.65-3.26-2.47-8.24,3.99-9.98,6.31-1.34,1.79-3.85,1.53-4.94,1.32-10.87-5.66-72.27-37.63-72.27-37.63l-1.55,6.25s70.01,36.96,70.01,36.96c1.28.65,2.88,3.68,4.61,7.67,1.73,3.99,2.44,10.91,5.08,10.55,2.64-.36.26-7.44.26-7.44,2.61,3.13,7.26,8.14,8.98,6.25,1.71-1.89-4.73-8.51-4.73-8.51,0,0,12.19,10.89,13.74,7.52Z"/>
        <polyline class="cls-5" points="193.58 23.11 221.58 57.37 221.58 41.23 234.09 20.64 191.6 20.64 194.07 23.77"/>
        <polygon class="cls-10" points="234.09 20.64 253.44 40.74 253.44 57.59 221.58 57.59 221.58 41.23 234.09 20.64"/>
        <polygon class="cls-3" points="221.58 57.59 208.42 41.23 221.58 41.23 221.58 57.59"/>
        <path class="cls-5" d="M193.03,150.63c2.4,2.61,5.09,5.15,6.91,8.23-3.11-1.85-5.99-4.65-6.91-8.23h0Z"/>
        <g>
          <path class="cls-5" d="M236.16,38.02l-7.69-.27c0,.12.01,2.87.03,6.02l7.64.23.02-5.98Z"/>
          <polygon class="cls-2" points="237.56 53.26 244.67 53.26 244.67 45.68 237.58 45.46 237.56 53.26"/>
          <polygon class="cls-5" points="244.67 44.25 244.67 38.32 237.6 38.07 237.58 44.03 244.67 44.25"/>
          <path class="cls-5" d="M228.51,45.19c.02,3.98.04,8.07.04,8.07h7.56l.02-7.84-7.63-.23Z"/>
        </g>
        <path class="cls-11" d="M183.36,58.17s6.99,13.49,26.25,18.31"/>
        <path class="cls-11" d="M125.56,58.66s-6.99,13.49-26.25,18.31"/>
        <path d="M240.52,192.43c-1.61,1.84-3.45,3.44-5.5,4.62-1.23.71-2.54,1.3-3.88,1.76-6.35,2.16-7.67,5.25-7.13,7.47.54,2.22,6.13.31,9.6-1.84,3.6-2.23,7.01-4.87,10.22-7.63,1.92-1.65,3.94-3.4,5.44-5.45,1.79-2.44,2.64-5.89.87-8.61-.57-.87-1.61-1.52-2.63-1.32-1.02.2-1.36,1.02-1.65,1.89-.36,1.1-.88,2.18-1.4,3.21-1.07,2.12-2.39,4.11-3.95,5.9Z"/>
        <path d="M116.53,193.67c1.61,1.84,3.45,3.44,5.5,4.62,1.23.71,2.54,1.3,3.88,1.76,6.35,2.16,7.67,5.25,7.13,7.47-.54,2.22-6.13.31-9.6-1.84-3.6-2.23-7.01-4.87-10.22-7.63-1.92-1.65-3.94-3.4-5.44-5.45-1.79-2.44-2.64-5.89-.87-8.61.57-.87,1.61-1.52,2.63-1.32,1.02.2,1.36,1.02,1.65,1.89.36,1.1.88,2.18,1.4,3.21,1.07,2.12,2.39,4.11,3.95,5.9Z"/>
        <path d="M129.89,164.3s28.65-33.91,64.31-9.06l-64.31,9.06Z"/>
        <polygon class="cls-5" points="259.96 98.23 278.5 98.23 264.05 84.02 280.67 76.07 239.72 60.41 265.98 75.83 249.6 79.68 259.96 98.23"/>
        <g class="cls-6">
          <polygon class="cls-1" points="265.98 75.83 265.02 80.45 253.63 87.14 249.6 79.68 265.98 75.83"/>
        </g>
        <g class="cls-6">
          <polygon class="cls-1" points="264.05 84.02 263.57 89.67 271.7 98.16 278.5 98.23 264.05 84.02"/>
        </g>
        <g class="cls-6">
          <polygon class="cls-1" points="239.72 60.41 275.13 78.47 280.67 76.07 239.72 60.41"/>
        </g>
      </g>
    </g>
  </g>
</svg>