<?xml version="1.0" encoding="UTF-8"?>
<svg xmlns="http://www.w3.org/2000/svg" viewBox="0 0 336.29 245.75">
  <defs>
    <style>
      .cls-1, .cls-2 {
        fill: #986002;
      }

      .cls-3 {
        fill: #b87b14;
      }

      .cls-4 {
        fill: #eea924;
      }

      .cls-5 {
        fill: #f8cc77;
      }

      .cls-6 {
        isolation: isolate;
      }

      .cls-2 {
        mix-blend-mode: multiply;
        opacity: .6;
      }
    </style>
  </defs>
  <g class="cls-6">
    <g id="Capa_1" data-name="Capa 1">
      <g>
        <g>
          <path class="cls-4" d="M317.21,206.67c4.17-1.17,2.19-23.06,2.19-23.06,0,0,3.41,17.3,7.49,16.11,4.08-1.19-2.01-19.35-2.01-19.35,0,0,11.66.8,11.4-3.96-.27-4.76-9.76-4.31-13.15-4.11-2.6.16-4.26-2.27-4.9-3.4-3.17-13.94-21.1-92.65-21.1-92.65l-6.73,3.34s19.98,90.13,19.98,90.14c.39,1.63-1.1,5.34-3.34,9.89-2.24,4.55-7.86,10.4-5.55,12.47,2.31,2.08,6.81-5.39,6.81-5.39-.81,4.68-1.76,12.6,1.22,12.7,2.98.1,3.99-10.63,3.99-10.63,0,0-.48,19.06,3.68,17.88Z"/>
          <path class="cls-4" d="M17.32,203.33c-3.99-1.29-1.26-22.37-1.26-22.37,0,0-3.94,16.6-7.84,15.3-3.9-1.3,2.66-18.63,2.66-18.63,0,0-11.31.34-10.87-4.25.43-4.59,9.6-3.81,12.86-3.48,2.51.25,4.21-2.03,4.86-3.1,3.59-13.36,23.84-88.78,23.84-88.78l6.38,3.48s-22.67,86.39-22.67,86.39c-.44,1.56.87,5.2,2.86,9.68,2,4.48,7.21,10.34,4.9,12.27-2.31,1.92-6.39-5.46-6.39-5.46.61,4.55,1.23,12.25-1.65,12.23-2.88-.02-3.46-10.42-3.46-10.42,0,0-.24,18.44-4.23,17.15Z"/>
          <g>
            <path class="cls-1" d="M299.78,46.47c0-13.74-11.14-24.88-24.88-24.88H67.12c-13.74,0-24.88,11.14-24.88,24.88v21.57h257.54v-21.57Z"/>
            <path class="cls-1" d="M42.24,171.96c0,13.74,11.14,24.88,24.88,24.88h207.78c13.74,0,24.88-11.14,24.88-24.88v-45.28H42.24v45.28Z"/>
            <rect class="cls-1" x="42.24" y="68.04" width="257.54" height="58.63"/>
          </g>
          <g>
            <rect x="122.57" y="190.67" width="4.21" height="44.28" transform="translate(-29.96 20.66) rotate(-8.46)"/>
            <path d="M119.29,235.53c-2.69.95-5.48,1.5-8.23,1.52-1.66.01-3.32-.14-4.95-.45-7.69-1.46-10.8.91-11.53,3.48-.73,2.56,6.04,3.84,10.8,3.66,4.94-.19,9.91-.91,14.75-1.86,2.89-.57,5.95-1.19,8.65-2.4,3.22-1.45,6.07-4.46,5.84-8.23-.07-1.21-.76-2.46-1.91-2.85-1.15-.38-1.97.25-2.76.97-.99.91-2.14,1.71-3.27,2.45-2.3,1.53-4.79,2.8-7.4,3.72Z"/>
          </g>
          <g>
            <rect x="208.59" y="190.23" width="4.21" height="44.28" transform="translate(431.81 413.88) rotate(177.12)"/>
            <path d="M223.6,235.53c2.69.95,5.48,1.5,8.23,1.52,1.66.01,3.32-.14,4.95-.45,7.69-1.46,10.8.91,11.53,3.48.73,2.56-6.04,3.84-10.8,3.66-4.94-.19-9.91-.91-14.75-1.86-2.89-.57-5.95-1.19-8.65-2.4-3.22-1.45-6.07-4.46-5.84-8.23.07-1.21.76-2.46,1.91-2.85,1.15-.38,1.97.25,2.76.97.99.91,2.14,1.71,3.27,2.45,2.3,1.53,4.79,2.8,7.4,3.72Z"/>
          </g>
          <g>
            <path class="cls-4" d="M297.59,46.47c0-13.74-11.14-24.88-24.88-24.88H64.93c-13.74,0-24.88,11.14-24.88,24.88v21.57h257.54v-21.57Z"/>
            <path class="cls-4" d="M40.05,171.96c0,13.74,11.14,24.88,24.88,24.88h207.78c13.74,0,24.88-11.14,24.88-24.88v-45.28H40.05v45.28Z"/>
            <rect class="cls-5" x="40.05" y="68.04" width="257.54" height="58.63"/>
          </g>
          <path class="cls-1" d="M113.61,15.38c-9.06,8.39-14.89,19.89-17.7,31.91,7.33-3.05,14.99-5.32,22.8-6.75,7.42,9.96,20.89,12.76,33.14,14.84-.81-2.99-1.03-6.15-.62-9.22,13.98.57,28.76,1.38,40.4,9.15,3.92-6.02,11.62-7.99,18.45-10.21,6.83-2.23,14.33-6.27,15.47-13.36.76-4.74-1.75-9.54-5.37-12.7-3.62-3.15-8.21-4.93-12.76-6.46-16.69-5.61-34.19-8.68-51.79-9.15-15.94-.43-29.63.46-42.04,11.95Z"/>
          <path class="cls-1" d="M113.61,15.38c-9.06,8.39-14.89,19.89-17.7,31.91,7.33-3.05,14.99-5.32,22.8-6.75,7.42,9.96,20.89,12.76,33.14,14.84-.81-2.99-1.03-6.15-.62-9.22,13.98.57,28.76,1.38,40.4,9.15,3.92-6.02,11.62-7.99,18.45-10.21,6.83-2.23,14.33-6.27,15.47-13.36.76-4.74-1.75-9.54-5.37-12.7-3.62-3.15-8.21-4.93-12.76-6.46-16.69-5.61-34.19-8.68-51.79-9.15-15.94-.43-29.63.46-42.04,11.95Z"/>
          <path class="cls-3" d="M118.71,40.54c1.64,2.2,3.58,4.05,5.73,5.62-2.81-3.84-5.01-8.14-6.44-12.68-4.43,2.53-9.29,4.28-14.32,5.16-.8.14,5.01-16.85,4.84-17.54-.02-.07-.04-.13-.06-.2-6.16,7.6-10.32,16.83-12.55,26.4,7.33-3.05,14.99-5.32,22.8-6.75Z"/>
          <path class="cls-2" d="M225.56,31.74c.76-4.74-1.75-9.55-5.37-12.7-3.62-3.15-8.21-4.93-12.76-6.46-.35-.12-.71-.23-1.06-.35.97,2.05,2.63,4.4,2.55,6.2-.23,4.55-3.95,6.94-8.39,5.88-2.56-.62-4.78-2.17-6.93-3.7,2.06,4.17,4.17,8.76,3.11,13.29-.99,4.22-4.49,7.32-6.74,11.02-1.45,2.39-2.35,5.09-2.69,7.86,1.49.75,2.95,1.58,4.35,2.52,3.92-6.02,11.62-7.99,18.45-10.21,6.83-2.23,14.33-6.27,15.47-13.36Z"/>
        </g>
        <g>
          <rect x="138.22" y="75.85" width="6.61" height="46" rx="2.78" ry="2.78" transform="translate(112.08 -71.25) rotate(45.25)"/>
          <rect x="138.22" y="75.85" width="6.61" height="46" rx="2.78" ry="2.78" transform="translate(311.62 69.4) rotate(135.25)"/>
        </g>
        <g>
          <rect x="184.62" y="75.95" width="6.61" height="46" rx="2.78" ry="2.78" transform="translate(125.88 -104.17) rotate(45.25)"/>
          <rect x="184.62" y="75.95" width="6.61" height="46" rx="2.78" ry="2.78" transform="translate(391.05 36.91) rotate(135.25)"/>
        </g>
      </g>
    </g>
  </g>
</svg>