<?xml version="1.0" encoding="UTF-8"?>
<svg id="Capa_1" data-name="Capa 1" xmlns="http://www.w3.org/2000/svg" viewBox="0 0 336.29 245.75">
  <defs>
    <style>
      .cls-1 {
        fill: #eea924;
      }

      .cls-2 {
        mix-blend-mode: multiply;
        opacity: .6;
      }

      .cls-2, .cls-3 {
        isolation: isolate;
      }

      .cls-2, .cls-4 {
        fill: #b47600;
      }

      .cls-5 {
        fill: #f8cc77;
      }

      .cls-6 {
        fill: #faf139;
      }
    </style>
  </defs>
  <g class="cls-3">
    <g id="Capa_2" data-name="Capa 2">
      <g id="Layer_3" data-name="Layer 3">
        <g>
          <path class="cls-1" d="M300.77,207.29c2.56-2.08-5.44-16.81-5.44-16.81,0,0,7.63,11.07,10.12,9.01,2.49-2.06-7.26-12.94-7.26-12.94,0,0,8.4-2.98,6.78-6.22-1.63-3.24-8.14-.07-10.45,1.1-1.77.89-3.67-.29-4.46-.89-6.44-8.8-42.81-58.47-42.81-58.47l-3.7,4.37s41.27,57.04,41.28,57.05c.77,1.02.84,4.07.65,7.93-.19,3.86-2.35,9.66-.11,10.41,2.24.76,3.14-5.83,3.14-5.83.85,3.52,2.59,9.36,4.69,8.52,2.12-.83-.42-8.65-.42-8.65,0,0,5.43,13.48,7.99,11.4h0Z"/>
          <path class="cls-1" d="M26.03,200.47c-2.15-2.37,7.65-15.28,7.65-15.28,0,0-8.9,9.48-10.99,7.15-2.09-2.33,8.83-11.32,8.83-11.32,0,0-7.61-4.06-5.58-6.94,2.03-2.87,7.8,1.12,9.84,2.58,1.57,1.11,3.56.25,4.39-.21,7.44-7.48,49.46-49.7,49.46-49.7l2.91,4.72-47.77,48.56c-.88.87-1.4,3.77-1.78,7.49s.84,9.57-1.42,9.97-2.15-6.03-2.15-6.03c-1.32,3.24-3.83,8.57-5.73,7.47s1.66-8.21,1.66-8.21c0,0-7.16,12.11-9.3,9.74h-.02Z"/>
          <g>
            <path class="cls-4" d="M268.31,90.97c0-10.48-8.5-18.98-18.98-18.98H90.87c-10.48,0-18.98,8.5-18.98,18.98v16.45h196.42v-16.45h0Z"/>
            <path class="cls-4" d="M71.89,186.68c0,10.48,8.5,18.98,18.98,18.98h158.46c10.48,0,18.98-8.5,18.98-18.98v-34.54H71.89v34.54Z"/>
            <rect class="cls-4" x="71.89" y="107.42" width="196.42" height="44.72"/>
          </g>
          <g>
            <rect x="133.15" y="200.95" width="3.21" height="33.77" transform="translate(-30.58 22.2) rotate(-8.46)"/>
            <path d="M130.65,235.17c-2.05.72-4.18,1.15-6.28,1.16-1.26,0-2.53-.11-3.78-.35-5.86-1.11-8.23.7-8.79,2.65-.56,1.96,4.6,2.93,8.23,2.79,3.77-.14,7.56-.69,11.25-1.42,2.21-.44,4.54-.91,6.6-1.83,2.45-1.1,4.63-3.4,4.45-6.28-.06-.93-.57-1.88-1.46-2.17-.88-.29-1.5.19-2.11.74-.76.69-1.64,1.3-2.49,1.87-1.75,1.17-3.65,2.13-5.64,2.83h0Z"/>
          </g>
          <g>
            <rect x="198.78" y="200.61" width="3.21" height="33.77" transform="translate(-10.67 10.34) rotate(-2.88)"/>
            <path d="M210.22,235.17c2.05.72,4.18,1.15,6.28,1.16,1.26,0,2.53-.11,3.78-.35,5.86-1.11,8.23.7,8.79,2.65s-4.6,2.93-8.23,2.79c-3.77-.14-7.56-.69-11.25-1.42-2.21-.44-4.54-.91-6.6-1.83-2.45-1.1-4.63-3.4-4.45-6.28.06-.93.57-1.88,1.46-2.17.88-.29,1.5.19,2.11.74.76.69,1.64,1.3,2.49,1.87,1.75,1.17,3.65,2.13,5.64,2.83h0Z"/>
          </g>
          <g>
            <path class="cls-1" d="M266.64,90.97c0-10.48-8.5-18.98-18.98-18.98H89.21c-10.48,0-18.98,8.5-18.98,18.98v16.45h196.42v-16.45Z"/>
            <path class="cls-1" d="M70.23,186.68c0,10.48,8.5,18.98,18.98,18.98h158.46c10.48,0,18.98-8.5,18.98-18.98v-34.54H70.23v34.54Z"/>
            <rect class="cls-5" x="70.23" y="107.42" width="196.42" height="44.72"/>
          </g>
          <path d="M147.81,112.79h0c4.58,0,8.28,3.71,8.28,8.28v15.14c0,4.58-3.71,8.28-8.28,8.28h0c-4.58,0-8.28-3.71-8.28-8.28v-15.14c0-4.58,3.71-8.28,8.28-8.28Z"/>
          <path d="M171.36,112.79h0c4.58,0,8.28,3.71,8.28,8.28v15.14c0,4.58-3.71,8.28-8.28,8.28h0c-4.58,0-8.28-3.71-8.28-8.28v-15.14c0-4.58,3.71-8.28,8.28-8.28Z"/>
          <path class="cls-4" d="M197.11,44.12c-3.82,1.53-7.18,1.99-7.18,1.99,1.84,6.27,8.1,7.18,8.1,7.18-4.58,1.07-5.35,1.22-11.77-6.73-2.27-2.81-5.88-4.4-9.22-5.5-4.14-1.37-8.53-2.06-12.88-2.19-3.77-.11-7.8.13-11.33,1.59-.99.4-1.94.93-2.74,1.64-2.34,2.08-5.08,4.69-8.24,5.47-4.93,1.21-10.36-1.11-14.61-3.41-3.73-2.01-7.37-4.48-10.43-7.43-.58-.56-1.31-1.2-1.64-1.95-1.12-2.57-11.46,5.5-7.49,24.92,3.93,19.2,36.56,23,42.9,12.44,33.76,14.99,63.8,2.93,63.95-13.66.15-16.66-13.6-15.9-17.43-14.37h0Z"/>
          <path class="cls-1" d="M116.8,36.74c-.58-.56-1.31-1.2-1.64-1.95-1.12-2.57-11.46,5.5-7.49,24.92.55,2.7,1.67,5.08,3.2,7.17,0-.44-.02-.94-.07-1.51-.1-1.03-.24-1.78-.28-1.91-2.89-14.65,2.07-21.57,2.07-21.57.82-1.15,2.33-2.87,5.06-4.37-.2-.17-.5-.45-.86-.79Z"/>
          <path class="cls-2" d="M199.63,43.51c.51.44,1.05.87,1.65,1.28,18.03,12.53-11.21,16.49-11.21,16.49,4.62,2.86,10.11,4.18,10.11,4.18-6.15,9.02-30.34,8.13-30.34,8.13,5.07,2.49,9.4,4.19,12.85,5.34,18.62-.53,31.73-9.5,31.83-20.45.13-13.98-9.53-15.69-14.9-14.98h0Z"/>
        </g>
      </g>
    </g>
  </g>
  <g>
    <path class="cls-6" d="M94.33,1.36l1.65,5.08c.26.81,1.02,1.36,1.87,1.36h5.34c1.9,0,2.69,2.43,1.15,3.55l-4.32,3.14c-.69.5-.98,1.38-.71,2.19l1.65,5.08c.59,1.81-1.48,3.31-3.02,2.19l-4.32-3.14c-.69-.5-1.62-.5-2.31,0l-4.32,3.14c-1.54,1.12-3.61-.39-3.02-2.19l1.65-5.08c.26-.81-.03-1.69-.71-2.19l-4.32-3.14c-1.54-1.12-.75-3.55,1.15-3.55h5.34c.85,0,1.6-.55,1.87-1.36l1.65-5.08c.59-1.81,3.14-1.81,3.73,0Z"/>
    <path class="cls-6" d="M124.92,1.36l1.65,5.08c.26.81,1.02,1.36,1.87,1.36h5.34c1.9,0,2.69,2.43,1.15,3.55l-4.32,3.14c-.69.5-.98,1.38-.71,2.19l1.65,5.08c.59,1.81-1.48,3.31-3.02,2.19l-4.32-3.14c-.69-.5-1.62-.5-2.31,0l-4.32,3.14c-1.54,1.12-3.61-.39-3.02-2.19l1.65-5.08c.26-.81-.03-1.69-.71-2.19l-4.32-3.14c-1.54-1.12-.75-3.55,1.15-3.55h5.34c.85,0,1.6-.55,1.87-1.36l1.65-5.08c.59-1.81,3.14-1.81,3.73,0Z"/>
    <path class="cls-6" d="M155.5,1.36l1.65,5.08c.26.81,1.02,1.36,1.87,1.36h5.34c1.9,0,2.69,2.43,1.15,3.55l-4.32,3.14c-.69.5-.98,1.38-.71,2.19l1.65,5.08c.59,1.81-1.48,3.31-3.02,2.19l-4.32-3.14c-.69-.5-1.62-.5-2.31,0l-4.32,3.14c-1.54,1.12-3.61-.39-3.02-2.19l1.65-5.08c.26-.81-.03-1.69-.71-2.19l-4.32-3.14c-1.54-1.12-.75-3.55,1.15-3.55h5.34c.85,0,1.6-.55,1.87-1.36l1.65-5.08c.59-1.81,3.14-1.81,3.73,0Z"/>
    <path class="cls-6" d="M186.09,1.36l1.65,5.08c.26.81,1.02,1.36,1.87,1.36h5.34c1.9,0,2.69,2.43,1.15,3.55l-4.32,3.14c-.69.5-.98,1.38-.71,2.19l1.65,5.08c.59,1.81-1.48,3.31-3.02,2.19l-4.32-3.14c-.69-.5-1.62-.5-2.31,0l-4.32,3.14c-1.54,1.12-3.61-.39-3.02-2.19l1.65-5.08c.26-.81-.03-1.69-.71-2.19l-4.32-3.14c-1.54-1.12-.75-3.55,1.15-3.55h5.34c.85,0,1.6-.55,1.87-1.36l1.65-5.08c.59-1.81,3.14-1.81,3.73,0Z"/>
    <path class="cls-6" d="M216.67,1.36l1.65,5.08c.26.81,1.02,1.36,1.87,1.36h5.34c1.9,0,2.69,2.43,1.15,3.55l-4.32,3.14c-.69.5-.98,1.38-.71,2.19l1.65,5.08c.59,1.81-1.48,3.31-3.02,2.19l-4.32-3.14c-.69-.5-1.62-.5-2.31,0l-4.32,3.14c-1.54,1.12-3.61-.39-3.02-2.19l1.65-5.08c.26-.81-.03-1.69-.71-2.19l-4.32-3.14c-1.54-1.12-.75-3.55,1.15-3.55h5.34c.85,0,1.6-.55,1.87-1.36l1.65-5.08c.59-1.81,3.14-1.81,3.73,0Z"/>
  </g>
</svg>