<?xml version="1.0" encoding="UTF-8"?>
<svg id="Capa_1" data-name="Capa 1" xmlns="http://www.w3.org/2000/svg" viewBox="0 0 336.29 245.75">
  <defs>
    <style>
      .cls-1, .cls-2 {
        fill: #b40023;
      }

      .cls-3 {
        fill: #f8a2b3;
      }

      .cls-4, .cls-2 {
        isolation: isolate;
      }

      .cls-5 {
        fill: #ee3156;
      }

      .cls-6 {
        fill: #faf139;
      }

      .cls-2 {
        mix-blend-mode: multiply;
        opacity: .6;
      }
    </style>
  </defs>
  <g class="cls-4">
    <g id="Capa_2" data-name="Capa 2">
      <g id="Layer_3" data-name="Layer 3">
        <g>
          <path class="cls-5" d="M306.3,210.47c2.65-2.15-5.62-17.36-5.62-17.36,0,0,7.88,11.44,10.45,9.31,2.58-2.13-7.5-13.36-7.5-13.36,0,0,8.68-3.07,7.01-6.42-1.68-3.35-8.41-.07-10.79,1.14-1.83.92-3.8-.3-4.6-.92-6.65-9.09-44.22-60.39-44.22-60.39l-3.82,4.52s42.63,58.92,42.64,58.92c.79,1.05.87,4.2.67,8.19s-2.43,9.98-.11,10.75c2.32.78,3.24-6.02,3.24-6.02.88,3.64,2.67,9.66,4.85,8.8,2.18-.86-.44-8.93-.44-8.93,0,0,5.61,13.93,8.25,11.78h0Z"/>
          <path class="cls-5" d="M22.54,203.43c-2.22-2.45,7.9-15.78,7.9-15.78,0,0-9.19,9.79-11.35,7.38-2.16-2.41,9.12-11.69,9.12-11.69,0,0-7.86-4.2-5.76-7.16,2.1-2.97,8.05,1.16,10.16,2.66,1.62,1.15,3.67.26,4.54-.22,7.69-7.72,51.08-51.33,51.08-51.33l3,4.87-49.34,50.16c-.91.9-1.45,3.89-1.84,7.74s.87,9.89-1.46,10.3-2.22-6.23-2.22-6.23c-1.37,3.35-3.96,8.85-5.92,7.71s1.71-8.48,1.71-8.48c0,0-7.39,12.51-9.61,10.06h-.02Z"/>
          <g>
            <path class="cls-1" d="M272.78,90.33c0-10.82-8.77-19.6-19.6-19.6H89.5c-10.82,0-19.6,8.77-19.6,19.6v16.99h202.87v-16.99h0Z"/>
            <path class="cls-1" d="M69.91,189.19c0,10.82,8.77,19.6,19.6,19.6h163.67c10.83,0,19.6-8.77,19.6-19.6v-35.67H69.91v35.67Z"/>
            <rect class="cls-1" x="69.91" y="107.32" width="202.87" height="46.19"/>
          </g>
          <g>
            <rect x="133.18" y="203.92" width="3.32" height="34.88" transform="translate(-31.1 22.25) rotate(-8.46)"/>
            <path d="M130.6,239.27c-2.12.75-4.32,1.18-6.49,1.2-1.31,0-2.61-.11-3.9-.36-6.05-1.15-8.5.72-9.08,2.74-.57,2.02,4.75,3.03,8.5,2.88,3.89-.15,7.81-.71,11.62-1.47,2.28-.45,4.69-.94,6.82-1.89,2.53-1.14,4.78-3.52,4.6-6.49-.06-.96-.59-1.94-1.51-2.24-.91-.3-1.55.19-2.18.77-.78.71-1.69,1.34-2.58,1.93-1.81,1.21-3.77,2.2-5.82,2.92h0Z"/>
          </g>
          <g>
            <rect x="200.96" y="203.57" width="3.32" height="34.88" transform="translate(-10.85 10.46) rotate(-2.88)"/>
            <path d="M212.78,239.27c2.12.75,4.32,1.18,6.49,1.2,1.31,0,2.61-.11,3.9-.36,6.05-1.15,8.5.72,9.08,2.74s-4.75,3.03-8.5,2.88c-3.89-.15-7.81-.71-11.62-1.47-2.28-.45-4.69-.94-6.82-1.89-2.53-1.14-4.78-3.52-4.6-6.49.06-.96.59-1.94,1.51-2.24.91-.3,1.55.19,2.18.77.78.71,1.69,1.34,2.58,1.93,1.81,1.21,3.77,2.2,5.82,2.92h0Z"/>
          </g>
          <g>
            <path class="cls-5" d="M271.06,90.33c0-10.82-8.77-19.6-19.6-19.6H87.79c-10.82,0-19.6,8.77-19.6,19.6v16.99h202.87v-16.99Z"/>
            <path class="cls-5" d="M68.19,189.19c0,10.82,8.77,19.6,19.6,19.6h163.67c10.83,0,19.6-8.77,19.6-19.6v-35.67H68.19v35.67Z"/>
            <rect class="cls-3" x="68.19" y="107.32" width="202.87" height="46.19"/>
          </g>
          <path d="M148.32,112.87h0c4.73,0,8.56,3.83,8.56,8.56v15.63c0,4.73-3.83,8.56-8.56,8.56h0c-4.73,0-8.56-3.83-8.56-8.56v-15.63c0-4.73,3.83-8.56,8.56-8.56Z"/>
          <path d="M172.65,112.87h0c4.73,0,8.56,3.83,8.56,8.56v15.63c0,4.73-3.83,8.56-8.56,8.56h0c-4.73,0-8.56-3.83-8.56-8.56v-15.63c0-4.73,3.83-8.56,8.56-8.56Z"/>
          <path class="cls-1" d="M199.24,41.94c-3.94,1.58-7.42,2.05-7.42,2.05,1.9,6.48,8.37,7.42,8.37,7.42-4.74,1.11-5.53,1.26-12.16-6.95-2.34-2.9-6.08-4.54-9.52-5.68-4.27-1.41-8.81-2.13-13.3-2.26-3.89-.11-8.06.14-11.7,1.65-1.02.42-2,.96-2.83,1.7-2.42,2.15-5.25,4.85-8.51,5.65-5.09,1.25-10.7-1.15-15.09-3.53-3.85-2.08-7.61-4.62-10.77-7.67-.6-.57-1.35-1.24-1.69-2.01-1.16-2.66-11.84,5.68-7.74,25.74,4.06,19.83,37.76,23.76,44.31,12.85,34.87,15.48,65.9,3.03,66.05-14.11.16-17.21-14.05-16.42-18-14.84h0Z"/>
          <path class="cls-5" d="M116.29,34.32c-.6-.57-1.35-1.24-1.69-2.01-1.16-2.66-11.84,5.68-7.74,25.74.57,2.79,1.72,5.25,3.31,7.41,0-.45-.02-.97-.07-1.56-.1-1.06-.25-1.84-.29-1.98-2.99-15.13,2.14-22.28,2.14-22.28.84-1.18,2.4-2.96,5.22-4.51-.21-.17-.51-.46-.89-.82Z"/>
          <path class="cls-2" d="M201.84,41.31c.52.45,1.09.9,1.71,1.32,18.62,12.94-11.58,17.03-11.58,17.03,4.77,2.95,10.45,4.32,10.45,4.32-6.35,9.31-31.34,8.4-31.34,8.4,5.23,2.58,9.71,4.33,13.28,5.52,19.23-.55,32.77-9.81,32.88-21.12.13-14.44-9.85-16.21-15.39-15.47h0Z"/>
        </g>
      </g>
    </g>
  </g>
  <g>
    <path class="cls-6" d="M96.69,1.36l1.65,5.08c.26.81,1.02,1.36,1.87,1.36h5.34c1.9,0,2.69,2.43,1.15,3.55l-4.32,3.14c-.69.5-.98,1.38-.71,2.19l1.65,5.08c.59,1.81-1.48,3.31-3.02,2.19l-4.32-3.14c-.69-.5-1.62-.5-2.31,0l-4.32,3.14c-1.54,1.12-3.61-.39-3.02-2.19l1.65-5.08c.26-.81-.03-1.69-.71-2.19l-4.32-3.14c-1.54-1.12-.75-3.55,1.15-3.55h5.34c.85,0,1.6-.55,1.87-1.36l1.65-5.08c.59-1.81,3.14-1.81,3.73,0Z"/>
    <path class="cls-6" d="M127.28,1.36l1.65,5.08c.26.81,1.02,1.36,1.87,1.36h5.34c1.9,0,2.69,2.43,1.15,3.55l-4.32,3.14c-.69.5-.98,1.38-.71,2.19l1.65,5.08c.59,1.81-1.48,3.31-3.02,2.19l-4.32-3.14c-.69-.5-1.62-.5-2.31,0l-4.32,3.14c-1.54,1.12-3.61-.39-3.02-2.19l1.65-5.08c.26-.81-.03-1.69-.71-2.19l-4.32-3.14c-1.54-1.12-.75-3.55,1.15-3.55h5.34c.85,0,1.6-.55,1.87-1.36l1.65-5.08c.59-1.81,3.14-1.81,3.73,0Z"/>
    <path class="cls-6" d="M157.87,1.36l1.65,5.08c.26.81,1.02,1.36,1.87,1.36h5.34c1.9,0,2.69,2.43,1.15,3.55l-4.32,3.14c-.69.5-.98,1.38-.71,2.19l1.65,5.08c.59,1.81-1.48,3.31-3.02,2.19l-4.32-3.14c-.69-.5-1.62-.5-2.31,0l-4.32,3.14c-1.54,1.12-3.61-.39-3.02-2.19l1.65-5.08c.26-.81-.03-1.69-.71-2.19l-4.32-3.14c-1.54-1.12-.75-3.55,1.15-3.55h5.34c.85,0,1.6-.55,1.87-1.36l1.65-5.08c.59-1.81,3.14-1.81,3.73,0Z"/>
    <path class="cls-6" d="M188.45,1.36l1.65,5.08c.26.81,1.02,1.36,1.87,1.36h5.34c1.9,0,2.69,2.43,1.15,3.55l-4.32,3.14c-.69.5-.98,1.38-.71,2.19l1.65,5.08c.59,1.81-1.48,3.31-3.02,2.19l-4.32-3.14c-.69-.5-1.62-.5-2.31,0l-4.32,3.14c-1.54,1.12-3.61-.39-3.02-2.19l1.65-5.08c.26-.81-.03-1.69-.71-2.19l-4.32-3.14c-1.54-1.12-.75-3.55,1.15-3.55h5.34c.85,0,1.6-.55,1.87-1.36l1.65-5.08c.59-1.81,3.14-1.81,3.73,0Z"/>
    <path class="cls-6" d="M219.04,1.36l1.65,5.08c.26.81,1.02,1.36,1.87,1.36h5.34c1.9,0,2.69,2.43,1.15,3.55l-4.32,3.14c-.69.5-.98,1.38-.71,2.19l1.65,5.08c.59,1.81-1.48,3.31-3.02,2.19l-4.32-3.14c-.69-.5-1.62-.5-2.31,0l-4.32,3.14c-1.54,1.12-3.61-.39-3.02-2.19l1.65-5.08c.26-.81-.03-1.69-.71-2.19l-4.32-3.14c-1.54-1.12-.75-3.55,1.15-3.55h5.34c.85,0,1.6-.55,1.87-1.36l1.65-5.08c.59-1.81,3.14-1.81,3.73,0Z"/>
  </g>
</svg>