<?xml version="1.0" encoding="UTF-8"?>
<svg id="Capa_1" data-name="Capa 1" xmlns="http://www.w3.org/2000/svg" viewBox="0 0 336.29 245.75">
  <defs>
    <style>
      .cls-1 {
        mix-blend-mode: multiply;
        opacity: .6;
      }

      .cls-1, .cls-2 {
        isolation: isolate;
      }

      .cls-1, .cls-3 {
        fill: #b47600;
      }

      .cls-4 {
        fill: #eea924;
      }

      .cls-5 {
        fill: #f8cc77;
      }
    </style>
  </defs>
  <g id="g13" class="cls-2">
    <g id="Capa_2" data-name="Capa 2">
      <g id="Layer_3" data-name="Layer 3">
        <g id="g12">
          <path id="path1" class="cls-4" d="M330.26,205.22c3.04-2.47-6.46-19.94-6.46-19.94,0,0,9.05,13.14,12.01,10.69,2.96-2.45-8.62-15.35-8.62-15.35,0,0,9.97-3.53,8.05-7.38-1.93-3.85-9.66-.08-12.4,1.31-2.1,1.06-4.36-.35-5.29-1.06-7.64-10.44-50.8-69.37-50.8-69.37l-4.39,5.19s48.97,67.68,48.98,67.69c.91,1.21,1,4.83.77,9.41s-2.79,11.46-.13,12.35c2.66.9,3.72-6.92,3.72-6.92,1.01,4.18,3.07,11.1,5.57,10.11,2.51-.99-.5-10.26-.5-10.26,0,0,6.44,16,9.48,13.53h0Z"/>
          <path id="path2" class="cls-4" d="M4.28,197.13c-2.55-2.81,9.08-18.13,9.08-18.13,0,0-10.56,11.25-13.04,8.48-2.48-2.77,10.48-13.43,10.48-13.43,0,0-9.03-4.82-6.62-8.23,2.41-3.41,9.25,1.33,11.67,3.06,1.86,1.32,4.22.3,5.21-.25,8.83-8.87,58.68-58.97,58.68-58.97l3.45,5.6-56.68,57.62c-1.05,1.03-1.66,4.47-2.11,8.89s1,11.36-1.68,11.83-2.55-7.16-2.55-7.16c-1.57,3.85-4.55,10.17-6.8,8.86s1.97-9.74,1.97-9.74c0,0-8.49,14.37-11.04,11.56h-.02Z"/>
          <g id="g4">
            <path id="path3" class="cls-3" d="M291.75,67.21c0-12.43-10.08-22.52-22.52-22.52H81.21c-12.43,0-22.52,10.08-22.52,22.52v19.52h233.05v-19.52h.01Z"/>
            <path id="path4" class="cls-3" d="M58.7,180.77c0,12.43,10.08,22.52,22.52,22.52h188.02c12.44,0,22.52-10.08,22.52-22.52v-40.98H58.7v40.98Z"/>
            <rect id="rect4" class="cls-3" x="58.7" y="86.73" width="233.05" height="53.06"/>
          </g>
          <g id="g5">
            <rect id="rect5" x="131.38" y="197.7" width="3.81" height="40.07" transform="translate(-30.58 21.98) rotate(-8.46)"/>
            <path id="path5" d="M128.42,238.3c-2.43.86-4.96,1.36-7.45,1.38-1.5,0-3-.13-4.48-.41-6.95-1.32-9.77.83-10.43,3.15-.66,2.32,5.46,3.48,9.77,3.31,4.47-.17,8.97-.82,13.35-1.69,2.62-.52,5.39-1.08,7.83-2.17,2.91-1.31,5.49-4.04,5.28-7.45-.07-1.1-.68-2.23-1.73-2.57-1.04-.35-1.78.22-2.5.88-.9.82-1.94,1.54-2.96,2.22-2.08,1.39-4.33,2.53-6.69,3.36h0Z"/>
          </g>
          <g id="g6">
            <rect id="rect6" x="209.24" y="197.29" width="3.81" height="40.07" transform="translate(-10.65 10.88) rotate(-2.88)"/>
            <path id="path6" d="M222.82,238.3c2.43.86,4.96,1.36,7.45,1.38,1.5,0,3-.13,4.48-.41,6.95-1.32,9.77.83,10.43,3.15s-5.46,3.48-9.77,3.31c-4.47-.17-8.97-.82-13.35-1.69-2.62-.52-5.39-1.08-7.83-2.17-2.91-1.31-5.49-4.04-5.28-7.45.07-1.1.68-2.23,1.73-2.57,1.04-.35,1.78.22,2.5.88.9.82,1.94,1.54,2.96,2.22,2.08,1.39,4.33,2.53,6.69,3.36h0Z"/>
          </g>
          <g id="g8">
            <path id="path7" class="cls-4" d="M289.77,67.21c0-12.43-10.08-22.52-22.52-22.52H79.24c-12.43,0-22.52,10.08-22.52,22.52v19.52h233.05s0-19.52,0-19.52Z"/>
            <path id="path8" class="cls-4" d="M56.72,180.77c0,12.43,10.08,22.52,22.52,22.52h188.02c12.44,0,22.52-10.08,22.52-22.52v-40.98H56.72v40.98Z"/>
            <rect id="rect8" class="cls-5" x="56.72" y="86.73" width="233.05" height="53.06"/>
          </g>
          <path id="rect9" d="M148.78,93.1h0c5.43,0,9.83,4.4,9.83,9.83v17.96c0,5.43-4.4,9.83-9.83,9.83h0c-5.43,0-9.83-4.4-9.83-9.83v-17.96c0-5.43,4.4-9.83,9.83-9.83Z"/>
          <path id="rect10" d="M176.72,93.1h0c5.43,0,9.83,4.4,9.83,9.83v17.96c0,5.43-4.4,9.83-9.83,9.83h0c-5.43,0-9.83-4.4-9.83-9.83v-17.96c0-5.43,4.4-9.83,9.83-9.83Z"/>
          <path id="path10" class="cls-3" d="M207.27,11.62c-4.53,1.81-8.52,2.36-8.52,2.36,2.18,7.44,9.61,8.52,9.61,8.52-5.44,1.27-6.35,1.45-13.97-7.98-2.69-3.33-6.98-5.22-10.94-6.53-4.91-1.62-10.12-2.45-15.28-2.6-4.47-.13-9.26.16-13.44,1.89-1.17.48-2.3,1.1-3.25,1.95-2.78,2.47-6.03,5.57-9.78,6.49-5.85,1.44-12.29-1.32-17.33-4.05-4.42-2.39-8.74-5.31-12.37-8.81-.69-.66-1.55-1.42-1.94-2.31-1.33-3.05-13.6,6.53-8.89,29.57,4.66,22.78,43.38,27.29,50.9,14.76,40.06,17.78,75.7,3.48,75.88-16.21.18-19.77-16.14-18.86-20.68-17.05h0Z"/>
          <path id="path11" class="cls-4" d="M111.98,2.86c-.69-.66-1.55-1.42-1.94-2.31-1.33-3.05-13.6,6.53-8.89,29.57.65,3.2,1.98,6.03,3.8,8.51,0-.52-.02-1.12-.08-1.79-.12-1.22-.29-2.11-.33-2.27-3.43-17.38,2.46-25.59,2.46-25.59.97-1.36,2.76-3.4,6-5.18-.24-.2-.59-.53-1.02-.94Z"/>
          <path id="path12" class="cls-1" d="M210.26,10.89c.6.52,1.25,1.03,1.96,1.52,21.39,14.87-13.3,19.56-13.3,19.56,5.48,3.39,12,4.96,12,4.96-7.3,10.7-36,9.65-36,9.65,6.01,2.96,11.15,4.97,15.25,6.34,22.09-.63,37.65-11.27,37.77-24.26.15-16.59-11.31-18.62-17.68-17.77h0Z"/>
        </g>
      </g>
    </g>
  </g>
  <path id="path11-9" d="M205.93,149.41s-45.52-9.77-73.43,13.26c0,0,5.06-15.17,26.68-19.53,21.63-4.36,43.95,4.53,46.74,6.28h.01Z"/>
</svg>