<?xml version="1.0" encoding="UTF-8"?>
<svg id="Capa_2" data-name="Capa 2" xmlns="http://www.w3.org/2000/svg" viewBox="0 0 462.79 475.44">
  <defs>
    <style>
      .cls-1 {
        fill: #fff;
      }

      .cls-2 {
        fill: #e4002b;
      }

      .cls-3 {
        fill: none;
        stroke: #fff;
        stroke-width: 2.73px;
      }

      .cls-4 {
        fill: #4d4d4f;
      }
    </style>
  </defs>
  <g id="Layer_1" data-name="Layer 1">
    <g>
      <g>
        <g>
          <g>
            <path class="cls-4" d="M244.61,114.16c-3.74,0-7.41-1.03-10.61-2.98-6.95-4.23-10.71-12.11-9.65-20.16.01-.17.03-.33.05-.48.02-.19.03-.37.05-.54.02-.18.09-.9.11-1.08.02-.19.03-.37.05-.55.02-.19.03-.36.05-.54.02-.19.03-.37.05-.54.02-.19.03-.37.05-.54.02-.19.03-.37.05-.54.02-.19.03-.37.05-.54.02-.18.03-.36.05-.53.02-.19.03-.37.05-.55.02-.18.09-.9.11-1.08.02-.19.03-.36.05-.54.02-.19.03-.37.05-.55.02-.18.14-1.44.16-1.62.02-.19.03-.37.05-.55.02-.18.03-.36.05-.54.01-.18.03-.36.05-.54.02-.19.03-.37.06-.56.01-.17.03-.35.05-.53.01-.18.03-.36.05-.54.02-.18.19-1.99.21-2.17.01-.18.03-.36.05-.54.01-.18.03-.36.05-.54.02-.19.03-.37.05-.55.02-.21.04-.41.06-.62.36-3.23,1.39-6.26,3.06-9.02l32.54-53.52c4.03-6.63,11.07-10.59,18.84-10.59,4.03,0,7.98,1.11,11.43,3.21,9.13,5.55,12.94,16.74,9.12,26.7-.08.24-.17.48-.27.72-.08.24-.17.47-.26.71-.08.24-.17.48-.26.72-.08.24-.17.47-.26.71-.08.24-.17.48-.26.71-.08.24-.17.48-.26.71-.08.24-.17.47-.26.71-.08.24-.17.48-.26.72-.08.24-.17.48-.26.71-.08.24-.17.47-.26.71-.08.24-.17.48-.26.71-.08.24-.17.47-.26.71-.08.24-.17.48-.26.72-.08.24-.17.47-.26.71-.08.24-.17.48-.26.71-.08.24-.17.48-.26.71-.08.24-.17.48-.26.72-.08.24-.17.48-.26.71-.08.24-.17.48-.26.71-.08.24-.17.47-.26.71-.08.24-.17.48-.26.71-.08.24-.17.47-.26.71-.08.24-.17.48-.26.72-.08.24-.17.47-.26.71-.08.24-.17.48-.26.72-.08.24-.17.47-.26.71-.08.24-.17.48-.26.71-.08.24-.17.48-.26.72-.08.24-.17.48-.26.71-.08.24-.17.47-.26.71-.08.24-.17.48-.26.71-.08.24-.17.48-.26.72-.08.23-.17.47-.26.7-.48,1.42-1.11,2.76-1.86,3.99l-28.53,46.93c-3.74,6.15-10.27,9.82-17.48,9.82h0Z"/>
            <path class="cls-4" d="M119.27,167.4c-3.91,0-7.72-1.12-11.03-3.25-.15-.09-14.47-8.97-14.62-9.07-5.76-3.5-9.55-9.32-10.41-15.99-1.56-12.05,6.98-23.12,19.02-24.68l62.12-8.03c.94-.12,1.9-.18,2.84-.18,8.79,0,16.71,5.22,20.2,13.3.07.16.13.31.2.47.05.12,4.76,11.47,4.8,11.57.82,1.83,1.37,3.76,1.63,5.75,1.45,11.18-6.47,21.45-17.65,22.89l-54.47,7.04c-.87.11-1.75.17-2.63.17h0Z"/>
            <path class="cls-4" d="M194.69,114.97c-6.95,0-13.35-3.47-17.14-9.29l-29.96-46.03c-.82-1.26-1.5-2.63-2.04-4.09-.1-.23-.19-.47-.27-.7-.1-.23-.19-.47-.27-.7-.1-.23-.19-.47-.27-.7-.1-.23-.19-.47-.27-.7-.1-.23-.19-.47-.27-.71-.1-.23-.19-.47-.27-.7-.1-.23-.19-.47-.27-.71-.1-.23-.19-.47-.27-.7-.1-.23-.19-.47-.27-.7-.1-.23-.19-.47-.27-.71-.1-.23-.19-.47-.27-.7-.1-.23-.19-.47-.28-.71-.1-.23-.19-.47-.27-.7-.1-.23-.19-.47-.27-.7-.1-.23-.19-.47-.27-.7-.1-.23-.19-.47-.27-.71-.1-.23-.19-.47-.27-.7-.1-.23-.19-.47-.27-.7-.1-.23-.19-.47-.27-.7-.1-.23-.19-.47-.27-.7-.1-.23-.19-.47-.27-.7-.1-.23-.19-.47-.28-.71-.1-.23-.19-.47-.27-.7-.1-.23-.19-.47-.27-.7-.1-.23-.19-.47-.27-.7-.1-.23-.19-.47-.27-.71-.1-.23-.19-.47-.27-.71-.1-.23-.19-.47-.27-.71-.1-.23-.19-.47-.27-.7-.1-.23-.19-.47-.27-.7-.1-.24-.19-.47-.28-.71-.1-.23-.19-.47-.27-.7-.1-.23-.19-.47-.27-.7-4.02-9.79-.53-21.03,8.36-26.82,3.59-2.33,7.74-3.57,12.01-3.57,7.49,0,14.4,3.74,18.48,10.02l34.17,52.49c1.98,3.04,3.18,6.55,3.49,10.16.02.18,1.9,16.9,1.91,17.06.03.22.05.41.06.59.86,7.73-2.64,15.15-9.15,19.39-3.33,2.17-7.18,3.31-11.14,3.31h0Z"/>
            <path class="cls-4" d="M321.72,164.12c-.65,0-1.31-.03-1.96-.09l-54.67-5.24c-5.43-.52-10.34-3.13-13.82-7.34s-5.1-9.52-4.58-14.96c.2-2.08.72-4.11,1.54-6.04.05-.12,4.88-12.03,4.92-12.15,3.38-8.38,11.38-13.79,20.41-13.79.7,0,1.41.03,2.11.1l62.35,5.98c12.09,1.16,20.99,11.94,19.83,24.03-.65,6.75-4.28,12.71-9.98,16.4-.16.1-14.53,9.46-14.67,9.55-3.41,2.32-7.38,3.55-11.49,3.55h0Z"/>
          </g>
          <g>
            <g>
              <path class="cls-3" d="M244.61,114.16c-3.74,0-7.41-1.03-10.61-2.98-6.95-4.23-10.71-12.11-9.65-20.16.01-.17.03-.33.05-.48.02-.19.03-.37.05-.54.02-.18.09-.9.11-1.08.02-.19.03-.37.05-.55.02-.19.03-.36.05-.54.02-.19.03-.37.05-.54.02-.19.03-.37.05-.54.02-.19.03-.37.05-.54.02-.19.03-.37.05-.54.02-.18.03-.36.05-.53.02-.19.03-.37.05-.55.02-.18.09-.9.11-1.08.02-.19.03-.36.05-.54.02-.19.03-.37.05-.55.02-.18.14-1.44.16-1.62.02-.19.03-.37.05-.55.02-.18.03-.36.05-.54.01-.18.03-.36.05-.54.02-.19.03-.37.06-.56.01-.17.03-.35.05-.53.01-.18.03-.36.05-.54.02-.18.19-1.99.21-2.17.01-.18.03-.36.05-.54.01-.18.03-.36.05-.54.02-.19.03-.37.05-.55.02-.21.04-.41.06-.62.36-3.23,1.39-6.26,3.06-9.02l32.54-53.52c4.03-6.63,11.07-10.59,18.84-10.59,4.03,0,7.98,1.11,11.43,3.21,9.13,5.55,12.94,16.74,9.12,26.7-.08.24-.17.48-.27.72-.08.24-.17.47-.26.71-.08.24-.17.48-.26.72-.08.24-.17.47-.26.71-.08.24-.17.48-.26.71-.08.24-.17.48-.26.71-.08.24-.17.47-.26.71-.08.24-.17.48-.26.72-.08.24-.17.48-.26.71-.08.24-.17.47-.26.71-.08.24-.17.48-.26.71-.08.24-.17.47-.26.71-.08.24-.17.48-.26.72-.08.24-.17.47-.26.71-.08.24-.17.48-.26.71-.08.24-.17.48-.26.71-.08.24-.17.48-.26.72-.08.24-.17.48-.26.71-.08.24-.17.48-.26.71-.08.24-.17.47-.26.71-.08.24-.17.48-.26.71-.08.24-.17.47-.26.71-.08.24-.17.48-.26.72-.08.24-.17.47-.26.71-.08.24-.17.48-.26.72-.08.24-.17.47-.26.71-.08.24-.17.48-.26.71-.08.24-.17.48-.26.72-.08.24-.17.48-.26.71-.08.24-.17.47-.26.71-.08.24-.17.48-.26.71-.08.24-.17.48-.26.72-.08.23-.17.47-.26.7-.48,1.42-1.11,2.76-1.86,3.99l-28.53,46.93c-3.74,6.15-10.27,9.82-17.48,9.82h0Z"/>
              <path class="cls-3" d="M244.61,114.16c-3.74,0-7.41-1.03-10.61-2.98-6.95-4.23-10.71-12.11-9.65-20.16.01-.17.03-.33.05-.48.02-.19.03-.37.05-.54.02-.18.09-.9.11-1.08.02-.19.03-.37.05-.55.02-.19.03-.36.05-.54.02-.19.03-.37.05-.54.02-.19.03-.37.05-.54.02-.19.03-.37.05-.54.02-.19.03-.37.05-.54.02-.18.03-.36.05-.53.02-.19.03-.37.05-.55.02-.18.09-.9.11-1.08.02-.19.03-.36.05-.54.02-.19.03-.37.05-.55.02-.18.14-1.44.16-1.62.02-.19.03-.37.05-.55.02-.18.03-.36.05-.54.01-.18.03-.36.05-.54.02-.19.03-.37.06-.56.01-.17.03-.35.05-.53.01-.18.03-.36.05-.54.02-.18.19-1.99.21-2.17.01-.18.03-.36.05-.54.01-.18.03-.36.05-.54.02-.19.03-.37.05-.55.02-.21.04-.41.06-.62.36-3.23,1.39-6.26,3.06-9.02l32.54-53.52c4.03-6.63,11.07-10.59,18.84-10.59,4.03,0,7.98,1.11,11.43,3.21,9.13,5.55,12.94,16.74,9.12,26.7-.08.24-.17.48-.27.72-.08.24-.17.47-.26.71-.08.24-.17.48-.26.72-.08.24-.17.47-.26.71-.08.24-.17.48-.26.71-.08.24-.17.48-.26.71-.08.24-.17.47-.26.71-.08.24-.17.48-.26.72-.08.24-.17.48-.26.71-.08.24-.17.47-.26.71-.08.24-.17.48-.26.71-.08.24-.17.47-.26.71-.08.24-.17.48-.26.72-.08.24-.17.47-.26.71-.08.24-.17.48-.26.71-.08.24-.17.48-.26.71-.08.24-.17.48-.26.72-.08.24-.17.48-.26.71-.08.24-.17.48-.26.71-.08.24-.17.47-.26.71-.08.24-.17.48-.26.71-.08.24-.17.47-.26.71-.08.24-.17.48-.26.72-.08.24-.17.47-.26.71-.08.24-.17.48-.26.72-.08.24-.17.47-.26.71-.08.24-.17.48-.26.71-.08.24-.17.48-.26.72-.08.24-.17.48-.26.71-.08.24-.17.47-.26.71-.08.24-.17.48-.26.71-.08.24-.17.48-.26.72-.08.23-.17.47-.26.7-.48,1.42-1.11,2.76-1.86,3.99l-28.53,46.93c-3.74,6.15-10.27,9.82-17.48,9.82h0Z"/>
            </g>
            <g>
              <path class="cls-3" d="M119.27,167.4c-3.91,0-7.72-1.12-11.03-3.25-.15-.09-14.47-8.97-14.62-9.07-5.76-3.5-9.55-9.32-10.41-15.99-1.56-12.05,6.98-23.12,19.02-24.68l62.12-8.03c.94-.12,1.9-.18,2.84-.18,8.79,0,16.71,5.22,20.2,13.3.07.16.13.31.2.47.05.12,4.76,11.47,4.8,11.57.82,1.83,1.37,3.76,1.63,5.75,1.45,11.18-6.47,21.45-17.65,22.89l-54.47,7.04c-.87.11-1.75.17-2.63.17h0Z"/>
              <path class="cls-3" d="M119.27,167.4c-3.91,0-7.72-1.12-11.03-3.25-.15-.09-14.47-8.97-14.62-9.07-5.76-3.5-9.55-9.32-10.41-15.99-1.56-12.05,6.98-23.12,19.02-24.68l62.12-8.03c.94-.12,1.9-.18,2.84-.18,8.79,0,16.71,5.22,20.2,13.3.07.16.13.31.2.47.05.12,4.76,11.47,4.8,11.57.82,1.83,1.37,3.76,1.63,5.75,1.45,11.18-6.47,21.45-17.65,22.89l-54.47,7.04c-.87.11-1.75.17-2.63.17h0Z"/>
            </g>
            <g>
              <path class="cls-3" d="M194.69,114.97c-6.95,0-13.35-3.47-17.14-9.29l-29.96-46.03c-.82-1.26-1.5-2.63-2.04-4.09-.1-.23-.19-.47-.27-.7-.1-.23-.19-.47-.27-.7-.1-.23-.19-.47-.27-.7-.1-.23-.19-.47-.27-.7-.1-.23-.19-.47-.27-.71-.1-.23-.19-.47-.27-.7-.1-.23-.19-.47-.27-.71-.1-.23-.19-.47-.27-.7-.1-.23-.19-.47-.27-.7-.1-.23-.19-.47-.27-.71-.1-.23-.19-.47-.27-.7-.1-.23-.19-.47-.28-.71-.1-.23-.19-.47-.27-.7-.1-.23-.19-.47-.27-.7-.1-.23-.19-.47-.27-.7-.1-.23-.19-.47-.27-.71-.1-.23-.19-.47-.27-.7-.1-.23-.19-.47-.27-.7-.1-.23-.19-.47-.27-.7-.1-.23-.19-.47-.27-.7-.1-.23-.19-.47-.27-.7-.1-.23-.19-.47-.28-.71-.1-.23-.19-.47-.27-.7-.1-.23-.19-.47-.27-.7-.1-.23-.19-.47-.27-.7-.1-.23-.19-.47-.27-.71-.1-.23-.19-.47-.27-.71-.1-.23-.19-.47-.27-.71-.1-.23-.19-.47-.27-.7-.1-.23-.19-.47-.27-.7-.1-.24-.19-.47-.28-.71-.1-.23-.19-.47-.27-.7-.1-.23-.19-.47-.27-.7-4.02-9.79-.53-21.03,8.36-26.82,3.59-2.33,7.74-3.57,12.01-3.57,7.49,0,14.4,3.74,18.48,10.02l34.17,52.49c1.98,3.04,3.18,6.55,3.49,10.16.02.18,1.9,16.9,1.91,17.06.03.22.05.41.06.59.86,7.73-2.64,15.15-9.15,19.39-3.33,2.17-7.18,3.31-11.14,3.31h0Z"/>
              <path class="cls-3" d="M194.69,114.97c-6.95,0-13.35-3.47-17.14-9.29l-29.96-46.03c-.82-1.26-1.5-2.63-2.04-4.09-.1-.23-.19-.47-.27-.7-.1-.23-.19-.47-.27-.7-.1-.23-.19-.47-.27-.7-.1-.23-.19-.47-.27-.7-.1-.23-.19-.47-.27-.71-.1-.23-.19-.47-.27-.7-.1-.23-.19-.47-.27-.71-.1-.23-.19-.47-.27-.7-.1-.23-.19-.47-.27-.7-.1-.23-.19-.47-.27-.71-.1-.23-.19-.47-.27-.7-.1-.23-.19-.47-.28-.71-.1-.23-.19-.47-.27-.7-.1-.23-.19-.47-.27-.7-.1-.23-.19-.47-.27-.7-.1-.23-.19-.47-.27-.71-.1-.23-.19-.47-.27-.7-.1-.23-.19-.47-.27-.7-.1-.23-.19-.47-.27-.7-.1-.23-.19-.47-.27-.7-.1-.23-.19-.47-.27-.7-.1-.23-.19-.47-.28-.71-.1-.23-.19-.47-.27-.7-.1-.23-.19-.47-.27-.7-.1-.23-.19-.47-.27-.7-.1-.23-.19-.47-.27-.71-.1-.23-.19-.47-.27-.71-.1-.23-.19-.47-.27-.71-.1-.23-.19-.47-.27-.7-.1-.23-.19-.47-.27-.7-.1-.24-.19-.47-.28-.71-.1-.23-.19-.47-.27-.7-.1-.23-.19-.47-.27-.7-4.02-9.79-.53-21.03,8.36-26.82,3.59-2.33,7.74-3.57,12.01-3.57,7.49,0,14.4,3.74,18.48,10.02l34.17,52.49c1.98,3.04,3.18,6.55,3.49,10.16.02.18,1.9,16.9,1.91,17.06.03.22.05.41.06.59.86,7.73-2.64,15.15-9.15,19.39-3.33,2.17-7.18,3.31-11.14,3.31h0Z"/>
            </g>
            <g>
              <path class="cls-3" d="M321.72,164.12c-.65,0-1.31-.03-1.96-.09l-54.67-5.24c-5.43-.52-10.34-3.13-13.82-7.34s-5.1-9.52-4.58-14.96c.2-2.08.72-4.11,1.54-6.04.05-.12,4.88-12.03,4.92-12.15,3.38-8.38,11.38-13.79,20.41-13.79.7,0,1.41.03,2.11.1l62.35,5.98c12.09,1.16,20.99,11.94,19.83,24.03-.65,6.75-4.28,12.71-9.98,16.4-.16.1-14.53,9.46-14.67,9.55-3.41,2.32-7.38,3.55-11.49,3.55h0Z"/>
              <path class="cls-3" d="M321.72,164.12c-.65,0-1.31-.03-1.96-.09l-54.67-5.24c-5.43-.52-10.34-3.13-13.82-7.34s-5.1-9.52-4.58-14.96c.2-2.08.72-4.11,1.54-6.04.05-.12,4.88-12.03,4.92-12.15,3.38-8.38,11.38-13.79,20.41-13.79.7,0,1.41.03,2.11.1l62.35,5.98c12.09,1.16,20.99,11.94,19.83,24.03-.65,6.75-4.28,12.71-9.98,16.4-.16.1-14.53,9.46-14.67,9.55-3.41,2.32-7.38,3.55-11.49,3.55h0Z"/>
            </g>
          </g>
        </g>
        <g>
          <rect class="cls-2" x="251.35" y="4.54" width="25.86" height="88.5" rx="12.93" ry="12.93" transform="translate(63.81 -130.2) rotate(31.3)"/>
          <rect class="cls-2" x="161.04" y="5.97" width="25.86" height="88.5" rx="12.93" ry="12.93" transform="translate(.77 103.03) rotate(-33.06)"/>
          <rect class="cls-2" x="123.19" y="88" width="25.86" height="88.5" rx="12.93" ry="12.93" transform="translate(22.42 284.21) rotate(-97.37)"/>
          <rect class="cls-2" x="291.82" y="85.29" width="25.86" height="88.5" rx="12.93" ry="12.93" transform="translate(462.78 -161.46) rotate(95.47)"/>
        </g>
      </g>
      <g>
        <g>
          <g>
            <path class="cls-1" d="M161.21,207.52c-9.54,0-17.85-5.65-21.35-14.44-.1-.22-.19-.43-.27-.65-.1-.22-.19-.44-.28-.66-.1-.22-.19-.44-.28-.66-.1-.23-.19-.45-.28-.68-.09-.22-.18-.43-.27-.65-.1-.23-.19-.45-.28-.68-.09-.22-.19-.43-.27-.65-.1-.23-.19-.45-.28-.67-.09-.22-.19-.44-.27-.65-.1-.22-.19-.45-.28-.67-.1-.22-.19-.44-.28-.66-.1-.22-.19-.44-.28-.66-.1-.22-.19-.44-.28-.67-.1-.22-.19-.44-.28-.67-.1-.22-.19-.44-.27-.66-.1-.22-.19-.45-.28-.67-.1-.22-.19-.45-.28-.67-1.4-3.23-2.06-6.67-1.96-10.23l1.99-73.08c0-.22.02-.44.03-.66l.17-6.09c.37-13.16,10.68-23.99,23.48-24.69,22.21-1.21,44.75-1.82,67-1.82,19.29,0,38.84.46,58.12,1.37,12.88.61,23.23,11.43,23.56,24.64l1.91,79.62c0,.18,0,.36,0,.54.04,3.44-.62,6.77-1.99,9.91-.09.22-.18.45-.28.67-.09.22-.18.45-.28.67-.09.22-.18.44-.28.66-.09.22-.18.44-.28.66-.09.22-.18.45-.28.67-.09.22-.18.44-.27.66-.09.22-.18.45-.28.67-.09.22-.18.44-.28.66-.09.22-.18.44-.28.67-.09.22-.18.44-.28.66-.09.23-.19.45-.29.68-.09.22-.18.44-.28.66-.09.22-.18.44-.28.67-.09.22-.18.44-.28.67-.09.22-.18.44-.28.67-.09.22-.18.44-.28.67-.09.21-.18.43-.27.64-3.52,8.81-11.86,14.47-21.42,14.47h0c-.34,0-.68,0-1.02-.02-18.04-.78-36.34-1.18-54.4-1.18-21.07,0-42.42.54-63.46,1.61-.4.02-.8.03-1.2.03Z"/>
            <path class="cls-4" d="M161.21,204.12c-8.15,0-15.24-4.83-18.21-12.34-.1-.22-.19-.43-.27-.65-.1-.22-.19-.44-.28-.67-.1-.22-.19-.44-.28-.66-.1-.22-.19-.45-.28-.67-.1-.22-.19-.44-.28-.66-.1-.22-.19-.45-.28-.67-.1-.22-.19-.44-.27-.66-.1-.22-.19-.44-.28-.67-.1-.22-.19-.44-.28-.67-.1-.22-.19-.44-.28-.66-.1-.22-.19-.44-.28-.66-.1-.22-.19-.44-.28-.67-.1-.22-.19-.44-.28-.66-.1-.22-.19-.44-.28-.67-.09-.22-.19-.44-.27-.66-.1-.23-.19-.45-.28-.67-.1-.22-.19-.44-.28-.66-1.21-2.79-1.79-5.76-1.7-8.84l1.99-73.08c0-.19.02-.39.03-.58l.17-6.2c.32-11.38,9.22-20.76,20.26-21.36,22.15-1.2,44.63-1.82,66.81-1.82,19.24,0,38.74.46,57.96,1.37,11.11.52,20.03,9.89,20.31,21.32l1.91,79.61c0,.15,0,.31,0,.46.04,2.99-.54,5.88-1.73,8.6-.09.23-.18.45-.28.67-.09.22-.18.45-.28.67-.09.22-.18.44-.28.66-.09.22-.18.44-.28.66-.09.22-.18.45-.28.67-.09.22-.18.44-.27.65-.09.22-.18.45-.28.67-.09.22-.18.44-.28.66-.09.22-.18.44-.28.67-.09.22-.18.44-.28.66-.09.23-.18.45-.28.68-.09.22-.18.44-.28.66-.09.22-.18.44-.28.67-.09.22-.18.44-.28.67-.09.22-.18.44-.28.67-.09.22-.18.44-.28.66-.09.22-.18.44-.28.66-2.99,7.54-10.11,12.38-18.28,12.38h0c-.29,0-.58,0-.88-.02-18.09-.79-36.44-1.19-54.55-1.19-21.12,0-42.53.54-63.63,1.61-.34.02-.69.03-1.02.03Z"/>
          </g>
          <g>
            <path class="cls-1" d="M294.7,171.22c-48.88-2.68-97.89-2.5-146.75.53.66-24.28,1.32-48.56,1.98-72.84,47.63-2.96,95.38-3.13,143.03-.52.58,24.28,1.17,48.55,1.75,72.83Z"/>
            <g>
              <path class="cls-2" d="M292.79,91.61c.08,3.46.17,6.91.25,10.37-47.7-2.61-95.51-2.44-143.2.52.09-3.46.19-6.91.28-10.37.15-5.41,4.42-10.06,9.54-10.34,41.17-2.24,82.43-2.39,123.62-.45,5.12.24,9.38,4.86,9.51,10.27Z"/>
              <path class="cls-2" d="M149.3,121.84c-.45,16.72-.91,33.43-1.36,50.15-.15,5.39,4.05,9.53,9.34,9.24,42.65-2.32,85.39-2.47,128.05-.46,5.29.25,9.5-3.92,9.37-9.31-.4-16.71-.8-33.42-1.2-50.14-48.03-2.63-96.18-2.46-144.2.52ZM194.37,159c-.02,1.83-1.47,3.3-3.22,3.35-7.42.21-14.84.48-22.26.81-1.75.08-3.15-1.29-3.11-3.12.08-3.91.16-7.82.25-11.72.04-1.8,1.49-3.33,3.23-3.41,7.37-.33,14.74-.6,22.11-.81,1.74-.05,3.15,1.39,3.13,3.18-.04,3.91-.09,7.81-.13,11.72Z"/>
            </g>
          </g>
          <g>
            <path class="cls-1" d="M279.56,149.11c3.58,2.98,7.29,6.01,11.14,9.11-.81,2.37-1.66,4.73-2.53,7.11-2.76-.11-5.52-.18-8.29-.22-.11-5.33-.21-10.67-.32-16Z"/>
            <path class="cls-1" d="M278.08,143.9c-5.94,1.65-12.02,3.46-18.23,5.46-.19,2.86-.38,5.73-.57,8.59,6.5-3.03,12.8-5.87,18.87-8.53-.03-1.84-.05-3.68-.08-5.52Z"/>
            <path class="cls-1" d="M278.18,151c-6.12,2.67-12.45,5.5-19,8.54-.21,3.17-.42,6.34-.63,9.51,6.88-4.19,13.45-8.17,19.71-11.98-.03-2.02-.06-4.05-.08-6.07Z"/>
            <path class="cls-1" d="M273.01,172.38c4.41-.02,8.82.03,13.22.17-.09-1.95-.17-3.9-.26-5.85-2.21-.07-4.42-.12-6.63-.15-2.06,1.92-4.18,3.86-6.34,5.82Z"/>
            <path class="cls-1" d="M278.29,158.79c-6.31,3.81-12.93,7.79-19.85,11.98-.04.67-.09,1.34-.13,2.01,4.15-.2,8.31-.32,12.47-.37,2.61-2.36,5.14-4.69,7.61-7-.03-2.21-.06-4.41-.09-6.62Z"/>
          </g>
        </g>
        <g>
          <path class="cls-4" d="M429.59,471.51l-5.91-.89c-8.85-1.3-17.85-2.53-26.73-3.66l-8.12-1.03-4.27-12.72-8.43,10.51-.21,1.09-1.61-.22-8.97-1.26-.88-.09c-5.95-.61-12-1.19-18.02-1.72v.24h-.1s0,.1,0,.1l-9.5-1.17-4.69-.37c-8.51-.67-17.14-1.26-25.64-1.77l-11.95-.71-.95-36.39c-2.95,8.98-5.91,17.89-8.81,26.59l-3.09,9.23-9.73-.33c-9.5-.32-19.16-.55-28.71-.67l-9.07-.12-3.05-8.54c-3.38-9.47-6.76-19.02-10.09-28.51l-.21,37-12.8.17c-4.97.06-10.02.16-15.03.28l-23.15.75c-7.72.32-15.51.71-23.15,1.15l-8.06.47v-.02s-10.87.78-10.87.78c-8.37.6-16.88,1.3-25.29,2.06l-3.72.34-10.21,1.16-4.43-6.68-.34,6.97-11.02,1.25c-8.43.95-16.99,2-25.43,3.12l-4.56.6-9.68,1.55-13.71-12.41.54-7.5,2.2-35.73-5.86.86-14.52-16.69,1.1-12.52,1.26-18.45h-.02s.03-.45.03-.45h0s.07-2.16.07-2.16l.7-9.15,10.57-154.73,10.26-1.63c21.36-3.38,43.09-6.26,64.6-8.55,3.61-.37,7.12-.56,10.41-.56,26.41,0,44.01,12.41,48.29,34.05l2.07,11.07,1.65,8.79,1.39,7.33c.48,2.35.78,4.82.89,7.37,7.3-22.01,14.47-44.03,21.37-65.62l2.81-8.8,9.23-.27c12.42-.36,25-.55,37.41-.55,6.27,0,12.65.05,18.95.14l9.43.14,2.82,9c6.27,19.98,12.82,40.49,19.5,61.06l.43-2.61.34-2.05c6.3-37.26,34.72-61.33,72.41-61.33,3.1,0,6.28.17,9.45.5,43.95,4.64,72.93,31.68,79.52,74.2l.65,4.22,2.28,11.85-4.16,7.25,5.29.84.08,11.06c.1,13.6-2.96,25.34-9.09,34.91l-.31.5-.79,1.22-.58.91-.06.09-1.49,2.32-.06.1-.18.28-.11.17-.64.99-1.53,2.38-.06.1-1.53,2.36-.08.12-1.63,2.51-.05.08-.31.47-.2.31-.85,1.3-.24.38-.29.43-.04.07-.49.75-.85,1.31-.34.52c-.44.69-.92,1.38-1.4,2.05l.65,1.79c10.28,28.18,20.96,56.98,31.76,85.6l.89,2.35,7.69,17.25-17.51,11.99-13.56-2.14Z"/>
          <path class="cls-1" d="M225.86,185.49c6.28,0,12.65.05,18.92.14l8.2.12,2.45,7.83c7,22.34,14.24,44.95,21.66,67.69l.11-.66.27-1.62.1-.58v.04s.04-.28.04-.28v.09s.93-5.66.93-5.66l.15-.88v.06s.15-.95.15-.95l.04-.22.14-.88c6.16-36.39,33.92-59.91,70.73-59.91,3.04,0,6.16.17,9.27.49,43.13,4.55,71.56,31.07,78.01,72.76l.65,4.22,2.17,11.29-4.92,8.57.05.3,6.1.97.07,9.62c.1,13.26-2.87,24.69-8.82,33.98l-.32.51s-.75,1.16-.77,1.19l-.06.1-.52.82-.06.08-.05.08-1.44,2.24-.09.14s-.13.2-.15.22l-.13.21-.62.95-1.53,2.38-.08.14-.59.9-.92,1.42-.09.15-1.61,2.48-.08.14-.24.36-.04.05v.02s-.21.31-.21.31l-.83,1.27-.25.4-.27.41-.08.13-.37.56-.03.05-.05.07s-.86,1.34-.86,1.34l-.33.51c-.6.93-1.23,1.84-1.89,2.72l.97,2.65c10.27,28.16,20.96,56.96,31.77,85.61l.9,2.39,7.14,16-15.78,10.81-12.89-2.03-5.92-.89c-8.88-1.3-17.89-2.54-26.77-3.66l-7.06-.89s-3.68-10.96-4.39-13.07c-.55-.06-1.1-.13-1.66-.19l-9.46,11.79h-.05s0,0,0,0l-8.97-1.26-.94-.1c-6.59-.68-13.27-1.31-19.9-1.89v.17h-.1s0,.1,0,.1l-7.6-.94-4.76-.38c-8.49-.67-17.13-1.26-25.67-1.77l-10.4-.62-1.16-44.65c-3.92,11.98-7.88,23.98-11.87,35.92l-2.68,8.03-8.46-.29c-9.53-.32-19.2-.55-28.75-.67l-7.89-.1-2.65-7.43c-4.48-12.57-8.94-25.19-13.34-37.77l-.26,45.16-11.13.15c-4.99.07-10.02.16-15.04.28l-23.17.76c-7.73.32-15.52.71-23.19,1.15l-7.01.41-1.65-2.88-.09,2.97-10.2.74c-8.4.61-16.91,1.3-25.32,2.07l-3.72.34-9.22,1.05-6.71-10.11h-.01s-.53,10.68-.53,10.68l-9.58,1.08c-8.44.96-17.01,2.01-25.46,3.12l-4.56.6-8.92,1.43-12.49-11.3.48-6.67,2.32-37.84-7.02,1.03-13.43-15.44,1.04-11.8,1.42-20.83h0s.02-.27.02-.27l-.09.02.7-9.15,10.48-153.4,8.93-1.41c21.34-3.38,43.05-6.25,64.51-8.54,3.57-.37,7-.55,10.23-.55,25.52,0,42.52,11.91,46.62,32.68l.09.47.05.26.78,4.2v-.02s1.14,6.14,1.14,6.14v-.03s.77,4.12.77,4.12l.18.94.71,3.76v-.02s1.39,7.35,1.39,7.35c.7,3.47,1.01,7.18.9,11.03l-.02.73c-.09,3.11-.44,6.09-1.06,8.93,8.84-26.46,17.44-52.79,25.74-78.73l2.45-7.65,8.03-.23c12.4-.36,24.97-.55,37.36-.55M225.86,182.09c-12.43,0-25.03.18-37.46.55l-8.03.23-2.41.07-.73,2.29-2.45,7.65c-6.15,19.24-12.51,38.8-18.99,58.4l-1.37-7.27h0l-.71-3.76-.18-.94-.77-4.08h0s-1.14-6.12-1.14-6.12h0s-.78-4.2-.78-4.2l-.05-.26-.09-.47c-2.2-11.1-7.96-20.18-16.67-26.29-8.68-6.08-19.88-9.17-33.3-9.17-3.35,0-6.91.19-10.58.57-21.54,2.29-43.3,5.18-64.69,8.56l-8.93,1.41-2.68.42-.18,2.7L3.2,355.8l-.7,9.12-.33,4.35.09-.02-.03.44h.05s-1.11,16.3-1.11,16.3l-1.03,11.77-.13,1.44.95,1.09,13.43,15.44,1.22,1.4,1.84-.27,2.87-.42-2.07,33.65-.48,6.63-.12,1.66,1.23,1.11,12.49,11.3,1.21,1.1,1.61-.26,8.88-1.42,4.52-.6c8.43-1.12,16.98-2.16,25.4-3.12l9.58-1.08,2.87-.33.14-2.89.02-.35.99,1.5,1.15,1.74,2.07-.24,9.18-1.04,3.68-.33c8.39-.76,16.89-1.46,25.26-2.06l9.79-.71h0s2.1-.12,2.1-.12l7.01-.41c7.66-.45,15.45-.83,23.14-1.15l23.14-.75c4.95-.12,10-.21,14.98-.28l11.13-.15,3.34-.04.02-3.34.15-25.55c2.27,6.44,4.56,12.89,6.85,19.29l2.65,7.43.8,2.23,2.37.03,7.89.1c9.54.12,19.19.35,28.67.67l8.46.29,2.54.09.8-2.41,2.68-8.03c1.9-5.68,3.82-11.46,5.75-17.3l.65,25.05.08,3.12,3.12.19,10.4.62c8.51.51,17.13,1.1,25.61,1.76l4.68.37,7.52.93,3.82.47v-.12h.1s0-.29,0-.29c5.41.49,10.83,1.01,16.15,1.56l.88.09,8.9,1.25.46.06,1.44.22h.01s1.15.15,1.15.15l.52-2.17,6.28-7.83c1.3,3.88,2.94,8.76,2.94,8.76l.68,2.02,2.12.27,7.06.89c8.86,1.12,17.84,2.35,26.7,3.65l5.91.89,12.87,2.03,1.34.21,1.12-.76,15.78-10.81,2.34-1.6-1.16-2.59-7.09-15.91-.87-2.3c-10.78-28.58-21.47-57.37-31.76-85.58l-.35-.95c.32-.46.63-.93.94-1.4l.31-.48s.82-1.27.87-1.36l.02-.04.03-.04h0s.01-.02.01-.02l.37-.56.04-.06.04-.06.04-.07.23-.35.02-.03.02-.03.25-.4.8-1.23.02-.03.02-.03.2-.31.02-.04.21-.31.05-.08.05-.08.05-.08,1.57-2.43.02-.03.02-.03.07-.12.9-1.39.58-.89.03-.04.03-.04.06-.1,1.51-2.35.61-.94.02-.04.02-.04.1-.16.1-.15.05-.08.05-.08.06-.1,1.41-2.19.04-.06v-.02s.03-.03.03-.03l.04-.06.52-.82.04-.06.03-.06.03-.04c.2-.3.73-1.13.73-1.13l.34-.55c6.3-9.82,9.45-21.88,9.35-35.81l-.07-9.62-.02-2.88-2.85-.45-1.42-.23,2.62-4.56.63-1.1-.24-1.24-2.16-11.23-.64-4.16c-3.33-21.52-12.18-39.11-26.3-52.28-14.1-13.15-32.51-21.01-54.72-23.35-3.23-.34-6.47-.51-9.63-.51-37.83,0-66.54,23.71-73.7,60.6-5.95-18.37-11.77-36.64-17.36-54.47l-2.45-7.83-.74-2.35-2.46-.04-8.2-.12c-6.29-.09-12.67-.14-18.97-.14h0Z"/>
        </g>
        <g>
          <path class="cls-1" d="M27.76,212.54c21.26-3.37,42.58-6.19,63.94-8.46,33.33-3.45,45.82,11.69,45.23,32.11,0,.26-.02.52-.02.77-.47,16.08-9.31,26.67-25.01,31.71,16.19,1.47,27.4,10.82,26.85,30.16,0,.26-.02.52-.02.77-.66,24.67-17.23,39.28-53.85,43.08-22.25,2.38-44.46,5.32-66.61,8.83,3.16-46.33,6.33-92.65,9.49-138.98ZM79.92,259.17c10.82-1.22,15.23-5.3,15.61-13.83.01-.26.02-.52.03-.78.37-8.32-3.86-11.98-14.58-10.77-4.34.49-8.67,1.01-13.01,1.55-.46,8.47-.91,16.94-1.37,25.41,4.44-.55,8.87-1.08,13.31-1.59ZM77.76,314.74c11.42-1.28,16.96-7.01,17.36-16.32.01-.26.02-.52.03-.78.39-9.09-4.46-13.67-16.92-12.26-4.35.5-8.7,1.02-13.04,1.56-.53,9.83-1.06,19.66-1.59,29.49,4.72-.59,9.44-1.15,14.16-1.68Z"/>
          <path class="cls-1" d="M188.82,197.49c18.59-.54,37.19-.68,55.79-.4,14.52,46.29,29.71,92.83,45.58,139.65-15.95-.77-31.91-1.26-47.87-1.46-2.24-7.7-4.46-15.39-6.66-23.07-14.92-.11-29.84.03-44.75.43-2.2,7.73-4.42,15.46-6.65,23.19-14.03.44-28.05,1.1-42.07,1.99,16.22-47.06,31.77-93.83,46.64-140.33ZM199.68,282.66c9.21-.19,18.43-.27,27.64-.26-4.58-16.7-9.09-33.37-13.52-50.02-4.63,16.73-9.34,33.49-14.13,50.28Z"/>
          <path class="cls-1" d="M289.13,268.48c-.01-.52-.02-1.03-.03-1.55-.75-42.69,28.9-69.4,68.73-65.21,36.5,3.85,62.08,25.04,67.99,63.22-14.99-2.35-30-4.44-45.04-6.26-2.03-12.96-9.1-20.98-21.17-22.25-15.7-1.64-24.85,10-24,33.42.02.52.04,1.03.06,1.55.83,23.06,10.76,36.56,28.08,38.37,12.59,1.33,21.29-3.93,22.08-17.71,14.69,1.82,29.35,3.88,43.98,6.2.27,36.23-25.77,50.9-63.45,46.89-51.49-5.28-76.47-34.14-77.23-76.67Z"/>
        </g>
        <g>
          <path class="cls-2" d="M37.22,381.68c-7.08,1-14.14,2.07-21.21,3.18.45-6.64.91-13.28,1.36-19.92,22.96-3.64,45.99-6.67,69.07-9.1-.3,6.62-.61,13.24-.91,19.86-7.14.75-14.27,1.56-21.4,2.42-1.09,20.6-2.17,41.19-3.26,61.79-9.16,1.11-18.31,2.32-27.45,3.62,1.27-20.62,2.53-41.24,3.8-61.86Z"/>
          <path class="cls-2" d="M96.44,354.84c11.45-1.12,22.91-2.09,34.37-2.9,23.19-1.63,35.05,6.98,34.73,24.38,0,.15,0,.3,0,.46-.22,11.28-6.32,17.91-14.91,22.03,6.24,10.73,12.55,21.5,18.93,32.31-9.61.4-19.22.89-28.82,1.49-5.11-8.97-10.17-17.91-15.19-26.83-1.44.11-2.88.22-4.31.33-.31,9.31-.63,18.62-.94,27.93-9.11.7-18.21,1.5-27.31,2.39,1.16-27.19,2.31-54.38,3.47-81.57ZM128.11,388.98c7.51-.54,11.18-3.72,11.34-9.65,0-.15,0-.3.01-.46.16-5.92-3.45-7.98-10.68-7.46-2.13.15-4.27.31-6.4.48-.2,5.85-.4,11.7-.59,17.56,2.11-.16,4.21-.32,6.32-.47Z"/>
          <path class="cls-2" d="M180.46,349.32c9.01-.31,18.01-.52,27.02-.65-.16,27.14-.33,54.27-.49,81.41-9.25.13-18.5.35-27.75.66.41-27.14.81-54.28,1.22-81.43Z"/>
          <path class="cls-2" d="M216.69,348.57c9.64-.07,19.28-.03,28.92.11,5.35,18.26,10.79,36.55,16.33,54.87,5.11-18.04,10.13-36.05,15.06-54.03,8.34.32,16.67.72,25,1.2-8.4,26.64-17.04,53.35-25.93,80.15-10.34-.38-20.68-.64-31.02-.79-9.7-27.27-19.15-54.44-28.36-81.51Z"/>
          <path class="cls-2" d="M311.08,351.27c9,.58,17.99,1.24,26.97,2,1,27.18,2.01,54.35,3.01,81.53-9.23-.78-18.46-1.47-27.7-2.06-.76-27.16-1.52-54.32-2.28-81.48Z"/>
          <path class="cls-2" d="M373.69,356.77c11.47,1.28,22.94,2.71,34.38,4.29,10.38,28.45,20.98,57.03,31.81,85.73-9.61-1.52-19.22-2.94-28.85-4.25-1.59-4.72-3.18-9.43-4.76-14.14-9.03-1.21-18.07-2.32-27.12-3.35-1.06,4.38-2.12,8.77-3.19,13.15-8.49-.94-16.98-1.79-25.48-2.57,7.98-26.36,15.71-52.64,23.2-78.87ZM383.43,408.06c5.61.66,11.22,1.35,16.82,2.08-3.34-10.23-6.65-20.44-9.94-30.64-2.27,9.52-4.56,19.04-6.89,28.57Z"/>
        </g>
      </g>
    </g>
  </g>
</svg>